<svg width="217" height="35" viewBox="0 0 217 35" fill="none" xmlns="http://www.w3.org/2000/svg">
<g clip-path="url(#clip0_4_99)">
<path d="M33.3353 19.3605C32.8979 23.3054 31.0844 26.9674 28.2164 29.6971C25.3485 32.4268 21.6112 34.0479 17.6672 34.273C13.7233 34.4981 9.82742 33.3126 6.67027 30.9268C3.51312 28.5411 1.29861 25.109 0.419395 21.2391C-0.459826 17.3692 0.0530069 13.3116 1.86699 9.78546C3.68096 6.25929 6.6789 3.49242 10.3293 1.97537C13.9798 0.458321 18.0468 0.289075 21.8096 1.49766C25.5723 2.70624 28.7876 5.21456 30.8855 8.57795L25.6427 12.3199C23.2901 8.82428 20.0078 7.15041 16.6762 7.15041C11.2375 7.15041 6.97475 11.7785 6.97475 17.4898C6.97475 23.2012 11.2865 27.7801 16.6762 27.7801C21.5271 27.7801 25.5933 24.234 26.5248 19.3607L33.3353 19.3605Z" fill="#514C43"/>
<path d="M59.0266 22.8281C59.0266 29.0812 53.7837 34.2999 47.5121 34.2999C45.2583 34.2805 43.0606 33.5913 41.196 32.319C39.3314 31.0467 37.8832 29.2482 37.034 27.1503C36.1847 25.0524 35.9726 22.7489 36.4242 20.5299C36.8756 18.311 37.9706 16.2761 39.5712 14.6814C41.1717 13.0868 43.2061 12.0039 45.4182 11.5692C47.6302 11.1345 49.9207 11.3674 52.0012 12.2385C54.0817 13.1097 55.8591 14.5802 57.1092 16.4646C58.3594 18.3491 59.0266 20.5632 59.0266 22.8281ZM52.7061 22.8281C52.731 22.1273 52.6129 21.4288 52.3589 20.7756C52.105 20.1225 51.7207 19.5285 51.2295 19.0303C50.7384 18.5321 50.151 18.1402 49.5035 17.8788C48.856 17.6176 48.162 17.4922 47.4643 17.5106C44.6716 17.5106 42.3687 19.7263 42.3687 22.8281C42.3687 25.9791 44.6716 28.1455 47.4643 28.1455C48.1619 28.1639 48.8558 28.0385 49.5034 27.7771C50.1508 27.5157 50.7383 27.1239 51.2293 26.6256C51.7204 26.1275 52.1047 25.5335 52.3587 24.8804C52.6125 24.2273 52.7311 23.5288 52.7061 22.8281Z" fill="#514C43"/>
<path d="M61.879 4.90666C61.879 3.18361 63.5447 1.50937 65.4556 1.50937C67.5134 1.50937 69.1306 3.13405 69.1306 4.90666C69.1094 5.86597 68.7108 6.77775 68.0219 7.44236C67.3332 8.10697 66.4104 8.47024 65.4556 8.45265C64.5212 8.43331 63.6298 8.05494 62.9645 7.39539C62.2993 6.73583 61.9107 5.84521 61.879 4.90666ZM68.5424 34.2999H62.4178V12.2919H68.5914V34.2999H68.5424Z" fill="#514C43"/>
<path d="M94.0802 34.3003H87.9572V23.3191C87.9572 19.773 85.8996 18.0016 83.4005 18.0016C80.6566 18.0016 78.1575 19.7743 78.1575 23.3191V34.3003H71.9839V12.2922H78.1575V13.8174C79.3824 12.4386 81.9305 11.7988 83.9393 11.7988C89.9172 11.7988 94.0816 16.9191 94.0816 23.2707L94.0802 34.3003Z" fill="#514C43"/>
<path d="M96.9395 34.2989V1.85117H108.16C115.755 1.85117 121.536 7.56249 121.536 14.603C121.536 22.9239 116.049 28.684 107.474 28.684H103.603V34.2969L96.9395 34.2989ZM107.327 22.5811C112.08 22.5811 114.775 19.676 114.775 15.146C114.775 11.2072 112.374 7.95752 107.719 7.95752H103.652V22.5803L107.327 22.5811Z" fill="#514C43"/>
<path d="M145.855 29.7207C143.992 32.527 140.122 34.2997 136.251 34.2997C129.687 34.2997 124.394 29.1301 124.394 22.8278C124.386 21.3233 124.674 19.8318 125.242 18.4395C125.809 17.0472 126.645 15.7816 127.702 14.7154C128.759 13.6491 130.014 12.8034 131.397 12.2269C132.781 11.6503 134.264 11.3543 135.761 11.356C138.155 11.3459 140.494 12.0846 142.452 13.4696C144.411 14.8546 145.891 16.8174 146.689 19.0858L134.487 27.8989C135.073 28.0839 135.686 28.167 136.3 28.1453C138.162 28.1453 140.024 27.5051 141.005 25.9295L145.855 29.7207ZM130.764 24.3065L138.749 18.5935C137.875 17.9262 136.809 17.5631 135.711 17.5595C132.918 17.5595 130.616 19.7753 130.616 22.877C130.614 23.3569 130.663 23.8357 130.764 24.305V24.3065Z" fill="#514C43"/>
<path d="M171.79 1.35898V33.8066H165.615V32.2312C164.684 33.5112 162.283 34.299 160.274 34.299C154.297 34.299 149.544 29.1294 149.544 22.8271C149.544 16.4759 154.444 11.3552 160.274 11.3552C162.235 11.3552 164.636 12.2905 165.615 13.3738V1.35898H171.79ZM165.908 22.8256C165.908 19.7238 163.801 17.5081 160.91 17.5081C158.117 17.5081 155.815 19.7238 155.815 22.8256C155.815 25.9766 158.117 28.1431 160.91 28.1431C163.754 28.1433 165.911 25.9274 165.911 22.8256H165.908Z" fill="#514C43"/>
<path d="M174.645 4.90666C174.645 3.18361 176.311 1.50937 178.221 1.50937C180.28 1.50937 181.897 3.13405 181.897 4.90666C181.872 5.85589 181.478 6.75759 180.801 7.4199C180.124 8.0822 179.216 8.45278 178.271 8.45278C177.326 8.45278 176.418 8.0822 175.741 7.4199C175.063 6.75759 174.671 5.85589 174.645 4.90666ZM181.309 34.2999H175.135V12.2919H181.309V34.2999Z" fill="#514C43"/>
<path d="M206.995 11.8004V33.8085H200.821V32.2318C199.891 33.5118 197.49 34.2996 195.48 34.2996C189.502 34.2996 184.75 29.1301 184.75 22.8277C184.75 16.4766 189.649 11.3559 195.48 11.3559C197.44 11.3559 199.841 12.2911 200.821 13.3744V11.8492H206.995V11.8004ZM201.066 22.8292C201.066 19.7274 198.96 17.5118 196.068 17.5118C193.276 17.5118 190.973 19.7274 190.973 22.8292C190.973 25.9802 193.276 28.1467 196.068 28.1467C198.959 28.1467 201.066 25.9311 201.066 22.8292Z" fill="#514C43"/>
<path d="M216.025 28.0958H209.85V34.2993H216.025V28.0958Z" fill="#E0243D"/>
</g>
<defs>
<clipPath id="clip0_4_99">
<rect width="217" height="35" fill="white"/>
</clipPath>
</defs>
</svg>
