<svg width="166" height="176" viewBox="0 0 166 176" fill="none" xmlns="http://www.w3.org/2000/svg">
<mask id="path-1-inside-1_2017_37" fill="white">
<path fill-rule="evenodd" clip-rule="evenodd" d="M8.57361 56.6316C4.83732 50.8869 2.66671 44.0303 2.66671 36.6667C2.66671 16.4162 19.0829 0 39.3334 0C50.1896 0 59.9439 4.71808 66.6577 12.2156C71.837 11.1993 77.1896 10.6667 82.6667 10.6667C128.322 10.6667 165.333 47.6778 165.333 93.3333C165.333 138.989 128.322 176 82.6667 176C37.0112 176 5.08626e-05 138.989 5.08626e-05 93.3333C5.08626e-05 80.1512 3.0855 67.6896 8.57361 56.6316Z"/>
</mask>
<path fill-rule="evenodd" clip-rule="evenodd" d="M8.57361 56.6316C4.83732 50.8869 2.66671 44.0303 2.66671 36.6667C2.66671 16.4162 19.0829 0 39.3334 0C50.1896 0 59.9439 4.71808 66.6577 12.2156C71.837 11.1993 77.1896 10.6667 82.6667 10.6667C128.322 10.6667 165.333 47.6778 165.333 93.3333C165.333 138.989 128.322 176 82.6667 176C37.0112 176 5.08626e-05 138.989 5.08626e-05 93.3333C5.08626e-05 80.1512 3.0855 67.6896 8.57361 56.6316Z" fill="white"/>
<path d="M8.57361 56.6316L10.8091 55.1776L11.6389 56.4536L10.9623 57.8171L8.57361 56.6316ZM66.6577 12.2156L67.1712 14.8324L65.6829 15.1245L64.6711 13.9946L66.6577 12.2156ZM5.33337 36.6667C5.33337 43.4987 7.34565 49.8525 10.8091 55.1776L6.33816 58.0855C2.32899 51.9212 4.06106e-05 44.5619 4.06106e-05 36.6667H5.33337ZM39.3334 2.66667C20.5557 2.66667 5.33337 17.889 5.33337 36.6667H4.06106e-05C4.06106e-05 14.9435 17.6102 -2.66667 39.3334 -2.66667V2.66667ZM64.6711 13.9946C58.4418 7.03802 49.3998 2.66667 39.3334 2.66667V-2.66667C50.9794 -2.66667 61.4461 2.39815 68.6443 10.4367L64.6711 13.9946ZM82.6667 13.3333C77.3629 13.3333 72.1822 13.8491 67.1712 14.8324L66.1442 9.59888C71.4917 8.54954 77.0163 8 82.6667 8V13.3333ZM162.667 93.3333C162.667 49.1506 126.849 13.3333 82.6667 13.3333V8C129.795 8 168 46.205 168 93.3333H162.667ZM82.6667 173.333C126.849 173.333 162.667 137.516 162.667 93.3333H168C168 140.462 129.795 178.667 82.6667 178.667V173.333ZM2.66672 93.3333C2.66672 137.516 38.4839 173.333 82.6667 173.333V178.667C35.5384 178.667 -2.66662 140.462 -2.66662 93.3333H2.66672ZM10.9623 57.8171C5.65293 68.5149 2.66672 80.5716 2.66672 93.3333H-2.66662C-2.66662 79.7307 0.518071 66.8643 6.18495 55.4461L10.9623 57.8171Z" fill="black" mask="url(#path-1-inside-1_2017_37)"/>
<mask id="path-3-outside-2_2017_37" maskUnits="userSpaceOnUse" x="24.3333" y="19" width="21" height="22" fill="black">
<rect fill="white" x="24.3333" y="19" width="21" height="22"/>
<path d="M42.3228 33.7812C43.0103 33.7812 43.3541 34.0417 43.3541 34.5625C43.3541 35.0833 43.1249 35.4688 42.6666 35.7188C42.2083 35.9479 41.6874 36.1146 41.1041 36.2188C40.5416 36.3229 40.0103 36.3854 39.5103 36.4062C39.0103 36.4062 38.6874 36.4271 38.5416 36.4688C38.4166 36.4896 38.1145 36.5729 37.6353 36.7188C37.177 36.8438 36.6249 37 35.9791 37.1875C35.3333 37.3542 34.6353 37.5417 33.8853 37.75C31.5312 38.375 29.6562 38.6875 28.2603 38.6875C27.552 38.6875 27.0728 38.5833 26.8228 38.375C26.5937 38.1458 26.552 37.8333 26.6978 37.4375C28.2603 36.0625 29.8853 34.2917 31.5728 32.125C34.0937 28.8958 35.3541 26.375 35.3541 24.5625C35.3541 24.2083 35.302 23.875 35.1978 23.5625C34.9687 22.9167 34.3749 22.5 33.4166 22.3125C32.4999 22.3125 31.7499 22.5 31.1666 22.875C30.5833 23.25 30.0312 23.6667 29.5103 24.125C29.0103 24.5833 28.4895 25 27.9478 25.375C27.427 25.75 26.7812 25.9375 26.0103 25.9375C26.0312 25.25 26.3124 24.5833 26.8541 23.9375C27.9374 22.6042 29.4687 21.6458 31.4478 21.0625C32.1562 20.8333 32.7187 20.7188 33.1353 20.7188C33.552 20.7188 33.8645 20.7292 34.0728 20.75C34.8853 20.8333 35.5833 21.125 36.1666 21.625C36.7499 22.125 37.0937 22.8958 37.1978 23.9375C37.1978 26.875 35.8228 30.1354 33.0728 33.7188C32.3228 34.6979 31.5833 35.6042 30.8541 36.4375C31.0833 36.4583 31.4374 36.4688 31.9166 36.4688C32.4166 36.4688 33.0937 36.3542 33.9478 36.125C34.802 35.875 35.7083 35.5833 36.6666 35.25C37.6249 34.8958 38.5728 34.5625 39.5103 34.25C40.4478 33.9375 41.3853 33.7812 42.3228 33.7812Z"/>
</mask>
<path d="M42.3228 33.7812C43.0103 33.7812 43.3541 34.0417 43.3541 34.5625C43.3541 35.0833 43.1249 35.4688 42.6666 35.7188C42.2083 35.9479 41.6874 36.1146 41.1041 36.2188C40.5416 36.3229 40.0103 36.3854 39.5103 36.4062C39.0103 36.4062 38.6874 36.4271 38.5416 36.4688C38.4166 36.4896 38.1145 36.5729 37.6353 36.7188C37.177 36.8438 36.6249 37 35.9791 37.1875C35.3333 37.3542 34.6353 37.5417 33.8853 37.75C31.5312 38.375 29.6562 38.6875 28.2603 38.6875C27.552 38.6875 27.0728 38.5833 26.8228 38.375C26.5937 38.1458 26.552 37.8333 26.6978 37.4375C28.2603 36.0625 29.8853 34.2917 31.5728 32.125C34.0937 28.8958 35.3541 26.375 35.3541 24.5625C35.3541 24.2083 35.302 23.875 35.1978 23.5625C34.9687 22.9167 34.3749 22.5 33.4166 22.3125C32.4999 22.3125 31.7499 22.5 31.1666 22.875C30.5833 23.25 30.0312 23.6667 29.5103 24.125C29.0103 24.5833 28.4895 25 27.9478 25.375C27.427 25.75 26.7812 25.9375 26.0103 25.9375C26.0312 25.25 26.3124 24.5833 26.8541 23.9375C27.9374 22.6042 29.4687 21.6458 31.4478 21.0625C32.1562 20.8333 32.7187 20.7188 33.1353 20.7188C33.552 20.7188 33.8645 20.7292 34.0728 20.75C34.8853 20.8333 35.5833 21.125 36.1666 21.625C36.7499 22.125 37.0937 22.8958 37.1978 23.9375C37.1978 26.875 35.8228 30.1354 33.0728 33.7188C32.3228 34.6979 31.5833 35.6042 30.8541 36.4375C31.0833 36.4583 31.4374 36.4688 31.9166 36.4688C32.4166 36.4688 33.0937 36.3542 33.9478 36.125C34.802 35.875 35.7083 35.5833 36.6666 35.25C37.6249 34.8958 38.5728 34.5625 39.5103 34.25C40.4478 33.9375 41.3853 33.7812 42.3228 33.7812Z" fill="#FF7C02"/>
<path d="M42.6666 35.7188L43.2629 36.9113L43.2842 36.9007L43.3051 36.8893L42.6666 35.7188ZM41.1041 36.2188L40.8697 34.9062L40.8613 34.9077L41.1041 36.2188ZM39.5103 36.4062V37.7396H39.5381L39.5658 37.7384L39.5103 36.4062ZM38.5416 36.4688L38.7608 37.7839L38.8353 37.7715L38.9079 37.7508L38.5416 36.4688ZM37.6353 36.7188L37.9862 38.0051L38.0049 38L38.0236 37.9943L37.6353 36.7188ZM35.9791 37.1875L36.3123 38.4785L36.3316 38.4735L36.3508 38.468L35.9791 37.1875ZM33.8853 37.75L34.2275 39.0387L34.2348 39.0367L34.2422 39.0347L33.8853 37.75ZM26.8228 38.375L25.88 39.3178L25.9228 39.3606L25.9693 39.3993L26.8228 38.375ZM26.6978 37.4375L25.817 36.4365L25.5635 36.6597L25.4467 36.9766L26.6978 37.4375ZM31.5728 32.125L30.5218 31.3045L30.5209 31.3057L31.5728 32.125ZM35.1978 23.5625L36.4627 23.1409L36.4587 23.1287L36.4544 23.1166L35.1978 23.5625ZM33.4166 22.3125L33.6726 21.004L33.5458 20.9792H33.4166V22.3125ZM29.5103 24.125L28.6295 23.124L28.6193 23.133L28.6094 23.1421L29.5103 24.125ZM27.9478 25.375L27.1889 24.2787L27.1788 24.2858L27.1688 24.293L27.9478 25.375ZM26.0103 25.9375L24.6776 25.8971L24.636 27.2708H26.0103V25.9375ZM26.8541 23.9375L27.8757 24.7943L27.8824 24.7864L27.8889 24.7783L26.8541 23.9375ZM31.4478 21.0625L31.8248 22.3414L31.8416 22.3365L31.8583 22.3311L31.4478 21.0625ZM34.0728 20.75L34.2089 19.4236L34.2055 19.4233L34.0728 20.75ZM37.1978 23.9375H38.5312V23.871L38.5246 23.8048L37.1978 23.9375ZM33.0728 33.7188L32.0151 32.907L32.0143 32.908L33.0728 33.7188ZM30.8541 36.4375L29.8507 35.5595L28.1278 37.5285L30.7334 37.7654L30.8541 36.4375ZM33.9478 36.125L34.2933 37.4128L34.3079 37.4089L34.3224 37.4046L33.9478 36.125ZM36.6666 35.25L37.1046 36.5093L37.1167 36.5051L37.1288 36.5007L36.6666 35.25ZM42.3228 35.1146C42.4149 35.1146 42.4512 35.1237 42.4476 35.1228C42.4424 35.1215 42.3768 35.1043 42.2911 35.0394C42.1981 34.9689 42.1187 34.8701 42.0692 34.7577C42.0232 34.6531 42.0208 34.5774 42.0208 34.5625H44.6874C44.6874 33.9818 44.4764 33.3494 43.9014 32.9138C43.3962 32.5311 42.7969 32.4479 42.3228 32.4479V35.1146ZM42.0208 34.5625C42.0208 34.5949 42.0172 34.6058 42.0185 34.6009C42.0191 34.5985 42.0206 34.5931 42.0237 34.5856C42.0268 34.578 42.031 34.5695 42.0362 34.5608C42.0414 34.552 42.0468 34.5444 42.0519 34.5381C42.0569 34.5319 42.0608 34.5282 42.0624 34.5267C42.0657 34.5236 42.0572 34.5323 42.0281 34.5482L43.3051 36.8893C43.7093 36.6688 44.0726 36.3537 44.3283 35.9236C44.5841 35.4934 44.6874 35.0235 44.6874 34.5625H42.0208ZM42.0703 34.5262C41.7424 34.6901 41.3465 34.821 40.8697 34.9062L41.3385 37.5313C42.0284 37.4081 42.6741 37.2057 43.2629 36.9113L42.0703 34.5262ZM40.8613 34.9077C40.3521 35.002 39.8838 35.0562 39.4548 35.0741L39.5658 37.7384C40.1368 37.7146 40.7311 37.6438 41.3469 37.5298L40.8613 34.9077ZM39.5103 35.0729C39.2453 35.0729 39.0083 35.0783 38.8073 35.0913C38.6327 35.1026 38.3943 35.1241 38.1753 35.1867L38.9079 37.7508C38.8577 37.7651 38.8348 37.7665 38.8604 37.763C38.8803 37.7604 38.9183 37.7564 38.979 37.7524C39.1009 37.7446 39.2754 37.7396 39.5103 37.7396V35.0729ZM38.3224 35.1536C38.0923 35.1919 37.6957 35.3067 37.2471 35.4432L38.0236 37.9943C38.2577 37.9231 38.4406 37.8695 38.5758 37.8322C38.7282 37.7902 38.7744 37.7817 38.7608 37.7839L38.3224 35.1536ZM37.2845 35.4324C36.817 35.5599 36.2575 35.7183 35.6073 35.907L36.3508 38.468C36.9923 38.2817 37.537 38.1276 37.9862 38.0051L37.2845 35.4324ZM35.6459 35.8965C34.991 36.0655 34.2851 36.2551 33.5285 36.4653L34.2422 39.0347C34.9856 38.8282 35.6755 38.6429 36.3123 38.4785L35.6459 35.8965ZM33.5432 36.4613C31.231 37.0752 29.4858 37.3542 28.2603 37.3542V40.0208C29.8265 40.0208 31.8313 39.6748 34.2275 39.0387L33.5432 36.4613ZM28.2603 37.3542C27.9633 37.3542 27.7685 37.3316 27.653 37.3065C27.5257 37.2788 27.5739 37.2653 27.6764 37.3507L25.9693 39.3993C26.3217 39.693 26.7346 39.8358 27.0865 39.9123C27.4501 39.9913 27.849 40.0208 28.2603 40.0208V37.3542ZM27.7656 37.4322C27.8026 37.4691 27.8441 37.522 27.8787 37.5912C27.9135 37.6608 27.9331 37.7305 27.9413 37.7925C27.9572 37.9115 27.9267 37.9588 27.949 37.8984L25.4467 36.9766C25.186 37.6841 25.1666 38.6044 25.88 39.3178L27.7656 37.4322ZM27.5787 38.4385C29.2199 36.9942 30.9012 35.1572 32.6248 32.9443L30.5209 31.3057C28.8695 33.4261 27.3008 35.1308 25.817 36.4365L27.5787 38.4385ZM32.6238 32.9455C33.9166 31.2895 34.9181 29.7752 35.6013 28.4088C36.2777 27.056 36.6874 25.7591 36.6874 24.5625H34.0208C34.0208 25.1784 33.8002 26.0482 33.2162 27.2162C32.639 28.3706 31.7499 29.7314 30.5218 31.3045L32.6238 32.9455ZM36.6874 24.5625C36.6874 24.0758 36.6155 23.5992 36.4627 23.1409L33.9329 23.9841C33.9885 24.1508 34.0208 24.3409 34.0208 24.5625H36.6874ZM36.4544 23.1166C36.0055 21.8516 34.8763 21.2395 33.6726 21.004L33.1606 23.621C33.8736 23.7605 33.9318 23.9818 33.9413 24.0084L36.4544 23.1166ZM33.4166 20.9792C32.3248 20.9792 31.303 21.2022 30.4456 21.7534L31.8876 23.9966C32.1969 23.7978 32.675 23.6458 33.4166 23.6458V20.9792ZM30.4456 21.7534C29.806 22.1646 29.2005 22.6216 28.6295 23.124L30.3912 25.126C30.8619 24.7118 31.3605 24.3354 31.8876 23.9966L30.4456 21.7534ZM28.6094 23.1421C28.1528 23.5607 27.6792 23.9393 27.1889 24.2787L28.7068 26.4713C29.2998 26.0607 29.8679 25.606 30.4113 25.1079L28.6094 23.1421ZM27.1688 24.293C26.9175 24.4739 26.5591 24.6042 26.0103 24.6042V27.2708C27.0033 27.2708 27.9365 27.0261 28.7269 26.457L27.1688 24.293ZM27.3431 25.9779C27.3529 25.6524 27.4819 25.2639 27.8757 24.7943L25.8325 23.0807C25.143 23.9028 24.7094 24.8476 24.6776 25.8971L27.3431 25.9779ZM27.8889 24.7783C28.7705 23.6932 30.0512 22.8642 31.8248 22.3414L31.0709 19.7836C28.8861 20.4275 27.1043 21.5151 25.8193 23.0967L27.8889 24.7783ZM31.8583 22.3311C32.5209 22.1167 32.9268 22.0521 33.1353 22.0521V19.3854C32.5105 19.3854 31.7914 19.55 31.0374 19.7939L31.8583 22.3311ZM33.1353 22.0521C33.542 22.0521 33.8003 22.0627 33.9402 22.0767L34.2055 19.4233C33.9287 19.3956 33.5621 19.3854 33.1353 19.3854V22.0521ZM33.9368 22.0764C34.4971 22.1338 34.9351 22.3255 35.2989 22.6373L37.0343 20.6127C36.2314 19.9245 35.2736 19.5328 34.2089 19.4236L33.9368 22.0764ZM35.2989 22.6373C35.5393 22.8434 35.7885 23.2439 35.8711 24.0702L38.5246 23.8048C38.3988 22.5478 37.9606 21.4066 37.0343 20.6127L35.2989 22.6373ZM35.8645 23.9375C35.8645 26.461 34.6771 29.4384 32.0151 32.907L34.1306 34.5305C36.9686 30.8325 38.5312 27.289 38.5312 23.9375H35.8645ZM32.0143 32.908C31.28 33.8667 30.5587 34.7503 29.8507 35.5595L31.8575 37.3155C32.6078 36.4581 33.3657 35.5291 34.1313 34.5295L32.0143 32.908ZM30.7334 37.7654C31.0259 37.792 31.4304 37.8021 31.9166 37.8021V35.1354C31.4444 35.1354 31.1406 35.1247 30.9748 35.1096L30.7334 37.7654ZM31.9166 37.8021C32.5897 37.8021 33.3986 37.6528 34.2933 37.4128L33.6023 34.8372C32.7887 35.0555 32.2434 35.1354 31.9166 35.1354V37.8021ZM34.3224 37.4046C35.2006 37.1476 36.1281 36.849 37.1046 36.5093L36.2286 33.9907C35.2884 34.3177 34.4034 34.6024 33.5733 34.8454L34.3224 37.4046ZM37.1288 36.5007C38.0741 36.1513 39.0085 35.8227 39.932 35.5149L39.0887 32.9851C38.1372 33.3023 37.1757 33.6404 36.2044 33.9993L37.1288 36.5007ZM39.932 35.5149C40.7409 35.2453 41.5362 35.1146 42.3228 35.1146V32.4479C41.2344 32.4479 40.1548 32.6297 39.0887 32.9851L39.932 35.5149Z" fill="#FF7C02" mask="url(#path-3-outside-2_2017_37)"/>
<path d="M94.3296 134.122C96.1148 134.617 97.6467 135.769 98.6175 137.346C99.5884 138.924 99.9263 140.811 99.5633 142.627C99.4242 143.499 99.1025 144.331 98.6195 145.07C98.1365 145.808 97.503 146.436 96.7604 146.913C96.0178 147.39 95.183 147.704 94.3104 147.836C93.4379 147.968 92.5473 147.914 91.697 147.678C91.5742 147.652 91.4584 147.6 91.3578 147.525C91.2571 147.45 91.1741 147.354 91.1145 147.244C90.9809 147.468 90.7673 147.633 90.5168 147.706C90.2662 147.78 89.9973 147.755 89.764 147.638C88.5368 147.126 87.4294 146.364 86.5117 145.402C85.8394 144.69 85.3494 143.826 85.0838 142.884C84.7972 141.678 84.8417 140.416 85.2125 139.233C85.5833 138.05 86.2666 136.989 87.1903 136.161C88.1145 135.251 89.2524 134.587 90.4998 134.231C91.7471 133.874 93.064 133.837 94.3296 134.122ZM87.7532 142.438C87.8911 143.146 88.2265 143.8 88.7205 144.326C89.2845 144.952 89.9487 145.481 90.6859 145.89C90.8538 145.967 90.998 146.088 91.1033 146.24C91.1989 146.104 91.3303 145.998 91.4829 145.932C91.6355 145.867 91.8032 145.845 91.9674 145.87C92.526 145.965 93.0983 145.942 93.6476 145.803C94.1968 145.663 94.7109 145.411 95.1567 145.061C95.6025 144.711 95.9703 144.272 96.2364 143.772C96.5025 143.272 96.661 142.721 96.7017 142.156C96.8154 141.099 96.5336 140.037 95.9106 139.175C95.2876 138.312 94.3675 137.712 93.3277 137.488C92.6387 137.357 91.9284 137.391 91.2552 137.588C90.5819 137.784 89.9646 138.137 89.454 138.618C88.8616 139.051 88.3929 139.631 88.0945 140.301C87.7961 140.972 87.6784 141.708 87.7532 142.438Z" fill="black"/>
<path d="M117.682 144.92C119.469 145.399 121.007 146.543 121.98 148.117C122.953 149.691 123.289 151.578 122.919 153.391C122.78 154.266 122.457 155.101 121.972 155.843C121.486 156.584 120.849 157.213 120.103 157.69C119.356 158.167 118.517 158.481 117.641 158.61C116.764 158.738 115.87 158.68 115.018 158.438C114.886 158.447 114.753 158.424 114.632 158.37C114.51 158.317 114.403 158.235 114.32 158.132C114.186 158.356 113.973 158.521 113.722 158.595C113.472 158.668 113.203 158.643 112.969 158.526C111.754 157.993 110.65 157.234 109.717 156.29C109.06 155.567 108.572 154.707 108.289 153.772C108.007 152.563 108.058 151.3 108.434 150.118C108.811 148.935 109.501 147.876 110.43 147.053C111.348 146.096 112.5 145.396 113.772 145.022C115.044 144.648 116.392 144.613 117.682 144.92ZM111.108 153.202C111.243 153.928 111.59 154.599 112.107 155.127C112.681 155.743 113.343 156.27 114.072 156.691L114.424 157C114.53 156.868 114.669 156.765 114.826 156.7C114.983 156.636 115.154 156.613 115.323 156.634C115.879 156.723 116.448 156.696 116.993 156.554C117.539 156.412 118.048 156.159 118.49 155.809C118.932 155.46 119.297 155.022 119.561 154.524C119.824 154.026 119.982 153.479 120.023 152.917C120.111 152.046 119.93 151.169 119.503 150.405C119.077 149.641 118.425 149.026 117.638 148.644C116.851 148.262 115.965 148.131 115.1 148.269C114.236 148.407 113.435 148.807 112.806 149.416C112.214 149.841 111.746 150.415 111.448 151.08C111.149 151.745 111.032 152.477 111.108 153.202Z" fill="black"/>
<path d="M60.2357 137.067C62.2724 135.1 64.9647 133.956 67.7942 133.855C67.7656 129.288 67.8429 124.695 68.2352 120.062L69.0885 110.803C69.4803 106.551 70.2805 102.371 70.7035 98.1564C70.5746 98.057 70.4752 97.9243 70.416 97.7726C70.3569 97.6209 70.3402 97.4559 70.3678 97.2955C70.3974 97.1287 70.4705 96.9726 70.5796 96.8431C70.6886 96.7135 70.8299 96.6149 70.9892 96.5573C71.5546 95.6756 77.4695 97.9153 78.388 91.3253C78.6034 89.7768 78.2256 88.2041 77.3304 86.9223C76.4352 85.6405 75.0888 84.7444 73.5608 84.4133C72.5168 84.2189 71.4407 84.2899 70.4313 84.6199C69.4219 84.9499 68.5117 85.5282 67.7842 86.3019C66.9267 86.9465 66.2546 87.8061 65.8357 88.7937C65.4167 89.7814 65.2659 90.8621 65.3984 91.9266C65.6297 92.9555 66.1411 93.9003 66.876 94.6566C67.6926 95.5054 68.6274 96.2322 69.6513 96.8144C69.7756 96.8675 69.8874 96.9462 69.9793 97.0453C70.0712 97.1445 70.1413 97.2618 70.185 97.3897C70.2286 97.5177 70.2449 97.6534 70.2327 97.788C70.2205 97.9227 70.1801 98.0532 70.1142 98.1713C70.0565 98.2964 69.9742 98.4087 69.8724 98.5016C69.7705 98.5945 69.6511 98.6661 69.5212 98.7121C69.3913 98.7582 69.2534 98.7778 69.1158 98.7697C68.9782 98.7617 68.8436 98.7261 68.7199 98.6653C67.2155 97.9026 65.8682 96.8633 64.7485 95.6018C63.9125 94.6866 63.303 93.5881 62.969 92.3944C62.6199 90.8425 62.6955 89.2251 63.1878 87.7125C63.6802 86.1999 64.5711 84.8479 65.7669 83.7989C66.9073 82.6576 68.3139 81.8183 69.8599 81.357C71.4059 80.8957 73.0425 80.8268 74.6217 81.1565C76.8883 81.7647 78.841 83.2075 80.0882 85.1954C81.3354 87.1832 81.7848 89.5692 81.3462 91.8746C81.1033 93.2145 80.5485 94.4784 79.7266 95.5641C81.9506 97.3253 84.1714 99.1208 86.3453 101.05L89.0141 103.613C89.8642 104.522 90.7142 105.43 91.4925 106.366C93.018 108.202 94.3657 110.089 95.676 112.009C96.8697 111.105 98.2454 110.472 99.7079 110.153C101.17 109.834 102.685 109.837 104.146 110.161C106.292 110.81 108.197 112.08 109.62 113.812C111.539 112.122 113.178 110.474 114.805 108.964C116.431 107.454 117.57 106.349 119.205 105.116C121.291 103.491 123.473 101.995 125.74 100.634C125.139 99.868 124.691 98.9931 124.421 98.0573C124.067 96.508 124.137 94.8919 124.623 93.3789C125.11 91.8659 125.994 90.5117 127.185 89.4586C128.332 88.3176 129.745 87.4792 131.296 87.0186C132.848 86.558 134.489 86.4895 136.074 86.8194C138.34 87.4276 140.293 88.8704 141.54 90.8583C142.787 92.8461 143.237 95.2321 142.798 97.5375C142.628 98.6581 142.224 99.7303 141.612 100.684C141 101.638 140.193 102.452 139.245 103.073C138.297 103.694 137.228 104.107 136.109 104.287C134.99 104.467 133.846 104.409 132.751 104.116C132.52 104.069 132.315 103.935 132.179 103.743C132.043 103.551 131.984 103.314 132.016 103.08C132.031 102.96 132.071 102.845 132.132 102.741C132.193 102.637 132.275 102.546 132.372 102.474C132.469 102.402 132.579 102.351 132.697 102.323C132.814 102.295 132.936 102.291 133.055 102.311C133.853 102.457 134.673 102.435 135.462 102.247C136.252 102.058 136.993 101.708 137.64 101.218C138.287 100.728 138.825 100.109 139.219 99.4004C139.614 98.6915 139.857 97.9084 139.933 97.1005C140.14 95.5479 139.755 93.9744 138.854 92.693C137.953 91.4116 136.603 90.5164 135.072 90.1854C134.043 89.9893 132.981 90.05 131.981 90.362C130.981 90.674 130.074 91.2278 129.339 91.9742C128.469 92.5866 127.777 93.4197 127.335 94.388C126.893 95.3563 126.717 96.4247 126.826 97.4835C127.183 98.5777 127.758 99.5882 128.517 100.454C129.275 101.321 130.2 102.025 131.237 102.524C131.358 102.581 131.466 102.662 131.555 102.762C131.644 102.862 131.713 102.978 131.756 103.105C131.799 103.231 131.816 103.365 131.807 103.499C131.797 103.632 131.761 103.762 131.7 103.881C131.642 104.006 131.56 104.119 131.458 104.211C131.356 104.304 131.237 104.376 131.107 104.422C130.977 104.468 130.839 104.488 130.702 104.48C130.564 104.471 130.43 104.436 130.306 104.375C129.194 103.779 128.169 103.033 127.259 102.158C125.337 103.883 123.698 105.53 122.037 107.037C120.377 108.544 119.169 109.643 117.639 110.851C115.442 112.628 113.142 114.276 110.752 115.784C111.687 117.745 111.98 119.95 111.589 122.086C111.582 122.374 111.556 122.66 111.51 122.944C112.642 123.048 114.06 123.421 115.578 123.837C116.333 123.907 117.062 124.251 117.797 124.526L119.929 125.414C120.988 125.927 121.942 126.464 122.73 126.917C123.134 124.947 124.146 123.153 125.623 121.789C126.762 120.645 128.168 119.804 129.715 119.342C131.261 118.881 132.899 118.813 134.478 119.146C136.737 119.77 138.677 121.223 139.911 123.215C141.144 125.208 141.58 127.592 141.131 129.892C140.956 131.011 140.549 132.08 139.935 133.031C139.321 133.982 138.515 134.793 137.568 135.413C136.621 136.033 135.555 136.448 134.438 136.63C133.321 136.812 132.178 136.758 131.083 136.471C130.956 136.46 130.832 136.422 130.719 136.361C130.607 136.299 130.509 136.215 130.43 136.113C130.352 136.012 130.295 135.896 130.264 135.771C130.233 135.647 130.228 135.518 130.249 135.391C130.296 135.16 130.43 134.956 130.622 134.82C130.814 134.683 131.051 134.625 131.285 134.657C132.087 134.797 132.91 134.771 133.701 134.579C134.493 134.388 135.236 134.035 135.885 133.543C136.534 133.051 137.075 132.43 137.473 131.72C137.871 131.01 138.119 130.225 138.201 129.415C138.398 127.867 138.008 126.302 137.107 125.028C136.206 123.754 134.861 122.864 133.336 122.534C132.32 122.329 131.269 122.372 130.273 122.659C129.278 122.947 128.366 123.47 127.616 124.186C126.756 124.828 126.081 125.687 125.662 126.675C125.243 127.664 125.094 128.746 125.23 129.81C125.459 130.849 125.969 131.805 126.704 132.575C127.513 133.425 128.45 134.141 129.483 134.698C129.608 134.755 129.72 134.838 129.812 134.94C129.904 135.043 129.973 135.163 130.016 135.293C130.06 135.424 130.075 135.562 130.063 135.699C130.05 135.836 130.009 135.969 129.943 136.089C129.813 136.329 129.597 136.51 129.338 136.596C129.08 136.681 128.798 136.664 128.551 136.549C127.002 135.842 125.603 134.845 124.43 133.61C123.613 132.688 123.016 131.592 122.685 130.406C122.713 130.097 122.567 129.807 122.524 129.526C120.936 129.221 119.368 128.823 117.827 128.333C116.69 127.961 115.575 127.524 114.489 127.022C112.925 126.359 111.538 125.644 110.476 125.165C109.533 126.913 108.029 128.292 106.205 129.078C104.381 129.864 102.346 130.011 100.428 129.496C100.291 129.51 100.153 129.493 100.024 129.448C99.8947 129.402 99.7771 129.328 99.6797 129.231C99.5822 129.135 99.5074 129.018 99.4604 128.889C99.4135 128.76 99.3957 128.622 99.4083 128.486C99.4209 128.349 99.4636 128.217 99.5333 128.099C99.603 127.981 99.6979 127.879 99.8114 127.802C99.9249 127.725 100.054 127.674 100.19 127.653C100.325 127.631 100.464 127.64 100.595 127.679C101.52 127.839 102.468 127.81 103.38 127.591C104.293 127.372 105.151 126.97 105.902 126.407C106.654 125.845 107.282 125.135 107.749 124.321C108.216 123.507 108.512 122.607 108.619 121.674C108.871 119.863 108.434 118.023 107.394 116.518C106.354 115.013 104.788 113.953 103.004 113.548C101.808 113.31 100.572 113.365 99.4019 113.709C98.2318 114.053 97.1625 114.675 96.2858 115.523C95.2783 116.29 94.4943 117.313 94.0153 118.485C93.5363 119.657 93.3798 120.936 93.562 122.189C93.8222 123.394 94.4301 124.496 95.3103 125.359C96.2279 126.366 97.3242 127.194 98.5436 127.801C98.6654 127.861 98.7736 127.946 98.8616 128.049C98.9496 128.153 99.0155 128.273 99.0553 128.403C99.0952 128.533 99.1081 128.67 99.0932 128.805C99.0784 128.94 99.0361 129.071 98.9691 129.189C98.9159 129.313 98.8372 129.425 98.7381 129.517C98.639 129.609 98.5217 129.679 98.3937 129.722C98.2658 129.766 98.1301 129.782 97.9955 129.77C97.8608 129.758 97.7302 129.718 97.6122 129.652C95.8828 128.831 94.3321 127.677 93.0488 126.257C92.1082 125.218 91.4289 123.97 91.0672 122.616C90.6992 120.951 90.7729 119.219 91.2808 117.592C91.7886 115.964 92.7132 114.498 93.9626 113.338C92.3464 111.736 90.7925 110.21 88.9706 108.589L86.4421 106.005L83.9542 103.355C82.0393 101.241 80.1619 99.0972 78.2407 97.0526C76.6928 98.2508 74.7518 98.8248 72.8012 98.6609C72.8483 103.403 72.7958 108.102 72.4314 112.806L71.5782 122.065C71.2053 126.112 70.5613 130.099 70.1884 134.145C72.692 134.825 74.8482 136.422 76.2284 138.619C77.6085 140.816 78.1117 143.451 77.6379 146.002C77.4477 147.262 76.9935 148.469 76.3051 149.541C75.6167 150.614 74.7096 151.53 73.6431 152.228C72.5766 152.926 71.3748 153.391 70.1161 153.593C68.8575 153.795 67.5704 153.729 66.3391 153.399C66.1081 153.352 65.9037 153.218 65.7674 153.026C65.631 152.834 65.5728 152.597 65.6045 152.363C65.6199 152.243 65.6593 152.128 65.7204 152.024C65.7815 151.92 65.863 151.829 65.9601 151.757C66.0572 151.685 66.1678 151.634 66.2853 151.606C66.4028 151.578 66.5247 151.574 66.6437 151.594C67.5617 151.764 68.5045 151.745 69.4151 151.54C70.3256 151.334 71.1848 150.945 71.9404 150.397C72.6961 149.849 73.3324 149.153 73.8107 148.351C74.2891 147.549 74.5994 146.659 74.723 145.733C74.9747 143.917 74.5333 142.072 73.4866 140.565C72.44 139.059 70.8647 138.002 69.0742 137.604C67.8831 137.372 66.6536 137.431 65.49 137.775C64.3263 138.119 63.263 138.739 62.3902 139.582C61.3826 140.349 60.5986 141.372 60.1197 142.544C59.6407 143.716 59.4842 144.995 59.6663 146.248C59.9467 147.437 60.5383 148.53 61.3804 149.415C62.3103 150.408 63.404 151.234 64.6137 151.857C64.8601 151.98 65.0492 152.195 65.1413 152.455C65.2334 152.714 65.2213 153 65.1077 153.251C65.0468 153.373 64.9625 153.481 64.8595 153.571C64.7566 153.66 64.637 153.728 64.5077 153.77C64.3784 153.813 64.242 153.83 64.1062 153.82C63.9704 153.809 63.838 153.772 63.7166 153.711C61.9672 152.933 60.3992 151.799 59.1125 150.382C58.1607 149.351 57.4797 148.1 57.1309 146.741C56.7127 144.998 56.7811 143.175 57.3286 141.469C57.8761 139.763 58.8818 138.24 60.2357 137.067Z" fill="black"/>
<path d="M102.457 99.2149C102.247 99.1539 102.055 99.0411 101.9 98.8868C101.772 99.1174 101.559 99.2883 101.306 99.3621C101.053 99.436 100.781 99.4069 100.549 99.2811C99.3234 98.7661 98.2164 98.0049 97.2969 97.0447C96.6596 96.3275 96.205 95.467 95.9717 94.5363C95.6852 93.3299 95.7297 92.0686 96.1005 90.8853C96.4713 89.7021 97.1546 88.6409 98.0783 87.8138C98.9974 86.9044 100.129 86.2383 101.37 85.8756C102.611 85.513 103.922 85.4652 105.186 85.7367C106.969 86.2148 108.507 87.3443 109.497 88.902C110.487 90.4596 110.857 92.332 110.533 94.149C110.395 95.0427 110.066 95.8964 109.57 96.652C109.073 97.4076 108.419 98.0474 107.653 98.5279C106.887 99.0085 106.026 99.3186 105.13 99.4371C104.233 99.5556 103.322 99.4798 102.457 99.2149ZM104.091 88.9903C103.407 88.8541 102.701 88.8861 102.032 89.0835C101.363 89.2809 100.752 89.6379 100.252 90.1236C99.6514 90.5491 99.1766 91.1283 98.8774 91.8005C98.5781 92.4728 98.4653 93.2132 98.5509 93.944C98.6889 94.6518 99.0242 95.3062 99.5183 95.8315C100.092 96.4478 100.754 96.975 101.484 97.396C101.632 97.4729 101.764 97.5791 101.87 97.7082C101.975 97.577 102.114 97.4768 102.272 97.4183C102.429 97.3597 102.6 97.345 102.765 97.3757C103.322 97.4601 103.891 97.4296 104.436 97.2861C104.981 97.1426 105.491 96.8891 105.934 96.5413C106.378 96.1934 106.745 95.7585 107.015 95.2634C107.284 94.7682 107.449 94.2233 107.499 93.662C107.607 92.6306 107.338 91.5952 106.743 90.7461C106.147 89.897 105.266 89.2914 104.26 89.0404L104.091 88.9903Z" fill="black"/>
</svg>
