<svg width="252" height="35" viewBox="0 0 252 35" fill="none" xmlns="http://www.w3.org/2000/svg">
<g clip-path="url(#clip0_4_2)">
<mask id="mask0_4_2" style="mask-type:luminance" maskUnits="userSpaceOnUse" x="0" y="0" width="252" height="35">
<path d="M251.467 0.893658H0V34.1062H251.467V0.893658Z" fill="white"/>
</mask>
<g mask="url(#mask0_4_2)">
<path d="M50.0496 24.0981H38.1465V1.24784H49.4873C55.0171 1.24784 58.2975 3.55059 58.2975 7.35896C58.2975 9.39601 57.3603 11.0788 55.7669 12.1416C58.11 13.1158 59.4223 15.1529 59.4223 17.7213C59.4223 21.7953 56.1418 24.0981 50.1433 24.0981H50.0496ZM43.9574 19.5812H49.6748C53.0489 19.5812 53.4238 18.2527 53.4238 17.1899C53.4238 15.5957 52.2053 14.7986 49.6748 14.7986H43.9574V19.5812ZM43.9574 10.3702H48.7375C51.0806 10.3702 52.2991 9.57313 52.2991 8.0675C52.2991 7.5361 52.2991 5.85332 48.7375 5.85332H43.9574V10.3702Z" fill="#514C43"/>
<path d="M68.6074 24.0981H62.7026V1.24784H68.6074V24.0981Z" fill="#514C43"/>
<path d="M84.822 24.0981H78.9173V6.11903H71.7004V1.24784H91.9453V6.11903H84.7283V24.0981H84.822Z" fill="#514C43"/>
<path d="M105.348 24.4525C98.1312 24.4525 92.8825 19.4927 92.8825 12.673C92.8825 5.8534 98.1312 0.893658 105.442 0.893658C109.378 0.893658 112.752 2.31073 114.908 4.96774L115.096 5.23344L111.253 8.77611L110.972 8.51042C109.566 6.82764 107.691 6.03054 105.629 6.03054C101.599 6.03054 98.7873 8.77611 98.7873 12.7616C98.7873 16.7472 101.599 19.4927 105.629 19.4927C107.785 19.4927 109.566 18.6956 110.972 17.0128L111.253 16.7472L115.096 20.2899L114.908 20.5555C112.752 23.2125 109.378 24.6296 105.348 24.6296V24.4525Z" fill="#514C43"/>
<path d="M128.592 24.4525C121.282 24.4525 115.939 19.4927 115.939 12.673C115.939 5.8534 121.282 0.893658 128.592 0.893658C135.903 0.893658 141.245 5.8534 141.245 12.673C141.245 19.4927 135.903 24.4525 128.592 24.4525ZM128.592 5.94198C124.749 5.94198 121.938 8.77611 121.938 12.673C121.938 16.5701 124.749 19.4041 128.592 19.4041C132.435 19.4041 135.247 16.5701 135.247 12.673C135.247 8.77611 132.435 5.94198 128.592 5.94198Z" fill="#514C43"/>
<path d="M149.961 24.0981H144.057V1.24784H149.961V24.0981Z" fill="#514C43"/>
<path d="M174.893 24.0981H170.113L159.522 11.3445V24.0981H153.711V1.24784H158.491L169.082 14.0015V1.24784H174.893V24.0981Z" fill="#514C43"/>
<path d="M184.078 24.0981H178.173V1.24784H184.078V24.0981Z" fill="#514C43"/>
<path d="M196.544 24.4525C192.982 24.4525 189.327 23.3897 187.171 21.7954L186.983 21.6183L189.045 17.1014L189.42 17.3671C191.295 18.7842 194.106 19.5813 196.637 19.5813C198.137 19.5813 200.573 19.3156 200.573 17.5442C200.573 16.1272 198.418 15.5958 195.981 15.0644C192.232 14.1787 187.545 13.1159 187.545 8.06758C187.452 3.72781 191.295 0.893658 197.293 0.893658C200.292 0.893658 203.198 1.6022 205.26 2.9307L205.541 3.10783L203.666 7.62475L203.292 7.44762C201.323 6.38481 199.262 5.76484 197.293 5.76484C194.762 5.76484 193.356 6.56194 193.356 7.97901C193.356 9.39609 195.512 9.92748 197.949 10.4589C201.698 11.3446 206.384 12.4074 206.384 17.3671C206.384 20.6441 203.761 24.5411 196.544 24.5411V24.4525Z" fill="#514C43"/>
<path d="M220.912 24.0981H215.007V6.11903H207.79V1.24784H228.035V6.11903H220.818V24.0981H220.912Z" fill="#514C43"/>
<path d="M231.503 6.38477C231.503 6.38477 230.659 6.0305 230.659 5.58767C230.659 5.14484 231.034 4.79057 231.503 4.79057C231.972 4.79057 232.346 5.14484 232.346 5.58767C232.346 6.0305 231.972 6.38477 231.503 6.38477Z" fill="#514C43"/>
<path d="M236.189 6.38472C234.502 6.38472 233.378 5.32193 233.378 3.81628C233.378 2.31064 234.596 1.24784 236.189 1.24784C237.127 1.24784 237.876 1.60211 238.345 2.13352L237.408 3.01918C237.408 3.01918 236.658 2.39922 236.284 2.39922C235.439 2.39922 234.783 3.01918 234.783 3.81628C234.783 4.61339 235.439 5.23335 236.284 5.23335C236.752 5.23335 237.127 5.05622 237.408 4.70196L238.345 5.41049C237.876 6.03045 237.127 6.38472 236.189 6.38472Z" fill="#514C43"/>
<path d="M241.719 6.38472C240.032 6.38472 238.813 5.32193 238.813 3.81628C238.813 2.31064 240.032 1.24784 241.719 1.24784C243.406 1.24784 244.624 2.31064 244.624 3.81628C244.624 5.32193 243.406 6.38472 241.719 6.38472ZM241.719 2.39922C240.876 2.39922 240.313 3.01918 240.313 3.81628C240.313 4.61339 240.876 5.23335 241.719 5.23335C242.563 5.23335 243.218 4.61339 243.218 3.81628C243.218 3.01918 242.656 2.39922 241.719 2.39922Z" fill="#514C43"/>
<path d="M250.249 6.20776V3.37363L248.748 5.67636H248.186L246.687 3.37363V6.1192H245.562V1.42516H246.499L248.374 4.34786L250.249 1.42516H251.186V6.20776H250.154H250.249Z" fill="#514C43"/>
<path d="M251.467 6.29617H250.154V3.72773L248.843 5.76477H248.186L246.875 3.8163V6.29617H245.562V1.33643H246.687L248.467 4.17057L250.249 1.33643H251.373V6.29617H251.467Z" fill="#514C43"/>
<path d="M37.4904 31.0065C37.4904 29.3237 38.8026 28.0838 40.6771 28.0838C41.5206 28.0838 42.3641 28.3494 42.9266 28.8808L42.5516 29.2352C42.0829 28.7923 41.4269 28.5265 40.7708 28.5265C39.2712 28.5265 38.2402 29.5008 38.2402 30.9178C38.2402 32.335 39.365 33.3092 40.7708 33.3092C41.4269 33.3092 42.0829 33.1321 42.5516 32.6006L42.9266 32.955C42.3641 33.4864 41.6144 33.752 40.6771 33.752C38.8963 33.752 37.4904 32.5121 37.4904 30.8293V31.0065Z" fill="#514C43"/>
<path d="M48.3626 33.8406L46.9567 31.9807C46.9567 31.9807 46.6755 31.9807 46.4882 31.9807H44.8947V33.752H44.2387V28.0838H46.4882C47.9877 28.0838 48.925 28.7923 48.925 30.0322C48.925 30.9178 48.4563 31.5378 47.5191 31.8036L49.0188 33.752H48.3626V33.8406ZM48.3626 30.1208C48.3626 29.2352 47.7065 28.7037 46.4882 28.7037H44.8947V31.5378H46.4882C47.7065 31.5378 48.3626 31.0065 48.3626 30.1208Z" fill="#514C43"/>
<path d="M52.4867 31.8921V33.8406H51.8307V31.8921L49.3937 28.1723H50.0499L52.1118 31.3607L54.1738 28.1723H54.8298L52.393 31.8921H52.4867Z" fill="#514C43"/>
<path d="M60.5469 30.1208C60.5469 31.3607 59.6096 32.0692 58.1099 32.0692H56.5166V33.8406H55.8605V28.1723H58.1099C59.6096 28.1723 60.5469 28.8808 60.5469 30.1208ZM59.8907 30.1208C59.8907 29.2352 59.2346 28.7037 58.0162 28.7037H56.4229V31.5379H58.0162C59.2346 31.5379 59.8907 31.0065 59.8907 30.1208Z" fill="#514C43"/>
<path d="M62.8902 28.7037H60.7346V28.1723H65.6083V28.7037H63.4525V33.8406H62.7965V28.7037H62.8902Z" fill="#514C43"/>
<path d="M66.0768 31.0065C66.0768 29.3237 67.389 28.0838 69.2636 28.0838C71.1381 28.0838 72.4502 29.3237 72.4502 31.0065C72.4502 32.6892 71.1381 33.9291 69.2636 33.9291C67.389 33.9291 66.0768 32.6892 66.0768 31.0065ZM71.7942 31.0065C71.7942 29.6779 70.7632 28.6152 69.2636 28.6152C67.764 28.6152 66.733 29.5894 66.733 31.0065C66.733 32.4235 67.8576 33.3977 69.2636 33.3977C70.6694 33.3977 71.7942 32.4235 71.7942 31.0065Z" fill="#514C43"/>
<path d="M73.3873 31.0065C73.3873 29.3237 74.6996 28.0838 76.5741 28.0838C77.4176 28.0838 78.2611 28.3494 78.8235 28.8808L78.4486 29.2352C77.9799 28.7923 77.3239 28.5265 76.6678 28.5265C75.1681 28.5265 74.1371 29.5008 74.1371 30.9178C74.1371 32.335 75.2619 33.3092 76.6678 33.3092C77.3239 33.3092 77.9799 33.1321 78.4486 32.6006L78.8235 32.955C78.2611 33.4864 77.5114 33.752 76.5741 33.752C74.7933 33.752 73.3873 32.5121 73.3873 30.8293V31.0065Z" fill="#514C43"/>
<path d="M80.0421 31.4493V28.1723H80.6982V31.4493C80.6982 32.7779 81.3544 33.3978 82.5727 33.3978C83.7912 33.3978 84.4473 32.7779 84.4473 31.4493V28.1723H85.1034V31.4493C85.1034 33.0435 84.1662 33.9291 82.6665 33.9291C81.1669 33.9291 80.2296 33.0435 80.2296 31.4493H80.0421Z" fill="#514C43"/>
<path d="M91.1016 33.8406L89.6956 31.9807C89.6956 31.9807 89.4145 31.9807 89.227 31.9807H87.6337V33.752H86.9775V28.0838H89.227C90.7266 28.0838 91.6639 28.7923 91.6639 30.0322C91.6639 30.9178 91.1953 31.5378 90.258 31.8036L91.7576 33.752H91.1016V33.8406ZM91.1016 30.1208C91.1016 29.2352 90.4455 28.7037 89.227 28.7037H87.6337V31.5378H89.227C90.4455 31.5378 91.1016 31.0065 91.1016 30.1208Z" fill="#514C43"/>
<path d="M97.3814 33.8406L95.9756 31.9807C95.9756 31.9807 95.6943 31.9807 95.507 31.9807H93.9136V33.752H93.2575V28.0838H95.507C97.0066 28.0838 97.9438 28.7923 97.9438 30.0322C97.9438 30.9178 97.4751 31.5378 96.5379 31.8036L98.0376 33.752H97.3814V33.8406ZM97.3814 30.1208C97.3814 29.2352 96.7253 28.7037 95.507 28.7037H93.9136V31.5378H95.507C96.7253 31.5378 97.3814 31.0065 97.3814 30.1208Z" fill="#514C43"/>
<path d="M103.755 33.3092V33.8406H99.5369V28.1723H103.661V28.7037H100.193V30.7407H103.286V31.2722H100.193V33.3978H103.848L103.755 33.3092Z" fill="#514C43"/>
<path d="M110.316 28.1723V33.8406H109.753L105.91 29.2352V33.8406H105.254V28.1723H105.817L109.659 32.7779V28.1723H110.316Z" fill="#514C43"/>
<path d="M111.815 31.0065C111.815 29.3237 113.127 28.0838 115.002 28.0838C115.845 28.0838 116.689 28.3494 117.251 28.8808L116.877 29.2352C116.408 28.7923 115.752 28.5265 115.096 28.5265C113.596 28.5265 112.565 29.5008 112.565 30.9178C112.565 32.335 113.69 33.3092 115.096 33.3092C115.752 33.3092 116.408 33.1321 116.877 32.6006L117.251 32.955C116.689 33.4864 115.939 33.752 115.002 33.752C113.221 33.752 111.815 32.5121 111.815 30.8293V31.0065Z" fill="#514C43"/>
<path d="M120.532 31.8921V33.8406H119.876V31.8921L117.439 28.1723H118.095L120.157 31.3607L122.219 28.1723H122.875L120.439 31.8921H120.532Z" fill="#514C43"/>
<path d="M131.872 28.1723V33.8406H131.309L127.468 29.2352V33.8406H126.811V28.1723H127.373L131.216 32.7779V28.1723H131.872Z" fill="#514C43"/>
<path d="M138.152 33.3092V33.8406H133.935V28.1723H138.059V28.7037H134.59V30.7407H137.684V31.2722H134.59V33.3978H138.247L138.152 33.3092Z" fill="#514C43"/>
<path d="M147.9 28.1723L145.838 33.8406H145.181L143.401 28.9694L141.62 33.8406H140.964L138.902 28.1723H139.558L141.339 33.0435L143.12 28.1723H143.682L145.462 33.1321L147.244 28.1723H147.9Z" fill="#514C43"/>
<path d="M148.462 33.1321L148.743 32.6892C148.743 32.6892 149.962 33.3977 150.711 33.3977C151.836 33.3977 152.305 32.955 152.305 32.4235C152.305 30.8293 148.556 31.8036 148.556 29.6779C148.556 28.8808 149.212 28.0838 150.806 28.0838C151.461 28.0838 152.211 28.2609 152.679 28.6152L152.493 29.0579C151.93 28.7037 151.368 28.6152 150.806 28.6152C149.681 28.6152 149.212 29.0579 149.212 29.6779C149.212 31.2722 152.96 30.2979 152.96 32.335C152.96 33.1321 152.211 33.9291 150.711 33.9291C149.774 33.9291 148.931 33.6635 148.462 33.2206V33.1321Z" fill="#514C43"/>
<path d="M161.677 33.9291L160.833 33.132C160.365 33.6635 159.615 33.9291 158.865 33.9291C157.647 33.9291 156.804 33.3092 156.804 32.5121C156.804 31.8036 157.178 31.3607 158.303 30.7407C157.74 30.2093 157.554 29.8551 157.554 29.4123C157.554 28.7037 158.116 28.1723 159.053 28.1723C159.896 28.1723 160.459 28.6152 160.459 29.3237C160.459 29.8551 160.084 30.298 159.146 30.8293L160.833 32.4235C160.833 32.4235 161.114 31.715 161.209 31.3607L161.677 31.5379C161.583 32.0692 161.396 32.5121 161.114 32.8664L161.958 33.6635L161.583 34.0178L161.677 33.9291ZM160.459 32.7779L158.678 31.0065C157.74 31.5379 157.459 31.8921 157.459 32.4235C157.459 33.0435 158.022 33.4864 158.96 33.4864C159.615 33.4864 160.178 33.3092 160.552 32.8664L160.459 32.7779ZM158.116 29.3237C158.116 29.3237 158.209 29.8551 158.772 30.3865C159.615 29.9437 159.896 29.5894 159.896 29.2352C159.896 28.8808 159.615 28.5266 159.053 28.5266C158.491 28.5266 158.116 28.8808 158.116 29.3237Z" fill="#514C43"/>
<path d="M167.207 28.7037H165.052V28.1723H169.925V28.7037H167.769V33.8406H167.113V28.7037H167.207Z" fill="#514C43"/>
<path d="M175.267 33.3092V33.8406H171.05V28.1723H175.174V28.7037H171.705V30.7407H174.798V31.2722H171.705V33.3978H175.361L175.267 33.3092Z" fill="#514C43"/>
<path d="M176.205 31.0065C176.205 29.3237 177.516 28.0838 179.391 28.0838C180.235 28.0838 181.078 28.3494 181.641 28.8808L181.266 29.2352C180.797 28.7923 180.141 28.5265 179.485 28.5265C177.985 28.5265 176.954 29.5008 176.954 30.9178C176.954 32.335 178.079 33.3092 179.485 33.3092C180.141 33.3092 180.797 33.1321 181.266 32.6006L181.641 32.955C181.078 33.4864 180.329 33.752 179.391 33.752C177.611 33.752 176.205 32.5121 176.205 30.8293V31.0065Z" fill="#514C43"/>
<path d="M188.014 28.1723V33.8406H187.359V31.1836H183.609V33.8406H182.953V28.1723H183.609V30.7407H187.359V28.1723H188.014Z" fill="#514C43"/>
<path d="M195.043 28.1723V33.8406H194.481L190.638 29.2352V33.8406H189.982V28.1723H190.545L194.388 32.7779V28.1723H195.043Z" fill="#514C43"/>
<path d="M196.544 31.0065C196.544 29.3237 197.856 28.0838 199.73 28.0838C201.605 28.0838 202.917 29.3237 202.917 31.0065C202.917 32.6892 201.605 33.9291 199.73 33.9291C197.856 33.9291 196.544 32.6892 196.544 31.0065ZM202.26 31.0065C202.26 29.6779 201.23 28.6152 199.73 28.6152C198.231 28.6152 197.199 29.5894 197.199 31.0065C197.199 32.4235 198.324 33.3977 199.73 33.3977C201.136 33.3977 202.26 32.4235 202.26 31.0065Z" fill="#514C43"/>
<path d="M204.323 28.1723H204.979V33.3092H208.353V33.8406H204.323V28.1723Z" fill="#514C43"/>
<path d="M208.822 31.0065C208.822 29.3237 210.134 28.0838 212.008 28.0838C213.883 28.0838 215.195 29.3237 215.195 31.0065C215.195 32.6892 213.883 33.9291 212.008 33.9291C210.134 33.9291 208.822 32.6892 208.822 31.0065ZM214.539 31.0065C214.539 29.6779 213.508 28.6152 212.008 28.6152C210.509 28.6152 209.477 29.5894 209.477 31.0065C209.477 32.4235 210.602 33.3977 212.008 33.3977C213.414 33.3977 214.539 32.4235 214.539 31.0065Z" fill="#514C43"/>
<path d="M220.818 31.0065H221.474V33.2206C220.912 33.6635 220.068 33.9291 219.225 33.9291C217.35 33.9291 216.039 32.6892 216.039 31.0065C216.039 29.3237 217.35 28.0838 219.225 28.0838C220.162 28.0838 220.912 28.3494 221.474 28.8808L221.1 29.2352C220.631 28.7923 219.975 28.5265 219.318 28.5265C217.819 28.5265 216.694 29.5008 216.694 30.9178C216.694 32.335 217.819 33.3092 219.225 33.3092C219.787 33.3092 220.349 33.2206 220.818 32.8664V30.9178V31.0065Z" fill="#514C43"/>
<path d="M225.317 31.8921V33.8406H224.661V31.8921L222.224 28.1723H222.88L224.943 31.3607L227.004 28.1723H227.661L225.224 31.8921H225.317Z" fill="#514C43"/>
<path fill-rule="evenodd" clip-rule="evenodd" d="M8.06044 34.1062L0 26.7552V1.24784H34.7724V34.1062H8.06044ZM21.8381 10.9016C24.4624 11.7873 26.4307 13.0272 26.0559 15.4186C25.7747 17.1899 24.7437 17.987 23.4315 18.3413C25.306 19.2269 26.2432 20.644 25.3061 23.1239C24.1813 26.1352 21.557 26.4009 17.9954 25.7809L17.1519 29.0578L15.0899 28.5265L15.9334 25.338C15.3711 25.2495 14.8087 25.0724 14.2464 24.8953L13.4028 28.1722L11.3409 27.6408L12.1844 24.3639C12.1844 24.3639 11.8095 24.2753 11.622 24.1866C11.3409 24.1866 11.0597 24.0095 10.6848 24.0095L7.96671 23.3896L8.99769 21.1753L10.4973 21.5297C11.0597 21.7068 11.3409 21.264 11.4346 21.0868L12.8404 15.95L13.7777 12.2302C13.7777 12.2302 13.6839 11.2559 12.8404 11.0788L11.3409 10.7245L11.9031 8.59889L14.8087 9.30743C14.8087 9.30743 15.4647 9.48457 15.8397 9.57313C15.9334 9.57313 16.0272 9.57313 16.1209 9.57313L16.9644 6.29616L19.0263 6.82756L18.1828 10.016C18.1828 10.016 18.464 10.016 18.5577 10.016C19.0263 10.1045 19.4013 10.1931 19.87 10.2817L20.7135 7.09326L22.7754 7.62467L21.9319 10.9016H21.8381ZM15.2774 22.5925C16.9644 23.0354 20.7135 23.921 21.2758 21.7068C21.8381 19.4041 18.2765 18.6955 16.4957 18.2527C16.3084 18.2527 16.1209 18.2527 15.9334 18.1642L14.8087 22.504C14.8087 22.504 15.0899 22.504 15.1836 22.5925H15.2774ZM16.8707 16.3042C18.2765 16.6585 21.3695 17.4556 21.9319 15.4186C22.4943 13.293 19.495 12.673 17.9954 12.4073C17.8079 12.4073 17.7142 12.4073 17.5267 12.3187L16.4957 16.2156C16.4957 16.2156 16.6832 16.2156 16.8707 16.2156V16.3042Z" fill="#514C43"/>
</g>
</g>
<defs>
<clipPath id="clip0_4_2">
<rect width="252" height="35" fill="white"/>
</clipPath>
</defs>
</svg>
