<svg width="166" height="176" viewBox="0 0 166 176" fill="none" xmlns="http://www.w3.org/2000/svg">
<mask id="path-1-inside-1_2017_48" fill="white">
<path fill-rule="evenodd" clip-rule="evenodd" d="M156.76 56.6316C160.496 50.8869 162.667 44.0303 162.667 36.6667C162.667 16.4162 146.25 0 126 0C115.144 0 105.389 4.71808 98.6757 12.2156C93.4964 11.1993 88.1437 10.6667 82.6667 10.6667C37.0111 10.6667 0 47.6778 0 93.3333C0 138.989 37.0111 176 82.6667 176C128.322 176 165.333 138.989 165.333 93.3333C165.333 80.1512 162.248 67.6896 156.76 56.6316Z"/>
</mask>
<path fill-rule="evenodd" clip-rule="evenodd" d="M156.76 56.6316C160.496 50.8869 162.667 44.0303 162.667 36.6667C162.667 16.4162 146.25 0 126 0C115.144 0 105.389 4.71808 98.6757 12.2156C93.4964 11.1993 88.1437 10.6667 82.6667 10.6667C37.0111 10.6667 0 47.6778 0 93.3333C0 138.989 37.0111 176 82.6667 176C128.322 176 165.333 138.989 165.333 93.3333C165.333 80.1512 162.248 67.6896 156.76 56.6316Z" fill="white"/>
<path d="M156.76 56.6316L154.524 55.1776L153.694 56.4536L154.371 57.8171L156.76 56.6316ZM98.6757 12.2156L98.1622 14.8324L99.6505 15.1245L100.662 13.9946L98.6757 12.2156ZM160 36.6667C160 43.4987 157.988 49.8525 154.524 55.1776L158.995 58.0855C163.004 51.9212 165.333 44.5619 165.333 36.6667H160ZM126 2.66667C144.778 2.66667 160 17.889 160 36.6667H165.333C165.333 14.9435 147.723 -2.66667 126 -2.66667V2.66667ZM100.662 13.9946C106.892 7.03802 115.934 2.66667 126 2.66667V-2.66667C114.354 -2.66667 103.887 2.39815 96.6891 10.4367L100.662 13.9946ZM82.6667 13.3333C87.9705 13.3333 93.1512 13.8491 98.1622 14.8324L99.1892 9.59888C93.8416 8.54954 88.317 8 82.6667 8V13.3333ZM2.66667 93.3333C2.66667 49.1506 38.4839 13.3333 82.6667 13.3333V8C35.5384 8 -2.66667 46.205 -2.66667 93.3333H2.66667ZM82.6667 173.333C38.4839 173.333 2.66667 137.516 2.66667 93.3333H-2.66667C-2.66667 140.462 35.5384 178.667 82.6667 178.667V173.333ZM162.667 93.3333C162.667 137.516 126.849 173.333 82.6667 173.333V178.667C129.795 178.667 168 140.462 168 93.3333H162.667ZM154.371 57.8171C159.68 68.5149 162.667 80.5716 162.667 93.3333H168C168 79.7307 164.815 66.8643 159.148 55.4461L154.371 57.8171Z" fill="black" mask="url(#path-1-inside-1_2017_48)"/>
<mask id="path-3-outside-2_2017_48" maskUnits="userSpaceOnUse" x="118.667" y="20" width="19" height="21" fill="black">
<rect fill="white" x="118.667" y="20" width="19" height="21"/>
<path d="M134.922 23.1562C134.922 24.4062 133.922 25.875 131.922 27.5625C131.422 27.9583 130.995 28.3125 130.641 28.625C133.203 28.6667 134.734 29.2708 135.234 30.4375C135.339 30.7083 135.391 30.9896 135.391 31.2812C135.391 31.5729 135.307 31.9688 135.141 32.4688C134.995 32.9479 134.672 33.5208 134.172 34.1875C133.672 34.8542 133.068 35.5 132.359 36.125C130.88 37.4167 129.318 38.3125 127.672 38.8125C127.109 38.9792 126.651 39.0625 126.297 39.0625C125.964 39.0625 125.693 39.0521 125.484 39.0312C125.276 39.0312 125.057 38.9688 124.828 38.8438C124.599 38.7188 124.484 38.5104 124.484 38.2188C126.047 37.8229 127.422 37.2604 128.609 36.5312C129.797 35.8021 130.734 35.0417 131.422 34.25C132.234 33.2708 132.641 32.4583 132.641 31.8125C132.641 31.1667 132.443 30.7292 132.047 30.5C131.651 30.2708 131.141 30.1562 130.516 30.1562C128.932 30.1562 126.776 30.8021 124.047 32.0938L122.953 30.6875C129.266 27.7708 132.422 25.6771 132.422 24.4062C132.422 23.8646 131.828 23.5104 130.641 23.3438C129.412 23.3438 128.005 23.5521 126.422 23.9688C124.859 24.3854 123.651 24.6875 122.797 24.875C121.943 25.0625 121.068 25.1562 120.172 25.1562C120.172 24.1771 120.412 23.6042 120.891 23.4375C121.766 23.2292 122.693 23 123.672 22.75C126.88 21.9375 129.443 21.5312 131.359 21.5312C133.297 21.5312 134.484 22.0729 134.922 23.1562Z"/>
</mask>
<path d="M134.922 23.1562C134.922 24.4062 133.922 25.875 131.922 27.5625C131.422 27.9583 130.995 28.3125 130.641 28.625C133.203 28.6667 134.734 29.2708 135.234 30.4375C135.339 30.7083 135.391 30.9896 135.391 31.2812C135.391 31.5729 135.307 31.9688 135.141 32.4688C134.995 32.9479 134.672 33.5208 134.172 34.1875C133.672 34.8542 133.068 35.5 132.359 36.125C130.88 37.4167 129.318 38.3125 127.672 38.8125C127.109 38.9792 126.651 39.0625 126.297 39.0625C125.964 39.0625 125.693 39.0521 125.484 39.0312C125.276 39.0312 125.057 38.9688 124.828 38.8438C124.599 38.7188 124.484 38.5104 124.484 38.2188C126.047 37.8229 127.422 37.2604 128.609 36.5312C129.797 35.8021 130.734 35.0417 131.422 34.25C132.234 33.2708 132.641 32.4583 132.641 31.8125C132.641 31.1667 132.443 30.7292 132.047 30.5C131.651 30.2708 131.141 30.1562 130.516 30.1562C128.932 30.1562 126.776 30.8021 124.047 32.0938L122.953 30.6875C129.266 27.7708 132.422 25.6771 132.422 24.4062C132.422 23.8646 131.828 23.5104 130.641 23.3438C129.412 23.3438 128.005 23.5521 126.422 23.9688C124.859 24.3854 123.651 24.6875 122.797 24.875C121.943 25.0625 121.068 25.1562 120.172 25.1562C120.172 24.1771 120.412 23.6042 120.891 23.4375C121.766 23.2292 122.693 23 123.672 22.75C126.88 21.9375 129.443 21.5312 131.359 21.5312C133.297 21.5312 134.484 22.0729 134.922 23.1562Z" fill="#FF7C02"/>
<path d="M134.922 23.1562H136.255V22.8972L136.158 22.657L134.922 23.1562ZM131.922 27.5625L132.75 28.6079L132.766 28.595L132.782 28.5816L131.922 27.5625ZM130.641 28.625L129.759 27.6252L127.178 29.9022L130.619 29.9582L130.641 28.625ZM135.234 30.4375L136.479 29.9589L136.47 29.9354L136.46 29.9123L135.234 30.4375ZM135.141 32.4688L133.876 32.0471L133.87 32.0638L133.865 32.0805L135.141 32.4688ZM132.359 36.125L133.236 37.1293L133.242 37.1248L132.359 36.125ZM127.672 38.8125L128.051 40.0909L128.06 40.0883L127.672 38.8125ZM125.484 39.0312L125.617 37.7045L125.551 37.6979H125.484V39.0312ZM124.484 38.2188L124.157 36.9262L123.151 37.1811V38.2188H124.484ZM131.422 34.25L132.429 35.1242L132.438 35.1129L132.448 35.1014L131.422 34.25ZM124.047 32.0938L122.994 32.9123L123.651 33.7563L124.617 33.2989L124.047 32.0938ZM122.953 30.6875L122.394 29.4771L120.87 30.1812L121.901 31.5061L122.953 30.6875ZM130.641 23.3438L130.826 22.0234L130.734 22.0104H130.641V23.3438ZM126.422 23.9688L126.083 22.6793L126.078 22.6804L126.422 23.9688ZM120.172 25.1562H118.839V26.4896H120.172V25.1562ZM120.891 23.4375L120.582 22.1404L120.516 22.156L120.453 22.1782L120.891 23.4375ZM123.672 22.75L123.345 21.4575L123.342 21.4581L123.672 22.75ZM133.589 23.1562C133.589 23.4226 133.48 23.8423 133.07 24.4449C132.662 25.044 132.009 25.7446 131.062 26.5434L132.782 28.5816C133.835 27.6929 134.682 26.8153 135.274 25.9457C135.864 25.0796 136.255 24.1399 136.255 23.1562H133.589ZM131.094 26.5171C130.582 26.9229 130.135 27.2927 129.759 27.6252L131.523 29.6248C131.854 29.3323 132.262 28.9937 132.75 28.6079L131.094 26.5171ZM130.619 29.9582C131.819 29.9777 132.664 30.1298 133.222 30.3497C133.759 30.5617 133.937 30.7955 134.009 30.9627L136.46 29.9123C136.032 28.9128 135.194 28.2613 134.2 27.8691C133.226 27.4848 132.025 27.314 130.662 27.2918L130.619 29.9582ZM133.99 30.9161C134.035 31.0334 134.057 31.1524 134.057 31.2812H136.724C136.724 30.8268 136.642 30.3832 136.479 29.9589L133.99 30.9161ZM134.057 31.2812C134.057 31.3577 134.028 31.592 133.876 32.0471L136.406 32.8904C136.587 32.3455 136.724 31.7881 136.724 31.2812H134.057ZM133.865 32.0805C133.785 32.3452 133.566 32.7738 133.105 33.3875L135.239 34.9875C135.778 34.2678 136.205 33.5507 136.416 32.857L133.865 32.0805ZM133.105 33.3875C132.666 33.9726 132.126 34.5525 131.477 35.1252L133.242 37.1248C134.009 36.4475 134.677 35.7358 135.239 34.9875L133.105 33.3875ZM131.482 35.1207C130.125 36.3058 128.726 37.0988 127.284 37.5367L128.06 40.0883C129.91 39.5262 131.635 38.5275 133.236 37.1293L131.482 35.1207ZM127.293 37.5341C126.784 37.6849 126.466 37.7292 126.297 37.7292V40.3958C126.836 40.3958 127.435 40.2735 128.051 40.0909L127.293 37.5341ZM126.297 37.7292C125.985 37.7292 125.764 37.7192 125.617 37.7045L125.352 40.358C125.622 40.385 125.942 40.3958 126.297 40.3958V37.7292ZM125.484 37.6979C125.515 37.6979 125.532 37.7027 125.53 37.7023C125.528 37.7017 125.507 37.6954 125.467 37.6732L124.19 40.0143C124.566 40.2195 125.003 40.3646 125.484 40.3646V37.6979ZM125.467 37.6732C125.553 37.7202 125.661 37.8108 125.739 37.9512C125.812 38.0838 125.818 38.1903 125.818 38.2188H123.151C123.151 38.9285 123.474 39.624 124.19 40.0143L125.467 37.6732ZM124.812 39.5113C126.485 39.0874 127.988 38.4772 129.307 37.6675L127.912 35.395C126.855 36.0436 125.609 36.5584 124.157 36.9262L124.812 39.5113ZM129.307 37.6675C130.575 36.8891 131.628 36.0459 132.429 35.1242L130.415 33.3758C129.841 34.0375 129.019 34.7151 127.912 35.395L129.307 37.6675ZM132.448 35.1014C133.295 34.0809 133.974 32.9545 133.974 31.8125H131.307C131.307 31.9621 131.174 32.4607 130.396 33.3986L132.448 35.1014ZM133.974 31.8125C133.974 30.9091 133.682 29.9058 132.715 29.3461L131.379 31.6539C131.358 31.6419 131.333 31.6229 131.311 31.5977C131.289 31.573 131.279 31.5537 131.277 31.5496C131.276 31.5469 131.307 31.6172 131.307 31.8125H133.974ZM132.715 29.3461C132.055 28.964 131.293 28.8229 130.516 28.8229V31.4896C130.989 31.4896 131.247 31.5776 131.379 31.6539L132.715 29.3461ZM130.516 28.8229C128.628 28.8229 126.251 29.5755 123.477 30.8886L124.617 33.2989C127.301 32.0286 129.237 31.4896 130.516 31.4896V28.8229ZM125.099 31.2752L124.006 29.8689L121.901 31.5061L122.994 32.9123L125.099 31.2752ZM123.512 31.8979C126.689 30.4304 129.128 29.1442 130.792 28.0408C131.62 27.4917 132.307 26.954 132.803 26.4259C133.259 25.9397 133.755 25.249 133.755 24.4062H131.089C131.089 24.1989 131.191 24.2465 130.858 24.6014C130.564 24.9145 130.068 25.3208 129.318 25.8186C127.825 26.8089 125.53 28.0279 122.394 29.4771L123.512 31.8979ZM133.755 24.4062C133.755 23.5337 133.232 22.9305 132.66 22.5893C132.137 22.2776 131.485 22.1159 130.826 22.0234L130.455 24.6641C130.706 24.6993 130.9 24.741 131.046 24.7837C131.195 24.8272 131.269 24.8645 131.294 24.8795C131.318 24.894 131.262 24.8669 131.199 24.7718C131.127 24.6635 131.089 24.5306 131.089 24.4062H133.755ZM130.641 22.0104C129.266 22.0104 127.743 22.2425 126.083 22.6793L126.761 25.2582C128.268 24.8617 129.557 24.6771 130.641 24.6771V22.0104ZM126.078 22.6804C124.522 23.0955 123.336 23.3916 122.511 23.5727L123.083 26.1773C123.966 25.9834 125.197 25.6753 126.766 25.2571L126.078 22.6804ZM122.511 23.5727C121.753 23.7391 120.974 23.8229 120.172 23.8229V26.4896C121.162 26.4896 122.133 26.3859 123.083 26.1773L122.511 23.5727ZM121.505 25.1562C121.505 24.9637 121.517 24.8141 121.535 24.7015C121.552 24.5876 121.573 24.5279 121.582 24.5066C121.59 24.4869 121.58 24.5187 121.532 24.5679C121.48 24.6218 121.408 24.6692 121.329 24.6968L120.453 22.1782C119.777 22.4133 119.352 22.9265 119.122 23.4778C118.906 23.9938 118.839 24.5805 118.839 25.1562H121.505ZM121.2 24.7346C122.082 24.5244 123.016 24.2935 124.002 24.0419L123.342 21.4581C122.369 21.7065 121.449 21.934 120.582 22.1404L121.2 24.7346ZM123.999 24.0425C127.166 23.2406 129.605 22.8646 131.359 22.8646V20.1979C129.281 20.1979 126.595 20.6344 123.345 21.4575L123.999 24.0425ZM131.359 22.8646C133.15 22.8646 133.568 23.3636 133.686 23.6555L136.158 22.657C135.401 20.7822 133.444 20.1979 131.359 20.1979V22.8646Z" fill="#FF7C02" mask="url(#path-3-outside-2_2017_48)"/>
<g clip-path="url(#clip0_2017_48)">
<path fill-rule="evenodd" clip-rule="evenodd" d="M51.2799 64.9599C52.007 65.1056 52.7414 65.2124 53.4799 65.2799C53.5142 65.52 53.6205 65.7441 53.7847 65.9227C53.949 66.1012 54.1635 66.2257 54.3999 66.2799C56.0551 66.6576 57.6364 67.3063 59.0799 68.1999C60.4182 69.0229 61.4346 70.2792 61.9599 71.7599C62.1143 72.2122 62.2085 72.683 62.2399 73.1599V75.7199V77.5999C62.2277 78.0204 62.3601 78.4324 62.6148 78.7672C62.8696 79.1021 63.2314 79.3395 63.6399 79.4399C63.8794 79.4983 64.1284 79.5069 64.3713 79.4652C64.6143 79.4235 64.8461 79.3323 65.0524 79.1973C65.2586 79.0622 65.435 78.8863 65.5704 78.6803C65.7059 78.4744 65.7976 78.2428 65.8399 77.9999V75.6799C66.0838 74.8772 66.4053 74.1002 66.7999 73.3599C67.1302 72.6538 67.5323 71.9836 67.9999 71.3599C68.6848 70.5661 69.4957 69.8904 70.3999 69.3599C71.3925 68.7634 72.4211 68.229 73.4799 67.7599C74.0799 67.4799 75.5199 67.1199 76.3599 66.6399C76.8845 66.3979 77.3388 66.0262 77.6799 65.5599C77.9991 65.1708 78.1528 64.672 78.1079 64.1708C78.063 63.6696 77.8231 63.206 77.4399 62.8799C77.0512 62.5022 76.5407 62.2753 75.9999 62.2399C75.3739 62.2806 74.7459 62.2806 74.1199 62.2399L71.9999 61.6799C71.322 61.4446 70.6662 61.1501 70.0399 60.7999C68.6495 60.2389 67.502 59.2047 66.7999 57.8799C66.0989 56.285 65.6146 54.6034 65.3599 52.8799C65.2627 52.4099 65.0088 51.9869 64.6399 51.6799C64.1999 51.3999 62.2799 50.8399 61.9999 52.8399V55.3199C61.9306 56.0666 61.7831 56.804 61.5599 57.5199C61.3982 58.225 61.1566 58.9095 60.8399 59.5599C60.4756 60.3133 59.9557 60.981 59.3145 61.5188C58.6732 62.0566 57.9253 62.4523 57.1199 62.6799C55.3057 63.1556 53.4127 63.2509 51.5599 62.9599C51.4286 62.9415 51.2949 62.9492 51.1666 62.9824C51.0382 63.0157 50.9177 63.0739 50.8118 63.1538C50.7059 63.2336 50.6168 63.3336 50.5496 63.4479C50.4824 63.5622 50.4383 63.6886 50.4199 63.8199C50.4015 63.9512 50.4092 64.0849 50.4425 64.2132C50.4757 64.3416 50.5339 64.4621 50.6138 64.568C50.6937 64.6739 50.7936 64.763 50.9079 64.8302C51.0222 64.8974 51.1486 64.9415 51.2799 64.9599ZM59.0799 64.5599C60.8656 63.8595 62.3509 62.558 63.2799 60.8799L63.9999 59.9999L64.4799 60.8399C65.4839 62.3517 66.8618 63.5781 68.4799 64.3999C69.0466 64.7199 69.6347 65.0006 70.2399 65.2399C69.3502 65.6976 68.4946 66.219 67.6799 66.7999C66.7281 67.4912 65.8912 68.3281 65.1999 69.2799C64.9242 69.6004 64.6828 69.949 64.4799 70.3199C63.7874 68.9617 62.7876 67.7838 61.5599 66.8799C60.5064 66.1166 59.3477 65.5102 58.1199 65.0799L59.0799 64.5599Z" fill="black"/>
<path fill-rule="evenodd" clip-rule="evenodd" d="M116.6 94.4802C116.6 87.9202 115.96 82.1202 115.8 79.2802C115.789 79.1284 115.744 78.981 115.668 78.8493C115.592 78.7176 115.486 78.605 115.36 78.5202C115.18 77.7352 114.809 77.0069 114.28 76.4002C113.543 75.6493 112.676 75.0393 111.72 74.6002C110.452 73.9993 109.105 73.5818 107.72 73.3602C107.57 73.3317 107.415 73.3342 107.266 73.3677C107.117 73.4011 106.976 73.4648 106.852 73.5547C106.729 73.6447 106.625 73.759 106.547 73.8906C106.469 74.0223 106.419 74.1685 106.4 74.3202C106.371 74.4675 106.372 74.6191 106.403 74.7659C106.434 74.9128 106.495 75.0519 106.58 75.175C106.666 75.2982 106.776 75.4028 106.903 75.4827C107.03 75.5626 107.172 75.6161 107.32 75.6402C108.303 75.8402 109.257 76.1627 110.16 76.6002C111.003 76.9629 111.755 77.5096 112.36 78.2002C112.552 78.4619 112.686 78.7608 112.755 79.0778C112.824 79.3947 112.826 79.7226 112.76 80.0402C112.738 80.3391 112.651 80.6297 112.506 80.892C112.361 81.1544 112.161 81.3823 111.92 81.5602C110.307 82.5444 108.484 83.1337 106.6 83.2802C103.588 83.7085 100.531 83.7085 97.5199 83.2802C96.9386 83.2024 96.3637 83.082 95.7999 82.9202C95.2278 82.7559 94.6667 82.5555 94.1199 82.3202L91.9999 81.1602C91.6941 80.9836 91.4267 80.7475 91.2137 80.4658C91.0007 80.1841 90.8464 79.8626 90.7599 79.5202C90.7889 79.1005 90.9162 78.6935 91.1316 78.3321C91.347 77.9708 91.6445 77.6652 91.9999 77.4402C93.507 76.2767 95.2356 75.4328 97.0799 74.9602C98.9325 74.4023 100.884 74.2522 102.8 74.5202C102.929 74.5464 103.061 74.5471 103.19 74.5221C103.319 74.4971 103.442 74.447 103.551 74.3746C103.661 74.3021 103.755 74.2088 103.829 74.1C103.902 73.9911 103.954 73.8689 103.98 73.7402C104.006 73.6115 104.007 73.4789 103.982 73.3499C103.957 73.221 103.907 73.0982 103.834 72.9886C103.762 72.8791 103.669 72.7848 103.56 72.7113C103.451 72.6378 103.329 72.5864 103.2 72.5602C101.002 72.0581 98.7183 72.0581 96.5199 72.5602C94.2788 72.9472 92.1331 73.762 90.1999 74.9602C89.3939 75.429 88.7119 76.0839 88.2108 76.8703C87.7098 77.6567 87.4043 78.5516 87.3199 79.4802C87.2541 80.8437 87.6959 82.1833 88.5599 83.2402C88.0399 86.7602 87.5599 91.2402 87.3199 96.0002C87.3199 98.2002 87.32 100.44 87.08 102.72C86.84 105 87.08 107.24 87.08 109.44C87.08 111.64 87.0799 113.44 87.3599 115.52C87.1554 115.385 86.9416 115.265 86.7199 115.16C85.4521 114.559 84.1053 114.142 82.7199 113.92C82.4274 113.889 82.1338 113.97 81.8987 114.147C81.6636 114.324 81.5045 114.583 81.4537 114.873C81.4028 115.163 81.464 115.461 81.6249 115.708C81.7857 115.954 82.0342 116.13 82.3199 116.2C83.303 116.4 84.2571 116.723 85.1599 117.16C86.0096 117.532 86.7725 118.077 87.4 118.76C87.5635 119 87.6727 119.273 87.7199 119.56V119.8C87.7199 120.4 87.4399 121 87.3199 121.64L86.8799 122.12C85.2825 123.107 83.472 123.697 81.5999 123.84C78.575 124.269 75.5049 124.269 72.4799 123.84C71.8799 123.84 71.3199 123.6 70.7599 123.48C70.1988 123.322 69.6505 123.122 69.1199 122.88L66.9599 121.88C66.6046 121.696 66.299 121.43 66.0692 121.102C65.8393 120.775 65.692 120.397 65.6399 120C65.6719 119.576 65.8002 119.164 66.0151 118.797C66.23 118.43 66.5257 118.116 66.8799 117.88C68.4158 116.739 70.1527 115.898 71.9999 115.4C73.8451 114.875 75.7794 114.738 77.6799 115C77.8087 115.03 77.942 115.033 78.0721 115.011C78.2023 114.989 78.3268 114.941 78.4383 114.87C78.5499 114.8 78.6464 114.708 78.7222 114.599C78.798 114.491 78.8516 114.369 78.8799 114.24C78.9405 113.975 78.8948 113.697 78.7527 113.465C78.6107 113.233 78.3836 113.067 78.1199 113C75.9037 112.539 73.6162 112.539 71.4 113C69.1614 113.419 67.0191 114.246 65.08 115.44C64.2739 115.909 63.5919 116.564 63.0908 117.35C62.5898 118.137 62.2843 119.032 62.1999 119.96C62.1727 120.727 62.309 121.49 62.5999 122.2C62.5999 122.84 62.3599 123.44 62.2799 124.08C62.2404 124.666 62.2404 125.254 62.2799 125.84C62.2363 126.439 62.2363 127.041 62.2799 127.64C62.4216 128.697 62.649 129.74 62.9599 130.76C62.7767 130.947 62.6741 131.198 62.6741 131.46C62.6741 131.722 62.7767 131.973 62.9599 132.16C63.9125 133.007 64.9755 133.72 66.1199 134.28C67.2217 134.809 68.3576 135.263 69.5199 135.64C70.8282 136.02 72.1663 136.288 73.5199 136.44C74.8501 136.569 76.1897 136.569 77.5199 136.44C80.3256 136.106 83.0413 135.237 85.5199 133.88C85.6623 133.824 85.7916 133.739 85.8999 133.63C86.0081 133.522 86.093 133.393 86.1492 133.25C86.2054 133.108 86.2319 132.955 86.2268 132.802C86.2218 132.649 86.1854 132.499 86.1199 132.36C86.0635 132.218 85.9785 132.088 85.8702 131.98C85.7618 131.872 85.6324 131.787 85.4899 131.731C85.3475 131.675 85.195 131.648 85.0419 131.653C84.8888 131.658 84.7384 131.695 84.5999 131.76C82.7619 132.36 80.8514 132.71 78.9199 132.8C77.4817 132.9 76.0382 132.9 74.5999 132.8C73.1538 132.744 71.7117 132.611 70.2799 132.4C68.9947 132.294 67.7224 132.066 66.4799 131.72L65.4399 131.28C65.4399 130.04 65.6799 128.84 65.7599 127.6V126L67.2799 126.68C67.9503 126.992 68.6462 127.247 69.3599 127.44L71.5599 127.92C74.9656 128.457 78.4343 128.457 81.8399 127.92C83.5543 127.629 85.2137 127.076 86.7599 126.28C86.7402 126.48 86.7402 126.681 86.7599 126.88C86.9999 128.2 87.3199 129.48 87.5999 130.88C87.6101 131.033 87.6503 131.182 87.7182 131.318C87.786 131.455 87.8803 131.577 87.9955 131.678C88.1107 131.778 88.2447 131.855 88.3896 131.903C88.5345 131.952 88.6875 131.971 88.8399 131.96C88.9906 131.955 89.1387 131.92 89.2754 131.856C89.4121 131.793 89.5345 131.702 89.6353 131.59C89.7362 131.478 89.8134 131.347 89.8623 131.204C89.9112 131.062 89.9308 130.911 89.9199 130.76C89.9199 129.72 90.1599 128.76 90.3199 127.76C92.3363 128.94 94.5217 129.803 96.7999 130.32C98.1114 130.628 99.453 130.789 100.8 130.8C102.141 130.824 103.48 130.717 104.8 130.48C108.009 129.955 111.089 128.828 113.88 127.16C114.015 127.096 114.137 127.006 114.236 126.894C114.336 126.782 114.413 126.652 114.461 126.51C114.51 126.368 114.529 126.218 114.519 126.069C114.508 125.919 114.468 125.774 114.4 125.64C114.336 125.499 114.244 125.373 114.13 125.27C114.015 125.167 113.88 125.088 113.734 125.039C113.587 124.99 113.432 124.972 113.278 124.986C113.125 125 112.975 125.046 112.84 125.12C110.133 126.134 107.287 126.728 104.4 126.88H100.72C99.5199 126.88 98.2799 126.88 97.0799 126.6C94.7297 126.398 92.4164 125.887 90.1999 125.08V123.48C89.923 121.503 89.923 119.497 90.1999 117.52C92.2369 118.696 94.4328 119.572 96.7199 120.12C99.4677 120.653 102.292 120.653 105.04 120.12C107.831 119.63 110.529 118.713 113.04 117.4C113.04 119.92 113.04 122 113.24 123.36C113.208 123.528 113.214 123.7 113.257 123.865C113.3 124.03 113.378 124.184 113.487 124.315C113.596 124.446 113.732 124.552 113.887 124.625C114.041 124.697 114.209 124.735 114.38 124.735C114.55 124.735 114.719 124.697 114.873 124.625C115.028 124.552 115.164 124.446 115.273 124.315C115.382 124.184 115.46 124.03 115.503 123.865C115.546 123.7 115.551 123.528 115.52 123.36C115.72 120.56 116.12 114.76 116.4 108.2V101.68C116.4 99.4802 116.68 96.6002 116.6 94.4802ZM90.7199 102.48V95.8002C90.7 95.4538 90.7 95.1066 90.7199 94.7602C92.6406 95.8269 94.7003 96.6212 96.8399 97.1202C98.1514 97.4277 99.493 97.5887 100.84 97.6002C102.181 97.6239 103.52 97.5168 104.84 97.2802C107.515 96.8218 110.105 95.9586 112.52 94.7202V101V102.84C109.946 103.761 107.25 104.3 104.52 104.44H100.84C99.6399 104.44 98.3999 104.44 97.1999 104.2C94.8934 103.993 92.6221 103.496 90.4399 102.72L90.7199 102.48ZM92.4799 85.8002C93.1582 86.0818 93.8528 86.3223 94.5599 86.5202C95.2845 86.7182 96.0188 86.8785 96.7599 87.0002C100.154 87.519 103.606 87.519 107 87.0002C109.327 86.6476 111.535 85.7423 113.44 84.3602C113.44 86.6002 113.12 89.2002 113 92.0802C110.366 93.0479 107.602 93.6142 104.8 93.7602H101.12C99.9199 93.7602 98.6799 93.7602 97.4799 93.5202C95.1749 93.2799 92.906 92.7697 90.7199 92.0002V84.9602L92.4799 85.8002ZM104.8 115.8H101.12C99.9199 115.8 98.6799 115.8 97.4799 115.56C95.0736 115.336 92.7068 114.798 90.4399 113.96V109.12V105.44C92.3831 106.538 94.4699 107.359 96.6399 107.88C97.9575 108.152 99.2955 108.313 100.64 108.36C101.981 108.384 103.32 108.277 104.64 108.04C107.301 107.576 109.876 106.713 112.28 105.48V107.48C112.28 109.8 112.28 112.04 112.48 114.04C110.018 114.986 107.43 115.565 104.8 115.76V115.8Z" fill="black"/>
<path fill-rule="evenodd" clip-rule="evenodd" d="M71.2799 109.28C71.4302 109.297 71.5823 109.283 71.7271 109.239C71.8718 109.195 72.0062 109.122 72.122 109.025C72.2379 108.928 72.3329 108.808 72.4013 108.673C72.4697 108.538 72.51 108.391 72.5199 108.24C72.8744 106.352 73.0883 104.44 73.1599 102.52V100.12C73.1216 99.3299 73.0415 98.5421 72.9199 97.7602C72.6799 96.0402 72.3599 94.6002 72.1199 93.7602C72.1993 93.044 72.1302 92.3192 71.9169 91.6309C71.7035 90.9427 71.3505 90.3059 70.8799 89.7602C70.1416 88.9932 69.2577 88.3812 68.2799 87.9602C67.0226 87.3328 65.6716 86.914 64.2799 86.7202C64.1326 86.6915 63.981 86.6926 63.8342 86.7236C63.6873 86.7546 63.5482 86.8148 63.4251 86.9006C63.3019 86.9865 63.1973 87.0961 63.1174 87.2232C63.0375 87.3502 62.9839 87.4921 62.9599 87.6402C62.9309 87.7899 62.9316 87.9439 62.9622 88.0933C62.9927 88.2427 63.0524 88.3847 63.1379 88.511C63.2233 88.6373 63.3329 88.7455 63.4602 88.8295C63.5875 88.9134 63.7301 88.9714 63.8799 89.0002C64.8697 89.1745 65.8273 89.4982 66.7199 89.9602C67.5812 90.3114 68.3483 90.8594 68.9599 91.5602C69.144 91.818 69.2743 92.1103 69.343 92.4195C69.4117 92.7288 69.4175 93.0487 69.3599 93.3602C69.3284 93.6668 69.234 93.9636 69.0826 94.232C68.9312 94.5004 68.726 94.7347 68.4799 94.9202C66.8743 95.8892 65.0681 96.4776 63.1999 96.6402C60.1751 97.0697 57.1047 97.0697 54.0799 96.6402C53.4502 96.4771 52.8349 96.2631 52.2399 96.0002C51.6797 95.8557 51.1315 95.6685 50.5999 95.4402L48.4399 94.4402C48.0877 94.2571 47.7865 93.9896 47.5631 93.6615C47.3397 93.3334 47.2012 92.955 47.1599 92.5602C47.1873 92.1393 47.3095 91.73 47.5173 91.3629C47.7251 90.9958 48.0131 90.6804 48.3599 90.4402C49.9036 89.3216 51.6388 88.4947 53.4799 88.0002C55.3216 87.4552 57.26 87.3187 59.1599 87.6002C59.2939 87.6296 59.4323 87.6321 59.5673 87.6078C59.7023 87.5834 59.8311 87.5326 59.9464 87.4582C60.0616 87.3839 60.161 87.2875 60.2389 87.1745C60.3167 87.0616 60.3714 86.9344 60.3999 86.8002C60.4379 86.5368 60.3772 86.2686 60.2296 86.0471C60.0819 85.8256 59.8577 85.6665 59.5999 85.6002C57.3972 85.1385 55.1226 85.1385 52.9199 85.6002C50.6823 86.0003 48.539 86.8142 46.5999 88.0002C45.7826 88.4556 45.0915 89.1072 44.5887 89.8963C44.0859 90.6853 43.7874 91.587 43.7199 92.5202C43.6654 93.242 43.7748 93.9667 44.0399 94.6402C43.726 96.6014 43.5124 98.5773 43.3999 100.56V104.56C43.3999 106 43.3999 107.16 43.6399 108.56C43.8799 111.52 44.2799 114.2 44.5999 116.28C44.4724 116.512 44.4345 116.783 44.4935 117.041C44.5525 117.299 44.7042 117.527 44.9199 117.68L45.2399 117.92C45.3253 118.046 45.4339 118.155 45.5599 118.24C46.4417 119.047 47.4072 119.758 48.4399 120.36C48.9972 120.696 49.605 120.939 50.2399 121.08C50.8475 121.284 51.4799 121.405 52.1199 121.44C53.569 121.597 55.0308 121.597 56.4799 121.44C56.6475 121.472 56.8199 121.466 56.985 121.423C57.1501 121.38 57.3037 121.302 57.4349 121.193C57.5662 121.084 57.6718 120.948 57.7443 120.793C57.8168 120.639 57.8544 120.471 57.8544 120.3C57.8544 120.13 57.8168 119.961 57.7443 119.807C57.6718 119.653 57.5662 119.516 57.4349 119.407C57.3037 119.298 57.1501 119.22 56.985 119.177C56.8199 119.134 56.6475 119.129 56.4799 119.16C54.9999 118.8 53.7999 118.32 52.4799 117.96L50.0399 117.16L46.9999 116V108.8C48.9784 109.922 51.1064 110.757 53.3199 111.28C54.6346 111.569 55.9742 111.73 57.3199 111.76C58.6604 111.781 59.9998 111.674 61.3199 111.44C64.2922 110.913 67.1572 109.899 69.7999 108.44C69.8307 108.599 69.8955 108.749 69.9899 108.88C70.0842 109.012 70.2059 109.121 70.3466 109.201C70.4872 109.281 70.6434 109.329 70.8045 109.343C70.9656 109.357 71.1278 109.335 71.2799 109.28ZM61.3999 107.68H57.7199C56.4799 107.68 55.3199 107.68 54.0799 107.4C51.7326 107.179 49.4217 106.669 47.1999 105.88V104.08V100.28V97.7202L47.6799 98.0002C48.2375 98.2995 48.8118 98.5666 49.3999 98.8002C50.0749 99.1013 50.7698 99.3552 51.4799 99.5602C52.1909 99.7582 52.9119 99.9184 53.6399 100.04C57.047 100.558 60.5128 100.558 63.9199 100.04C65.9056 99.747 67.8109 99.0529 69.5199 98.0002V100.36V102.72C69.5199 103.48 69.8799 105.04 69.9999 105.96C67.2509 107.015 64.3431 107.596 61.3999 107.68Z" fill="black"/>
<path fill-rule="evenodd" clip-rule="evenodd" d="M81.9599 49.24C83.5999 49.24 85.1199 49.88 86.7599 50.16H87.1199V50.4C87.2942 52.1514 87.5883 53.8888 87.9999 55.6C88.0202 55.9042 88.1556 56.1893 88.3785 56.3973C88.6013 56.6053 88.8951 56.7207 89.1999 56.72C89.5076 56.6901 89.793 56.5464 90.0001 56.317C90.2073 56.0876 90.3214 55.7891 90.3199 55.48C90.3199 53.76 90.7999 52.12 90.9599 50.36H91.1999C92.9497 50.2049 94.6789 49.8698 96.3599 49.36C96.6402 49.2761 96.8784 49.0892 97.0268 48.837C97.1751 48.5848 97.2227 48.2858 97.1599 48C97.1134 47.7243 96.972 47.4735 96.7602 47.2909C96.5484 47.1084 96.2795 47.0055 95.9999 47C94.4214 46.9612 92.846 46.841 91.2799 46.64C91.2799 44.8 91.0399 43 91.0399 41.16C91.0575 41.0103 91.0423 40.8586 90.9953 40.7153C90.9484 40.572 90.8709 40.4406 90.7682 40.3303C90.6654 40.22 90.5399 40.1333 90.4004 40.0763C90.2608 40.0192 90.1105 39.9932 89.9599 40C89.6917 39.9756 89.4239 40.0524 89.2093 40.2152C88.9947 40.378 88.8487 40.6151 88.7999 40.88C88.2306 42.5298 87.763 44.213 87.3999 45.92C87.3999 45.92 87.3999 46.28 87.3999 46.44C85.5697 46.5529 83.751 46.807 81.9599 47.2C81.8268 47.1996 81.6951 47.2268 81.5731 47.28C81.4511 47.3331 81.3414 47.4111 81.2512 47.5089C81.1609 47.6067 81.0919 47.7222 81.0487 47.8481C81.0054 47.9739 80.9888 48.1074 80.9999 48.24C81.009 48.4956 81.1119 48.7388 81.289 48.9233C81.4661 49.1078 81.705 49.2205 81.9599 49.24Z" fill="black"/>
</g>
<defs>
<clipPath id="clip0_2017_48">
<rect width="96" height="96" fill="white" transform="translate(32 40)"/>
</clipPath>
</defs>
</svg>
