<svg width="140" height="35" viewBox="0 0 140 35" fill="none" xmlns="http://www.w3.org/2000/svg">
<path d="M6.69128 34.6921C6.23182 33.826 6.07866 31.2278 6.42326 30.2792C6.84443 29.0006 7.91652 28.8769 9.63946 29.9492C11.1327 30.8978 12.8175 30.8566 14.5787 29.8255C15.6891 29.2069 16.1486 29.1244 16.6846 29.4543C17.0292 29.7018 17.3355 30.1142 17.2972 30.4029C17.259 30.6504 17.2207 31.5577 17.1823 32.4238C17.1058 34.8983 16.7229 35.187 14.9233 34.1972C12.9323 33.125 11.0179 33.0837 9.10346 34.1559C7.49535 35.0221 6.9593 35.1458 6.69128 34.6921Z" fill="#514C43"/>
<path d="M4.12588 24.2163C2.82406 23.6389 1.44568 22.1954 1.44568 21.3706C1.44568 20.2983 2.78578 19.1847 3.7047 19.5147C4.7385 19.8446 4.7385 20.5458 3.7047 20.5458C3.24525 20.5458 2.97722 20.752 3.0538 21.0819C3.3601 22.0304 4.89166 21.8242 6.95924 20.587C9.17997 19.1847 10.4818 19.0198 11.5922 19.8859C12.2431 20.3808 12.4345 20.3808 13.0854 19.8859C14.2723 19.0198 15.4976 19.1847 17.7566 20.587C19.8242 21.8242 21.3557 22.0304 21.662 21.0819C21.7387 20.752 21.4706 20.5458 21.0111 20.5458C19.9773 20.5458 19.9773 19.8446 21.0111 19.5147C21.8918 19.1847 23.2701 20.2983 23.2701 21.2469C23.2701 21.5768 22.7724 22.3604 22.1981 23.0203C20.2837 25.0824 15.5359 25.1649 13.3534 23.1852C12.2814 22.2366 12.2814 22.2366 11.5922 23.0203C10.3287 24.505 6.30833 25.1237 4.12588 24.2163Z" fill="#514C43"/>
<path d="M7.49498 14.4007C4.92965 13.9883 0.909353 12.4623 0.258448 11.5963C-0.0861492 11.1838 -0.0861492 10.8951 0.258448 10.5239C0.679621 10.0703 0.909354 10.1115 3.47469 11.2663C4.04902 11.5138 4.12559 11.2251 4.12559 7.80191C4.12559 3.47145 4.66163 1.94548 6.42291 0.95566C9.37112 -0.694044 16.2631 -0.116648 18.4073 1.98672C19.5176 3.01778 19.5559 3.22399 19.7473 7.30701C19.9004 11.1838 19.9771 11.5138 20.628 11.3076C22.4658 10.6889 22.7338 10.6477 23.2699 11.0189C24.2654 11.7612 22.6572 12.9984 19.8622 13.6996C16.7225 14.4832 10.3666 14.8131 7.49498 14.4007Z" fill="#514C43"/>
<path d="M38.2013 24.1963C36.4131 24.1963 34.9268 23.55 33.7423 22.2575C32.5692 20.9773 31.9826 19.3831 31.9826 17.4751C31.9826 15.5548 32.5692 13.9607 33.7423 12.6927C34.9268 11.4002 36.4131 10.7539 38.2013 10.7539C39.2833 10.7539 40.28 11.0309 41.1911 11.5848C42.1137 12.1265 42.8312 12.8651 43.3437 13.8006L41.3107 15.0747C41.0146 14.4962 40.5932 14.0468 40.0464 13.7267C39.4998 13.3944 38.8847 13.2282 38.2013 13.2282C37.0395 13.2282 36.0999 13.6221 35.3824 14.41C34.6762 15.2101 34.3232 16.2318 34.3232 17.4751C34.3232 18.7061 34.6762 19.7217 35.3824 20.5218C36.0999 21.3096 37.0395 21.7035 38.2013 21.7035C38.8847 21.7035 39.4998 21.5436 40.0464 21.2234C40.6045 20.8911 41.0259 20.4418 41.3107 19.8756L43.3437 21.1496C42.8312 22.0852 42.1137 22.8299 41.1911 23.3839C40.28 23.9254 39.2833 24.1963 38.2013 24.1963Z" fill="#514C43"/>
<path d="M55.4213 22.2575C54.214 23.55 52.7448 24.1963 51.0136 24.1963C49.2823 24.1963 47.8131 23.55 46.6058 22.2575C45.4099 20.9403 44.8119 19.3462 44.8119 17.4751C44.8119 15.5917 45.4099 14.0037 46.6058 12.7112C47.8131 11.4063 49.2823 10.7539 51.0136 10.7539C52.7448 10.7539 54.214 11.4063 55.4213 12.7112C56.6286 14.0037 57.2323 15.5917 57.2323 17.4751C57.2323 19.3585 56.6286 20.9526 55.4213 22.2575ZM48.263 20.5218C48.9919 21.3096 49.9087 21.7035 51.0136 21.7035C52.1184 21.7035 53.0352 21.3096 53.7641 20.5218C54.5045 19.7217 54.8747 18.7061 54.8747 17.4751C54.8747 16.2441 54.5045 15.2285 53.7641 14.4284C53.0238 13.6283 52.1069 13.2282 51.0136 13.2282C49.9202 13.2282 49.0033 13.6283 48.263 14.4284C47.5227 15.2285 47.1524 16.2441 47.1524 17.4751C47.1524 18.7061 47.5227 19.7217 48.263 20.5218Z" fill="#514C43"/>
<path d="M59.5728 23.9378V11.0124H61.9304V23.9378H59.5728Z" fill="#514C43"/>
<path d="M71.7468 18.8969V11.0124H74.1044V23.9378H72.3106L67.1853 16.0348V23.9378H64.8276V11.0124H66.6215L71.7468 18.8969Z" fill="#514C43"/>
<path d="M82.6782 24.1963C80.8901 24.1963 79.4037 23.55 78.2192 22.2575C77.0461 20.9773 76.4595 19.3831 76.4595 17.4751C76.4595 15.5548 77.0461 13.9607 78.2192 12.6927C79.4037 11.4002 80.8901 10.7539 82.6782 10.7539C83.7603 10.7539 84.7568 11.0309 85.668 11.5848C86.5906 12.1265 87.3081 12.8651 87.8207 13.8006L85.7876 15.0747C85.4915 14.4962 85.07 14.0468 84.5234 13.7267C83.9766 13.3944 83.3617 13.2282 82.6782 13.2282C81.5165 13.2282 80.5769 13.6221 79.8593 14.41C79.1531 15.2101 78.8001 16.2318 78.8001 17.4751C78.8001 18.7061 79.1531 19.7217 79.8593 20.5218C80.5769 21.3096 81.5165 21.7035 82.6782 21.7035C83.3617 21.7035 83.9766 21.5436 84.5234 21.2234C85.0815 20.8911 85.5029 20.4418 85.7876 19.8756L87.8207 21.1496C87.3081 22.0852 86.5906 22.8299 85.668 23.3839C84.7568 23.9254 83.7603 24.1963 82.6782 24.1963Z" fill="#514C43"/>
<path d="M89.9524 23.9378V11.0124H92.3101V23.9378H89.9524Z" fill="#514C43"/>
<path d="M97.5649 18.6015V21.5004H102.605V23.9378H95.2076V11.0124H102.52V13.4497H97.5649V16.201H102.092V18.6015H97.5649Z" fill="#514C43"/>
<path d="M114.056 23.9378H111.51L109.102 19.4508H107.307V23.9378H104.95V11.0124H109.733C110.838 11.0124 111.778 11.4309 112.552 12.268C113.327 13.1051 113.714 14.1145 113.714 15.2962C113.714 16.0964 113.503 16.8412 113.082 17.5305C112.66 18.2076 112.102 18.7184 111.408 19.0631L114.056 23.9378ZM109.733 13.3944H107.307V17.2166H109.733C110.178 17.2166 110.559 17.0319 110.878 16.6627C111.197 16.2811 111.357 15.8256 111.357 15.2962C111.357 14.7669 111.197 14.3177 110.878 13.9484C110.559 13.5791 110.178 13.3944 109.733 13.3944Z" fill="#514C43"/>
<path d="M121.735 16.9951H127.731V17.9921C127.731 19.8386 127.184 21.3342 126.091 22.4791C124.997 23.6239 123.585 24.1963 121.854 24.1963C120.009 24.1963 118.477 23.55 117.259 22.2575C116.051 20.9526 115.447 19.3647 115.447 17.4936C115.447 15.6102 116.046 14.016 117.241 12.7112C118.449 11.4063 119.94 10.7539 121.718 10.7539C122.823 10.7539 123.836 11.0247 124.758 11.5664C125.681 12.108 126.404 12.8405 126.928 13.7637L124.912 15.0193C124.627 14.4899 124.194 14.0591 123.613 13.7267C123.033 13.3944 122.395 13.2282 121.701 13.2282C120.55 13.2282 119.61 13.6344 118.882 14.4469C118.152 15.2348 117.788 16.2502 117.788 17.4936C117.788 18.7122 118.158 19.7217 118.899 20.5218C119.639 21.3096 120.63 21.7035 121.871 21.7035C122.771 21.7035 123.523 21.4881 124.126 21.0572C124.73 20.6265 125.14 20.0232 125.357 19.2477H121.735V16.9951Z" fill="#514C43"/>
<path d="M132.449 18.6015V21.5004H137.488V23.9378H130.091V11.0124H137.403V13.4497H132.449V16.201H136.977V18.6015H132.449Z" fill="#514C43"/>
<mask id="mask0_1_255" style="mask-type:luminance" maskUnits="userSpaceOnUse" x="31" y="10" width="107" height="15">
<path d="M38.2013 24.1963C36.4131 24.1963 34.9268 23.55 33.7423 22.2575C32.5692 20.9773 31.9826 19.3831 31.9826 17.4751C31.9826 15.5548 32.5692 13.9607 33.7423 12.6927C34.9268 11.4002 36.4131 10.7539 38.2013 10.7539C39.2833 10.7539 40.28 11.0309 41.1911 11.5848C42.1137 12.1265 42.8312 12.8651 43.3437 13.8006L41.3107 15.0747C41.0146 14.4962 40.5932 14.0468 40.0464 13.7267C39.4998 13.3944 38.8847 13.2282 38.2013 13.2282C37.0395 13.2282 36.0999 13.6221 35.3824 14.41C34.6762 15.2101 34.3232 16.2318 34.3232 17.4751C34.3232 18.7061 34.6762 19.7217 35.3824 20.5218C36.0999 21.3096 37.0395 21.7035 38.2013 21.7035C38.8847 21.7035 39.4998 21.5436 40.0464 21.2234C40.6045 20.8911 41.0259 20.4418 41.3107 19.8756L43.3437 21.1496C42.8312 22.0852 42.1137 22.8299 41.1911 23.3839C40.28 23.9254 39.2833 24.1963 38.2013 24.1963Z" fill="white"/>
<path d="M55.4213 22.2575C54.214 23.55 52.7448 24.1963 51.0136 24.1963C49.2823 24.1963 47.8131 23.55 46.6058 22.2575C45.4099 20.9403 44.8119 19.3462 44.8119 17.4751C44.8119 15.5917 45.4099 14.0037 46.6058 12.7112C47.8131 11.4063 49.2823 10.7539 51.0136 10.7539C52.7448 10.7539 54.214 11.4063 55.4213 12.7112C56.6286 14.0037 57.2323 15.5917 57.2323 17.4751C57.2323 19.3585 56.6286 20.9526 55.4213 22.2575ZM48.263 20.5218C48.9919 21.3096 49.9087 21.7035 51.0136 21.7035C52.1184 21.7035 53.0352 21.3096 53.7641 20.5218C54.5045 19.7217 54.8747 18.7061 54.8747 17.4751C54.8747 16.2441 54.5045 15.2285 53.7641 14.4284C53.0238 13.6283 52.1069 13.2282 51.0136 13.2282C49.9202 13.2282 49.0033 13.6283 48.263 14.4284C47.5227 15.2285 47.1524 16.2441 47.1524 17.4751C47.1524 18.7061 47.5227 19.7217 48.263 20.5218Z" fill="white"/>
<path d="M59.5728 23.9378V11.0124H61.9304V23.9378H59.5728Z" fill="white"/>
<path d="M71.7468 18.8969V11.0124H74.1044V23.9378H72.3106L67.1853 16.0348V23.9378H64.8276V11.0124H66.6215L71.7468 18.8969Z" fill="white"/>
<path d="M82.6782 24.1963C80.8901 24.1963 79.4037 23.55 78.2192 22.2575C77.0461 20.9773 76.4595 19.3831 76.4595 17.4751C76.4595 15.5548 77.0461 13.9607 78.2192 12.6927C79.4037 11.4002 80.8901 10.7539 82.6782 10.7539C83.7603 10.7539 84.7568 11.0309 85.668 11.5848C86.5906 12.1265 87.3081 12.8651 87.8207 13.8006L85.7876 15.0747C85.4915 14.4962 85.07 14.0468 84.5234 13.7267C83.9766 13.3944 83.3617 13.2282 82.6782 13.2282C81.5165 13.2282 80.5769 13.6221 79.8593 14.41C79.1531 15.2101 78.8001 16.2318 78.8001 17.4751C78.8001 18.7061 79.1531 19.7217 79.8593 20.5218C80.5769 21.3096 81.5165 21.7035 82.6782 21.7035C83.3617 21.7035 83.9766 21.5436 84.5234 21.2234C85.0815 20.8911 85.5029 20.4418 85.7876 19.8756L87.8207 21.1496C87.3081 22.0852 86.5906 22.8299 85.668 23.3839C84.7568 23.9254 83.7603 24.1963 82.6782 24.1963Z" fill="white"/>
<path d="M89.9523 23.9378V11.0124H92.31V23.9378H89.9523Z" fill="white"/>
<path d="M97.5648 18.6015V21.5004H102.605V23.9378H95.2075V11.0124H102.52V13.4497H97.5648V16.201H102.092V18.6015H97.5648Z" fill="white"/>
<path d="M114.056 23.9378H111.51L109.102 19.4508H107.307V23.9378H104.95V11.0124H109.733C110.838 11.0124 111.778 11.4309 112.552 12.268C113.327 13.1051 113.714 14.1145 113.714 15.2962C113.714 16.0964 113.503 16.8412 113.082 17.5305C112.66 18.2076 112.102 18.7184 111.408 19.0631L114.056 23.9378ZM109.733 13.3944H107.307V17.2166H109.733C110.178 17.2166 110.559 17.0319 110.878 16.6627C111.197 16.2811 111.357 15.8256 111.357 15.2962C111.357 14.7669 111.197 14.3177 110.878 13.9484C110.559 13.5791 110.178 13.3944 109.733 13.3944Z" fill="white"/>
<path d="M121.735 16.9951H127.731V17.9921C127.731 19.8386 127.184 21.3342 126.091 22.4791C124.997 23.6239 123.585 24.1963 121.854 24.1963C120.009 24.1963 118.477 23.55 117.259 22.2575C116.051 20.9526 115.447 19.3647 115.447 17.4936C115.447 15.6102 116.046 14.016 117.241 12.7112C118.449 11.4063 119.94 10.7539 121.718 10.7539C122.823 10.7539 123.836 11.0247 124.758 11.5664C125.681 12.108 126.404 12.8405 126.928 13.7637L124.912 15.0193C124.627 14.4899 124.194 14.0591 123.613 13.7267C123.033 13.3944 122.395 13.2282 121.701 13.2282C120.55 13.2282 119.61 13.6344 118.882 14.4469C118.152 15.2348 117.788 16.2502 117.788 17.4936C117.788 18.7122 118.158 19.7217 118.899 20.5218C119.639 21.3096 120.63 21.7035 121.871 21.7035C122.771 21.7035 123.523 21.4881 124.126 21.0572C124.73 20.6265 125.14 20.0232 125.357 19.2477H121.735V16.9951Z" fill="white"/>
<path d="M132.449 18.6015V21.5004H137.488V23.9378H130.091V11.0124H137.403V13.4497H132.449V16.201H136.977V18.6015H132.449Z" fill="white"/>
</mask>
<g mask="url(#mask0_1_255)">
<path d="M38.2013 24.1963C36.4131 24.1963 34.9268 23.55 33.7423 22.2575C32.5692 20.9773 31.9826 19.3831 31.9826 17.4751C31.9826 15.5548 32.5692 13.9607 33.7423 12.6927C34.9268 11.4002 36.4131 10.7539 38.2013 10.7539C39.2833 10.7539 40.28 11.0309 41.1911 11.5848C42.1137 12.1265 42.8312 12.8651 43.3437 13.8006L41.3107 15.0747C41.0146 14.4962 40.5932 14.0468 40.0464 13.7267C39.4998 13.3944 38.8847 13.2282 38.2013 13.2282C37.0395 13.2282 36.0999 13.6221 35.3824 14.41C34.6762 15.2101 34.3232 16.2318 34.3232 17.4751C34.3232 18.7061 34.6762 19.7217 35.3824 20.5218C36.0999 21.3096 37.0395 21.7035 38.2013 21.7035C38.8847 21.7035 39.4998 21.5436 40.0464 21.2234C40.6045 20.8911 41.0259 20.4418 41.3107 19.8756L43.3437 21.1496C42.8312 22.0852 42.1137 22.8299 41.1911 23.3839C40.28 23.9254 39.2833 24.1963 38.2013 24.1963Z" stroke="#514C43" stroke-width="0.2"/>
</g>
<mask id="mask1_1_255" style="mask-type:luminance" maskUnits="userSpaceOnUse" x="31" y="10" width="107" height="15">
<path d="M38.2013 24.1963C36.4131 24.1963 34.9268 23.55 33.7423 22.2575C32.5692 20.9773 31.9826 19.3831 31.9826 17.4751C31.9826 15.5548 32.5692 13.9607 33.7423 12.6927C34.9268 11.4002 36.4131 10.7539 38.2013 10.7539C39.2833 10.7539 40.28 11.0309 41.1911 11.5848C42.1137 12.1265 42.8312 12.8651 43.3437 13.8006L41.3107 15.0747C41.0146 14.4962 40.5932 14.0468 40.0464 13.7267C39.4998 13.3944 38.8847 13.2282 38.2013 13.2282C37.0395 13.2282 36.0999 13.6221 35.3824 14.41C34.6762 15.2101 34.3232 16.2318 34.3232 17.4751C34.3232 18.7061 34.6762 19.7217 35.3824 20.5218C36.0999 21.3096 37.0395 21.7035 38.2013 21.7035C38.8847 21.7035 39.4998 21.5436 40.0464 21.2234C40.6045 20.8911 41.0259 20.4418 41.3107 19.8756L43.3437 21.1496C42.8312 22.0852 42.1137 22.8299 41.1911 23.3839C40.28 23.9254 39.2833 24.1963 38.2013 24.1963Z" fill="white"/>
<path d="M55.4213 22.2575C54.214 23.55 52.7448 24.1963 51.0136 24.1963C49.2823 24.1963 47.8131 23.55 46.6058 22.2575C45.4099 20.9403 44.8119 19.3462 44.8119 17.4751C44.8119 15.5917 45.4099 14.0037 46.6058 12.7112C47.8131 11.4063 49.2823 10.7539 51.0136 10.7539C52.7448 10.7539 54.214 11.4063 55.4213 12.7112C56.6286 14.0037 57.2323 15.5917 57.2323 17.4751C57.2323 19.3585 56.6286 20.9526 55.4213 22.2575ZM48.263 20.5218C48.9919 21.3096 49.9087 21.7035 51.0136 21.7035C52.1184 21.7035 53.0352 21.3096 53.7641 20.5218C54.5045 19.7217 54.8747 18.7061 54.8747 17.4751C54.8747 16.2441 54.5045 15.2285 53.7641 14.4284C53.0238 13.6283 52.1069 13.2282 51.0136 13.2282C49.9202 13.2282 49.0033 13.6283 48.263 14.4284C47.5227 15.2285 47.1524 16.2441 47.1524 17.4751C47.1524 18.7061 47.5227 19.7217 48.263 20.5218Z" fill="white"/>
<path d="M59.5728 23.9378V11.0124H61.9304V23.9378H59.5728Z" fill="white"/>
<path d="M71.7468 18.8969V11.0124H74.1044V23.9378H72.3106L67.1853 16.0348V23.9378H64.8276V11.0124H66.6215L71.7468 18.8969Z" fill="white"/>
<path d="M82.6782 24.1963C80.8901 24.1963 79.4037 23.55 78.2192 22.2575C77.0461 20.9773 76.4595 19.3831 76.4595 17.4751C76.4595 15.5548 77.0461 13.9607 78.2192 12.6927C79.4037 11.4002 80.8901 10.7539 82.6782 10.7539C83.7603 10.7539 84.7568 11.0309 85.668 11.5848C86.5906 12.1265 87.3081 12.8651 87.8207 13.8006L85.7876 15.0747C85.4915 14.4962 85.07 14.0468 84.5234 13.7267C83.9766 13.3944 83.3617 13.2282 82.6782 13.2282C81.5165 13.2282 80.5769 13.6221 79.8593 14.41C79.1531 15.2101 78.8001 16.2318 78.8001 17.4751C78.8001 18.7061 79.1531 19.7217 79.8593 20.5218C80.5769 21.3096 81.5165 21.7035 82.6782 21.7035C83.3617 21.7035 83.9766 21.5436 84.5234 21.2234C85.0815 20.8911 85.5029 20.4418 85.7876 19.8756L87.8207 21.1496C87.3081 22.0852 86.5906 22.8299 85.668 23.3839C84.7568 23.9254 83.7603 24.1963 82.6782 24.1963Z" fill="white"/>
<path d="M89.9523 23.9378V11.0124H92.31V23.9378H89.9523Z" fill="white"/>
<path d="M97.5648 18.6015V21.5004H102.605V23.9378H95.2075V11.0124H102.52V13.4497H97.5648V16.201H102.092V18.6015H97.5648Z" fill="white"/>
<path d="M114.056 23.9378H111.51L109.102 19.4508H107.307V23.9378H104.95V11.0124H109.733C110.838 11.0124 111.778 11.4309 112.552 12.268C113.327 13.1051 113.714 14.1145 113.714 15.2962C113.714 16.0964 113.503 16.8412 113.082 17.5305C112.66 18.2076 112.102 18.7184 111.408 19.0631L114.056 23.9378ZM109.733 13.3944H107.307V17.2166H109.733C110.178 17.2166 110.559 17.0319 110.878 16.6627C111.197 16.2811 111.357 15.8256 111.357 15.2962C111.357 14.7669 111.197 14.3177 110.878 13.9484C110.559 13.5791 110.178 13.3944 109.733 13.3944Z" fill="white"/>
<path d="M121.735 16.9951H127.731V17.9921C127.731 19.8386 127.184 21.3342 126.091 22.4791C124.997 23.6239 123.585 24.1963 121.854 24.1963C120.009 24.1963 118.477 23.55 117.259 22.2575C116.051 20.9526 115.447 19.3647 115.447 17.4936C115.447 15.6102 116.046 14.016 117.241 12.7112C118.449 11.4063 119.94 10.7539 121.718 10.7539C122.823 10.7539 123.836 11.0247 124.758 11.5664C125.681 12.108 126.404 12.8405 126.928 13.7637L124.912 15.0193C124.627 14.4899 124.194 14.0591 123.613 13.7267C123.033 13.3944 122.395 13.2282 121.701 13.2282C120.55 13.2282 119.61 13.6344 118.882 14.4469C118.152 15.2348 117.788 16.2502 117.788 17.4936C117.788 18.7122 118.158 19.7217 118.899 20.5218C119.639 21.3096 120.63 21.7035 121.871 21.7035C122.771 21.7035 123.523 21.4881 124.126 21.0572C124.73 20.6265 125.14 20.0232 125.357 19.2477H121.735V16.9951Z" fill="white"/>
<path d="M132.449 18.6015V21.5004H137.488V23.9378H130.091V11.0124H137.403V13.4497H132.449V16.201H136.977V18.6015H132.449Z" fill="white"/>
</mask>
<g mask="url(#mask1_1_255)">
<path d="M55.4213 22.2575C54.214 23.55 52.7448 24.1963 51.0136 24.1963C49.2823 24.1963 47.8131 23.55 46.6058 22.2575C45.4099 20.9403 44.8119 19.3462 44.8119 17.4751C44.8119 15.5917 45.4099 14.0037 46.6058 12.7112C47.8131 11.4063 49.2823 10.7539 51.0136 10.7539C52.7448 10.7539 54.214 11.4063 55.4213 12.7112C56.6286 14.0037 57.2323 15.5917 57.2323 17.4751C57.2323 19.3585 56.6286 20.9526 55.4213 22.2575ZM48.263 20.5218C48.9919 21.3096 49.9087 21.7035 51.0136 21.7035C52.1184 21.7035 53.0352 21.3096 53.7641 20.5218C54.5045 19.7217 54.8747 18.7061 54.8747 17.4751C54.8747 16.2441 54.5045 15.2285 53.7641 14.4284C53.0238 13.6283 52.1069 13.2282 51.0136 13.2282C49.9202 13.2282 49.0033 13.6283 48.263 14.4284C47.5227 15.2285 47.1524 16.2441 47.1524 17.4751C47.1524 18.7061 47.5227 19.7217 48.263 20.5218Z" stroke="#514C43" stroke-width="0.2"/>
</g>
<mask id="mask2_1_255" style="mask-type:luminance" maskUnits="userSpaceOnUse" x="31" y="10" width="107" height="15">
<path d="M38.2013 24.1963C36.4131 24.1963 34.9268 23.55 33.7423 22.2575C32.5692 20.9773 31.9826 19.3831 31.9826 17.4751C31.9826 15.5548 32.5692 13.9607 33.7423 12.6927C34.9268 11.4002 36.4131 10.7539 38.2013 10.7539C39.2833 10.7539 40.28 11.0309 41.1911 11.5848C42.1137 12.1265 42.8312 12.8651 43.3437 13.8006L41.3107 15.0747C41.0146 14.4962 40.5932 14.0468 40.0464 13.7267C39.4998 13.3944 38.8847 13.2282 38.2013 13.2282C37.0395 13.2282 36.0999 13.6221 35.3824 14.41C34.6762 15.2101 34.3232 16.2318 34.3232 17.4751C34.3232 18.7061 34.6762 19.7217 35.3824 20.5218C36.0999 21.3096 37.0395 21.7035 38.2013 21.7035C38.8847 21.7035 39.4998 21.5436 40.0464 21.2234C40.6045 20.8911 41.0259 20.4418 41.3107 19.8756L43.3437 21.1496C42.8312 22.0852 42.1137 22.8299 41.1911 23.3839C40.28 23.9254 39.2833 24.1963 38.2013 24.1963Z" fill="white"/>
<path d="M55.4213 22.2575C54.214 23.55 52.7448 24.1963 51.0136 24.1963C49.2823 24.1963 47.8131 23.55 46.6058 22.2575C45.4099 20.9403 44.8119 19.3462 44.8119 17.4751C44.8119 15.5917 45.4099 14.0037 46.6058 12.7112C47.8131 11.4063 49.2823 10.7539 51.0136 10.7539C52.7448 10.7539 54.214 11.4063 55.4213 12.7112C56.6286 14.0037 57.2323 15.5917 57.2323 17.4751C57.2323 19.3585 56.6286 20.9526 55.4213 22.2575ZM48.263 20.5218C48.9919 21.3096 49.9087 21.7035 51.0136 21.7035C52.1184 21.7035 53.0352 21.3096 53.7641 20.5218C54.5045 19.7217 54.8747 18.7061 54.8747 17.4751C54.8747 16.2441 54.5045 15.2285 53.7641 14.4284C53.0238 13.6283 52.1069 13.2282 51.0136 13.2282C49.9202 13.2282 49.0033 13.6283 48.263 14.4284C47.5227 15.2285 47.1524 16.2441 47.1524 17.4751C47.1524 18.7061 47.5227 19.7217 48.263 20.5218Z" fill="white"/>
<path d="M59.5728 23.9378V11.0124H61.9304V23.9378H59.5728Z" fill="white"/>
<path d="M71.7468 18.8969V11.0124H74.1044V23.9378H72.3106L67.1853 16.0348V23.9378H64.8276V11.0124H66.6215L71.7468 18.8969Z" fill="white"/>
<path d="M82.6782 24.1963C80.8901 24.1963 79.4037 23.55 78.2192 22.2575C77.0461 20.9773 76.4595 19.3831 76.4595 17.4751C76.4595 15.5548 77.0461 13.9607 78.2192 12.6927C79.4037 11.4002 80.8901 10.7539 82.6782 10.7539C83.7603 10.7539 84.7568 11.0309 85.668 11.5848C86.5906 12.1265 87.3081 12.8651 87.8207 13.8006L85.7876 15.0747C85.4915 14.4962 85.07 14.0468 84.5234 13.7267C83.9766 13.3944 83.3617 13.2282 82.6782 13.2282C81.5165 13.2282 80.5769 13.6221 79.8593 14.41C79.1531 15.2101 78.8001 16.2318 78.8001 17.4751C78.8001 18.7061 79.1531 19.7217 79.8593 20.5218C80.5769 21.3096 81.5165 21.7035 82.6782 21.7035C83.3617 21.7035 83.9766 21.5436 84.5234 21.2234C85.0815 20.8911 85.5029 20.4418 85.7876 19.8756L87.8207 21.1496C87.3081 22.0852 86.5906 22.8299 85.668 23.3839C84.7568 23.9254 83.7603 24.1963 82.6782 24.1963Z" fill="white"/>
<path d="M89.9523 23.9378V11.0124H92.31V23.9378H89.9523Z" fill="white"/>
<path d="M97.5648 18.6015V21.5004H102.605V23.9378H95.2075V11.0124H102.52V13.4497H97.5648V16.201H102.092V18.6015H97.5648Z" fill="white"/>
<path d="M114.056 23.9378H111.51L109.102 19.4508H107.307V23.9378H104.95V11.0124H109.733C110.838 11.0124 111.778 11.4309 112.552 12.268C113.327 13.1051 113.714 14.1145 113.714 15.2962C113.714 16.0964 113.503 16.8412 113.082 17.5305C112.66 18.2076 112.102 18.7184 111.408 19.0631L114.056 23.9378ZM109.733 13.3944H107.307V17.2166H109.733C110.178 17.2166 110.559 17.0319 110.878 16.6627C111.197 16.2811 111.357 15.8256 111.357 15.2962C111.357 14.7669 111.197 14.3177 110.878 13.9484C110.559 13.5791 110.178 13.3944 109.733 13.3944Z" fill="white"/>
<path d="M121.735 16.9951H127.731V17.9921C127.731 19.8386 127.184 21.3342 126.091 22.4791C124.997 23.6239 123.585 24.1963 121.854 24.1963C120.009 24.1963 118.477 23.55 117.259 22.2575C116.051 20.9526 115.447 19.3647 115.447 17.4936C115.447 15.6102 116.046 14.016 117.241 12.7112C118.449 11.4063 119.94 10.7539 121.718 10.7539C122.823 10.7539 123.836 11.0247 124.758 11.5664C125.681 12.108 126.404 12.8405 126.928 13.7637L124.912 15.0193C124.627 14.4899 124.194 14.0591 123.613 13.7267C123.033 13.3944 122.395 13.2282 121.701 13.2282C120.55 13.2282 119.61 13.6344 118.882 14.4469C118.152 15.2348 117.788 16.2502 117.788 17.4936C117.788 18.7122 118.158 19.7217 118.899 20.5218C119.639 21.3096 120.63 21.7035 121.871 21.7035C122.771 21.7035 123.523 21.4881 124.126 21.0572C124.73 20.6265 125.14 20.0232 125.357 19.2477H121.735V16.9951Z" fill="white"/>
<path d="M132.449 18.6015V21.5004H137.488V23.9378H130.091V11.0124H137.403V13.4497H132.449V16.201H136.977V18.6015H132.449Z" fill="white"/>
</mask>
<g mask="url(#mask2_1_255)">
<path d="M59.5728 23.9378V11.0124H61.9304V23.9378H59.5728Z" stroke="#514C43" stroke-width="0.2"/>
</g>
<mask id="mask3_1_255" style="mask-type:luminance" maskUnits="userSpaceOnUse" x="31" y="10" width="107" height="15">
<path d="M38.2013 24.1963C36.4131 24.1963 34.9268 23.55 33.7423 22.2575C32.5692 20.9773 31.9826 19.3831 31.9826 17.4751C31.9826 15.5548 32.5692 13.9607 33.7423 12.6927C34.9268 11.4002 36.4131 10.7539 38.2013 10.7539C39.2833 10.7539 40.28 11.0309 41.1911 11.5848C42.1137 12.1265 42.8312 12.8651 43.3437 13.8006L41.3107 15.0747C41.0146 14.4962 40.5932 14.0468 40.0464 13.7267C39.4998 13.3944 38.8847 13.2282 38.2013 13.2282C37.0395 13.2282 36.0999 13.6221 35.3824 14.41C34.6762 15.2101 34.3232 16.2318 34.3232 17.4751C34.3232 18.7061 34.6762 19.7217 35.3824 20.5218C36.0999 21.3096 37.0395 21.7035 38.2013 21.7035C38.8847 21.7035 39.4998 21.5436 40.0464 21.2234C40.6045 20.8911 41.0259 20.4418 41.3107 19.8756L43.3437 21.1496C42.8312 22.0852 42.1137 22.8299 41.1911 23.3839C40.28 23.9254 39.2833 24.1963 38.2013 24.1963Z" fill="white"/>
<path d="M55.4213 22.2575C54.214 23.55 52.7448 24.1963 51.0136 24.1963C49.2823 24.1963 47.8131 23.55 46.6058 22.2575C45.4099 20.9403 44.8119 19.3462 44.8119 17.4751C44.8119 15.5917 45.4099 14.0037 46.6058 12.7112C47.8131 11.4063 49.2823 10.7539 51.0136 10.7539C52.7448 10.7539 54.214 11.4063 55.4213 12.7112C56.6286 14.0037 57.2323 15.5917 57.2323 17.4751C57.2323 19.3585 56.6286 20.9526 55.4213 22.2575ZM48.263 20.5218C48.9919 21.3096 49.9087 21.7035 51.0136 21.7035C52.1184 21.7035 53.0352 21.3096 53.7641 20.5218C54.5045 19.7217 54.8747 18.7061 54.8747 17.4751C54.8747 16.2441 54.5045 15.2285 53.7641 14.4284C53.0238 13.6283 52.1069 13.2282 51.0136 13.2282C49.9202 13.2282 49.0033 13.6283 48.263 14.4284C47.5227 15.2285 47.1524 16.2441 47.1524 17.4751C47.1524 18.7061 47.5227 19.7217 48.263 20.5218Z" fill="white"/>
<path d="M59.5728 23.9378V11.0124H61.9304V23.9378H59.5728Z" fill="white"/>
<path d="M71.7468 18.8969V11.0124H74.1044V23.9378H72.3106L67.1853 16.0348V23.9378H64.8276V11.0124H66.6215L71.7468 18.8969Z" fill="white"/>
<path d="M82.6782 24.1963C80.8901 24.1963 79.4037 23.55 78.2192 22.2575C77.0461 20.9773 76.4595 19.3831 76.4595 17.4751C76.4595 15.5548 77.0461 13.9607 78.2192 12.6927C79.4037 11.4002 80.8901 10.7539 82.6782 10.7539C83.7603 10.7539 84.7568 11.0309 85.668 11.5848C86.5906 12.1265 87.3081 12.8651 87.8207 13.8006L85.7876 15.0747C85.4915 14.4962 85.07 14.0468 84.5234 13.7267C83.9766 13.3944 83.3617 13.2282 82.6782 13.2282C81.5165 13.2282 80.5769 13.6221 79.8593 14.41C79.1531 15.2101 78.8001 16.2318 78.8001 17.4751C78.8001 18.7061 79.1531 19.7217 79.8593 20.5218C80.5769 21.3096 81.5165 21.7035 82.6782 21.7035C83.3617 21.7035 83.9766 21.5436 84.5234 21.2234C85.0815 20.8911 85.5029 20.4418 85.7876 19.8756L87.8207 21.1496C87.3081 22.0852 86.5906 22.8299 85.668 23.3839C84.7568 23.9254 83.7603 24.1963 82.6782 24.1963Z" fill="white"/>
<path d="M89.9523 23.9378V11.0124H92.31V23.9378H89.9523Z" fill="white"/>
<path d="M97.5648 18.6015V21.5004H102.605V23.9378H95.2075V11.0124H102.52V13.4497H97.5648V16.201H102.092V18.6015H97.5648Z" fill="white"/>
<path d="M114.056 23.9378H111.51L109.102 19.4508H107.307V23.9378H104.95V11.0124H109.733C110.838 11.0124 111.778 11.4309 112.552 12.268C113.327 13.1051 113.714 14.1145 113.714 15.2962C113.714 16.0964 113.503 16.8412 113.082 17.5305C112.66 18.2076 112.102 18.7184 111.408 19.0631L114.056 23.9378ZM109.733 13.3944H107.307V17.2166H109.733C110.178 17.2166 110.559 17.0319 110.878 16.6627C111.197 16.2811 111.357 15.8256 111.357 15.2962C111.357 14.7669 111.197 14.3177 110.878 13.9484C110.559 13.5791 110.178 13.3944 109.733 13.3944Z" fill="white"/>
<path d="M121.735 16.9951H127.731V17.9921C127.731 19.8386 127.184 21.3342 126.091 22.4791C124.997 23.6239 123.585 24.1963 121.854 24.1963C120.009 24.1963 118.477 23.55 117.259 22.2575C116.051 20.9526 115.447 19.3647 115.447 17.4936C115.447 15.6102 116.046 14.016 117.241 12.7112C118.449 11.4063 119.94 10.7539 121.718 10.7539C122.823 10.7539 123.836 11.0247 124.758 11.5664C125.681 12.108 126.404 12.8405 126.928 13.7637L124.912 15.0193C124.627 14.4899 124.194 14.0591 123.613 13.7267C123.033 13.3944 122.395 13.2282 121.701 13.2282C120.55 13.2282 119.61 13.6344 118.882 14.4469C118.152 15.2348 117.788 16.2502 117.788 17.4936C117.788 18.7122 118.158 19.7217 118.899 20.5218C119.639 21.3096 120.63 21.7035 121.871 21.7035C122.771 21.7035 123.523 21.4881 124.126 21.0572C124.73 20.6265 125.14 20.0232 125.357 19.2477H121.735V16.9951Z" fill="white"/>
<path d="M132.449 18.6015V21.5004H137.488V23.9378H130.091V11.0124H137.403V13.4497H132.449V16.201H136.977V18.6015H132.449Z" fill="white"/>
</mask>
<g mask="url(#mask3_1_255)">
<path d="M71.7468 18.8969V11.0124H74.1044V23.9378H72.3106L67.1853 16.0348V23.9378H64.8276V11.0124H66.6215L71.7468 18.8969Z" stroke="#514C43" stroke-width="0.2"/>
</g>
<mask id="mask4_1_255" style="mask-type:luminance" maskUnits="userSpaceOnUse" x="31" y="10" width="107" height="15">
<path d="M38.2013 24.1963C36.4131 24.1963 34.9268 23.55 33.7423 22.2575C32.5692 20.9773 31.9826 19.3831 31.9826 17.4751C31.9826 15.5548 32.5692 13.9607 33.7423 12.6927C34.9268 11.4002 36.4131 10.7539 38.2013 10.7539C39.2833 10.7539 40.28 11.0309 41.1911 11.5848C42.1137 12.1265 42.8312 12.8651 43.3437 13.8006L41.3107 15.0747C41.0146 14.4962 40.5932 14.0468 40.0464 13.7267C39.4998 13.3944 38.8847 13.2282 38.2013 13.2282C37.0395 13.2282 36.0999 13.6221 35.3824 14.41C34.6762 15.2101 34.3232 16.2318 34.3232 17.4751C34.3232 18.7061 34.6762 19.7217 35.3824 20.5218C36.0999 21.3096 37.0395 21.7035 38.2013 21.7035C38.8847 21.7035 39.4998 21.5436 40.0464 21.2234C40.6045 20.8911 41.0259 20.4418 41.3107 19.8756L43.3437 21.1496C42.8312 22.0852 42.1137 22.8299 41.1911 23.3839C40.28 23.9254 39.2833 24.1963 38.2013 24.1963Z" fill="white"/>
<path d="M55.4213 22.2575C54.214 23.55 52.7448 24.1963 51.0136 24.1963C49.2823 24.1963 47.8131 23.55 46.6058 22.2575C45.4099 20.9403 44.8119 19.3462 44.8119 17.4751C44.8119 15.5917 45.4099 14.0037 46.6058 12.7112C47.8131 11.4063 49.2823 10.7539 51.0136 10.7539C52.7448 10.7539 54.214 11.4063 55.4213 12.7112C56.6286 14.0037 57.2323 15.5917 57.2323 17.4751C57.2323 19.3585 56.6286 20.9526 55.4213 22.2575ZM48.263 20.5218C48.9919 21.3096 49.9087 21.7035 51.0136 21.7035C52.1184 21.7035 53.0352 21.3096 53.7641 20.5218C54.5045 19.7217 54.8747 18.7061 54.8747 17.4751C54.8747 16.2441 54.5045 15.2285 53.7641 14.4284C53.0238 13.6283 52.1069 13.2282 51.0136 13.2282C49.9202 13.2282 49.0033 13.6283 48.263 14.4284C47.5227 15.2285 47.1524 16.2441 47.1524 17.4751C47.1524 18.7061 47.5227 19.7217 48.263 20.5218Z" fill="white"/>
<path d="M59.5728 23.9378V11.0124H61.9304V23.9378H59.5728Z" fill="white"/>
<path d="M71.7468 18.8969V11.0124H74.1044V23.9378H72.3106L67.1853 16.0348V23.9378H64.8276V11.0124H66.6215L71.7468 18.8969Z" fill="white"/>
<path d="M82.6782 24.1963C80.8901 24.1963 79.4037 23.55 78.2192 22.2575C77.0461 20.9773 76.4595 19.3831 76.4595 17.4751C76.4595 15.5548 77.0461 13.9607 78.2192 12.6927C79.4037 11.4002 80.8901 10.7539 82.6782 10.7539C83.7603 10.7539 84.7568 11.0309 85.668 11.5848C86.5906 12.1265 87.3081 12.8651 87.8207 13.8006L85.7876 15.0747C85.4915 14.4962 85.07 14.0468 84.5234 13.7267C83.9766 13.3944 83.3617 13.2282 82.6782 13.2282C81.5165 13.2282 80.5769 13.6221 79.8593 14.41C79.1531 15.2101 78.8001 16.2318 78.8001 17.4751C78.8001 18.7061 79.1531 19.7217 79.8593 20.5218C80.5769 21.3096 81.5165 21.7035 82.6782 21.7035C83.3617 21.7035 83.9766 21.5436 84.5234 21.2234C85.0815 20.8911 85.5029 20.4418 85.7876 19.8756L87.8207 21.1496C87.3081 22.0852 86.5906 22.8299 85.668 23.3839C84.7568 23.9254 83.7603 24.1963 82.6782 24.1963Z" fill="white"/>
<path d="M89.9523 23.9378V11.0124H92.31V23.9378H89.9523Z" fill="white"/>
<path d="M97.5648 18.6015V21.5004H102.605V23.9378H95.2075V11.0124H102.52V13.4497H97.5648V16.201H102.092V18.6015H97.5648Z" fill="white"/>
<path d="M114.056 23.9378H111.51L109.102 19.4508H107.307V23.9378H104.95V11.0124H109.733C110.838 11.0124 111.778 11.4309 112.552 12.268C113.327 13.1051 113.714 14.1145 113.714 15.2962C113.714 16.0964 113.503 16.8412 113.082 17.5305C112.66 18.2076 112.102 18.7184 111.408 19.0631L114.056 23.9378ZM109.733 13.3944H107.307V17.2166H109.733C110.178 17.2166 110.559 17.0319 110.878 16.6627C111.197 16.2811 111.357 15.8256 111.357 15.2962C111.357 14.7669 111.197 14.3177 110.878 13.9484C110.559 13.5791 110.178 13.3944 109.733 13.3944Z" fill="white"/>
<path d="M121.735 16.9951H127.731V17.9921C127.731 19.8386 127.184 21.3342 126.091 22.4791C124.997 23.6239 123.585 24.1963 121.854 24.1963C120.009 24.1963 118.477 23.55 117.259 22.2575C116.051 20.9526 115.447 19.3647 115.447 17.4936C115.447 15.6102 116.046 14.016 117.241 12.7112C118.449 11.4063 119.94 10.7539 121.718 10.7539C122.823 10.7539 123.836 11.0247 124.758 11.5664C125.681 12.108 126.404 12.8405 126.928 13.7637L124.912 15.0193C124.627 14.4899 124.194 14.0591 123.613 13.7267C123.033 13.3944 122.395 13.2282 121.701 13.2282C120.55 13.2282 119.61 13.6344 118.882 14.4469C118.152 15.2348 117.788 16.2502 117.788 17.4936C117.788 18.7122 118.158 19.7217 118.899 20.5218C119.639 21.3096 120.63 21.7035 121.871 21.7035C122.771 21.7035 123.523 21.4881 124.126 21.0572C124.73 20.6265 125.14 20.0232 125.357 19.2477H121.735V16.9951Z" fill="white"/>
<path d="M132.449 18.6015V21.5004H137.488V23.9378H130.091V11.0124H137.403V13.4497H132.449V16.201H136.977V18.6015H132.449Z" fill="white"/>
</mask>
<g mask="url(#mask4_1_255)">
<path d="M82.6782 24.1963C80.8901 24.1963 79.4037 23.55 78.2192 22.2575C77.0461 20.9773 76.4595 19.3831 76.4595 17.4751C76.4595 15.5548 77.0461 13.9607 78.2192 12.6927C79.4037 11.4002 80.8901 10.7539 82.6782 10.7539C83.7603 10.7539 84.7568 11.0309 85.668 11.5848C86.5906 12.1265 87.3081 12.8651 87.8207 13.8006L85.7876 15.0747C85.4915 14.4962 85.07 14.0468 84.5234 13.7267C83.9766 13.3944 83.3617 13.2282 82.6782 13.2282C81.5165 13.2282 80.5769 13.6221 79.8593 14.41C79.1531 15.2101 78.8001 16.2318 78.8001 17.4751C78.8001 18.7061 79.1531 19.7217 79.8593 20.5218C80.5769 21.3096 81.5165 21.7035 82.6782 21.7035C83.3617 21.7035 83.9766 21.5436 84.5234 21.2234C85.0815 20.8911 85.5029 20.4418 85.7876 19.8756L87.8207 21.1496C87.3081 22.0852 86.5906 22.8299 85.668 23.3839C84.7568 23.9254 83.7603 24.1963 82.6782 24.1963Z" stroke="#514C43" stroke-width="0.2"/>
</g>
<mask id="mask5_1_255" style="mask-type:luminance" maskUnits="userSpaceOnUse" x="31" y="10" width="107" height="15">
<path d="M38.2013 24.1963C36.4131 24.1963 34.9268 23.55 33.7423 22.2575C32.5692 20.9773 31.9826 19.3831 31.9826 17.4751C31.9826 15.5548 32.5692 13.9607 33.7423 12.6927C34.9268 11.4002 36.4131 10.7539 38.2013 10.7539C39.2833 10.7539 40.28 11.0309 41.1911 11.5848C42.1137 12.1265 42.8312 12.8651 43.3437 13.8006L41.3107 15.0747C41.0146 14.4962 40.5932 14.0468 40.0464 13.7267C39.4998 13.3944 38.8847 13.2282 38.2013 13.2282C37.0395 13.2282 36.0999 13.6221 35.3824 14.41C34.6762 15.2101 34.3232 16.2318 34.3232 17.4751C34.3232 18.7061 34.6762 19.7217 35.3824 20.5218C36.0999 21.3096 37.0395 21.7035 38.2013 21.7035C38.8847 21.7035 39.4998 21.5436 40.0464 21.2234C40.6045 20.8911 41.0259 20.4418 41.3107 19.8756L43.3437 21.1496C42.8312 22.0852 42.1137 22.8299 41.1911 23.3839C40.28 23.9254 39.2833 24.1963 38.2013 24.1963Z" fill="white"/>
<path d="M55.4213 22.2575C54.214 23.55 52.7448 24.1963 51.0136 24.1963C49.2823 24.1963 47.8131 23.55 46.6058 22.2575C45.4099 20.9403 44.8119 19.3462 44.8119 17.4751C44.8119 15.5917 45.4099 14.0037 46.6058 12.7112C47.8131 11.4063 49.2823 10.7539 51.0136 10.7539C52.7448 10.7539 54.214 11.4063 55.4213 12.7112C56.6286 14.0037 57.2323 15.5917 57.2323 17.4751C57.2323 19.3585 56.6286 20.9526 55.4213 22.2575ZM48.263 20.5218C48.9919 21.3096 49.9087 21.7035 51.0136 21.7035C52.1184 21.7035 53.0352 21.3096 53.7641 20.5218C54.5045 19.7217 54.8747 18.7061 54.8747 17.4751C54.8747 16.2441 54.5045 15.2285 53.7641 14.4284C53.0238 13.6283 52.1069 13.2282 51.0136 13.2282C49.9202 13.2282 49.0033 13.6283 48.263 14.4284C47.5227 15.2285 47.1524 16.2441 47.1524 17.4751C47.1524 18.7061 47.5227 19.7217 48.263 20.5218Z" fill="white"/>
<path d="M59.5728 23.9378V11.0124H61.9304V23.9378H59.5728Z" fill="white"/>
<path d="M71.7468 18.8969V11.0124H74.1044V23.9378H72.3106L67.1853 16.0348V23.9378H64.8276V11.0124H66.6215L71.7468 18.8969Z" fill="white"/>
<path d="M82.6782 24.1963C80.8901 24.1963 79.4037 23.55 78.2192 22.2575C77.0461 20.9773 76.4595 19.3831 76.4595 17.4751C76.4595 15.5548 77.0461 13.9607 78.2192 12.6927C79.4037 11.4002 80.8901 10.7539 82.6782 10.7539C83.7603 10.7539 84.7568 11.0309 85.668 11.5848C86.5906 12.1265 87.3081 12.8651 87.8207 13.8006L85.7876 15.0747C85.4915 14.4962 85.07 14.0468 84.5234 13.7267C83.9766 13.3944 83.3617 13.2282 82.6782 13.2282C81.5165 13.2282 80.5769 13.6221 79.8593 14.41C79.1531 15.2101 78.8001 16.2318 78.8001 17.4751C78.8001 18.7061 79.1531 19.7217 79.8593 20.5218C80.5769 21.3096 81.5165 21.7035 82.6782 21.7035C83.3617 21.7035 83.9766 21.5436 84.5234 21.2234C85.0815 20.8911 85.5029 20.4418 85.7876 19.8756L87.8207 21.1496C87.3081 22.0852 86.5906 22.8299 85.668 23.3839C84.7568 23.9254 83.7603 24.1963 82.6782 24.1963Z" fill="white"/>
<path d="M89.9523 23.9378V11.0124H92.31V23.9378H89.9523Z" fill="white"/>
<path d="M97.5648 18.6015V21.5004H102.605V23.9378H95.2075V11.0124H102.52V13.4497H97.5648V16.201H102.092V18.6015H97.5648Z" fill="white"/>
<path d="M114.056 23.9378H111.51L109.102 19.4508H107.307V23.9378H104.95V11.0124H109.733C110.838 11.0124 111.778 11.4309 112.552 12.268C113.327 13.1051 113.714 14.1145 113.714 15.2962C113.714 16.0964 113.503 16.8412 113.082 17.5305C112.66 18.2076 112.102 18.7184 111.408 19.0631L114.056 23.9378ZM109.733 13.3944H107.307V17.2166H109.733C110.178 17.2166 110.559 17.0319 110.878 16.6627C111.197 16.2811 111.357 15.8256 111.357 15.2962C111.357 14.7669 111.197 14.3177 110.878 13.9484C110.559 13.5791 110.178 13.3944 109.733 13.3944Z" fill="white"/>
<path d="M121.735 16.9951H127.731V17.9921C127.731 19.8386 127.184 21.3342 126.091 22.4791C124.997 23.6239 123.585 24.1963 121.854 24.1963C120.009 24.1963 118.477 23.55 117.259 22.2575C116.051 20.9526 115.447 19.3647 115.447 17.4936C115.447 15.6102 116.046 14.016 117.241 12.7112C118.449 11.4063 119.94 10.7539 121.718 10.7539C122.823 10.7539 123.836 11.0247 124.758 11.5664C125.681 12.108 126.404 12.8405 126.928 13.7637L124.912 15.0193C124.627 14.4899 124.194 14.0591 123.613 13.7267C123.033 13.3944 122.395 13.2282 121.701 13.2282C120.55 13.2282 119.61 13.6344 118.882 14.4469C118.152 15.2348 117.788 16.2502 117.788 17.4936C117.788 18.7122 118.158 19.7217 118.899 20.5218C119.639 21.3096 120.63 21.7035 121.871 21.7035C122.771 21.7035 123.523 21.4881 124.126 21.0572C124.73 20.6265 125.14 20.0232 125.357 19.2477H121.735V16.9951Z" fill="white"/>
<path d="M132.449 18.6015V21.5004H137.488V23.9378H130.091V11.0124H137.403V13.4497H132.449V16.201H136.977V18.6015H132.449Z" fill="white"/>
</mask>
<g mask="url(#mask5_1_255)">
<path d="M89.9523 23.9378V11.0124H92.31V23.9378H89.9523Z" stroke="#514C43" stroke-width="0.2"/>
</g>
<mask id="mask6_1_255" style="mask-type:luminance" maskUnits="userSpaceOnUse" x="31" y="10" width="107" height="15">
<path d="M38.2013 24.1963C36.4131 24.1963 34.9268 23.55 33.7423 22.2575C32.5692 20.9773 31.9826 19.3831 31.9826 17.4751C31.9826 15.5548 32.5692 13.9607 33.7423 12.6927C34.9268 11.4002 36.4131 10.7539 38.2013 10.7539C39.2833 10.7539 40.28 11.0309 41.1911 11.5848C42.1137 12.1265 42.8312 12.8651 43.3437 13.8006L41.3107 15.0747C41.0146 14.4962 40.5932 14.0468 40.0464 13.7267C39.4998 13.3944 38.8847 13.2282 38.2013 13.2282C37.0395 13.2282 36.0999 13.6221 35.3824 14.41C34.6762 15.2101 34.3232 16.2318 34.3232 17.4751C34.3232 18.7061 34.6762 19.7217 35.3824 20.5218C36.0999 21.3096 37.0395 21.7035 38.2013 21.7035C38.8847 21.7035 39.4998 21.5436 40.0464 21.2234C40.6045 20.8911 41.0259 20.4418 41.3107 19.8756L43.3437 21.1496C42.8312 22.0852 42.1137 22.8299 41.1911 23.3839C40.28 23.9254 39.2833 24.1963 38.2013 24.1963Z" fill="white"/>
<path d="M55.4213 22.2575C54.214 23.55 52.7448 24.1963 51.0136 24.1963C49.2823 24.1963 47.8131 23.55 46.6058 22.2575C45.4099 20.9403 44.8119 19.3462 44.8119 17.4751C44.8119 15.5917 45.4099 14.0037 46.6058 12.7112C47.8131 11.4063 49.2823 10.7539 51.0136 10.7539C52.7448 10.7539 54.214 11.4063 55.4213 12.7112C56.6286 14.0037 57.2323 15.5917 57.2323 17.4751C57.2323 19.3585 56.6286 20.9526 55.4213 22.2575ZM48.263 20.5218C48.9919 21.3096 49.9087 21.7035 51.0136 21.7035C52.1184 21.7035 53.0352 21.3096 53.7641 20.5218C54.5045 19.7217 54.8747 18.7061 54.8747 17.4751C54.8747 16.2441 54.5045 15.2285 53.7641 14.4284C53.0238 13.6283 52.1069 13.2282 51.0136 13.2282C49.9202 13.2282 49.0033 13.6283 48.263 14.4284C47.5227 15.2285 47.1524 16.2441 47.1524 17.4751C47.1524 18.7061 47.5227 19.7217 48.263 20.5218Z" fill="white"/>
<path d="M59.5728 23.9378V11.0124H61.9304V23.9378H59.5728Z" fill="white"/>
<path d="M71.7468 18.8969V11.0124H74.1044V23.9378H72.3106L67.1853 16.0348V23.9378H64.8276V11.0124H66.6215L71.7468 18.8969Z" fill="white"/>
<path d="M82.6782 24.1963C80.8901 24.1963 79.4037 23.55 78.2192 22.2575C77.0461 20.9773 76.4595 19.3831 76.4595 17.4751C76.4595 15.5548 77.0461 13.9607 78.2192 12.6927C79.4037 11.4002 80.8901 10.7539 82.6782 10.7539C83.7603 10.7539 84.7568 11.0309 85.668 11.5848C86.5906 12.1265 87.3081 12.8651 87.8207 13.8006L85.7876 15.0747C85.4915 14.4962 85.07 14.0468 84.5234 13.7267C83.9766 13.3944 83.3617 13.2282 82.6782 13.2282C81.5165 13.2282 80.5769 13.6221 79.8593 14.41C79.1531 15.2101 78.8001 16.2318 78.8001 17.4751C78.8001 18.7061 79.1531 19.7217 79.8593 20.5218C80.5769 21.3096 81.5165 21.7035 82.6782 21.7035C83.3617 21.7035 83.9766 21.5436 84.5234 21.2234C85.0815 20.8911 85.5029 20.4418 85.7876 19.8756L87.8207 21.1496C87.3081 22.0852 86.5906 22.8299 85.668 23.3839C84.7568 23.9254 83.7603 24.1963 82.6782 24.1963Z" fill="white"/>
<path d="M89.9523 23.9378V11.0124H92.31V23.9378H89.9523Z" fill="white"/>
<path d="M97.5648 18.6015V21.5004H102.605V23.9378H95.2075V11.0124H102.52V13.4497H97.5648V16.201H102.092V18.6015H97.5648Z" fill="white"/>
<path d="M114.056 23.9378H111.51L109.102 19.4508H107.307V23.9378H104.95V11.0124H109.733C110.838 11.0124 111.778 11.4309 112.552 12.268C113.327 13.1051 113.714 14.1145 113.714 15.2962C113.714 16.0964 113.503 16.8412 113.082 17.5305C112.66 18.2076 112.102 18.7184 111.408 19.0631L114.056 23.9378ZM109.733 13.3944H107.307V17.2166H109.733C110.178 17.2166 110.559 17.0319 110.878 16.6627C111.197 16.2811 111.357 15.8256 111.357 15.2962C111.357 14.7669 111.197 14.3177 110.878 13.9484C110.559 13.5791 110.178 13.3944 109.733 13.3944Z" fill="white"/>
<path d="M121.735 16.9951H127.731V17.9921C127.731 19.8386 127.184 21.3342 126.091 22.4791C124.997 23.6239 123.585 24.1963 121.854 24.1963C120.009 24.1963 118.477 23.55 117.259 22.2575C116.051 20.9526 115.447 19.3647 115.447 17.4936C115.447 15.6102 116.046 14.016 117.241 12.7112C118.449 11.4063 119.94 10.7539 121.718 10.7539C122.823 10.7539 123.836 11.0247 124.758 11.5664C125.681 12.108 126.404 12.8405 126.928 13.7637L124.912 15.0193C124.627 14.4899 124.194 14.0591 123.613 13.7267C123.033 13.3944 122.395 13.2282 121.701 13.2282C120.55 13.2282 119.61 13.6344 118.882 14.4469C118.152 15.2348 117.788 16.2502 117.788 17.4936C117.788 18.7122 118.158 19.7217 118.899 20.5218C119.639 21.3096 120.63 21.7035 121.871 21.7035C122.771 21.7035 123.523 21.4881 124.126 21.0572C124.73 20.6265 125.14 20.0232 125.357 19.2477H121.735V16.9951Z" fill="white"/>
<path d="M132.449 18.6015V21.5004H137.488V23.9378H130.091V11.0124H137.403V13.4497H132.449V16.201H136.977V18.6015H132.449Z" fill="white"/>
</mask>
<g mask="url(#mask6_1_255)">
<path d="M97.5648 18.6015V21.5004H102.605V23.9378H95.2075V11.0124H102.52V13.4497H97.5648V16.201H102.092V18.6015H97.5648Z" stroke="#514C43" stroke-width="0.2"/>
</g>
<mask id="mask7_1_255" style="mask-type:luminance" maskUnits="userSpaceOnUse" x="31" y="10" width="107" height="15">
<path d="M38.2013 24.1963C36.4131 24.1963 34.9268 23.55 33.7423 22.2575C32.5692 20.9773 31.9826 19.3831 31.9826 17.4751C31.9826 15.5548 32.5692 13.9607 33.7423 12.6927C34.9268 11.4002 36.4131 10.7539 38.2013 10.7539C39.2833 10.7539 40.28 11.0309 41.1911 11.5848C42.1137 12.1265 42.8312 12.8651 43.3437 13.8006L41.3107 15.0747C41.0146 14.4962 40.5932 14.0468 40.0464 13.7267C39.4998 13.3944 38.8847 13.2282 38.2013 13.2282C37.0395 13.2282 36.0999 13.6221 35.3824 14.41C34.6762 15.2101 34.3232 16.2318 34.3232 17.4751C34.3232 18.7061 34.6762 19.7217 35.3824 20.5218C36.0999 21.3096 37.0395 21.7035 38.2013 21.7035C38.8847 21.7035 39.4998 21.5436 40.0464 21.2234C40.6045 20.8911 41.0259 20.4418 41.3107 19.8756L43.3437 21.1496C42.8312 22.0852 42.1137 22.8299 41.1911 23.3839C40.28 23.9254 39.2833 24.1963 38.2013 24.1963Z" fill="white"/>
<path d="M55.4213 22.2575C54.214 23.55 52.7448 24.1963 51.0136 24.1963C49.2823 24.1963 47.8131 23.55 46.6058 22.2575C45.4099 20.9403 44.8119 19.3462 44.8119 17.4751C44.8119 15.5917 45.4099 14.0037 46.6058 12.7112C47.8131 11.4063 49.2823 10.7539 51.0136 10.7539C52.7448 10.7539 54.214 11.4063 55.4213 12.7112C56.6286 14.0037 57.2323 15.5917 57.2323 17.4751C57.2323 19.3585 56.6286 20.9526 55.4213 22.2575ZM48.263 20.5218C48.9919 21.3096 49.9087 21.7035 51.0136 21.7035C52.1184 21.7035 53.0352 21.3096 53.7641 20.5218C54.5045 19.7217 54.8747 18.7061 54.8747 17.4751C54.8747 16.2441 54.5045 15.2285 53.7641 14.4284C53.0238 13.6283 52.1069 13.2282 51.0136 13.2282C49.9202 13.2282 49.0033 13.6283 48.263 14.4284C47.5227 15.2285 47.1524 16.2441 47.1524 17.4751C47.1524 18.7061 47.5227 19.7217 48.263 20.5218Z" fill="white"/>
<path d="M59.5728 23.9378V11.0124H61.9304V23.9378H59.5728Z" fill="white"/>
<path d="M71.7468 18.8969V11.0124H74.1044V23.9378H72.3106L67.1853 16.0348V23.9378H64.8276V11.0124H66.6215L71.7468 18.8969Z" fill="white"/>
<path d="M82.6782 24.1963C80.8901 24.1963 79.4037 23.55 78.2192 22.2575C77.0461 20.9773 76.4595 19.3831 76.4595 17.4751C76.4595 15.5548 77.0461 13.9607 78.2192 12.6927C79.4037 11.4002 80.8901 10.7539 82.6782 10.7539C83.7603 10.7539 84.7568 11.0309 85.668 11.5848C86.5906 12.1265 87.3081 12.8651 87.8207 13.8006L85.7876 15.0747C85.4915 14.4962 85.07 14.0468 84.5234 13.7267C83.9766 13.3944 83.3617 13.2282 82.6782 13.2282C81.5165 13.2282 80.5769 13.6221 79.8593 14.41C79.1531 15.2101 78.8001 16.2318 78.8001 17.4751C78.8001 18.7061 79.1531 19.7217 79.8593 20.5218C80.5769 21.3096 81.5165 21.7035 82.6782 21.7035C83.3617 21.7035 83.9766 21.5436 84.5234 21.2234C85.0815 20.8911 85.5029 20.4418 85.7876 19.8756L87.8207 21.1496C87.3081 22.0852 86.5906 22.8299 85.668 23.3839C84.7568 23.9254 83.7603 24.1963 82.6782 24.1963Z" fill="white"/>
<path d="M89.9523 23.9378V11.0124H92.31V23.9378H89.9523Z" fill="white"/>
<path d="M97.5648 18.6015V21.5004H102.605V23.9378H95.2075V11.0124H102.52V13.4497H97.5648V16.201H102.092V18.6015H97.5648Z" fill="white"/>
<path d="M114.056 23.9378H111.51L109.102 19.4508H107.307V23.9378H104.95V11.0124H109.733C110.838 11.0124 111.778 11.4309 112.552 12.268C113.327 13.1051 113.714 14.1145 113.714 15.2962C113.714 16.0964 113.503 16.8412 113.082 17.5305C112.66 18.2076 112.102 18.7184 111.408 19.0631L114.056 23.9378ZM109.733 13.3944H107.307V17.2166H109.733C110.178 17.2166 110.559 17.0319 110.878 16.6627C111.197 16.2811 111.357 15.8256 111.357 15.2962C111.357 14.7669 111.197 14.3177 110.878 13.9484C110.559 13.5791 110.178 13.3944 109.733 13.3944Z" fill="white"/>
<path d="M121.735 16.9951H127.731V17.9921C127.731 19.8386 127.184 21.3342 126.091 22.4791C124.997 23.6239 123.585 24.1963 121.854 24.1963C120.009 24.1963 118.477 23.55 117.259 22.2575C116.051 20.9526 115.447 19.3647 115.447 17.4936C115.447 15.6102 116.046 14.016 117.241 12.7112C118.449 11.4063 119.94 10.7539 121.718 10.7539C122.823 10.7539 123.836 11.0247 124.758 11.5664C125.681 12.108 126.404 12.8405 126.928 13.7637L124.912 15.0193C124.627 14.4899 124.194 14.0591 123.613 13.7267C123.033 13.3944 122.395 13.2282 121.701 13.2282C120.55 13.2282 119.61 13.6344 118.882 14.4469C118.152 15.2348 117.788 16.2502 117.788 17.4936C117.788 18.7122 118.158 19.7217 118.899 20.5218C119.639 21.3096 120.63 21.7035 121.871 21.7035C122.771 21.7035 123.523 21.4881 124.126 21.0572C124.73 20.6265 125.14 20.0232 125.357 19.2477H121.735V16.9951Z" fill="white"/>
<path d="M132.449 18.6015V21.5004H137.488V23.9378H130.091V11.0124H137.403V13.4497H132.449V16.201H136.977V18.6015H132.449Z" fill="white"/>
</mask>
<g mask="url(#mask7_1_255)">
<path d="M114.056 23.9378H111.51L109.102 19.4508H107.307V23.9378H104.95V11.0124H109.733C110.838 11.0124 111.778 11.4309 112.552 12.268C113.327 13.1051 113.714 14.1145 113.714 15.2962C113.714 16.0964 113.503 16.8412 113.082 17.5305C112.66 18.2076 112.102 18.7184 111.408 19.0631L114.056 23.9378ZM109.733 13.3944H107.307V17.2166H109.733C110.178 17.2166 110.559 17.0319 110.878 16.6627C111.197 16.2811 111.357 15.8256 111.357 15.2962C111.357 14.7669 111.197 14.3177 110.878 13.9484C110.559 13.5791 110.178 13.3944 109.733 13.3944Z" stroke="#514C43" stroke-width="0.2"/>
</g>
<mask id="mask8_1_255" style="mask-type:luminance" maskUnits="userSpaceOnUse" x="31" y="10" width="107" height="15">
<path d="M38.2013 24.1963C36.4131 24.1963 34.9268 23.55 33.7423 22.2575C32.5692 20.9773 31.9826 19.3831 31.9826 17.4751C31.9826 15.5548 32.5692 13.9607 33.7423 12.6927C34.9268 11.4002 36.4131 10.7539 38.2013 10.7539C39.2833 10.7539 40.28 11.0309 41.1911 11.5848C42.1137 12.1265 42.8312 12.8651 43.3437 13.8006L41.3107 15.0747C41.0146 14.4962 40.5932 14.0468 40.0464 13.7267C39.4998 13.3944 38.8847 13.2282 38.2013 13.2282C37.0395 13.2282 36.0999 13.6221 35.3824 14.41C34.6762 15.2101 34.3232 16.2318 34.3232 17.4751C34.3232 18.7061 34.6762 19.7217 35.3824 20.5218C36.0999 21.3096 37.0395 21.7035 38.2013 21.7035C38.8847 21.7035 39.4998 21.5436 40.0464 21.2234C40.6045 20.8911 41.0259 20.4418 41.3107 19.8756L43.3437 21.1496C42.8312 22.0852 42.1137 22.8299 41.1911 23.3839C40.28 23.9254 39.2833 24.1963 38.2013 24.1963Z" fill="white"/>
<path d="M55.4213 22.2575C54.214 23.55 52.7448 24.1963 51.0136 24.1963C49.2823 24.1963 47.8131 23.55 46.6058 22.2575C45.4099 20.9403 44.8119 19.3462 44.8119 17.4751C44.8119 15.5917 45.4099 14.0037 46.6058 12.7112C47.8131 11.4063 49.2823 10.7539 51.0136 10.7539C52.7448 10.7539 54.214 11.4063 55.4213 12.7112C56.6286 14.0037 57.2323 15.5917 57.2323 17.4751C57.2323 19.3585 56.6286 20.9526 55.4213 22.2575ZM48.263 20.5218C48.9919 21.3096 49.9087 21.7035 51.0136 21.7035C52.1184 21.7035 53.0352 21.3096 53.7641 20.5218C54.5045 19.7217 54.8747 18.7061 54.8747 17.4751C54.8747 16.2441 54.5045 15.2285 53.7641 14.4284C53.0238 13.6283 52.1069 13.2282 51.0136 13.2282C49.9202 13.2282 49.0033 13.6283 48.263 14.4284C47.5227 15.2285 47.1524 16.2441 47.1524 17.4751C47.1524 18.7061 47.5227 19.7217 48.263 20.5218Z" fill="white"/>
<path d="M59.5728 23.9378V11.0124H61.9304V23.9378H59.5728Z" fill="white"/>
<path d="M71.7468 18.8969V11.0124H74.1044V23.9378H72.3106L67.1853 16.0348V23.9378H64.8276V11.0124H66.6215L71.7468 18.8969Z" fill="white"/>
<path d="M82.6782 24.1963C80.8901 24.1963 79.4037 23.55 78.2192 22.2575C77.0461 20.9773 76.4595 19.3831 76.4595 17.4751C76.4595 15.5548 77.0461 13.9607 78.2192 12.6927C79.4037 11.4002 80.8901 10.7539 82.6782 10.7539C83.7603 10.7539 84.7568 11.0309 85.668 11.5848C86.5906 12.1265 87.3081 12.8651 87.8207 13.8006L85.7876 15.0747C85.4915 14.4962 85.07 14.0468 84.5234 13.7267C83.9766 13.3944 83.3617 13.2282 82.6782 13.2282C81.5165 13.2282 80.5769 13.6221 79.8593 14.41C79.1531 15.2101 78.8001 16.2318 78.8001 17.4751C78.8001 18.7061 79.1531 19.7217 79.8593 20.5218C80.5769 21.3096 81.5165 21.7035 82.6782 21.7035C83.3617 21.7035 83.9766 21.5436 84.5234 21.2234C85.0815 20.8911 85.5029 20.4418 85.7876 19.8756L87.8207 21.1496C87.3081 22.0852 86.5906 22.8299 85.668 23.3839C84.7568 23.9254 83.7603 24.1963 82.6782 24.1963Z" fill="white"/>
<path d="M89.9523 23.9378V11.0124H92.31V23.9378H89.9523Z" fill="white"/>
<path d="M97.5648 18.6015V21.5004H102.605V23.9378H95.2075V11.0124H102.52V13.4497H97.5648V16.201H102.092V18.6015H97.5648Z" fill="white"/>
<path d="M114.056 23.9378H111.51L109.102 19.4508H107.307V23.9378H104.95V11.0124H109.733C110.838 11.0124 111.778 11.4309 112.552 12.268C113.327 13.1051 113.714 14.1145 113.714 15.2962C113.714 16.0964 113.503 16.8412 113.082 17.5305C112.66 18.2076 112.102 18.7184 111.408 19.0631L114.056 23.9378ZM109.733 13.3944H107.307V17.2166H109.733C110.178 17.2166 110.559 17.0319 110.878 16.6627C111.197 16.2811 111.357 15.8256 111.357 15.2962C111.357 14.7669 111.197 14.3177 110.878 13.9484C110.559 13.5791 110.178 13.3944 109.733 13.3944Z" fill="white"/>
<path d="M121.735 16.9951H127.731V17.9921C127.731 19.8386 127.184 21.3342 126.091 22.4791C124.997 23.6239 123.585 24.1963 121.854 24.1963C120.009 24.1963 118.477 23.55 117.259 22.2575C116.051 20.9526 115.447 19.3647 115.447 17.4936C115.447 15.6102 116.046 14.016 117.241 12.7112C118.449 11.4063 119.94 10.7539 121.718 10.7539C122.823 10.7539 123.836 11.0247 124.758 11.5664C125.681 12.108 126.404 12.8405 126.928 13.7637L124.912 15.0193C124.627 14.4899 124.194 14.0591 123.613 13.7267C123.033 13.3944 122.395 13.2282 121.701 13.2282C120.55 13.2282 119.61 13.6344 118.882 14.4469C118.152 15.2348 117.788 16.2502 117.788 17.4936C117.788 18.7122 118.158 19.7217 118.899 20.5218C119.639 21.3096 120.63 21.7035 121.871 21.7035C122.771 21.7035 123.523 21.4881 124.126 21.0572C124.73 20.6265 125.14 20.0232 125.357 19.2477H121.735V16.9951Z" fill="white"/>
<path d="M132.449 18.6015V21.5004H137.488V23.9378H130.091V11.0124H137.403V13.4497H132.449V16.201H136.977V18.6015H132.449Z" fill="white"/>
</mask>
<g mask="url(#mask8_1_255)">
<path d="M121.735 16.9951H127.731V17.9921C127.731 19.8386 127.184 21.3342 126.091 22.4791C124.997 23.6239 123.585 24.1963 121.854 24.1963C120.009 24.1963 118.477 23.55 117.259 22.2575C116.051 20.9526 115.447 19.3647 115.447 17.4936C115.447 15.6102 116.046 14.016 117.241 12.7112C118.449 11.4063 119.94 10.7539 121.718 10.7539C122.823 10.7539 123.836 11.0247 124.758 11.5664C125.681 12.108 126.404 12.8405 126.928 13.7637L124.912 15.0193C124.627 14.4899 124.194 14.0591 123.613 13.7267C123.033 13.3944 122.395 13.2282 121.701 13.2282C120.55 13.2282 119.61 13.6344 118.882 14.4469C118.152 15.2348 117.788 16.2502 117.788 17.4936C117.788 18.7122 118.158 19.7217 118.899 20.5218C119.639 21.3096 120.63 21.7035 121.871 21.7035C122.771 21.7035 123.523 21.4881 124.126 21.0572C124.73 20.6265 125.14 20.0232 125.357 19.2477H121.735V16.9951Z" stroke="#514C43" stroke-width="0.2"/>
</g>
</svg>
