<svg width="28" height="28" viewBox="0 0 28 28" fill="none" xmlns="http://www.w3.org/2000/svg">
<path d="M26.8262 13.9676C26.5777 14.8449 26.0808 15.6051 25.428 16.1077C24.9067 16.5096 24.3147 16.7198 23.7325 16.7198C23.5133 16.7198 23.2989 16.6905 23.087 16.6306C22.3172 16.4104 21.6936 15.799 21.3769 14.9527C21.087 14.1812 21.0675 13.2736 21.316 12.3961C21.5669 11.5189 22.0638 10.7586 22.7143 10.2561C23.4305 9.70409 24.2831 9.51332 25.0553 9.73308C25.8251 9.95331 26.4511 10.5647 26.7678 11.411C27.0552 12.1825 27.0771 13.0902 26.8262 13.9676ZM10.539 11.7504C11.455 11.7504 12.3295 11.2405 12.9385 10.3509C13.4915 9.54434 13.796 8.48787 13.796 7.37558C13.796 6.26232 13.4915 5.20584 12.9385 4.39926C12.3295 3.5099 11.455 3 10.539 3C9.62064 3 8.74617 3.50985 8.13715 4.39926C7.58664 5.20584 7.28213 6.26232 7.28213 7.37558C7.28213 8.48787 7.58664 9.54434 8.13715 10.3509C8.74617 11.2405 9.62069 11.7504 10.539 11.7504ZM18.461 11.7504C19.3794 11.7504 20.2538 11.2405 20.8629 10.3509C21.4134 9.54434 21.7179 8.48787 21.7179 7.37558C21.7179 6.26232 21.4134 5.20584 20.8629 4.39926C20.2538 3.5099 19.3793 3 18.461 3C17.545 3 16.6705 3.50985 16.0615 4.39926C15.5086 5.20584 15.204 6.26232 15.204 7.37558C15.204 8.48787 15.5086 9.54434 16.0615 10.3509C16.6705 11.2405 17.545 11.7504 18.461 11.7504ZM7.68404 12.3966C7.43316 11.519 6.93623 10.7587 6.28577 10.2561C5.56959 9.70414 4.717 9.51338 3.94476 9.73314C3.17257 9.95336 2.54892 10.5648 2.23222 11.4111C1.94478 12.1825 1.92289 13.0902 2.17377 13.9677C2.42226 14.8449 2.9192 15.6052 3.57199 16.1077C4.09331 16.5096 4.68526 16.7198 5.26747 16.7198C5.48427 16.7198 5.70107 16.6906 5.91056 16.6307C6.68275 16.4105 7.3064 15.7991 7.62305 14.9527C7.91303 14.1813 7.93253 13.2736 7.68404 12.3966ZM19.2794 14.5357C17.9445 13.1326 16.249 12.3604 14.5 12.3604C12.751 12.3604 11.053 13.1326 9.72298 14.5357C8.45136 15.8738 7.5647 17.7306 7.22362 19.7648C7.00682 21.0625 7.40142 22.3114 8.31007 23.1911C9.25524 24.1066 10.4903 24.3845 11.6986 23.9548C12.5926 23.6357 13.5353 23.4739 14.5 23.4739C15.4647 23.4739 16.4074 23.6357 17.3014 23.9548C17.6741 24.0873 18.0493 24.1528 18.4171 24.1528C19.2429 24.1528 20.0347 23.8245 20.6875 23.1911C21.5985 22.3115 21.9931 21.0625 21.7763 19.7648C21.4353 17.7305 20.5486 15.8738 19.2794 14.5357Z" fill="#FB150A"/>
</svg>
