<svg width="247" height="35" viewBox="0 0 247 35" fill="none" xmlns="http://www.w3.org/2000/svg">
<path d="M246.378 34.2148H238.998C238.971 33.6862 238.921 33.1884 238.924 32.6906C238.942 27.9614 238.979 23.2323 238.981 18.5031C238.981 17.7914 238.905 17.0632 238.745 16.37C238.458 15.1213 237.747 14.171 236.44 13.8871C235.14 13.6053 234.102 14.1587 233.286 15.1522C231.92 16.8143 231.408 18.7973 231.385 20.8852C231.338 24.9622 231.359 29.0414 231.422 33.1184C231.436 34.0338 231.18 34.3177 230.284 34.2868C228.578 34.2292 226.868 34.2251 225.161 34.2848C224.238 34.3177 223.945 34.0503 223.962 33.0814C224.037 28.2844 224.041 23.4873 224.041 18.6883C224.041 17.9066 223.97 17.1126 223.812 16.3473C223.56 15.1255 222.863 14.2121 221.601 13.9077C220.352 13.6074 219.298 14.0681 218.476 15C217.051 16.6148 216.489 18.5998 216.456 20.6857C216.39 24.8306 216.427 28.9776 216.487 33.1246C216.499 34.0215 216.278 34.3259 215.363 34.3013C213.288 34.2437 211.21 34.2827 209.043 34.2827V9.16005H216.009V12.0399C220.594 6.2349 229.01 8.10888 230.495 13.1116C230.969 12.476 231.383 11.8671 231.853 11.3014C234.184 8.4915 237.24 7.96696 240.574 8.74659C243.831 9.50972 245.348 11.9124 245.972 15.0308C246.045 15.4032 246.238 15.7508 246.374 16.1108V17.5507C246.306 17.8017 246.179 18.0527 246.177 18.3036C246.163 21.1608 246.163 24.0201 246.177 26.8774C246.177 27.1283 246.304 27.3793 246.374 27.6302V34.2128L246.378 34.2148Z" fill="#514C43"/>
<path d="M246.378 27.6323C246.31 27.3813 246.183 27.1303 246.181 26.8794C246.167 24.0222 246.167 21.1628 246.181 18.3056C246.181 18.0547 246.308 17.8037 246.378 17.5528V27.6323Z" fill="#514C43"/>
<path d="M0.0782454 0C0.746682 0 1.3535 0 1.9587 0C6.91097 0.0164576 11.8636 0.00411449 16.8159 0.0658263C19.2687 0.0966822 21.6146 0.652084 23.7471 1.92951C26.5855 3.63068 27.6313 6.21845 27.3585 9.41713C27.1124 12.3135 25.525 14.2718 22.964 15.5019C22.5988 15.6788 22.2193 15.829 21.6514 16.0779C22.3138 16.3041 22.81 16.4399 23.2818 16.6374C27.7318 18.4887 29.4996 22.9916 27.6353 27.7104C26.3722 30.9071 23.8538 32.6576 20.7061 33.5669C19.3774 33.9515 17.9623 34.1819 16.582 34.2045C11.3918 34.2868 6.19957 34.2457 1.00895 34.2786C0.280924 34.2827 -0.00201599 34.0935 1.08043e-05 33.2995C0.0308181 22.4732 0.0308183 11.647 0.0389255 0.820762C0.0389255 0.590373 0.0596002 0.359983 0.0758146 0.00205931L0.0782454 0ZM7.55306 29.0928C10.3521 29.0928 13.0469 29.136 15.7393 29.0825C19.5103 29.0084 21.561 26.2088 20.6324 22.5247C20.1524 20.6239 18.9611 19.3588 17.062 19.2128C14.1458 18.9865 11.2053 19.0483 8.27663 18.9947C8.01639 18.9907 7.75574 19.038 7.50766 19.0606C7.50766 22.2387 7.50766 25.351 7.50766 28.4613C7.50766 28.6258 7.53036 28.7904 7.55306 29.0928ZM7.52226 13.6773C10.5941 13.6773 13.5962 13.8336 16.5719 13.6259C18.848 13.4675 20.0746 11.6141 19.9639 9.17647C19.8654 7.01453 18.3109 5.31952 16.1515 5.23107C13.8013 5.1344 11.4473 5.18786 9.09302 5.17757C8.59443 5.17554 8.09624 5.17757 7.52023 5.17757V13.6794L7.52226 13.6773Z" fill="#514C43"/>
<path d="M127.548 34.2148H120.153V9.14567H127.074V11.9021C128.169 11.1307 129.186 10.2688 130.329 9.63522C134.026 7.57818 138.964 8.21999 141.611 11.034C143.211 12.7352 143.951 14.8395 143.996 17.1126C144.109 22.6625 144.097 28.2165 144.13 33.7685C144.13 33.9001 144.074 34.0297 144.031 34.2251H136.817C136.78 33.7623 136.721 33.3591 136.723 32.958C136.751 28.3317 136.798 23.7034 136.815 19.0771C136.817 18.3283 136.778 17.559 136.614 16.8308C135.919 13.7616 132.305 12.8072 129.9 15.0494C128.542 16.3144 127.707 17.9395 127.654 19.7538C127.523 24.1703 127.575 28.5909 127.552 33.0115C127.552 33.3797 127.552 33.75 127.552 34.2148H127.548Z" fill="#514C43"/>
<path d="M194.192 34.9718C188.337 34.9348 184.016 32.2689 182.234 27.3937C180.848 23.6005 180.917 19.7436 182.279 15.9339C183.124 13.5683 184.627 11.719 186.75 10.3696C191.134 7.58232 198.201 7.75715 202.372 10.7748C204.195 12.0934 205.479 13.8254 206.221 15.9545C207.495 19.6016 207.517 23.2796 206.352 26.9432C204.742 32.0056 200.147 35.0089 194.19 34.9718H194.192ZM199.815 21.7656C199.608 19.6736 199.46 17.6351 198.494 15.757C197.577 13.9756 196.029 13.2556 194.124 13.2988C192.221 13.342 190.625 14.0929 189.858 15.936C188.347 19.5584 188.407 23.2796 189.612 26.9555C190.324 29.1257 192.032 30.1214 194.374 30.0679C196.652 30.0164 198.349 28.8665 198.947 26.684C199.386 25.0857 199.538 23.4092 199.819 21.7677L199.815 21.7656Z" fill="#514C43"/>
<path d="M96.2026 34.9739C92.4866 34.906 89.2466 34.0646 86.6568 31.5139C83.7654 28.667 83.0106 25.0363 83.0864 21.1649C83.15 17.8654 83.9826 14.786 86.2692 12.2908C88.9166 9.40068 92.3431 8.37832 96.1434 8.40301C98.2739 8.41744 100.345 8.76094 102.3 9.68252C105.281 11.0895 107.262 13.3626 108.197 16.518C109.473 20.8214 109.346 25.0465 107.17 29.0558C105.234 32.6206 102.045 34.3177 98.1446 34.834C97.4353 34.9286 96.7153 34.9368 96.2005 34.9718L96.2026 34.9739ZM101.647 21.6813C101.297 19.941 101.098 18.0567 100.515 16.3C99.8508 14.2923 98.2164 13.3235 96.096 13.2864C93.9366 13.2494 92.2572 14.2656 91.5105 16.228C90.1615 19.7764 90.1899 23.3989 91.3999 26.9637C92.136 29.136 93.834 30.1213 96.1762 30.0657C98.4296 30.0123 100.077 28.9241 100.702 26.7622C101.163 25.1721 101.321 23.4956 101.647 21.6833V21.6813Z" fill="#514C43"/>
<path d="M81.0438 18.0054C79.0158 18.0054 76.9752 18.0219 74.9351 17.9807C74.7279 17.9766 74.4612 17.6701 74.3359 17.4417C74.1596 17.1188 74.1004 16.7341 73.9732 16.3824C73.3457 14.6688 72.2155 13.5498 70.327 13.4038C68.2065 13.2392 66.4594 13.9057 65.4975 15.9216C65.0772 16.8041 64.7326 17.7729 64.6077 18.7336C64.2632 21.3933 64.1995 24.0613 65.0978 26.6553C65.9098 29.0023 67.7327 30.218 70.2082 30.0638C72.3079 29.9321 73.8215 28.4984 74.3339 26.1534C74.6683 24.6291 74.6683 24.6147 76.2022 24.6003C77.9392 24.5838 79.6761 24.5962 81.5359 24.5962C81.3596 27.1428 80.5375 29.2697 78.983 31.0697C74.1637 36.6504 63.5554 36.1568 59.2489 30.181C55.2934 24.6928 56.2675 15.214 61.1971 11.2048C65.5818 7.63786 73.1178 7.42188 77.4673 10.7378C79.713 12.4493 81.251 15.5081 81.0438 18.0013V18.0054Z" fill="#514C43"/>
<path d="M179.369 18.0074C177.214 18.0074 175.206 18.0239 173.2 17.9848C172.983 17.9807 172.69 17.705 172.575 17.4808C172.374 17.092 172.31 16.6354 172.14 16.226C171.402 14.459 170.135 13.412 168.164 13.377C166.152 13.342 164.497 14.064 163.687 15.9853C162.114 19.7168 162.203 23.5368 163.589 27.2847C164.331 29.2944 166.343 30.2694 168.595 30.0473C170.508 29.858 171.986 28.4819 172.524 26.3878C172.979 24.6208 172.979 24.6105 174.792 24.5941C176.418 24.5797 178.044 24.592 179.761 24.592C179.463 27.7948 178.258 30.3209 175.895 32.2874C170.654 36.6463 161.407 35.626 157.461 30.1316C155.081 26.8157 154.703 22.9957 155.261 19.0462C155.784 15.3333 157.373 12.2045 160.704 10.3243C165.309 7.7263 170.079 7.60081 174.755 10.1557C177.716 11.7725 179.07 14.4919 179.371 18.0074H179.369Z" fill="#514C43"/>
<path d="M42.4683 2.77294H49.7092V9.06751H55.8265C55.8265 10.7008 55.8552 12.1983 55.7916 13.6917C55.7835 13.8871 55.3015 14.2122 55.0287 14.2204C53.5605 14.2759 52.0899 14.2492 50.6216 14.2512C50.3594 14.2512 50.0967 14.2512 49.744 14.2512C49.744 15.6068 49.738 16.8678 49.744 18.1267C49.7603 20.733 49.7728 23.3372 49.8097 25.9435C49.8547 29.1998 51.1652 30.1892 54.3911 29.422C54.8155 29.3211 55.2298 29.1875 55.7709 29.0332C55.7709 30.5225 55.8017 31.9089 55.7446 33.2892C55.734 33.5402 55.4102 33.9145 55.154 33.9989C52.5455 34.8731 49.9184 35.2228 47.2422 34.2149C44.2543 33.0876 42.6568 30.8866 42.54 27.764C42.4026 24.1353 42.5031 20.4985 42.4991 16.8637C42.4991 16.045 42.4991 15.2263 42.4991 14.243C41.6705 14.243 40.8995 14.2183 40.1326 14.2512C39.4966 14.278 39.2015 14.0805 39.2217 13.3832C39.2627 11.9885 39.2343 10.5918 39.2343 9.07983H42.4703V2.76884L42.4683 2.77294Z" fill="#514C43"/>
<path d="M110.691 9.11481H117.944C117.971 9.41101 118.012 9.67226 118.012 9.93145C118.02 17.7071 118.012 25.4827 118.04 33.2583C118.043 33.9865 117.897 34.3095 117.095 34.2869C115.184 34.2354 113.271 34.2539 111.359 34.2704C110.787 34.2745 110.59 34.0585 110.592 33.4825C110.611 25.4683 110.613 17.4541 110.621 9.43776C110.621 9.37193 110.648 9.30817 110.691 9.11275V9.11481Z" fill="#514C43"/>
<path d="M30.1024 9.11481H37.409C37.409 10.7934 37.409 12.4246 37.409 14.0538C37.413 20.4224 37.4029 26.791 37.4438 33.1596C37.4499 33.9907 37.2553 34.3218 36.3879 34.2992C34.5463 34.2499 32.7027 34.2683 30.8592 34.2869C30.2706 34.293 29.9998 34.1223 30.0018 33.4702C30.0245 25.493 30.0245 17.5137 30.0347 9.53651C30.0347 9.43776 30.0675 9.33902 30.1044 9.11275L30.1024 9.11481Z" fill="#514C43"/>
<path d="M145.998 34.258C145.998 32.0282 145.981 29.9136 146.029 27.801C146.033 27.622 146.474 27.3032 146.716 27.2991C148.797 27.2641 150.879 27.2662 152.96 27.3217C153.19 27.3279 153.598 27.731 153.606 27.9594C153.661 29.8066 153.629 31.6559 153.649 33.5031C153.655 34.0935 153.393 34.2683 152.845 34.2642C150.631 34.2478 148.416 34.258 145.998 34.258Z" fill="#514C43"/>
<path d="M117.981 0.0699615V6.49412H110.64V0.0699615H117.981Z" fill="#514C43"/>
<path d="M30.0655 6.48797V0.0514679H37.3474V6.48797H30.0655Z" fill="#514C43"/>
</svg>
