<svg width="132" height="24" viewBox="0 0 132 24" fill="none" xmlns="http://www.w3.org/2000/svg">
<g clip-path="url(#clip0_1_429)">
<path d="M5.44 18.6667V3.2H0V0H14.4V3.2H8.96V18.6667H5.44Z" fill="#514C43"/>
<path d="M19.3637 19.04C18.0482 19.04 16.8838 18.7644 15.8704 18.2133C14.8749 17.6444 14.0926 16.8533 13.5237 15.84C12.9726 14.8089 12.6971 13.6 12.6971 12.2133V11.8933C12.6971 10.5067 12.9726 9.30667 13.5237 8.29333C14.0749 7.26222 14.8482 6.47111 15.8438 5.92C16.8393 5.35111 17.9949 5.06667 19.3104 5.06667C20.6082 5.06667 21.7371 5.36 22.6971 5.94667C23.6571 6.51556 24.4037 7.31556 24.9371 8.34667C25.4704 9.36 25.7371 10.5422 25.7371 11.8933V13.04H16.1104C16.146 13.9467 16.4837 14.6844 17.1238 15.2533C17.7638 15.8222 18.546 16.1067 19.4704 16.1067C20.4126 16.1067 21.106 15.9022 21.5504 15.4933C21.9949 15.0844 22.3326 14.6311 22.5637 14.1333L25.3104 15.5733C25.0615 16.0356 24.6971 16.5422 24.2171 17.0933C23.7549 17.6267 23.1326 18.0889 22.3504 18.48C21.5682 18.8533 20.5726 19.04 19.3637 19.04ZM16.1371 10.5333H22.3237C22.2526 9.76889 21.9415 9.15556 21.3904 8.69333C20.8571 8.23111 20.1549 8 19.2837 8C18.3771 8 17.6571 8.23111 17.1238 8.69333C16.5904 9.15556 16.2615 9.76889 16.1371 10.5333Z" fill="#514C43"/>
<path d="M33.8744 19.04C32.5944 19.04 31.4299 18.7733 30.381 18.24C29.3499 17.7067 28.5322 16.9333 27.9277 15.92C27.3233 14.9067 27.021 13.68 27.021 12.24V11.8667C27.021 10.4267 27.3233 9.2 27.9277 8.18667C28.5322 7.17333 29.3499 6.4 30.381 5.86667C31.4299 5.33333 32.5944 5.06667 33.8744 5.06667C35.1366 5.06667 36.221 5.28889 37.1277 5.73333C38.0344 6.17778 38.7633 6.79111 39.3144 7.57333C39.8833 8.33778 40.2566 9.20889 40.4344 10.1867L37.181 10.88C37.1099 10.3467 36.9499 9.86667 36.701 9.44C36.4522 9.01333 36.0966 8.67556 35.6344 8.42667C35.1899 8.17778 34.6299 8.05333 33.9544 8.05333C33.2788 8.05333 32.6655 8.20444 32.1144 8.50667C31.581 8.79111 31.1544 9.22667 30.8344 9.81333C30.5322 10.3822 30.381 11.0844 30.381 11.92V12.1867C30.381 13.0222 30.5322 13.7333 30.8344 14.32C31.1544 14.8889 31.581 15.3244 32.1144 15.6267C32.6655 15.9111 33.2788 16.0533 33.9544 16.0533C34.9677 16.0533 35.7322 15.7956 36.2477 15.28C36.781 14.7467 37.1188 14.0533 37.261 13.2L40.5144 13.9733C40.2833 14.9156 39.8833 15.7778 39.3144 16.56C38.7633 17.3244 38.0344 17.9289 37.1277 18.3733C36.221 18.8178 35.1366 19.04 33.8744 19.04Z" fill="#514C43"/>
<path d="M42.2194 18.6667V0H45.5794V7.06667H46.0594C46.2016 6.78222 46.4238 6.49778 46.726 6.21333C47.0283 5.92889 47.4283 5.69778 47.926 5.52C48.4416 5.32444 49.0905 5.22667 49.8727 5.22667C50.9038 5.22667 51.8016 5.46667 52.566 5.94667C53.3483 6.40889 53.9527 7.05778 54.3794 7.89333C54.806 8.71111 55.0194 9.67111 55.0194 10.7733V18.6667H51.6594V11.04C51.6594 10.0444 51.4105 9.29778 50.9127 8.8C50.4327 8.30222 49.7394 8.05333 48.8327 8.05333C47.8016 8.05333 47.0016 8.4 46.4327 9.09333C45.8638 9.76889 45.5794 10.72 45.5794 11.9467V18.6667H42.2194Z" fill="#514C43"/>
<path d="M57.585 18.6667V5.44H60.8917V6.93333H61.3717C61.5672 6.4 61.8872 6.00889 62.3317 5.76C62.7939 5.51111 63.3272 5.38667 63.9317 5.38667H65.5317V8.37333H63.8783C63.025 8.37333 62.3228 8.60444 61.7717 9.06667C61.2206 9.51111 60.945 10.2044 60.945 11.1467V18.6667H57.585Z" fill="#514C43"/>
<path d="M72.6492 19.04C71.3336 19.04 70.1692 18.7644 69.1558 18.2133C68.1603 17.6444 67.3781 16.8533 66.8092 15.84C66.2581 14.8089 65.9825 13.6 65.9825 12.2133V11.8933C65.9825 10.5067 66.2581 9.30667 66.8092 8.29333C67.3603 7.26222 68.1336 6.47111 69.1292 5.92C70.1247 5.35111 71.2803 5.06667 72.5958 5.06667C73.8936 5.06667 75.0225 5.36 75.9825 5.94667C76.9425 6.51556 77.6892 7.31556 78.2225 8.34667C78.7558 9.36 79.0225 10.5422 79.0225 11.8933V13.04H69.3958C69.4314 13.9467 69.7692 14.6844 70.4092 15.2533C71.0492 15.8222 71.8314 16.1067 72.7558 16.1067C73.6981 16.1067 74.3914 15.9022 74.8358 15.4933C75.2803 15.0844 75.618 14.6311 75.8492 14.1333L78.5958 15.5733C78.3469 16.0356 77.9825 16.5422 77.5025 17.0933C77.0403 17.6267 76.4181 18.0889 75.6358 18.48C74.8536 18.8533 73.858 19.04 72.6492 19.04ZM69.4225 10.5333H75.6092C75.5381 9.76889 75.2269 9.15556 74.6758 8.69333C74.1425 8.23111 73.4403 8 72.5692 8C71.6625 8 70.9425 8.23111 70.4092 8.69333C69.8758 9.15556 69.5469 9.76889 69.4225 10.5333Z" fill="#514C43"/>
<path d="M80.9465 24V5.44H84.2531V7.04H84.7331C85.0353 6.52444 85.5065 6.07111 86.1465 5.68C86.7865 5.27111 87.702 5.06667 88.8931 5.06667C89.9598 5.06667 90.9464 5.33333 91.8531 5.86667C92.7598 6.38222 93.4887 7.14667 94.0398 8.16C94.5909 9.17333 94.8664 10.4 94.8664 11.84V12.2667C94.8664 13.7067 94.5909 14.9333 94.0398 15.9467C93.4887 16.96 92.7598 17.7333 91.8531 18.2667C90.9464 18.7822 89.9598 19.04 88.8931 19.04C88.0931 19.04 87.4176 18.9422 86.8664 18.7467C86.3331 18.5689 85.8976 18.3378 85.5598 18.0533C85.2398 17.7511 84.982 17.4489 84.7865 17.1467H84.3065V24H80.9465ZM87.8798 16.1067C88.9287 16.1067 89.7909 15.7778 90.4665 15.12C91.1598 14.4444 91.5065 13.4667 91.5065 12.1867V11.92C91.5065 10.64 91.1598 9.67111 90.4665 9.01333C89.7731 8.33778 88.9109 8 87.8798 8C86.8487 8 85.9865 8.33778 85.2931 9.01333C84.5998 9.67111 84.2531 10.64 84.2531 11.92V12.1867C84.2531 13.4667 84.5998 14.4444 85.2931 15.12C85.9865 15.7778 86.8487 16.1067 87.8798 16.1067Z" fill="#514C43"/>
<path d="M112.146 18.6667V5.44H115.453V6.93333H115.933C116.129 6.4 116.449 6.00889 116.893 5.76C117.355 5.51111 117.889 5.38667 118.493 5.38667H120.093V8.37333H118.44C117.586 8.37333 116.884 8.60444 116.333 9.06667C115.782 9.51111 115.506 10.2044 115.506 11.1467V18.6667H112.146Z" fill="#514C43"/>
<path d="M127.196 18.6667C126.324 18.6667 125.613 18.4 125.062 17.8667C124.529 17.3156 124.262 16.5867 124.262 15.68V8.37333H120.956V5.38667H124.262V1.33333H127.622V5.38667H131.249V8.37333H127.622V15.0933C127.622 15.6267 127.871 15.8933 128.369 15.8933H130.929V18.6667H127.196Z" fill="#514C43"/>
<path fill-rule="evenodd" clip-rule="evenodd" d="M105.55 9.02609C106.421 9.72425 106.979 10.797 106.979 12.0001C106.979 14.104 105.273 15.8096 103.169 15.8096C101.066 15.8096 99.36 14.104 99.36 12.0001C99.36 10.7971 99.9176 9.72427 100.789 9.02612V5.26367C98.0142 6.24424 96.0266 8.89004 96.0266 12.0001C96.0266 15.945 99.2246 19.1429 103.169 19.1429C107.114 19.1429 110.312 15.945 110.312 12.0001C110.312 8.89004 108.325 6.24423 105.55 5.26367V9.02609Z" fill="#514C43"/>
<path d="M101.741 3V11H104.598V3H101.741Z" fill="#514C43"/>
</g>
<defs>
<clipPath id="clip0_1_429">
<rect width="132" height="24" fill="white"/>
</clipPath>
</defs>
</svg>
