<svg width="128" height="28" viewBox="0 0 128 28" fill="none" xmlns="http://www.w3.org/2000/svg">
    <path fill-rule="evenodd" clip-rule="evenodd" d="M57.506 4.98458C55.9501 7.8262 54.6736 11.5498 53.4006 17.233C52.3296 21.9227 51.9671 25.1367 51.9671 25.1367C51.9671 25.1367 51.9848 25.7571 52.0454 25.9955C52.106 26.2141 52.1262 26.383 52.106 26.5022C51.9444 27.4362 51.6716 27.933 51.2876 27.9926C50.9845 28.0522 49.6125 27.5854 48.4478 27.1277C47.9529 26.9333 47.3212 26.7384 46.7167 26.5518C45.7847 26.2642 44.9173 25.9965 44.716 25.7814C44.4062 25.4503 44.2183 25.0721 44.5811 23.7324C43.9176 21.7752 43.6222 20.634 43.3682 19.6525L43.3682 19.6524L43.368 19.6519C43.2817 19.3183 43.2001 19.003 43.1104 18.6804L43.0795 18.7746L43.0794 18.7748C42.9339 19.2182 42.7937 19.6455 42.6802 19.9547C42.3973 20.7297 42.2053 21.5047 42.1042 22.2796C42.0032 23.0546 41.9527 23.8197 41.9527 24.5748C41.9123 24.7536 41.9123 24.9921 41.9527 25.2902C42.0133 25.5882 42.0234 25.8366 41.983 26.0354C41.8011 26.87 41.5182 27.3469 41.1343 27.4661C40.9726 27.5058 40.811 27.5257 40.6493 27.5257C39.7198 27.5257 38.1319 27.3364 36.9599 26.9191C35.5251 26.4024 34.2609 25.8115 34.0588 25.1557C34.079 25.0365 34.0588 24.5198 33.9982 23.6057C33.0484 20.2077 32.4119 17.1276 32.0886 14.3655C31.9269 13.0341 31.8057 11.5736 31.7248 9.98384C31.6642 8.39412 31.6541 6.64543 31.6945 4.73777C31.5126 3.78394 31.4621 3.19773 31.543 2.97915C31.8057 2.12467 32.1694 1.70737 32.6342 1.72724C33.1798 1.76698 34.0184 2.07499 35.15 2.65126C35.2737 2.71644 35.405 2.78484 35.5409 2.85568L35.541 2.85571C36.6486 3.43281 38.0675 4.17214 38.2566 4.65563C38.3679 4.94006 38.3456 5.09905 38.2943 5.4644L38.2943 5.46449C38.2677 5.65356 38.2334 5.89789 38.2059 6.24345C38.203 6.30298 38.1976 6.39352 38.1907 6.50915C38.1494 7.20408 38.0541 8.80549 38.1242 10.0322C38.2004 11.3678 38.3856 12.4859 38.565 13.5688L38.5844 13.6859C38.8939 12.6344 39.1524 11.7066 39.3971 10.8283C40.0514 8.48005 40.607 6.48642 41.7743 3.43136C41.7945 3.17303 41.9157 2.81535 42.138 2.3583C42.3805 2.06023 42.6836 1.88139 43.0474 1.82177C43.2898 1.78203 44.6466 2.36705 46.0207 3.04268C47.415 3.69844 48.3232 4.50158 48.3025 4.93695C48.2454 6.13957 48.1719 9.96294 48.1719 9.96294C48.1719 9.96294 48.2123 12.4767 48.2931 13.5696C48.576 12.1985 49.0953 9.76463 49.725 7.87294C49.7985 7.6522 49.8749 7.42853 49.9527 7.20075L49.9532 7.1995L49.9532 7.19943C50.3734 5.96977 50.8347 4.62011 51.0928 2.96391C51.3394 1.3811 52.7937 1.94711 54.0488 2.43562L54.0489 2.43566C54.2158 2.5006 54.3791 2.56418 54.5356 2.62115C55.7859 3.07625 57.3242 4.42818 57.506 4.98458ZM91.4716 8.56357C91.4716 8.56357 92.8243 7.69429 92.9682 7.52076C93.0504 7.44363 93.0915 7.28937 93.0915 7.05799C93.0915 6.51809 92.8337 5.48732 92.3817 4.46537C91.9912 3.53984 91.5507 2.61414 91.1147 2.39616C90.4329 2.05525 90.006 2.12319 89.3652 2.3443C89.098 2.44071 88.8925 2.49855 88.7487 2.51783L78.1042 3.88124H77.3952C77.2103 3.86196 77.0459 3.84268 76.902 3.8234C76.5321 3.86196 76.1828 3.96801 75.854 4.14155C75.4224 4.35365 75.0897 4.9282 75.0486 5.256C75.0281 5.6802 75.4391 6.47076 76.2816 7.62768C77.1241 8.72675 78.4517 9.98131 78.8422 10.0199C79.0066 10.0199 79.284 9.94275 79.6744 9.78849C80.2293 9.53782 80.5684 9.40285 80.6917 9.38357L83.4773 8.7596L75.0025 20.9021C74.8792 21.0178 74.5709 21.2492 74.0777 21.5962C73.7695 21.8276 73.6051 22.0108 73.5845 22.1458C73.564 22.2615 73.5537 22.3772 73.5537 22.4929C73.5537 23.1677 74.502 24.7909 75.2829 25.89C75.9816 26.8734 76.7035 27.4793 77.1145 27.6529C77.1556 27.6721 77.2172 27.6818 77.2994 27.6818C77.4844 27.6818 77.9347 27.5919 78.469 27.3412C79.0238 27.0905 79.8336 26.8175 80.1419 26.779L87.6557 25.8774C87.6557 25.8774 88.8746 26.3342 89.6497 26.2418C90.1381 26.1836 90.6199 25.9683 90.8254 25.8526C91.0514 25.7369 91.2364 25.6019 91.3802 25.4477C91.5446 25.2741 91.6473 25.1006 91.6884 24.927C91.7912 24.445 91.6565 23.6456 91.2866 22.7394C90.8551 21.6789 90.0872 20.542 89.4296 20.0985C89.0803 19.8672 88.7104 19.8093 88.3199 19.925C87.8473 20.1371 87.539 20.3106 87.3952 20.4456L82.9339 21.0496L91.4716 8.56357ZM98.2211 24.1156C98.554 23.5368 98.6433 23.2095 98.5957 22.9737C98.5006 22.5663 97.9579 22.1356 97.0066 21.9855C95.437 21.7283 94.7781 21.5626 94.9208 21.5626C94.5403 21.5626 94.2787 21.6698 94.136 21.8842C93.8744 22.2487 93.487 22.9002 93.0827 23.8221C92.6308 24.8083 92.5188 25.4003 92.6377 25.6147C92.7566 25.872 93.4237 26.3364 94.6842 26.851C95.9209 27.3655 96.7223 27.5956 97.0553 27.4669C97.3169 27.3812 97.5071 27.0167 97.626 26.3735C97.6736 26.0733 97.6796 25.7219 97.632 25.5504C97.632 25.143 97.8405 24.7374 98.2211 24.1156ZM13.5953 18.9232C14.5149 16.6803 15.2022 14.2627 15.2022 12.145C15.2022 12.0775 15.2022 12.011 15.2022 11.9455C15.2031 10.1879 15.2036 9.17422 14.5374 7.66304C13.997 6.43737 13.1483 5.27814 12.052 4.54891C11.5926 4.24333 11.2106 3.89988 10.8611 3.58563C10.5673 3.3215 10.2965 3.078 10.0219 2.89497C9.47274 2.52884 8.23703 2.04829 7.49417 2.01927C6.67247 2.01927 5.70642 2.23496 4.59601 2.66633C4.40527 2.7438 4.23595 2.81337 4.08531 2.87526C3.35901 3.17366 3.06695 3.29365 2.90141 3.26117C1.83542 3.1043 1.28582 3.08363 1.24141 3.10323C0.641787 3.18167 0.0666243 3.67885 0 4.20827V25.385C0.555202 25.8948 1.38801 26.3752 2.49841 26.8262C3.78648 27.3753 4.62047 27.6246 5.55321 27.6246C5.97516 27.6246 6.3527 27.5658 6.68582 27.4482L6.70772 27.4391C7.043 27.3011 7.58712 27.0771 8.08687 26.655C8.61987 26.2433 9.21264 25.6433 9.85334 24.8998C10.6421 23.9844 11.1737 23.2038 11.7332 22.3823C11.8045 22.2776 11.8763 22.1722 11.9491 22.0657C12.4344 21.3659 12.8151 20.5592 13.1835 19.7786C13.3209 19.4875 13.4566 19.2001 13.5953 18.9232ZM6.41913 8.42664C7.64 7.62508 8.9549 7.23693 9.43529 7.6156C10.0286 8.0833 9.6968 10.2605 9.38702 11.9256C8.64086 15.9362 7.1723 19.0001 6.46976 19.844L6.41913 8.42664Z" fill="black"/>
    <path fill-rule="evenodd" clip-rule="evenodd" d="M57.0938 5.01313C55.6449 7.70401 54.3277 11.7403 53.1422 17.1221C52.1448 21.563 51.6932 24.2539 51.7873 25.1947C51.7497 25.3453 51.7591 25.5334 51.8155 25.7592C51.872 25.9662 51.8908 26.1262 51.872 26.2391C51.7214 27.1235 51.4674 27.5939 51.1099 27.6504C50.8276 27.7068 49.8868 27.3775 48.2873 26.6625C46.6502 25.985 45.7752 25.477 45.6623 25.1383C45.6434 25.1194 45.6152 24.5361 45.5776 23.3883C44.7496 20.9044 44.2133 18.3828 43.9687 15.8237L43.1784 17.856C42.9149 18.5334 42.6609 19.2108 42.4163 19.8882C42.1528 20.6221 41.9741 21.356 41.88 22.0899C41.7859 22.8237 41.7389 23.5482 41.7389 24.2633C41.7012 24.4326 41.7012 24.6584 41.7389 24.9407C41.7953 25.2229 41.8047 25.4582 41.7671 25.6463C41.5977 26.4367 41.3343 26.8883 40.9768 27.0012C40.8262 27.0388 40.6757 27.0576 40.5251 27.0576C39.6595 27.0576 38.681 26.8601 37.5896 26.4649C36.2536 25.9756 35.4915 25.4205 35.3033 24.7996C35.3221 24.6867 35.3033 24.1974 35.2469 23.3318C34.3625 20.114 33.7697 17.1974 33.4686 14.5817C33.3181 13.321 33.2052 11.9379 33.1299 10.4325C33.0735 8.92714 33.0641 7.27121 33.1017 5.46475C32.9323 4.56152 32.8853 4.00641 32.9606 3.79942C33.2052 2.99027 33.5439 2.59511 33.9767 2.61392C34.4848 2.65156 35.2657 2.94323 36.3195 3.48893C37.3732 4.05345 37.9472 4.50507 38.0412 4.84378C38.0601 4.95668 38.0318 5.49298 37.9566 6.45266C37.9189 6.88546 37.8907 7.29944 37.8719 7.6946C37.8531 8.08977 37.8437 8.47552 37.8437 8.85187C37.8437 9.66101 37.9095 10.7148 38.0412 12.0132C38.1918 13.3116 38.3988 14.8734 38.6622 16.6987L42.6139 4.30748C42.6327 4.06286 42.7456 3.72415 42.9526 3.29135C43.1784 3.00909 43.4606 2.83973 43.7994 2.78328C44.0252 2.74564 44.7779 3.04672 46.0574 3.68651C47.3558 4.30748 48.0144 4.74028 48.0333 4.98491C48.0333 5.06018 48.0238 5.25776 48.005 5.57765C48.005 5.87873 47.9956 6.31153 47.9768 6.87605C47.9203 8.21208 47.8921 9.37875 47.8921 10.3761C47.8921 11.618 47.9298 12.7565 48.005 13.7914C48.0803 14.8264 48.1932 15.7861 48.3437 16.6705C48.6072 15.3721 48.8989 14.0549 49.2187 12.7188C49.5575 11.3828 49.9244 10.0185 50.3196 8.62606C50.6395 7.51584 50.9123 6.59379 51.1381 5.85991C51.3827 5.10722 51.5897 4.53329 51.7591 4.13813C51.9661 3.19726 52.4647 2.78328 53.2551 2.89618C53.575 2.93382 53.9043 3.00909 54.243 3.12199C54.6005 3.2349 54.9674 3.37603 55.3438 3.54538C56.3411 3.997 56.9244 4.48625 57.0938 5.01313ZM91.2282 8.31557C91.9809 7.84514 92.4231 7.52524 92.5548 7.35588C92.6301 7.28062 92.6678 7.13008 92.6678 6.90427C92.6678 6.37738 92.4608 5.61528 92.0468 4.61796C91.6893 3.71473 91.3976 3.15021 91.1718 2.9244C90.9648 2.71741 90.5226 2.61392 89.8452 2.61392C89.6758 2.61392 89.4688 2.67037 89.2242 2.78327C88.9796 2.87736 88.7914 2.93381 88.6597 2.95263L79.3451 4.30748H78.6959C78.5265 4.28866 78.376 4.26984 78.2443 4.25103C77.9056 4.28866 77.5857 4.39216 77.2846 4.56151C76.8894 4.7685 76.673 5.03195 76.6354 5.35184C76.6166 5.76582 76.9929 6.53733 77.7644 7.66637C78.5359 8.73896 79.1005 9.29407 79.458 9.3317C79.6085 9.3317 79.8626 9.25644 80.2201 9.1059C80.7282 8.86127 81.0386 8.72955 81.1515 8.71073L85.7524 7.86395L76.0991 21.5253C75.9862 21.6382 75.7039 21.864 75.2523 22.2028C74.9701 22.4286 74.8195 22.6073 74.8007 22.7391C74.7819 22.852 74.7725 22.9649 74.7725 23.0778C74.7725 23.7364 75.13 24.602 75.8451 25.6746C76.4848 26.6342 76.9929 27.1988 77.3693 27.3681C77.4069 27.3869 77.4633 27.3963 77.5386 27.3963C77.708 27.3963 78.0373 27.274 78.5265 27.0294C79.0346 26.7848 79.4298 26.6436 79.712 26.606L87.6435 25.6181C88.3398 25.8063 88.8949 25.9004 89.3089 25.9004C89.4594 25.9004 89.6288 25.8721 89.8169 25.8157C90.0239 25.7404 90.2215 25.6463 90.4097 25.5334C90.6167 25.4205 90.786 25.2888 90.9177 25.1383C91.0683 24.9689 91.1624 24.7995 91.2 24.6302C91.2941 24.1598 91.1718 23.4823 90.8331 22.5979C90.4379 21.563 89.9392 20.8291 89.3371 20.3963C89.0172 20.1705 88.6785 20.114 88.3209 20.2269C87.8881 20.4339 87.6059 20.6033 87.4742 20.735L82.0548 21.5818L91.2282 8.31557ZM97.8851 24.1221C98.1486 23.6141 98.2615 23.2565 98.2239 23.0495C98.1486 22.692 97.7346 22.4474 96.9819 22.3157C95.74 22.0899 95.1755 21.977 95.2884 21.977C94.9873 21.977 94.7803 22.071 94.6674 22.2592C94.4604 22.5791 94.197 23.1436 93.8771 23.9528C93.5195 24.8184 93.3878 25.3453 93.4819 25.5334C93.576 25.7592 94.1217 26.098 95.119 26.5496C96.0975 27.0012 96.7185 27.1705 96.9819 27.0576C97.1889 26.9824 97.3394 26.6625 97.4335 26.098C97.4712 25.8345 97.4712 25.6275 97.4335 25.477C97.4335 25.1195 97.5841 24.6678 97.8851 24.1221ZM13.1605 18.9568C14.2707 16.5293 14.8258 14.2995 14.8258 12.2672C14.8258 10.4608 14.7035 9.16236 14.4589 8.37203C14.1013 7.18654 13.2828 6.03868 12.0032 4.92846C11.1188 4.17577 10.4696 3.6677 10.0556 3.40426C9.28409 2.97146 8.49376 2.75506 7.68462 2.75506C6.98838 2.75506 6.16982 2.96205 5.22896 3.37603C4.28809 3.80883 3.73298 4.00641 3.56362 3.96878C2.66039 3.81824 2.18996 3.75238 2.15232 3.7712C1.64425 3.84647 1.36199 4.13813 1.30554 4.6462V24.9689C1.77598 25.4582 2.48163 25.9192 3.42249 26.352C4.5139 26.8789 5.45476 27.1423 6.24509 27.1423C6.60262 27.1423 6.92252 27.0859 7.20478 26.973C7.48704 26.8412 7.84457 26.5684 8.27736 26.1544C8.72898 25.7592 9.24646 25.1853 9.82979 24.4326C10.5072 23.5858 11.1188 22.7108 11.6645 21.8076C12.229 20.8856 12.7277 19.9353 13.1605 18.9568ZM9.68866 6.73493C9.89565 6.73493 10.0462 6.76315 10.1403 6.8196C10.4037 6.97014 10.5354 7.5723 10.5354 8.62607C10.5354 10.6207 10.1497 12.86 9.37818 15.3439C8.47495 18.2041 7.38354 20.0011 6.10396 20.735V8.03332C7.47763 7.16772 8.67253 6.73493 9.68866 6.73493Z" fill="url(#paint0_linear_529_108)"/>
    <path d="M119.548 27.3353C119.311 27.6433 118.637 27.5993 118.307 27.5333C117.201 27.3122 116.824 27.2296 115.773 26.8206C115.104 26.5604 114.472 26.2084 114.115 26.0297C113.757 25.851 113.479 25.6524 113.281 25.434C113.102 25.2355 112.943 24.6398 112.804 23.647C112.705 22.972 112.586 22.3664 112.447 21.8303L112.338 21.3757C111.961 21.4154 111.495 21.5147 110.939 21.6735C110.403 21.8125 109.767 21.9912 109.033 22.2096C107.583 22.6465 107.687 22.8131 107.25 23.1109C107.072 23.6272 106.628 24.7987 106.37 25.434C106.311 25.712 106.088 26.2201 106.009 26.4583C105.949 26.6966 105.782 27.0032 105.6 27.1737C105.434 27.3292 104.876 27.3307 104.628 27.2865C102.991 26.9951 102.45 26.6154 101.338 26.1191C100.226 25.6425 99.6501 25.3248 99.6104 25.166C99.531 24.9277 99.7196 24.2427 100.176 23.1109C100.494 22.3167 100.742 21.6813 100.921 21.2048C101.119 20.7084 101.239 20.3709 101.278 20.1922C100.861 19.7752 100.653 19.3582 100.653 18.9413C100.653 18.8023 100.663 18.6931 100.683 18.6137C100.702 18.3953 101.308 17.9684 102.499 17.333L106.341 4.19857C106.401 4.00002 106.411 3.5632 106.371 2.88811C106.351 2.35201 106.411 2.01447 106.55 1.87548C106.649 1.7762 106.887 1.72656 107.265 1.72656C108.198 1.72656 109.483 1.76513 111.21 2.24167C112.958 2.7182 114.699 3.18278 115.511 3.69581C115.63 5.89977 115.991 9.14259 116.766 13.5505C117.739 19.0108 118.751 22.7635 119.803 24.8086C119.803 24.8086 119.944 26.8206 119.548 27.3353ZM110.958 15.8438C110.958 15.8438 110.771 14.7661 110.721 14.0683C110.623 12.6994 110.721 11.5773 110.891 10.558C110.673 11.2132 110.425 11.9777 110.147 12.8513C109.869 13.7647 109.65 14.5093 109.492 15.0851C109.333 15.641 109.243 16.0282 109.223 16.2466C109.223 16.2466 110.064 16.0424 110.958 15.8438Z" fill="black"/>
    <path d="M128 3.82051C128 3.9595 127.95 4.14813 127.851 4.38639C127.772 4.62466 127.722 4.77358 127.702 4.83314C127.583 5.2104 127.37 5.82387 127.25 6.67766V24.4608C127.25 24.6991 127.404 24.9195 127.523 25.1181C127.798 25.5753 127.463 27.5618 127.117 27.7492C126.772 27.9365 125.611 27.8465 124.419 27.5486C123.149 27.2309 121.364 26.637 121.166 26.4583C120.729 26.1009 120.51 25.7634 120.51 25.4457C120.51 25.3663 120.55 25.2769 120.629 25.1776C120.709 25.0784 120.749 24.9096 120.749 24.6713V3.67413C120.749 3.555 120.709 3.43587 120.629 3.31673C120.57 3.17774 120.54 3.04868 120.54 2.92955C120.58 2.45302 121.072 2.40051 121.767 2.24167C121.985 2.20195 123.975 2.20195 124.67 2.24167C125.484 2.30123 126.199 2.41044 126.814 2.56928C127.688 2.80755 128 3.38369 128 3.82051Z" fill="black"/>
    <path d="M119.366 26.2204C119.328 26.5849 119.251 26.8438 119.136 26.9972C119.04 27.0548 118.877 27.0835 118.647 27.0835C118.052 27.0835 117.266 26.9205 116.288 26.5945C115.789 26.441 115.367 26.278 115.022 26.1054C114.676 25.9327 114.408 25.7409 114.216 25.53C114.043 25.3382 113.89 24.7628 113.756 23.8038C113.66 23.1516 113.545 22.5666 113.411 22.0488C113.295 21.5117 113.171 21.0322 113.037 20.6103C112.672 20.6486 112.221 20.7445 111.684 20.898C111.166 21.0322 110.553 21.2048 109.843 21.4158C108.443 21.8378 107.532 22.1926 107.11 22.4803C106.956 22.9023 106.784 23.3626 106.592 23.8613C106.419 24.36 106.208 24.9162 105.959 25.53C105.902 25.7985 105.834 26.0478 105.758 26.278C105.7 26.5081 105.537 26.6999 105.269 26.8534C105.192 26.8917 105.106 26.9109 105.01 26.9109C104.53 26.9109 103.753 26.6712 102.679 26.1917C101.605 25.7314 101.049 25.4245 101.011 25.271C100.934 25.0409 101.116 24.3792 101.557 23.2859C101.864 22.5187 102.104 21.9049 102.276 21.4446C102.468 20.9651 102.583 20.639 102.622 20.4664C102.219 20.0636 102.018 19.6608 102.018 19.2581C102.018 19.1238 102.027 19.0183 102.046 18.9416C102.065 18.7306 102.65 18.3182 103.801 17.7045L107.513 5.01683C107.57 4.82503 107.58 4.40307 107.541 3.75094C107.522 3.23308 107.58 2.90702 107.714 2.77276C107.81 2.67686 108.04 2.62891 108.405 2.62891C109.306 2.62891 110.591 2.85907 112.26 3.31939C113.948 3.77971 114.945 4.19209 115.252 4.55651C115.367 6.6855 115.798 9.87899 116.546 14.137C117.486 19.4115 118.464 23.0365 119.481 25.0121L119.366 26.2204ZM111.972 16.266C111.838 15.6522 111.732 15.1535 111.656 14.7699C111.598 14.3671 111.55 14.0698 111.512 13.878C111.301 12.5738 111.157 11.2408 111.08 9.87899C110.888 10.3585 110.677 10.9243 110.447 11.5764C110.236 12.2094 109.996 12.9478 109.728 13.7917C109.459 14.674 109.248 15.3933 109.095 15.9495C108.942 16.4865 108.855 16.8605 108.836 17.0715C109.028 16.9948 109.383 16.8893 109.901 16.7551C110.418 16.6208 111.109 16.4578 111.972 16.266Z" fill="url(#paint1_linear_529_108)"/>
    <path d="M127.513 4.00988C127.513 4.14414 127.465 4.32635 127.369 4.55651C127.292 4.78667 127.244 4.93052 127.225 4.98806C127.11 5.35248 126.995 5.94707 126.88 6.77181V24.4367C126.88 24.6669 126.937 24.8778 127.053 25.0696C127.168 25.2423 127.225 25.3861 127.225 25.5012C127.225 26.7287 126.995 27.3808 126.535 27.4576C126.343 27.4959 125.672 27.3713 124.521 27.0835C123.293 26.7767 122.584 26.5369 122.392 26.3643C121.97 26.0191 121.759 25.693 121.759 25.3861C121.759 25.3094 121.797 25.2231 121.874 25.1272C121.951 25.0313 121.989 24.8682 121.989 24.6381V4.35512C121.989 4.24004 121.951 4.12496 121.874 4.00988C121.816 3.87561 121.788 3.75094 121.788 3.63586C121.826 3.17554 122.181 2.86866 122.852 2.71522C123.063 2.67686 123.504 2.67686 124.176 2.71522C124.962 2.77276 125.652 2.87825 126.247 3.03169C127.091 3.26185 127.513 3.58791 127.513 4.00988Z" fill="url(#paint2_linear_529_108)"/>
    <path d="M74.7716 16.6108C74.7116 17.4109 74.3615 17.921 73.7214 18.1411C73.6013 18.1611 73.4613 18.1311 73.3013 18.0511C73.1413 17.951 73.0112 17.901 72.9112 17.901C72.7912 17.901 72.6612 17.931 72.5211 17.991C72.1211 19.4913 71.771 20.7416 71.4709 21.7418C71.1709 22.722 70.9108 23.4721 70.6908 23.9922C69.8706 25.8926 68.6003 26.993 67.3401 27.5531C66.98 27.7131 66.318 27.6662 65.6794 27.5531C65.1953 27.4673 64.9397 27.3115 64.4796 27.1715C64.0395 27.0315 63.4694 26.8414 62.7693 26.6014C62.4892 26.5014 62.1391 26.4013 61.7191 26.3013C61.299 26.2013 60.7989 26.0213 60.2188 25.7612C59.6187 25.5012 59.0985 25.0511 58.6585 24.4109C58.2184 23.7508 57.8383 22.9107 57.5182 21.8905C56.9381 20.0301 56.6481 17.8397 56.6481 15.3192C56.6481 11.9985 57.1082 9.05798 58.0283 6.49749C59.0285 3.65694 60.3488 2.07663 61.9891 1.75657C62.0891 1.73656 62.2492 1.72656 62.4692 1.72656C63.4494 1.72656 64.6696 2.04662 66.1299 2.68675C67.6702 3.38688 69.9041 4.34707 70.4442 5.14722C70.8643 5.76734 71.1544 6.60751 71.3144 7.66771C71.4944 8.78793 71.6045 9.41805 71.6445 9.55808L71.8845 10.7883C71.8845 10.9083 71.8545 11.0584 71.7945 11.2384C71.7345 11.3984 71.6428 11.5284 71.5545 11.7185C71.4536 11.9354 71.355 12.1675 71.1798 12.4267C71.0323 12.6448 70.8356 12.8963 70.5764 12.8963C70.0522 12.8963 69.5962 12.8068 68.3359 12.4267C67.6958 12.2266 67.2525 12.1486 66.8524 11.9885C66.4723 11.8285 65.1033 11.4607 64.9297 11.0977C64.5423 10.6522 64.5696 10.0782 64.6296 9.37804C64.6296 9.27802 64.6796 9.158 64.7796 9.01797C64.8797 8.85794 65.1205 8.61279 65.1765 8.44786C65.3383 7.97208 65.7308 7.36248 65.2897 7.36248C64.9297 7.66771 64.7396 7.80432 64.2395 10.1048C63.7594 12.2652 63.5194 14.6256 63.5194 17.1861C63.5194 21.0069 63.6238 22.5787 64.2994 22.5787C64.7007 22.5787 64.9047 22.2517 65.0675 21.885C65.6522 20.5676 65.7198 19.42 65.7998 18.3198C65.4798 18.0997 64.8697 17.7897 63.9695 17.3896C63.2494 17.0895 62.8593 16.8295 62.7993 16.6094C62.7192 16.3294 62.8193 15.9093 63.0993 15.3492C63.3794 14.7891 63.6694 14.429 63.9695 14.269C64.2896 14.109 64.7296 14.0189 65.2897 13.9989C66.0099 13.9989 66.47 13.9789 66.67 13.9389C66.9901 13.8789 67.4588 13.8283 68.239 13.5483C68.8591 13.3082 69.4834 13.1747 69.8034 13.1747C69.9635 13.1747 71.2585 13.4088 71.3185 13.4288C71.8186 13.5088 72.5488 14.0963 73.509 14.9164C74.4892 15.7366 74.7916 16.3507 74.7716 16.6108Z" fill="black"/>
    <path d="M74.4187 16.4643C74.3607 17.2372 74.0226 17.73 73.4042 17.9425C73.2883 17.9618 73.153 17.9329 72.9984 17.8556C72.8438 17.7589 72.7182 17.7106 72.6216 17.7106C72.5057 17.7106 72.3801 17.7396 72.2448 17.7976C71.8583 19.2468 71.5202 20.4546 71.2303 21.4207C70.9405 22.3676 70.6893 23.0922 70.4767 23.5946C69.6845 25.4303 68.6796 26.6187 67.4623 27.1598C67.1144 27.3144 66.7763 27.3917 66.4478 27.3917C66.2739 27.3917 65.9647 27.324 65.5203 27.1888C65.0951 27.0535 64.5444 26.8699 63.8681 26.6381C63.5976 26.5414 63.2594 26.4448 62.8536 26.3482C62.4478 26.2516 61.9648 26.0777 61.4044 25.8265C60.8247 25.5753 60.3223 25.1405 59.8971 24.5221C59.472 23.8845 59.1049 23.0729 58.7957 22.0874C58.2353 20.2903 57.9551 18.1744 57.9551 15.7396C57.9551 12.532 58.3996 9.69141 59.2885 7.21801C60.2546 4.47409 61.53 2.94754 63.1145 2.63836C63.2111 2.61904 63.3657 2.60938 63.5783 2.60938C64.5251 2.60938 65.7038 2.91855 67.1144 3.5369C68.6024 4.21322 69.6072 4.93785 70.1289 5.71079C70.5347 6.30981 70.8149 7.1214 70.9695 8.14554C71.1434 9.22765 71.2497 9.83634 71.2883 9.9716L71.5202 11.16C71.5202 11.2759 71.4912 11.4209 71.4332 11.5948C71.3753 11.7494 71.298 11.9039 71.2013 12.0585C71.1241 12.1938 71.0274 12.3194 70.9115 12.4353C70.8149 12.5513 70.7183 12.6286 70.6216 12.6672C70.3318 12.7638 69.5782 12.6286 68.3608 12.2614C67.7425 12.0682 67.24 11.8943 66.8536 11.7397C66.4864 11.5851 66.2352 11.4595 66.1 11.3629C65.7521 11.131 65.6072 10.6769 65.6652 10.0006C65.6652 9.90397 65.7135 9.78803 65.8101 9.65276C65.9067 9.49818 65.955 9.36291 65.955 9.24697C65.955 7.87501 65.8005 7.18903 65.4913 7.18903C64.815 7.1697 64.2353 8.27114 63.7522 10.4933C63.2884 12.5803 63.0565 14.8604 63.0565 17.3338C63.0565 21.0246 63.5686 23.1309 64.5927 23.6526C64.9019 23.8265 65.3174 23.2951 65.8391 22.0584C66.3995 20.841 66.7183 19.7009 66.7956 18.6382C66.4864 18.4256 65.8971 18.1261 65.0275 17.7396C64.3319 17.4498 63.9551 17.1986 63.8971 16.986C63.8198 16.7155 63.9164 16.3097 64.1869 15.7686C64.4575 15.2276 64.7377 14.8798 65.0275 14.7252C65.3367 14.5706 65.7618 14.4836 66.3029 14.4643C66.9985 14.4643 67.4429 14.445 67.6362 14.4063C67.9454 14.3484 68.4768 14.1841 69.2304 13.9136C69.8294 13.6817 70.2835 13.5658 70.5927 13.5658C70.7472 13.5658 70.8535 13.5754 70.9115 13.5947C71.3946 13.672 72.0999 14.1068 73.0274 14.8991C73.9743 15.6913 74.438 16.2131 74.4187 16.4643Z" fill="url(#paint3_linear_529_108)"/>
    <path d="M32.9982 27.2294C32.7623 27.536 32.0915 27.4922 31.763 27.4265C30.6622 27.2064 30.2862 27.1242 29.2401 26.7169C28.5746 26.4579 27.9454 26.1075 27.5896 25.9296C27.2338 25.7517 26.957 25.554 26.7593 25.3366C26.5814 25.1389 26.4233 24.5459 26.2849 23.5575C26.1861 22.8854 26.0675 22.2825 25.9291 21.7488L25.821 21.2963C25.4454 21.3358 24.9809 21.4346 24.4274 21.5928C23.8937 21.7311 23.2612 21.909 22.5298 22.1265C21.0868 22.5614 21.1904 22.7273 20.7555 23.0238C20.5776 23.5377 20.1364 24.704 19.8794 25.3366C19.8201 25.6133 19.5986 26.1191 19.5195 26.3563C19.4602 26.5935 19.2932 26.8987 19.112 27.0685C18.947 27.2233 18.3919 27.2248 18.1448 27.1808C16.5146 26.8907 15.9763 26.5127 14.8693 26.0185C13.7623 25.5441 13.1891 25.2278 13.1495 25.0697C13.0705 24.8325 13.2582 24.1505 13.7129 23.0238C14.0292 22.2331 14.2763 21.6005 14.4542 21.1261C14.6518 20.6319 14.7705 20.2959 14.81 20.118C14.3949 19.7029 14.1873 19.2878 14.1873 18.8726C14.1873 18.7343 14.1972 18.6256 14.217 18.5465C14.2367 18.329 14.8396 17.904 16.0257 17.2715L19.8507 4.19541C19.91 3.99773 19.9198 3.56285 19.8803 2.89076C19.8605 2.35705 19.9198 2.021 20.0582 1.88263C20.157 1.78379 20.3943 1.73438 20.7698 1.73438C21.6989 1.73438 22.9781 1.77277 24.6978 2.24719C26.4374 2.72161 28.0858 3.12129 28.8942 3.63204C29.0128 5.82621 29.4576 9.11747 30.2285 13.5058C31.1971 18.9418 32.2052 22.6779 33.2529 24.7139C33.2529 24.7139 33.3924 26.7169 32.9982 27.2294ZM24.4466 15.7889C24.4466 15.7889 24.2604 14.716 24.2106 14.0213C24.1128 12.6585 24.2106 11.5414 24.3803 10.5266C24.1629 11.1789 23.9158 11.94 23.6391 12.8097C23.3623 13.719 23.1449 14.4603 22.9867 15.0336C22.8286 15.587 22.7397 15.9725 22.7199 16.1899C22.7199 16.1899 23.557 15.9866 24.4466 15.7889Z" fill="black"/>
    <path d="M32.7741 26.0922C32.7359 26.4551 32.6595 26.7128 32.545 26.8656C32.4495 26.9229 32.2872 26.9515 32.0581 26.9515C31.4661 26.9515 30.6832 26.7892 29.7094 26.4646C29.2129 26.3118 28.7928 26.1495 28.4491 25.9777C28.1054 25.8058 27.8381 25.6149 27.6471 25.4048C27.4753 25.2139 27.3225 24.641 27.1888 23.6863C27.0934 23.0371 26.9788 22.4547 26.8451 21.9391C26.7306 21.4044 26.6064 20.9271 26.4728 20.507C26.11 20.5452 25.6612 20.6406 25.1266 20.7934C24.611 20.9271 24 21.0989 23.2935 21.309C21.8995 21.7291 20.9925 22.0823 20.5724 22.3687C20.4197 22.7888 20.2478 23.2471 20.0569 23.7436C19.885 24.24 19.675 24.7938 19.4267 25.4048C19.3695 25.6722 19.3026 25.9204 19.2262 26.1495C19.169 26.3787 19.0067 26.5696 18.7393 26.7224C18.6629 26.7606 18.577 26.7797 18.4815 26.7797C18.0042 26.7797 17.2308 26.541 16.1615 26.0636C15.0922 25.6053 14.5384 25.2998 14.5002 25.147C14.4239 24.9179 14.6053 24.2591 15.0445 23.1707C15.35 22.4069 15.5887 21.7959 15.7605 21.3376C15.9515 20.8602 16.066 20.5356 16.1042 20.3638C15.7032 19.9628 15.5027 19.5618 15.5027 19.1608C15.5027 19.0271 15.5123 18.9221 15.5314 18.8457C15.5505 18.6357 16.1329 18.2251 17.2786 17.6141L20.9734 4.98279C21.0307 4.79184 21.0403 4.37175 21.0021 3.72252C20.983 3.20696 21.0403 2.88235 21.1739 2.74868C21.2694 2.65321 21.4986 2.60547 21.8614 2.60547C22.7588 2.60547 24.0382 2.83461 25.6994 3.29289C27.3798 3.75117 28.3727 4.16171 28.6783 4.52451C28.7928 6.64405 29.2225 9.82336 29.9672 14.0624C30.9028 19.3135 31.8766 22.9225 32.8887 24.8893L32.7741 26.0922ZM25.413 16.182C25.2793 15.5709 25.1743 15.0745 25.0979 14.6926C25.0407 14.2916 24.9929 13.9956 24.9547 13.8047C24.7447 12.5062 24.6015 11.1791 24.5251 9.82336C24.3341 10.3007 24.1241 10.864 23.895 11.5133C23.6849 12.1434 23.4462 12.8785 23.1789 13.7187C22.9116 14.5971 22.7015 15.3132 22.5488 15.8669C22.396 16.4016 22.3101 16.7739 22.291 16.984C22.4819 16.9076 22.8352 16.8026 23.3508 16.6689C23.8663 16.5352 24.5537 16.3729 25.413 16.182Z" fill="url(#paint4_linear_529_108)"/>
    <defs>
        <linearGradient id="paint0_linear_529_108" x1="1.30554" y1="4.18029" x2="96.3537" y2="18.5986" gradientUnits="userSpaceOnUse">
            <stop stop-color="#FFD601"/>
            <stop offset="1" stop-color="#FF9802"/>
        </linearGradient>
        <linearGradient id="paint1_linear_529_108" x1="11.2432" y1="7.21929" x2="127.513" y2="27.4643" gradientUnits="userSpaceOnUse">
            <stop stop-color="#FFD600"/>
            <stop offset="1" stop-color="#FF9602"/>
        </linearGradient>
        <linearGradient id="paint2_linear_529_108" x1="11.2432" y1="7.21929" x2="127.513" y2="27.4643" gradientUnits="userSpaceOnUse">
            <stop stop-color="#FFD600"/>
            <stop offset="1" stop-color="#FF9602"/>
        </linearGradient>
        <linearGradient id="paint3_linear_529_108" x1="8.38379" y1="7.23398" x2="125.522" y2="27.6303" gradientUnits="userSpaceOnUse">
            <stop stop-color="#FFD600"/>
            <stop offset="1" stop-color="#FF9602"/>
        </linearGradient>
        <linearGradient id="paint4_linear_529_108" x1="2.01187" y1="5.70303" x2="126.677" y2="23.2957" gradientUnits="userSpaceOnUse">
            <stop stop-color="#FFD600"/>
            <stop offset="1" stop-color="#FF9602"/>
        </linearGradient>
    </defs>
</svg>
