<svg width="149" height="35" viewBox="0 0 149 35" fill="none" xmlns="http://www.w3.org/2000/svg">
<g clip-path="url(#clip0_1_236)">
<mask id="mask0_1_236" style="mask-type:luminance" maskUnits="userSpaceOnUse" x="0" y="0" width="149" height="35">
<path d="M148.698 0H0V35H148.698V0Z" fill="white"/>
</mask>
<g mask="url(#mask0_1_236)">
<path d="M48.8254 20.3437C49.2717 20.3437 49.6042 20.2212 49.8229 19.9762C50.0417 19.7312 50.1467 19.3725 50.1467 18.9H53.2004L53.2179 18.9612C53.2442 20.125 52.8417 21.0787 52.0017 21.8137C51.1704 22.5487 50.1029 22.9162 48.8079 22.9162C47.1892 22.9162 45.9292 22.4087 45.0542 21.4025C44.1704 20.3962 43.7329 19.0837 43.7329 17.4737V17.2462C43.7329 15.645 44.1704 14.3325 45.0454 13.3262C45.9204 12.3112 47.1629 11.8037 48.7729 11.8037C50.1292 11.8037 51.2142 12.18 52.0279 12.9412C52.8417 13.7025 53.2354 14.735 53.2092 16.0387L53.1917 16.1H50.1379C50.1379 15.5925 50.0242 15.1812 49.8054 14.8575C49.5779 14.5337 49.2454 14.3762 48.7904 14.3762C48.1604 14.3762 47.7142 14.6387 47.4604 15.155C47.2067 15.68 47.0754 16.3712 47.0754 17.2462V17.4737C47.0754 18.375 47.2067 19.075 47.4604 19.5825C47.7142 20.09 48.1692 20.3437 48.8167 20.3437H48.8254Z" fill="#514C43"/>
<path d="M60.6465 14.945H59.4302C59.0452 14.9362 58.7302 14.9975 58.4939 15.1287C58.2489 15.26 58.0652 15.4437 57.9515 15.68V22.7062H54.6089V11.9962H57.7589L57.8814 13.5712C58.1089 13.0112 58.4064 12.5737 58.7739 12.2675C59.1414 11.9612 59.5789 11.8037 60.0689 11.8037C60.2264 11.8037 60.3927 11.8125 60.5502 11.8387C60.7165 11.865 60.8565 11.8912 60.9877 11.9262L60.6639 14.9537L60.6465 14.945Z" fill="#514C43"/>
<path d="M66.9994 17.99V18.0688H67.0694L68.8369 12.005H72.3981L68.1369 24.3075C67.8044 25.095 67.3844 25.7513 66.8594 26.2675C66.3344 26.7838 65.5119 27.0375 64.3744 27.0375C64.0856 27.0375 63.8494 27.02 63.6656 26.985C63.4819 26.95 63.1931 26.88 62.7906 26.7838L63.1931 24.4038C63.2894 24.4213 63.3506 24.4388 63.4031 24.4475C63.4469 24.4563 63.5081 24.465 63.5781 24.465C64.1031 24.465 64.4881 24.3863 64.7331 24.2288C64.9781 24.0713 65.1619 23.835 65.2756 23.5288L65.5469 22.8288L61.8456 12.005H65.3981L66.9906 17.99H66.9994Z" fill="#514C43"/>
<path d="M83.1865 17.5787C83.1865 19.1887 82.8277 20.4837 82.1015 21.455C81.3752 22.4262 80.3515 22.9162 79.0302 22.9162C78.514 22.9162 78.059 22.82 77.6565 22.6187C77.254 22.4175 76.9127 22.1375 76.6152 21.7612V26.8275H73.2727V11.9962H76.3965L76.519 13.1775C76.8252 12.74 77.1752 12.3987 77.5865 12.1625C77.9977 11.9262 78.4702 11.8037 79.0127 11.8037C80.3427 11.8037 81.3665 12.3112 82.0927 13.335C82.819 14.3587 83.1865 15.7062 83.1865 17.3687V17.5787ZM79.8527 17.3687C79.8527 16.4675 79.7215 15.7412 79.459 15.19C79.1965 14.6387 78.7765 14.3675 78.1902 14.3675C77.814 14.3675 77.499 14.4375 77.2365 14.5775C76.974 14.7175 76.7727 14.9187 76.6152 15.1812V19.6525C76.7727 19.88 76.9827 20.055 77.2452 20.1687C77.5077 20.2825 77.8315 20.335 78.2077 20.335C78.794 20.335 79.214 20.09 79.4677 19.6087C79.7215 19.1275 79.8527 18.445 79.8527 17.5787V17.3687Z" fill="#514C43"/>
<path d="M88.6209 9.33624V11.9962H90.4321V14.315H88.6209V19.2237C88.6209 19.6087 88.6996 19.88 88.8571 20.0462C89.0146 20.2125 89.2246 20.3 89.4871 20.3C89.6971 20.3 89.8634 20.3 89.9859 20.2825C90.1084 20.2737 90.2659 20.2387 90.4584 20.2037L90.6946 22.68C90.3271 22.7675 89.9946 22.8287 89.6971 22.8637C89.3996 22.8987 89.0496 22.9162 88.6471 22.9162C87.5446 22.9162 86.7131 22.6187 86.1443 22.0325C85.5756 21.4462 85.2956 20.5187 85.2956 19.2412V14.315H83.7906V11.9962H85.2956V9.33624H88.6296H88.6209Z" fill="#514C43"/>
<path d="M91.2634 17.255C91.2634 15.645 91.7184 14.3325 92.6284 13.3175C93.5384 12.3025 94.8071 11.795 96.4346 11.795C98.0621 11.795 99.3396 12.3025 100.258 13.3175C101.168 14.3325 101.623 15.645 101.623 17.255V17.465C101.623 19.0838 101.168 20.3963 100.258 21.4025C99.3484 22.4088 98.0796 22.9163 96.4609 22.9163C94.8421 22.9163 93.5384 22.4088 92.6284 21.4025C91.7184 20.3963 91.2634 19.0838 91.2634 17.465V17.255ZM94.6059 17.465C94.6059 18.3663 94.7459 19.0663 95.0259 19.5738C95.3059 20.0813 95.7871 20.3438 96.4521 20.3438C97.1171 20.3438 97.5721 20.09 97.8609 19.5738C98.1409 19.0575 98.2896 18.3575 98.2896 17.465V17.255C98.2896 16.38 98.1496 15.6888 97.8609 15.1638C97.5809 14.6388 97.0996 14.3763 96.4346 14.3763C95.7696 14.3763 95.3059 14.6388 95.0259 15.1638C94.7459 15.6888 94.6059 16.3888 94.6059 17.255V17.465Z" fill="#514C43"/>
<path d="M106.173 11.9962L106.305 13.5012C106.655 12.9675 107.083 12.5475 107.6 12.25C108.116 11.9525 108.685 11.8037 109.323 11.8037C110.373 11.8037 111.196 12.145 111.782 12.8187C112.368 13.5012 112.666 14.5775 112.666 16.065V22.7062H109.323V16.0562C109.323 15.4437 109.192 15.0062 108.938 14.7525C108.685 14.4987 108.308 14.3675 107.818 14.3675C107.512 14.3675 107.232 14.42 106.996 14.5337C106.751 14.6475 106.55 14.805 106.375 14.9975V22.6975H103.041V11.9962H106.173Z" fill="#514C43"/>
<path d="M119.377 22.9163C117.802 22.9163 116.542 22.4175 115.606 21.4288C114.67 20.44 114.197 19.1975 114.197 17.71V17.3338C114.197 15.7063 114.626 14.3763 115.475 13.3438C116.332 12.3113 117.548 11.795 119.141 11.8038C120.593 11.8038 121.731 12.2413 122.553 13.1075C123.376 13.9825 123.787 15.155 123.787 16.6513V18.4013H117.671L117.653 18.4625C117.723 19.0138 117.951 19.46 118.327 19.81C118.703 20.16 119.202 20.3438 119.832 20.3438C120.462 20.3438 120.97 20.2913 121.355 20.195C121.74 20.0988 122.212 19.9238 122.798 19.6788L123.586 21.7175C123.113 22.0588 122.51 22.3475 121.766 22.575C121.022 22.8025 120.226 22.9163 119.377 22.9163ZM119.141 14.3763C118.66 14.3763 118.301 14.5513 118.056 14.8925C117.811 15.2338 117.671 15.6975 117.618 16.2663L117.645 16.3188H120.523V16.065C120.523 15.5225 120.41 15.1113 120.191 14.8225C119.963 14.5338 119.613 14.385 119.141 14.385V14.3763Z" fill="#514C43"/>
<path d="M134.391 18.2088H134.453L135.607 12.005H138.696L136.185 22.715H133.359L131.617 17.0363H131.556L129.806 22.715H126.989L124.469 12.005H127.557L128.739 18.2613H128.8L130.541 12.005H132.65L134.409 18.2088H134.391Z" fill="#514C43"/>
<path d="M145.478 19.6963C145.478 19.4338 145.33 19.1975 145.032 18.9875C144.735 18.7775 144.183 18.5938 143.396 18.4275C142.145 18.1825 141.208 17.8063 140.578 17.29C139.948 16.7738 139.625 16.0738 139.625 15.1813C139.625 14.2363 140.018 13.44 140.815 12.7838C141.602 12.1275 142.678 11.795 144.035 11.795C145.461 11.795 146.59 12.11 147.438 12.7488C148.278 13.3875 148.681 14.21 148.646 15.2163L148.628 15.2775H145.382C145.382 14.8575 145.277 14.5338 145.058 14.315C144.84 14.0963 144.498 13.9913 144.026 13.9913C143.676 13.9913 143.378 14.0875 143.142 14.28C142.906 14.4725 142.783 14.7175 142.783 15.015C142.783 15.3125 142.923 15.54 143.195 15.7413C143.466 15.9425 144.017 16.1175 144.848 16.275C146.152 16.5288 147.123 16.9138 147.753 17.43C148.383 17.9375 148.698 18.6638 148.698 19.6C148.698 20.5363 148.27 21.3588 147.421 21.98C146.563 22.6013 145.435 22.9163 144.035 22.9163C142.635 22.9163 141.427 22.5488 140.578 21.805C139.73 21.07 139.327 20.2388 139.362 19.3288L139.38 19.2675H142.407C142.416 19.775 142.573 20.1425 142.871 20.37C143.168 20.5975 143.58 20.7025 144.122 20.7025C144.568 20.7025 144.91 20.615 145.137 20.44C145.365 20.265 145.487 20.02 145.487 19.6963H145.478Z" fill="#514C43"/>
<path d="M26.2469 17.5013L17.4982 26.25L26.2469 34.9987L34.9956 26.25L26.2469 17.5013Z" fill="#514C43"/>
<path d="M26.25 0H8.75L17.5 8.75L26.25 17.5L35 8.75L26.25 0Z" fill="#514C43"/>
<path d="M17.5 26.25L8.75 17.5L0 26.25L8.75 35H26.25L17.5 26.25Z" fill="#514C43"/>
<path d="M8.75 0L0 8.75V26.25L8.75 17.5L17.5 8.75L8.75 0Z" fill="#514C43"/>
</g>
</g>
<defs>
<clipPath id="clip0_1_236">
<rect width="148.75" height="35" fill="white"/>
</clipPath>
</defs>
</svg>
