<svg width="231" height="35" viewBox="0 0 231 35" fill="none" xmlns="http://www.w3.org/2000/svg">
<g clip-path="url(#clip0_1_223)">
<path d="M26.685 29.0409C31.1351 28.502 35.1848 27.1623 38.403 25.1606C42.1601 22.8354 44.3929 18.4778 43.8385 13.3502C43.2226 7.56048 36.9402 -0.0154134 22.3735 0.0153829C16.476 0.0153829 10.7479 1.18564 6.6674 3.94191C2.66388 6.65199 0 10.7325 0 14.8592C0 21.5882 6.55961 27.2085 16.6762 28.8253L27.7783 34.9846L26.685 29.0409Z" fill="#514C43"/>
<path d="M13.7351 5.89749C12.7497 5.89749 11.9335 6.26704 11.3176 7.02155C10.7017 7.77606 10.3937 8.74615 10.3937 9.9318C10.3937 11.6102 10.8095 12.9806 11.6256 14.0277C12.4571 15.0902 13.5196 15.6137 14.8284 15.6137C15.8909 15.6137 16.784 15.2596 17.4923 14.5205C18.2006 13.7967 18.5702 12.8882 18.5702 11.8104C18.5702 10.2244 18.0928 8.83853 17.1227 7.65288C16.1526 6.48262 15.044 5.89749 13.7351 5.89749ZM14.6436 5.00439C16.7994 5.00439 18.5702 5.71271 19.956 7.12934C21.3418 8.54597 22.0347 10.363 22.0347 12.5803C22.0347 15.3366 20.9569 17.8003 18.8165 19.9714C16.6762 22.1425 13.9815 23.4976 10.7325 24.0211L9.42365 24.2367C9.26967 24.2521 9.16188 24.2675 9.0387 24.2675C8.74613 24.2675 8.60755 24.1289 8.62295 23.8363C8.63834 23.6824 8.68454 23.59 8.77693 23.5592C8.86932 23.5284 9.14648 23.4514 9.63922 23.359C11.1944 23.051 12.7035 22.3427 14.1817 21.2186C15.6599 20.0946 16.6454 18.9243 17.1227 17.6771L17.4307 16.8764C17.5385 16.5992 17.6001 16.3836 17.6001 16.2142C17.6001 15.9217 17.4923 15.7831 17.2459 15.7985C17.1381 15.8139 16.9995 15.8601 16.8148 15.9679C16.245 16.322 15.5213 16.6454 14.6898 16.9072C13.8429 17.1689 13.15 17.3075 12.5803 17.3075C11.0559 17.3075 9.77781 16.784 8.73073 15.7215C7.69906 14.6744 7.19092 13.3656 7.19092 11.8258C7.19092 9.82402 7.89923 8.19181 9.28507 6.91377C10.6863 5.63572 12.4725 5.00439 14.6436 5.00439Z" fill="white"/>
<path d="M29.9032 5.89749C28.9177 5.89749 28.1016 6.26704 27.4857 7.02155C26.8698 7.77606 26.5618 8.74615 26.5618 9.9318C26.5618 11.6102 26.9775 12.9806 27.7937 14.0277C28.6252 15.0902 29.6876 15.6137 30.9965 15.6137C32.0589 15.6137 32.952 15.2596 33.6603 14.5205C34.3687 13.7967 34.7382 12.8882 34.7382 11.8104C34.7382 10.2244 34.2609 8.83853 33.2908 7.65288C32.3207 6.48262 31.1966 5.89749 29.9032 5.89749ZM30.7963 5.00439C32.952 5.00439 34.7228 5.71271 36.1087 7.12934C37.4945 8.54597 38.1874 10.363 38.1874 12.5803C38.1874 15.3366 37.1095 17.8003 34.9692 19.9714C32.8288 22.1425 30.1342 23.4976 26.8852 24.0211L25.5763 24.2367C25.4223 24.2521 25.3145 24.2675 25.1914 24.2675C24.8988 24.2675 24.7602 24.1289 24.7756 23.8363C24.791 23.6824 24.8372 23.59 24.9296 23.5592C25.022 23.5284 25.2991 23.4514 25.7919 23.359C27.3471 23.051 28.8561 22.3427 30.3343 21.2186C31.7972 20.0946 32.7981 18.9243 33.2754 17.6771L33.5834 16.8764C33.6911 16.5992 33.7527 16.3836 33.7527 16.2142C33.7527 15.9217 33.6449 15.7831 33.3986 15.7985C33.2908 15.8139 33.1522 15.8601 32.9674 15.9679C32.3977 16.322 31.674 16.6454 30.8425 16.9072C30.011 17.1689 29.3027 17.3075 28.7329 17.3075C27.2085 17.3075 25.9305 16.784 24.8834 15.7215C23.8517 14.6744 23.3282 13.3656 23.3282 11.8258C23.3282 9.82402 24.0365 8.19181 25.4223 6.91377C26.839 5.63572 28.6252 5.00439 30.7963 5.00439Z" fill="white"/>
<path d="M85.2134 3.44916C84.6899 3.44916 84.3973 3.66474 84.3357 4.08049L84.1817 5.06597L83.9353 6.5134L83.7198 7.91463C83.5966 8.45356 83.5196 8.86931 83.5042 9.17728C83.4734 9.51604 83.7044 9.67002 84.1509 9.67002C84.4589 9.67002 84.7052 9.45444 84.8592 9.0079L85.0286 8.56135C85.4598 7.39109 85.7677 6.65198 86.0141 6.35941C86.2605 6.06685 86.7378 5.78968 87.4769 5.55871C88.4932 5.25075 90.3718 5.08137 93.1588 5.08137C94.3445 5.08137 94.9296 5.51252 94.9296 6.35941V20.6951L94.945 21.4496C94.945 22.4043 94.6525 23.1588 94.0519 23.7285C93.4668 24.2829 92.6353 24.5908 91.542 24.637C91.1263 24.6678 90.8491 24.6986 90.7413 24.7756C90.6181 24.8526 90.5412 25.0066 90.5258 25.2529C90.5104 25.5455 90.7259 25.6841 91.1571 25.6841C91.3419 25.6841 91.6806 25.6687 92.158 25.6225L103.922 25.5609C104.169 25.5763 104.353 25.5763 104.446 25.5763C104.877 25.5763 105.092 25.4531 105.092 25.1914C105.092 24.8372 104.846 24.6524 104.338 24.6216C102.613 24.5446 101.412 24.1135 100.719 23.359C100.042 22.6045 99.703 21.311 99.703 19.494V7.3295C99.703 6.32862 99.9648 5.69729 100.473 5.45092C100.996 5.18916 102.305 5.06597 104.415 5.06597C105.985 5.06597 107.187 5.28154 108.003 5.72809C108.834 6.17464 109.388 6.89835 109.681 7.89923C109.804 8.31498 110.02 8.51516 110.343 8.51516C110.728 8.51516 110.898 8.34578 110.898 7.97622C110.898 7.63746 110.851 7.17552 110.744 6.60579C110.62 5.91287 110.543 5.48172 110.543 5.29694L110.436 4.12668C110.405 3.63394 109.989 3.38757 109.219 3.38757C109.111 3.35678 85.3674 3.44916 85.2134 3.44916Z" fill="#514C43"/>
<path d="M70.5081 3.80333C70.5081 4.0035 70.6159 4.14208 70.8007 4.21908C71.0009 4.29607 71.4628 4.38846 72.1711 4.46545C73.3568 4.60403 74.1729 4.8812 74.6194 5.31234C75.066 5.74349 75.2815 6.43641 75.2815 7.42189V20.2793L75.2661 21.7114C75.2661 22.6507 75.0968 23.3128 74.7734 23.7131C74.45 24.1135 73.7879 24.4522 72.787 24.7448L72.1711 25.1298L72.2019 25.253C72.2789 25.4839 72.4791 25.5917 72.787 25.5917H83.6273C84.5358 25.5917 84.9824 25.4377 84.9824 25.1144C84.9824 24.7756 84.6436 24.6216 83.9661 24.6216C82.9344 24.6216 82.0875 24.4061 81.4408 23.9595C80.7941 23.513 80.3937 22.8816 80.2244 22.0501L80.055 20.4333V6.72897C80.055 5.80509 80.209 5.18916 80.4861 4.89659C80.7787 4.58863 81.4254 4.37306 82.4109 4.24987C82.6881 4.21908 82.8574 4.17288 82.9344 4.09589C82.996 4.0343 83.0422 3.89571 83.0422 3.69554C83.0422 3.43377 82.7342 3.43377 82.2723 3.43377C81.5024 3.43377 71.2626 3.38758 71.0163 3.37218C71.0009 3.37218 71.0009 3.37218 70.9855 3.37218C70.6775 3.35678 70.5081 3.51076 70.5081 3.80333Z" fill="#514C43"/>
<path d="M115.702 5.6049C114.1 6.66737 112.822 8.05321 111.883 9.747C110.928 11.4408 110.451 13.1808 110.451 14.967C110.451 18.216 111.714 20.8491 114.27 22.8662C116.826 24.8834 120.121 25.8997 124.217 25.8997C128.436 25.8997 131.993 24.637 134.857 22.1271C135.95 21.157 136.505 20.4487 136.505 20.0176C136.505 19.7712 136.366 19.6634 136.104 19.6634C135.919 19.6788 135.735 19.7712 135.55 19.9252L134.195 21.0646C133.286 21.8346 132.055 22.4813 130.484 23.0048C128.913 23.5283 127.42 23.7901 126.018 23.7901C123.647 23.7901 121.445 23.0202 119.428 21.465C116.733 19.3862 115.409 16.6146 115.409 13.1346C115.409 10.4707 116.225 8.29958 117.873 6.63658C119.52 4.95818 121.645 4.12668 124.278 4.12668C127.25 4.12668 129.93 5.12756 132.347 7.16011C132.948 7.65285 133.564 8.33037 134.226 9.16187C134.888 10.0088 135.273 10.6247 135.381 11.0404C135.442 11.3022 135.596 11.4254 135.812 11.4254C136.197 11.4254 136.381 11.2252 136.381 10.8095C136.381 10.5323 136.351 10.2089 136.274 9.85479L135.889 5.25074C135.889 4.54243 135.673 4.20367 135.242 4.20367C135.057 4.20367 134.934 4.23446 134.857 4.32685L134.426 4.83499C134.287 5.00437 134.087 5.09676 133.795 5.09676C133.579 5.09676 133.317 5.03517 133.04 4.89658L131.67 4.28066C129.745 3.41836 127.481 2.98721 124.879 2.98721C121.399 2.98721 118.335 3.86491 115.702 5.6049Z" fill="#514C43"/>
<path d="M145.482 21.5266C143.526 19.4171 142.525 16.6608 142.525 13.2732C142.525 10.4091 143.295 8.17641 144.881 6.575C146.452 4.97359 148.638 4.15749 151.425 4.15749C154.028 4.15749 156.307 4.8658 158.216 6.25164C159.54 7.19093 160.587 8.48437 161.388 10.0858C162.173 11.6872 162.574 13.3502 162.574 15.044C162.574 17.9696 161.711 20.3102 160.018 22.0501C158.308 23.7901 156.029 24.6678 153.196 24.6678C150.024 24.6986 147.453 23.6362 145.482 21.5266ZM146.313 3.94192C144.235 4.60404 142.525 5.49713 141.17 6.65199C140 7.63747 139.076 8.83853 138.399 10.286C137.721 11.7334 137.382 13.1808 137.382 14.659C137.382 18.0774 138.737 20.8029 141.417 22.8508C144.111 24.8988 147.714 25.9151 152.195 25.9151C156.892 25.9151 160.587 24.7448 163.282 22.3889C166.038 19.9868 167.409 17.0611 167.409 13.5966C167.409 10.4245 166.069 7.85305 163.405 5.89748C160.741 3.94192 157.246 2.97183 152.904 2.97183C150.594 2.97183 148.392 3.29519 146.313 3.94192Z" fill="#514C43"/>
<path d="M182.56 3.43378C182.083 3.43378 181.852 3.58776 181.852 3.89573C181.852 4.1421 182.068 4.28068 182.499 4.31148C185.656 4.48086 187.226 6.22085 187.226 9.53145V16.5222L187.072 20.3563C187.072 21.6806 186.841 22.6815 186.379 23.3898C185.902 24.0981 185.163 24.56 184.147 24.791C183.746 24.8834 183.531 25.0374 183.531 25.253C183.531 25.5147 183.731 25.6533 184.1 25.6533C184.316 25.6533 193.447 25.6225 193.616 25.6225C194.048 25.6225 194.263 25.4531 194.263 25.1298C194.263 24.8834 194.048 24.7448 193.632 24.714C191.384 24.5446 190.013 23.8671 189.582 22.6661C189.151 21.542 188.935 19.3093 188.935 15.9525V9.68543L188.951 9.20809C188.951 8.73075 189.12 8.48438 189.443 8.48438C189.567 8.48438 189.798 8.62296 190.136 8.91552L209.076 25.2376C209.338 25.4685 209.6 25.5763 209.846 25.5917C210.123 25.6071 210.416 25.4531 210.416 25.1452L210.57 8.63836V7.85305C210.57 5.65112 211.463 4.41926 213.264 4.15749C213.711 4.0959 213.927 4.06511 213.927 3.78794C213.927 3.47998 213.634 3.43378 213.187 3.43378H203.933C203.533 3.43378 203.271 3.43378 203.271 3.72635C203.271 3.95732 203.502 4.0805 203.949 4.1113C205.873 4.21909 207.167 4.72723 207.844 5.62032C208.506 6.51341 208.83 8.22261 208.83 10.7479C208.83 12.9036 208.768 15.1672 208.63 17.5385C208.599 18.2006 208.445 18.524 208.152 18.524C207.844 18.524 207.213 18.1236 206.258 17.2921C206.258 17.2921 190.952 3.81873 190.706 3.66475C190.46 3.51077 190.121 3.44918 189.69 3.44918C189.382 3.41838 182.56 3.43378 182.56 3.43378Z" fill="#514C43"/>
<path d="M215.482 4.7888C213.988 5.97445 213.234 7.46807 213.234 9.25426C213.234 10.7941 213.773 12.0105 214.835 12.9344C215.913 13.8583 217.93 14.8284 220.917 15.8755L224.089 16.9687C225.506 17.4461 226.507 17.9696 227.077 18.5085C227.646 19.0475 227.939 19.7558 227.939 20.6027C227.939 21.6806 227.4 22.6199 226.291 23.4514C225.183 24.2829 223.92 24.6986 222.519 24.6986C220.702 24.6986 218.977 24.0673 217.283 22.82C215.59 21.5574 214.419 20.0176 213.742 18.1698C213.665 17.908 213.526 17.7848 213.326 17.7848C212.895 17.7848 212.679 18.0466 212.679 18.5547C212.679 18.9551 214.265 24.2983 214.358 24.3906C214.465 24.483 214.835 24.5754 215.482 24.6832C215.944 24.7602 216.652 24.9296 217.622 25.1606C219.716 25.6687 221.21 25.9151 222.18 25.9151C224.52 25.9151 226.584 25.2221 228.324 23.8209C230.079 22.4351 230.941 20.8029 230.941 18.9243C230.941 17.2305 230.31 15.7677 229.048 14.5666C227.97 13.5657 225.798 12.5495 222.503 11.5024C219.732 10.6401 218.084 9.99337 217.56 9.62382C216.744 9.02329 216.329 8.31497 216.329 7.48347C216.329 6.59038 216.791 5.82047 217.73 5.15835C218.669 4.49623 219.747 4.17287 220.994 4.17287C222.811 4.17287 224.536 4.71181 226.168 5.82047C227.8 6.91374 228.817 8.20719 229.201 9.7162C229.309 10.1166 229.494 10.3321 229.74 10.3321C230.079 10.3321 230.264 10.1012 230.264 9.63921C230.264 9.56222 229.74 4.37305 229.74 4.37305C229.74 4.01889 229.586 3.83411 229.294 3.83411C229.186 3.83411 229.078 3.84951 228.971 3.8957L228.185 4.20367C227.97 4.28066 227.785 4.31145 227.569 4.31145C227.308 4.31145 226.861 4.21907 226.245 4.01889L224.844 3.57234C223.597 3.18739 222.319 2.98721 221.025 2.98721C218.839 2.98721 216.991 3.58774 215.482 4.7888Z" fill="#514C43"/>
<path d="M166.392 3.80333C166.392 4.0035 166.5 4.14209 166.685 4.21908C166.885 4.29607 167.347 4.38846 168.055 4.46545C169.241 4.60403 170.057 4.8966 170.488 5.31235C170.935 5.74349 171.166 6.43641 171.166 7.42189V20.2793L171.15 21.7114C171.15 22.6507 170.981 23.3128 170.658 23.7131C170.334 24.1135 169.672 24.4676 168.656 24.7448L168.04 25.1298L168.071 25.253C168.148 25.4839 168.348 25.6071 168.641 25.6071H179.496C180.405 25.6071 180.851 25.4531 180.851 25.1298C180.851 24.791 180.513 24.637 179.835 24.637C178.803 24.637 177.956 24.4215 177.31 23.9749C176.663 23.5284 176.263 22.897 176.093 22.0655L175.924 20.4487V6.71358C175.924 5.78969 176.078 5.17376 176.355 4.8812C176.648 4.57324 177.294 4.35766 178.28 4.23448C178.557 4.20368 178.726 4.15749 178.803 4.08049C178.865 4.0189 178.911 3.88032 178.911 3.68014C178.911 3.41837 178.557 3.41837 178.095 3.41837C177.341 3.41837 167.132 3.37218 166.885 3.35678C166.87 3.35678 166.854 3.35678 166.854 3.35678C166.546 3.35678 166.392 3.51076 166.392 3.80333Z" fill="#514C43"/>
<path d="M54.5249 22.3889C54.4171 20.6181 54.3709 19.3247 54.3709 18.1698C54.3709 17.0149 54.3555 15.6445 54.879 15.044C55.5103 14.3357 56.927 14.3357 57.9278 14.3357C60.0528 14.3357 60.6841 14.3973 62.3625 14.736C65.2574 15.3211 66.7356 16.8764 66.7356 19.3863C66.7356 20.6797 66.289 21.7884 65.3959 22.7123C64.3027 23.8209 62.2855 24.3753 59.3291 24.3753C56.3264 24.3907 54.6172 23.9595 54.5249 22.3889ZM54.9406 12.6265C54.5556 12.3801 54.3555 11.9335 54.3555 11.3022V7.26791C54.3555 6.35942 54.4325 5.43553 54.9714 5.08137C55.4641 4.74261 56.2956 4.77341 57.5275 4.77341C59.6832 4.77341 61.4232 4.835 62.7321 5.80509C64.0563 6.79057 64.7184 8.08401 64.7184 9.70082C64.7184 11.6718 63.5328 12.7804 61.1615 13.0114H56.9886C56.0185 13.0114 55.341 12.8728 54.9406 12.6265ZM45.8403 3.47996L45.3168 3.46457C44.9164 3.46457 44.7316 3.61855 44.7316 3.94191C44.7316 4.23447 44.8856 4.37306 45.1782 4.40385L46.1329 4.51164C46.5794 4.54244 48.2732 4.95819 49.0277 6.00526C49.4127 6.5442 49.5205 7.29871 49.5359 7.89923C49.582 11.7026 49.6282 18.9859 49.6282 22.2349C49.6282 23.2512 49.3665 23.8671 49.1355 24.1443C48.612 24.7602 47.3185 24.7756 47.0721 24.8064C46.6872 24.868 46.5178 25.0066 46.5178 25.253C46.5178 25.5455 46.718 25.6841 47.1491 25.6841C49.0585 25.6841 49.0585 25.6687 61.377 25.5763C64.5029 25.5763 66.9974 24.9604 68.8451 23.7131C70.6775 22.4813 71.6014 20.7875 71.6014 18.6625C71.6014 17.2613 71.1087 16.0911 70.0924 15.1518C69.0915 14.2125 67.7211 13.6119 65.9811 13.381C65.4267 13.3194 65.1496 13.1808 65.1804 12.996C65.1958 12.8728 65.4575 12.7343 65.9657 12.5649C68.1984 11.8258 69.2917 10.5015 69.2917 8.62295C69.2917 6.97534 68.3986 5.6665 66.6278 4.68102C64.8416 3.69554 62.4395 3.46457 59.4985 3.46457C58.359 3.43377 45.8403 3.47996 45.8403 3.47996Z" fill="#514C43"/>
</g>
<defs>
<clipPath id="clip0_1_223">
<rect width="230.972" height="35" fill="white"/>
</clipPath>
</defs>
</svg>
