<svg width="166" height="176" viewBox="0 0 166 176" fill="none" xmlns="http://www.w3.org/2000/svg">
<mask id="path-1-inside-1_2017_16" fill="white">
<path fill-rule="evenodd" clip-rule="evenodd" d="M156.76 56.6316C160.496 50.8869 162.667 44.0303 162.667 36.6667C162.667 16.4162 146.25 0 126 0C115.144 0 105.389 4.71808 98.6757 12.2156C93.4964 11.1993 88.1437 10.6667 82.6667 10.6667C37.0111 10.6667 0 47.6778 0 93.3333C0 138.989 37.0111 176 82.6667 176C128.322 176 165.333 138.989 165.333 93.3333C165.333 80.1512 162.248 67.6896 156.76 56.6316Z"/>
</mask>
<path fill-rule="evenodd" clip-rule="evenodd" d="M156.76 56.6316C160.496 50.8869 162.667 44.0303 162.667 36.6667C162.667 16.4162 146.25 0 126 0C115.144 0 105.389 4.71808 98.6757 12.2156C93.4964 11.1993 88.1437 10.6667 82.6667 10.6667C37.0111 10.6667 0 47.6778 0 93.3333C0 138.989 37.0111 176 82.6667 176C128.322 176 165.333 138.989 165.333 93.3333C165.333 80.1512 162.248 67.6896 156.76 56.6316Z" fill="white"/>
<path d="M156.76 56.6316L154.524 55.1776L153.694 56.4536L154.371 57.8171L156.76 56.6316ZM98.6757 12.2156L98.1622 14.8324L99.6505 15.1245L100.662 13.9946L98.6757 12.2156ZM160 36.6667C160 43.4987 157.988 49.8525 154.524 55.1776L158.995 58.0855C163.004 51.9212 165.333 44.5619 165.333 36.6667H160ZM126 2.66667C144.778 2.66667 160 17.889 160 36.6667H165.333C165.333 14.9435 147.723 -2.66667 126 -2.66667V2.66667ZM100.662 13.9946C106.892 7.03802 115.934 2.66667 126 2.66667V-2.66667C114.354 -2.66667 103.887 2.39815 96.6891 10.4367L100.662 13.9946ZM82.6667 13.3333C87.9705 13.3333 93.1512 13.8491 98.1622 14.8324L99.1892 9.59888C93.8416 8.54954 88.317 8 82.6667 8V13.3333ZM2.66667 93.3333C2.66667 49.1506 38.4839 13.3333 82.6667 13.3333V8C35.5384 8 -2.66667 46.205 -2.66667 93.3333H2.66667ZM82.6667 173.333C38.4839 173.333 2.66667 137.516 2.66667 93.3333H-2.66667C-2.66667 140.462 35.5384 178.667 82.6667 178.667V173.333ZM162.667 93.3333C162.667 137.516 126.849 173.333 82.6667 173.333V178.667C129.795 178.667 168 140.462 168 93.3333H162.667ZM154.371 57.8171C159.68 68.5149 162.667 80.5716 162.667 93.3333H168C168 79.7307 164.815 66.8643 159.148 55.4461L154.371 57.8171Z" fill="black" mask="url(#path-1-inside-1_2017_16)"/>
<g clip-path="url(#clip0_2017_16)">
<path fill-rule="evenodd" clip-rule="evenodd" d="M117.183 93.8776C119.887 86.1816 124.874 71.561 116.725 71.5867C110.211 71.5096 103.701 71.9482 97.2557 72.8984C97.2827 71.7768 97.2171 70.6548 97.0597 69.544C96.1823 64.7801 89.8229 66.6271 87.9421 66.8845C86.079 67.0498 84.2526 67.5025 82.528 68.2265C70.4683 72.6193 71.2358 71.9132 67.3523 73.459C64.1505 74.7092 61.1322 76.386 58.3791 78.4438C57.7778 79.0379 57.3591 79.7917 57.1723 80.6161C56.9856 81.4405 57.0386 82.3011 57.3252 83.0963C57.4463 83.9814 61.8155 95.5935 62.6613 97.6567C64.1551 101.435 64.6466 102.006 67.7432 109.81C68.1477 110.844 68.442 112.72 70.0479 112.65C70.1954 112.646 70.3406 112.612 70.4749 112.551C70.6093 112.49 70.7302 112.403 70.8307 112.295C70.9312 112.187 71.0093 112.06 71.0604 111.921C71.1116 111.783 71.1348 111.636 71.1287 111.488C70.9621 110.271 68.4454 105.882 64.1268 91.0695C68.7723 91.5233 76.0669 81.9593 74.0739 75.3569C84.8498 71.7408 83.8602 70.8243 88.3761 70.056C89.8144 69.8592 93.2437 68.5634 94.2903 69.6224C94.7247 70.0514 94.7091 72.6833 94.9793 73.285C93.0616 73.5475 83.1114 75.5102 81.9806 77.1301C80.9978 79.4025 80.6889 81.9095 81.0905 84.3525C81.1014 86.0792 81.4706 104.701 81.9876 106.283C82.0135 106.455 82.0768 106.619 82.1731 106.764C82.2693 106.909 82.3961 107.031 82.5446 107.122C82.6931 107.213 82.8597 107.27 83.0326 107.289C83.2055 107.308 83.3806 107.29 83.5455 107.234C84.1355 107.154 84.3688 89.9149 84.3653 89.6149C85.8449 89.8087 87.3495 89.6424 88.7511 89.1301C90.1527 88.6178 91.4098 87.7747 92.4157 86.6723C93.7032 85.4949 94.704 84.0383 95.3413 82.4142C95.9787 80.7901 96.2357 79.0417 96.0927 77.3029L105.239 76.0513C105.083 77.5232 105.256 79.0114 105.744 80.4085C106.233 81.8057 107.025 83.0772 108.064 84.1315C109.103 85.1858 110.363 85.9966 111.752 86.5056C113.142 87.0146 114.628 87.2092 116.102 87.0753C115.617 89.0201 115.058 90.9751 114.467 92.9719L113.779 96.1843C113.502 97.725 115.955 98.6291 116.385 97.1051C116.499 96.5635 116.283 97.4571 117.183 93.8776ZM63.4148 88.6122C62.6928 86.0812 61.5227 82.7473 61.5126 82.6736C60.8174 80.0637 61.8438 80.9752 64.1733 79.6045C66.4164 78.295 68.7861 77.2155 71.2462 76.3825C71.1236 79.3297 66.2308 87.776 63.4148 88.6122ZM89.8191 83.3459C85.677 87.6696 86.4845 86.4321 84.4596 87.0097C84.4516 84.684 84.5725 82.3597 84.8218 80.0474C85.1537 80.002 88.4138 78.8421 93.4945 77.8087C93.187 79.9546 90.7992 82.2725 89.8191 83.3459ZM111.801 81.7279C107.608 78.5447 107.938 76.2831 107.818 75.9612C110.806 75.5525 113.848 75.5494 116.802 75.4457C118.351 75.2337 117.129 82.5015 116.82 84.0842C114.949 83.8157 113.202 82.9953 111.801 81.7279Z" fill="black"/>
<path fill-rule="evenodd" clip-rule="evenodd" d="M130.593 116.651C129.064 112.614 126.08 109.754 121.868 110.819C121.231 110.005 122.206 101.756 115.632 99.8382C114.802 99.565 113.933 99.43 113.06 99.4388C111.248 99.4245 109.487 100.037 108.075 101.173C106.247 102.362 98.3241 105.964 98.3341 106.037C96.6614 106.717 80.3642 111.99 75.716 112.889C70.3569 113.811 61.3314 114.294 64.2227 109.616C64.3882 109.378 64.4582 109.087 64.419 108.8C64.3797 108.513 64.234 108.251 64.0107 108.067C62.4059 107.047 61.1117 110.492 61.4847 112.395C62.3939 117.117 71.579 117.25 76.3615 116.783C91.9262 115.217 109.756 104.399 110.399 102.508C116.057 102.673 117.865 106.821 119.547 112.527C117.971 115.56 115.53 114.467 109.553 116.637C105.079 118.264 102.621 120.892 103.525 125.577C103.797 127.287 104.565 128.879 105.735 130.155C106.905 131.431 108.425 132.335 110.105 132.754C111.238 132.958 112.384 133.077 113.535 133.111C116.709 133.365 119.897 132.864 122.84 131.65C123.874 141.952 122.726 142.072 117.135 144.866C108.081 149.261 78.3266 156.676 69.3644 152.68C63.8916 150.574 62.3737 145.522 60.4351 140.415C57.8087 133.759 55.9047 126.84 54.7558 119.778C53.0221 108.481 53.7814 108.264 59.8958 102.431C60.0908 102.194 60.1929 101.894 60.1829 101.587C60.1729 101.279 60.0516 100.987 59.8416 100.762C59.6315 100.538 59.3472 100.398 59.0415 100.368C58.7357 100.338 58.4296 100.42 58.18 100.6C51.5058 106.735 50.2892 107.728 51.7787 120.26C52.6761 127.582 54.3796 134.783 56.8583 141.731C59.1261 148.145 60.8252 153.698 67.3093 156.606C80.0828 162.371 120.762 150.23 124.698 142.478C125.865 138.619 125.965 134.516 124.989 130.604C127.459 129.356 129.39 127.252 130.421 124.684C131.452 122.116 131.513 119.26 130.593 116.651ZM113.833 128.975C112.369 129.04 110.908 128.778 109.558 128.208C107.386 126.889 106.104 123.007 108.088 121.308C112.802 117.319 119.892 119.167 122.022 113.315C122.354 113.27 126.143 111.587 127.903 117.582C129.896 125.011 121.294 129.682 113.833 128.975Z" fill="black"/>
<path fill-rule="evenodd" clip-rule="evenodd" d="M103.169 99.3643C104.421 98.6543 105.805 98.2091 107.235 98.0565C107.825 99.8919 111.08 98.695 110.62 97.2552C109.925 94.6454 108.238 94.1248 105.468 94.2032C104.101 94.2693 102.774 94.6883 101.616 95.4195C100.459 96.1506 99.5106 97.1691 98.8637 98.3756C98.3119 99.7396 98.1642 101.233 98.4382 102.679C98.3031 104.163 101.577 103.377 101.432 102.044C101.906 100.289 102.234 99.9431 103.169 99.3643Z" fill="black"/>
</g>
<mask id="path-6-outside-2_2017_16" maskUnits="userSpaceOnUse" x="124.667" y="19" width="7" height="22" fill="black">
<rect fill="white" x="124.667" y="19" width="7" height="22"/>
<path d="M126.828 38.5C126.828 38.1042 126.839 37.4896 126.859 36.6562C126.901 35.8021 126.932 34.8438 126.953 33.7812C126.995 32.7188 127.036 31.6042 127.078 30.4375C127.12 29.2708 127.151 28.1562 127.172 27.0938C127.214 26.0312 127.245 25.0833 127.266 24.25C127.286 23.4167 127.307 22.7917 127.328 22.375C127.286 21.9167 127.37 21.625 127.578 21.5C127.786 21.375 128.016 21.3125 128.266 21.3125C128.536 21.3125 128.766 21.3333 128.953 21.375C129.161 21.4167 129.307 21.5833 129.391 21.875L128.891 37.9375C128.849 38.3125 128.557 38.5833 128.016 38.75C127.474 38.8958 127.078 38.8125 126.828 38.5Z"/>
</mask>
<path d="M126.828 38.5C126.828 38.1042 126.839 37.4896 126.859 36.6562C126.901 35.8021 126.932 34.8438 126.953 33.7812C126.995 32.7188 127.036 31.6042 127.078 30.4375C127.12 29.2708 127.151 28.1562 127.172 27.0938C127.214 26.0312 127.245 25.0833 127.266 24.25C127.286 23.4167 127.307 22.7917 127.328 22.375C127.286 21.9167 127.37 21.625 127.578 21.5C127.786 21.375 128.016 21.3125 128.266 21.3125C128.536 21.3125 128.766 21.3333 128.953 21.375C129.161 21.4167 129.307 21.5833 129.391 21.875L128.891 37.9375C128.849 38.3125 128.557 38.5833 128.016 38.75C127.474 38.8958 127.078 38.8125 126.828 38.5Z" fill="#FF7C02"/>
<path d="M126.828 38.5H125.495V38.9677L125.787 39.3329L126.828 38.5ZM126.859 36.6562L125.528 36.5913L125.527 36.6071L125.526 36.6229L126.859 36.6562ZM126.953 33.7812L125.621 33.729L125.62 33.7421L125.62 33.7551L126.953 33.7812ZM127.172 27.0938L125.84 27.0415L125.839 27.0546L125.839 27.0676L127.172 27.0938ZM127.328 22.375L128.66 22.4416L128.665 22.3478L128.656 22.2543L127.328 22.375ZM128.953 21.375L128.664 22.6766L128.678 22.6797L128.692 22.6824L128.953 21.375ZM129.391 21.875L130.723 21.9165L130.73 21.7086L130.673 21.5087L129.391 21.875ZM128.891 37.9375L130.216 38.0847L130.222 38.032L130.223 37.979L128.891 37.9375ZM128.016 38.75L128.362 40.0375L128.385 40.0313L128.408 40.0244L128.016 38.75ZM128.161 38.5C128.161 38.1218 128.172 37.5211 128.192 36.6896L125.526 36.6229C125.506 37.458 125.495 38.0866 125.495 38.5H128.161ZM128.191 36.7212C128.234 35.8515 128.265 34.8799 128.286 33.8074L125.62 33.7551C125.599 34.8076 125.569 35.7527 125.528 36.5913L128.191 36.7212ZM128.285 33.8335C128.327 32.7693 128.369 31.6532 128.411 30.4851L125.746 30.3899C125.704 31.5552 125.662 32.6682 125.621 33.729L128.285 33.8335ZM128.411 30.4851C128.453 29.312 128.484 28.1902 128.505 27.1199L125.839 27.0676C125.818 28.1223 125.787 29.2297 125.746 30.3899L128.411 30.4851ZM128.504 27.146C128.546 26.0788 128.578 25.1244 128.599 24.2833L125.933 24.2167C125.912 25.0423 125.881 25.9837 125.84 27.0415L128.504 27.146ZM128.599 24.2833C128.619 23.4525 128.64 22.841 128.66 22.4416L125.996 22.3084C125.975 22.7423 125.954 23.3809 125.933 24.2167L128.599 24.2833ZM128.656 22.2543C128.643 22.1128 128.662 22.1067 128.641 22.1788C128.629 22.2216 128.601 22.2996 128.538 22.3896C128.472 22.4836 128.38 22.5738 128.264 22.6433L126.892 20.3567C125.955 20.9191 125.954 21.9867 126 22.4957L128.656 22.2543ZM128.264 22.6433C128.266 22.6424 128.265 22.6427 128.264 22.6435C128.262 22.6443 128.259 22.6451 128.257 22.6457C128.255 22.6463 128.254 22.6464 128.255 22.6464C128.255 22.6463 128.259 22.6458 128.266 22.6458V19.9792C127.781 19.9792 127.314 20.1036 126.892 20.3567L128.264 22.6433ZM128.266 22.6458C128.475 22.6458 128.601 22.6626 128.664 22.6766L129.242 20.0734C128.93 20.004 128.598 19.9792 128.266 19.9792V22.6458ZM128.692 22.6824C128.495 22.6431 128.327 22.5368 128.215 22.4093C128.12 22.3005 128.102 22.2186 128.109 22.2413L130.673 21.5087C130.519 20.9696 130.111 20.2469 129.215 20.0676L128.692 22.6824ZM128.058 21.8335L127.558 37.896L130.223 37.979L130.723 21.9165L128.058 21.8335ZM127.565 37.7903C127.572 37.7283 127.592 37.6574 127.628 37.5877C127.663 37.519 127.704 37.472 127.733 37.4448C127.783 37.3983 127.778 37.428 127.624 37.4756L128.408 40.0244C129.165 39.7913 130.088 39.2362 130.216 38.0847L127.565 37.7903ZM127.669 37.4625C127.527 37.5008 127.516 37.4771 127.587 37.4921C127.627 37.5006 127.682 37.5191 127.74 37.5546C127.798 37.5902 127.841 37.6316 127.869 37.6671L125.787 39.3329C126.5 40.2248 127.551 40.256 128.362 40.0375L127.669 37.4625Z" fill="#FF7C02" mask="url(#path-6-outside-2_2017_16)"/>
<defs>
<clipPath id="clip0_2017_16">
<rect width="89.3333" height="89.3333" fill="white" transform="translate(40 73.4452) rotate(-7.79215)"/>
</clipPath>
</defs>
</svg>
