<?xml version="1.0" encoding="utf-8"?>
<svg xmlns="http://www.w3.org/2000/svg" width="36" height="36" viewBox="0 0 36 36" fill="none">
  <path d="M18 36C27.9411 36 36 27.9411 36 18C36 8.05887 27.9411 0 18 0C8.05887 0 0 8.05887 0 18C0 27.9411 8.05887 36 18 36Z" fill="#26A17B"/>
  <path d="M20.1624 19.5562V19.5539C20.0386 19.5629 19.4008 19.6012 17.9776 19.6012C16.8414 19.6012 16.0415 19.5674 15.7603 19.5539V19.5573C11.3863 19.3649 8.12152 18.6033 8.12152 17.6921C8.12152 16.7819 11.3863 16.0203 15.7603 15.8246V18.7991C16.046 18.8193 16.865 18.8677 17.9968 18.8677C19.3546 18.8677 20.0353 18.8114 20.1624 18.8002V15.8268C24.5274 16.0214 27.7843 16.7831 27.7843 17.6921C27.7843 18.6033 24.5274 19.3627 20.1624 19.5562ZM20.1624 15.5174V12.8557H26.2531V8.7967H9.66952V12.8557H15.7603V15.5163C10.8103 15.7436 7.08765 16.7246 7.08765 17.8991C7.08765 19.0736 10.8103 20.0534 15.7603 20.2818V28.8116H20.1624V20.2796C25.1045 20.0523 28.8181 19.0724 28.8181 17.8991C28.8181 16.7257 25.1045 15.7458 20.1624 15.5174Z" fill="white"/>
</svg>