<svg width="592" height="32" viewBox="0 0 592 32" fill="none" xmlns="http://www.w3.org/2000/svg">
<path d="M6 -1H10L4 32H0L6 -1Z" fill="#FFD600" fill-opacity="0.43"/>
<path d="M20 -1H24L18 32H14L20 -1Z" fill="#FFD600" fill-opacity="0.43"/>
<path d="M34 -1H38L32 32H28L34 -1Z" fill="#FFD600" fill-opacity="0.43"/>
<path d="M48 -1H52L46 32H42L48 -1Z" fill="#FFD600" fill-opacity="0.43"/>
<path d="M62 -1H66L60 32H56L62 -1Z" fill="#FFD600" fill-opacity="0.43"/>
<path d="M76 -1H80L74 32H70L76 -1Z" fill="#FFD600" fill-opacity="0.43"/>
<path d="M90 -1H94L88 32H84L90 -1Z" fill="#FFD600" fill-opacity="0.43"/>
<path d="M104 -1H108L102 32H98L104 -1Z" fill="#FFD600" fill-opacity="0.43"/>
<path d="M118 -1H122L116 32H112L118 -1Z" fill="#FFD600" fill-opacity="0.43"/>
<path d="M132 -1H136L130 32H126L132 -1Z" fill="#FFD600" fill-opacity="0.43"/>
<path d="M146 -1H150L144 32H140L146 -1Z" fill="#FFD600" fill-opacity="0.43"/>
<path d="M160 -1H164L158 32H154L160 -1Z" fill="#FFD600" fill-opacity="0.43"/>
<path d="M174 -1H178L172 32H168L174 -1Z" fill="#FFD600" fill-opacity="0.43"/>
<path d="M188 -1H192L186 32H182L188 -1Z" fill="#FFD600" fill-opacity="0.43"/>
<path d="M202 -1H206L200 32H196L202 -1Z" fill="#FFD600" fill-opacity="0.43"/>
<path d="M216 -1H220L214 32H210L216 -1Z" fill="#FFD600" fill-opacity="0.43"/>
<path d="M230 -1H234L228 32H224L230 -1Z" fill="#FFD600" fill-opacity="0.43"/>
<path d="M244 -1H248L242 32H238L244 -1Z" fill="#FFD600" fill-opacity="0.43"/>
<path d="M258 -1H262L256 32H252L258 -1Z" fill="#FFD600" fill-opacity="0.43"/>
<path d="M272 -1H276L270 32H266L272 -1Z" fill="#FFD600" fill-opacity="0.43"/>
<path d="M286 -1H290L284 32H280L286 -1Z" fill="#FFD600" fill-opacity="0.43"/>
<path d="M300 -1H304L298 32H294L300 -1Z" fill="#FFD600" fill-opacity="0.43"/>
<path d="M314 -1H318L312 32H308L314 -1Z" fill="#FFD600" fill-opacity="0.43"/>
<path d="M328 -1H332L326 32H322L328 -1Z" fill="#FFD600" fill-opacity="0.43"/>
<path d="M342 -1H346L340 32H336L342 -1Z" fill="#FFD600" fill-opacity="0.43"/>
<path d="M356 -1H360L354 32H350L356 -1Z" fill="#FFD600" fill-opacity="0.43"/>
<path d="M370 -1H374L368 32H364L370 -1Z" fill="#FFD600" fill-opacity="0.43"/>
<path d="M384 -1H388L382 32H378L384 -1Z" fill="#FFD600" fill-opacity="0.43"/>
<path d="M398 -1H402L396 32H392L398 -1Z" fill="#FFD600" fill-opacity="0.43"/>
<path d="M412 -1H416L410 32H406L412 -1Z" fill="#FFD600" fill-opacity="0.43"/>
<path d="M426 -1H430L424 32H420L426 -1Z" fill="#FFD600" fill-opacity="0.43"/>
<path d="M440 -1H444L438 32H434L440 -1Z" fill="#FFD600" fill-opacity="0.43"/>
<path d="M454 -1H458L452 32H448L454 -1Z" fill="#FFD600" fill-opacity="0.43"/>
<path d="M468 -1H472L466 32H462L468 -1Z" fill="#FFD600" fill-opacity="0.43"/>
<path d="M482 -1H486L480 32H476L482 -1Z" fill="#FFD600" fill-opacity="0.43"/>
<path d="M496 -1H500L494 32H490L496 -1Z" fill="#FFD600" fill-opacity="0.43"/>
<path d="M510 -1H514L508 32H504L510 -1Z" fill="#FFD600" fill-opacity="0.43"/>
<path d="M524 -1H528L522 32H518L524 -1Z" fill="#FFD600" fill-opacity="0.43"/>
<path d="M538 -1H542L536 32H532L538 -1Z" fill="#FFD600" fill-opacity="0.43"/>
<path d="M552 -1H556L550 32H546L552 -1Z" fill="#FFD600" fill-opacity="0.43"/>
<path d="M566 -1H570L564 32H560L566 -1Z" fill="#FFD600" fill-opacity="0.43"/>
<path d="M580 -1H584L578 32H574L580 -1Z" fill="#FFD600" fill-opacity="0.43"/>
<path d="M594 -1H598L592 32H588L594 -1Z" fill="#FFD600" fill-opacity="0.43"/>
</svg>
