<svg width="149" height="35" viewBox="0 0 149 35" fill="none" xmlns="http://www.w3.org/2000/svg">
<g clip-path="url(#clip0_4_82)">
<mask id="mask0_4_82" style="mask-type:luminance" maskUnits="userSpaceOnUse" x="0" y="0" width="149" height="35">
<path d="M0 0H148.75V35H0V0Z" fill="white"/>
</mask>
<g mask="url(#mask0_4_82)">
<path d="M48.9006 9.58561C48.834 10.5273 48.4917 11.2689 47.8737 11.8106C47.2562 12.351 46.4423 12.6212 45.4319 12.6212C44.3269 12.6212 43.4581 12.2435 42.8256 11.4881C42.1919 10.7335 41.875 9.69666 41.875 8.37749V7.84186C41.875 7.00061 42.021 6.25916 42.3131 5.61749C42.6052 4.97666 43.0223 4.48499 43.5644 4.14249C44.1073 3.79916 44.7379 3.6277 45.4563 3.62811C46.45 3.62811 47.251 3.89874 47.8594 4.43999C48.4665 4.98041 48.8177 5.73978 48.9131 6.71811H47.1375C47.0937 6.15311 46.9388 5.74332 46.6725 5.48874C46.4058 5.23457 46.0004 5.10749 45.4563 5.10749C44.8642 5.10749 44.4212 5.3227 44.1275 5.75311C43.8333 6.18436 43.6823 6.8527 43.6744 7.75811V8.41936C43.6744 9.3652 43.8154 10.0564 44.0975 10.4931C44.38 10.9306 44.825 11.1492 45.4325 11.1487C45.9808 11.1487 46.3902 11.0217 46.6606 10.7675C46.931 10.5125 47.0858 10.1187 47.125 9.58624L48.9006 9.58561ZM58.0694 8.32311C58.0694 9.18561 57.9194 9.94103 57.6194 10.5894C57.3198 11.2389 56.8906 11.74 56.3319 12.0925C55.774 12.445 55.134 12.6212 54.4119 12.6212C53.6977 12.6212 53.0602 12.4471 52.4994 12.0987C51.9398 11.7496 51.5058 11.2517 51.1975 10.605C50.8896 9.95791 50.7337 9.21311 50.73 8.37061V7.93811C50.73 7.07645 50.8829 6.31811 51.1888 5.66311C51.4946 5.00811 51.9269 4.50499 52.4856 4.15374C53.044 3.80374 53.6821 3.62853 54.4 3.62811C55.1183 3.62811 55.7567 3.80332 56.315 4.15374C56.8733 4.50499 57.3052 5.00811 57.6106 5.66311C57.9169 6.31811 58.07 7.07436 58.07 7.93186L58.0694 8.32311ZM56.2706 7.92624C56.2706 7.00832 56.109 6.31103 55.7856 5.83436C55.4619 5.35728 55 5.11874 54.4 5.11874C53.8042 5.11874 53.3444 5.35416 53.0206 5.82499C52.6969 6.29582 52.5333 6.98645 52.53 7.89686V8.32374C52.53 9.21749 52.6917 9.91061 53.015 10.4031C53.3383 10.8964 53.804 11.1431 54.4119 11.1431C55.0073 11.1431 55.4652 10.9056 55.7856 10.4306C56.1048 9.95561 56.2665 9.26311 56.2706 8.35311V7.92624ZM62.1706 12.5012H60.3956V3.74811H62.1706V12.5012ZM71.7487 12.5012H69.9725L66.5163 6.74249V12.5012H64.7406V3.74811H66.5163L69.9788 9.51936V3.74811H71.7487V12.5012ZM80.5394 5.20936H77.8994V12.5012H76.1237V5.20936H73.5194V3.74811H80.5394V5.20936ZM87.66 8.70811H84.2513V11.0525H88.2519V12.5012H82.475V3.74811H88.2406V5.20936H84.2513V7.29499H87.66V8.70811ZM91.9931 11.0525H95.7637V12.5012H90.2175V3.74811H91.9931V11.0525ZM102.891 8.70749H99.4812V11.0525H103.482V12.5012H97.7056V3.74811H103.471V5.20936H99.4812V7.29499H102.891V8.70749ZM112.267 11.395C111.947 11.7837 111.495 12.0852 110.911 12.2994C110.327 12.5144 109.68 12.6219 108.969 12.6219C108.224 12.6219 107.57 12.4564 107.008 12.1256C106.445 11.7948 106.011 11.3148 105.705 10.6856C105.399 10.0564 105.242 9.31707 105.234 8.46749V7.87186C105.234 6.99811 105.38 6.24186 105.67 5.60311C105.96 4.96395 106.378 4.47499 106.924 4.13624C107.471 3.79749 108.111 3.62811 108.846 3.62811C109.867 3.62811 110.666 3.87561 111.243 4.37061C111.819 4.86561 112.16 5.58603 112.267 6.53186H110.538C110.459 6.03061 110.284 5.66395 110.014 5.43186C109.744 5.19936 109.372 5.08311 108.899 5.08311C108.295 5.08311 107.835 5.31353 107.519 5.77436C107.204 6.2352 107.044 6.92061 107.04 7.83061V8.38936C107.04 9.30728 107.211 10.0006 107.554 10.4694C107.898 10.9381 108.401 11.1725 109.064 11.1725C109.731 11.1725 110.206 11.0283 110.491 10.74V9.23124H108.875V7.90249H112.267V11.395ZM117.819 9.29749H116.404V12.5012H114.628V3.74811H117.831C118.849 3.74811 119.634 3.97874 120.186 4.43999C120.739 4.90041 121.015 5.55145 121.015 6.39311C121.015 6.99061 120.888 7.48853 120.633 7.88686C120.379 8.28603 119.993 8.60374 119.476 8.83999L121.341 12.4169V12.5012H119.434L117.819 9.29749ZM116.404 7.83624H117.836C118.282 7.83624 118.628 7.72103 118.872 7.49061C119.117 7.25978 119.239 6.94207 119.239 6.53749C119.239 6.12499 119.124 5.80041 118.893 5.56374C118.662 5.32749 118.308 5.20936 117.831 5.20936H116.404L116.404 7.83624ZM128.154 10.6975H125.04L124.449 12.5012H122.56L125.769 3.74811H127.414L130.639 12.5012H128.752L128.154 10.6975ZM125.52 9.23749H127.674L126.591 5.95999L125.52 9.23749ZM134.144 9.41749V12.5012H132.368V3.74811H135.73C136.378 3.74811 136.947 3.86853 137.438 4.10936C137.929 4.34936 138.307 4.69103 138.571 5.13436C138.836 5.57686 138.968 6.08082 138.968 6.64624C138.968 7.50374 138.679 8.17978 138.101 8.67436C137.523 9.1702 136.722 9.41791 135.701 9.41749H134.144ZM134.144 7.95624H135.73C136.2 7.95624 136.558 7.84416 136.804 7.61999C137.051 7.39499 137.175 7.07436 137.174 6.65811C137.174 6.22895 137.05 5.88207 136.802 5.61749C136.553 5.35374 136.21 5.2177 135.772 5.20936H134.144V7.95624ZM148.125 12.5012H146.349V8.74999H142.887V12.5012H141.111V3.74811H142.887V7.29499H146.349V3.74811H148.125V12.5012Z" fill="#514C43"/>
<path d="M46.6506 20.2262H44.7731V25.4031H43.7356V20.2262H41.875V19.3831H46.6506V20.2262ZM48.6719 21.4175C48.8231 21.2348 49.0135 21.0886 49.2291 20.9898C49.4447 20.891 49.6798 20.8421 49.9169 20.8469C50.871 20.8469 51.3544 21.3912 51.3669 22.48V25.4031H50.3631V22.5175C50.3631 22.2087 50.2965 21.9902 50.1631 21.8619C50.0285 21.734 49.8319 21.67 49.5731 21.67C49.1706 21.67 48.8702 21.849 48.6719 22.2069V25.4031H47.6669V19.0525H48.6719V21.4175ZM54.6919 25.4856C54.0552 25.4856 53.539 25.2852 53.1431 24.8844C52.7477 24.4831 52.55 23.9492 52.55 23.2825V23.1581C52.55 22.7115 52.6363 22.3125 52.8088 21.9613C52.968 21.6247 53.2193 21.3401 53.5337 21.1406C53.8458 20.9446 54.2077 20.8426 54.5762 20.8469C55.185 20.8469 55.6556 21.041 55.9881 21.4294C56.3198 21.8185 56.4858 22.3685 56.4862 23.0794V23.485H53.5625C53.5933 23.8542 53.7169 24.1462 53.9331 24.3612C54.1494 24.5762 54.4215 24.6838 54.7494 24.6838C55.2098 24.6838 55.5848 24.4975 55.8744 24.125L56.4162 24.6425C56.2365 24.9102 55.9886 25.1251 55.6981 25.265C55.3843 25.4154 55.0398 25.4909 54.6919 25.4856ZM54.5719 21.6525C54.296 21.6525 54.0735 21.7492 53.9044 21.9425C53.7348 22.135 53.6265 22.4037 53.5794 22.7487H55.4931V22.6737C55.4719 22.3379 55.3825 22.0837 55.225 21.9112C55.0675 21.7387 54.8498 21.6525 54.5719 21.6525ZM60.405 25.4031V21.6738H59.7225V20.9294H60.405V20.52C60.405 20.0238 60.5429 19.6406 60.8187 19.3706C61.0942 19.1006 61.48 18.9656 61.9762 18.9656C62.1529 18.9656 62.3404 18.9904 62.5387 19.04L62.5138 19.8256C62.3871 19.8014 62.2583 19.7903 62.1294 19.7925C61.6498 19.7925 61.4102 20.0392 61.4106 20.5325V20.9294H62.3187V21.6738H61.41V25.4031H60.405ZM66.1025 24.9656C65.8075 25.3123 65.3883 25.4856 64.845 25.4856C64.3596 25.4856 63.9925 25.3438 63.7437 25.06C63.4942 24.7767 63.3694 24.3658 63.3694 23.8275V20.9294H64.3744V23.815C64.3744 24.3833 64.61 24.6675 65.0812 24.6675C65.5692 24.6675 65.8983 24.4925 66.0687 24.1425V20.9294H67.0738V25.4031H66.1269L66.1025 24.9656ZM69.695 19.8419V20.9294H70.485V21.6738H69.695V24.1706C69.695 24.3419 69.7287 24.4654 69.7962 24.5412C69.8642 24.6162 69.9848 24.654 70.1581 24.6544C70.2744 24.6544 70.3915 24.6406 70.5094 24.6131V25.3906C70.2944 25.4525 70.0719 25.4844 69.8481 25.4856C69.0765 25.4856 68.6906 25.0598 68.6906 24.2081V21.6738H67.9544V20.9294H68.69V19.8425L69.695 19.8419ZM74.3006 24.9656C74.0056 25.3131 73.5867 25.4867 73.0438 25.4862C72.5583 25.4862 72.191 25.3444 71.9419 25.0606C71.6919 24.7773 71.5671 24.3665 71.5675 23.8281V20.93H72.5725V23.8156C72.5725 24.384 72.8081 24.6681 73.2794 24.6681C73.7669 24.6681 74.0963 24.4931 74.2675 24.1431V20.93H75.2725V25.4037H74.3256L74.3006 24.9656ZM78.9769 21.8481C78.8416 21.8259 78.7046 21.8148 78.5675 21.815C78.1071 21.815 77.7969 21.9915 77.6369 22.3444V25.4037H76.6325V20.93H77.5919L77.6162 21.43C77.8592 21.0417 78.1954 20.8475 78.625 20.8475C78.7683 20.8475 78.8869 20.8667 78.9806 20.905L78.9769 21.8481ZM81.8419 25.4862C81.2048 25.4862 80.6885 25.2858 80.2931 24.885C79.8981 24.4838 79.7004 23.9498 79.7 23.2831V23.1588C79.7 22.7121 79.786 22.3131 79.9581 21.9619C80.1175 21.6252 80.3691 21.3406 80.6837 21.1413C80.9956 20.9454 81.3573 20.8434 81.7256 20.8475C82.3352 20.8475 82.8058 21.0417 83.1375 21.43C83.4696 21.8192 83.6358 22.3692 83.6362 23.08V23.4856H80.7125C80.7433 23.8548 80.8669 24.1469 81.0831 24.3619C81.2994 24.5769 81.5715 24.6844 81.8994 24.6844C82.3598 24.6844 82.7348 24.4981 83.0244 24.1256L83.5662 24.6431C83.3865 24.9108 83.1386 25.1257 82.8481 25.2656C82.5343 25.416 82.1898 25.4915 81.8419 25.4862ZM81.7219 21.6531C81.446 21.6531 81.2235 21.7498 81.0544 21.9431C80.8848 22.1356 80.7765 22.4044 80.7294 22.7494H82.6431V22.6744C82.6215 22.3385 82.5321 22.0844 82.375 21.9119C82.2175 21.7398 81.9998 21.6535 81.7219 21.6531ZM87.0131 23.125C87.0131 22.6867 87.1 22.2919 87.2738 21.9406C87.4331 21.6046 87.6876 21.3228 88.0056 21.13C88.3198 20.9412 88.681 20.8469 89.0894 20.8469C89.6927 20.8469 90.1825 21.041 90.5587 21.4294C90.9354 21.8185 91.1387 22.3342 91.1687 22.9762L91.1731 23.2119C91.1731 23.6527 91.0883 24.0469 90.9187 24.3944C90.7609 24.7291 90.5076 25.0096 90.1906 25.2006C89.8752 25.3906 89.5108 25.4856 89.0975 25.4856C88.4663 25.4856 87.961 25.2756 87.5819 24.8556C87.2027 24.4348 87.0131 23.8744 87.0131 23.1744V23.125ZM88.0181 23.2119C88.0181 23.6723 88.1133 24.0327 88.3037 24.2931C88.4933 24.5535 88.7579 24.6838 89.0975 24.6838C89.4363 24.6838 89.7 24.5513 89.8888 24.2863C90.0779 24.0225 90.1723 23.6354 90.1719 23.125C90.1719 22.6733 90.0748 22.315 89.8806 22.05C89.6865 21.785 89.4225 21.6527 89.0888 21.6531C88.7613 21.6531 88.5008 21.7833 88.3075 22.0438C88.1142 22.3042 88.0177 22.6935 88.0181 23.2119ZM92.7156 25.4031V21.6738H92.0331V20.9294H92.7156V20.52C92.7156 20.0238 92.8533 19.6406 93.1287 19.3706C93.4042 19.1006 93.79 18.9656 94.2863 18.9656C94.4629 18.9656 94.6504 18.9904 94.8487 19.04L94.8238 19.8256C94.6973 19.8014 94.5687 19.7903 94.44 19.7925C93.96 19.7925 93.72 20.0392 93.72 20.5325V20.9294H94.6294V21.6738H93.72V25.4031H92.7156ZM99.0944 20.9294L99.1231 21.3969C99.4373 21.0302 99.8673 20.8469 100.413 20.8469C101.011 20.8469 101.42 21.0758 101.641 21.5337C101.966 21.0754 102.424 20.8465 103.014 20.8469C103.507 20.8469 103.874 20.9833 104.116 21.2562C104.357 21.5287 104.481 21.931 104.486 22.4631V25.4031H103.481V22.4925C103.481 22.2083 103.419 22.0002 103.295 21.8681C103.171 21.7356 102.966 21.6694 102.679 21.6694C102.451 21.6694 102.264 21.7308 102.119 21.8538C101.972 21.98 101.866 22.1475 101.815 22.335L101.819 25.4037H100.814V22.4594C100.801 21.9327 100.532 21.6694 100.008 21.6694C99.6052 21.6694 99.32 21.8335 99.1525 22.1619V25.4031H98.1475V20.9294H99.0944ZM105.668 23.1256C105.668 22.6869 105.755 22.2919 105.928 21.9406C106.088 21.6047 106.343 21.3229 106.661 21.13C106.974 20.9412 107.335 20.8469 107.744 20.8469C108.348 20.8469 108.838 21.041 109.213 21.4294C109.59 21.8185 109.793 22.3342 109.823 22.9762L109.827 23.2119C109.827 23.6527 109.743 24.0469 109.574 24.3944C109.416 24.7292 109.162 25.0097 108.845 25.2006C108.53 25.3906 108.165 25.4856 107.752 25.4856C107.121 25.4856 106.616 25.2756 106.237 24.8556C105.858 24.4348 105.668 23.8744 105.668 23.1744V23.1256ZM106.673 23.2119C106.673 23.6723 106.768 24.0327 106.958 24.2931C107.149 24.5535 107.413 24.6838 107.752 24.6838C108.091 24.6838 108.355 24.5513 108.544 24.2863C108.732 24.0225 108.827 23.6354 108.827 23.125C108.827 22.6733 108.73 22.315 108.536 22.05C108.341 21.785 108.077 21.6527 107.744 21.6531C107.415 21.6531 107.155 21.7833 106.962 22.0438C106.769 22.3042 106.673 22.6935 106.673 23.2119ZM111.948 20.9294L111.977 21.4462C112.308 21.0462 112.742 20.8465 113.279 20.8469C114.211 20.8469 114.685 21.3802 114.702 22.4469V25.4031H113.698V22.505C113.698 22.2212 113.636 22.011 113.513 21.8744C113.391 21.7377 113.19 21.6694 112.911 21.6694C112.506 21.6694 112.205 21.8527 112.006 22.2194V25.4031H111.001V20.9294H111.948ZM118.034 25.4856C117.397 25.4856 116.881 25.2852 116.486 24.8844C116.09 24.4831 115.892 23.9492 115.892 23.2825V23.1581C115.892 22.7115 115.979 22.3125 116.151 21.9613C116.31 21.6245 116.562 21.3399 116.877 21.1406C117.189 20.9449 117.55 20.8429 117.918 20.8469C118.528 20.8469 118.999 21.041 119.331 21.4294C119.663 21.8185 119.829 22.3685 119.829 23.0794V23.485H116.906C116.936 23.8542 117.059 24.1462 117.275 24.3612C117.492 24.5762 117.764 24.6838 118.092 24.6838C118.552 24.6838 118.927 24.4975 119.216 24.125L119.759 24.6425C119.579 24.9101 119.332 25.125 119.041 25.265C118.727 25.4156 118.382 25.4911 118.034 25.4856ZM117.914 21.6525C117.639 21.6525 117.416 21.7492 117.246 21.9425C117.077 22.135 116.969 22.4037 116.922 22.7487H118.836V22.6737C118.814 22.3379 118.725 22.0837 118.567 21.9112C118.41 21.7387 118.193 21.6525 117.914 21.6525ZM122.458 23.9644L123.368 20.9294H124.438L122.66 26.0812C122.387 26.8337 121.925 27.21 121.271 27.21C121.107 27.2072 120.945 27.1822 120.787 27.1356V26.3581L120.978 26.3706C121.231 26.3706 121.422 26.3246 121.55 26.2325C121.678 26.1396 121.78 25.9846 121.854 25.7675L121.999 25.3825L120.428 20.9294H121.511L122.458 23.9644ZM21.925 25.4675L15.6213 28.1769V27.9056C14.4056 28.2131 13.0594 28.3906 11.7838 28.4475C5.85625 28.3906 1.15125 25.3238 1.09625 21.6744V20.3187C3.04312 23.1175 7.00688 24.9925 11.7838 24.925C13.4006 24.9925 15.0537 24.74 16.4431 24.3831L16.9913 23.0281C15.3438 23.5144 13.545 23.8525 11.7844 23.8406C5.85625 23.8525 1.15125 20.7856 1.09687 17.0681V15.9844C3.04313 18.5719 6.99812 20.4469 11.7844 20.3194C13.9375 20.4475 16.0431 19.9994 17.8131 19.235L18.0881 17.8806C16.3581 18.7825 14.1162 19.3062 11.7844 19.235C5.85625 19.3062 1.15125 16.2394 1.09687 12.4625V11.3781C3.04313 14.0256 7.00687 15.9012 11.7844 15.9844C14.4994 15.9012 17.0738 15.1919 19.1844 14.0875L19.4581 12.4619C17.5431 13.865 14.7469 14.7694 11.7844 14.9C5.85625 14.7694 1.15187 11.7019 1.09687 7.85625C1.15125 4.19875 5.85625 1.13125 11.7844 1.08312C15.3181 1.13187 18.6 2.35687 20.5544 4.33437L20.745 4.6475L22.1263 4.65375L21.925 4.33437C19.9813 1.72375 16.0937 0 11.7844 0C5.225 0 0 3.57375 0 7.85687V21.945C0.230625 26.1262 5.33625 29.5306 11.7844 29.5306C16.0431 29.5306 19.8706 27.8744 21.925 25.4675Z" fill="#514C43"/>
<path d="M19.3606 35L21.5731 25.7031L15.2125 28.4375L19.085 12.305H11.6163L13.5519 4.375H37.3388L35.4025 12.305H27.6588L25.9988 16.68L34.5725 13.125L19.3606 35ZM23.2331 23.7887L22.1269 29.2575L31.2538 15.5863L23.7856 18.8675L27.105 11.2112H34.5725L35.9556 5.46875H14.3813L12.9981 11.2112H20.4669L16.8706 26.5238L23.2325 23.79L23.2331 23.7887Z" fill="#514C43"/>
<path d="M60.3888 25.4125H61.385V21.6663H62.3075V20.9375H61.385V20.5075C61.385 20.3504 61.4125 20.2181 61.4675 20.1106C61.5224 20.0052 61.6093 19.9199 61.7157 19.8669C61.8261 19.8086 61.9571 19.7794 62.1088 19.7794C62.1838 19.7794 62.2525 19.7823 62.315 19.7881C62.3817 19.7936 62.4425 19.8031 62.4975 19.8169L62.5225 19.0481C62.4303 19.0231 62.3363 19.0051 62.2413 18.9944C62.1441 18.9798 62.0458 18.9729 61.9475 18.9738C61.6275 18.9738 61.3504 19.0329 61.1163 19.1513C60.8861 19.2628 60.6966 19.4435 60.5744 19.6681C60.4507 19.8944 60.3888 20.1742 60.3888 20.5075V20.9375H59.7019V21.6656H60.3888V25.4125ZM48.675 21.4519V19.0613H47.6832V25.4125H48.675V22.2188C48.7046 22.1621 48.7379 22.1088 48.775 22.0588C48.8659 21.935 48.9788 21.8371 49.1138 21.765C49.2513 21.6938 49.4096 21.6581 49.5888 21.6581C49.76 21.6581 49.9048 21.6871 50.0232 21.745C50.1419 21.8 50.2315 21.8908 50.2919 22.0175C50.3557 22.1446 50.3875 22.3154 50.3875 22.53V25.4125H51.3875V22.5388C51.3875 22.2325 51.3532 21.9733 51.2844 21.7613C51.2301 21.5663 51.1293 21.3874 50.9907 21.24C50.8631 21.1055 50.7042 21.0046 50.5282 20.9463C50.3361 20.883 50.1347 20.8524 49.9325 20.8556C49.6913 20.8521 49.4524 20.904 49.2344 21.0073C49.0163 21.1107 48.825 21.2628 48.675 21.4519ZM44.7763 25.4125V20.2188H46.6663V19.3919H41.8738V20.2188H43.7469V25.4125H44.7763Z" fill="#514C43"/>
<path fill-rule="evenodd" clip-rule="evenodd" d="M54.7 25.495C54.3932 25.4997 54.0884 25.445 53.8025 25.3337C53.5472 25.2292 53.3164 25.073 53.1244 24.875C52.938 24.6753 52.7931 24.4405 52.6981 24.1844C52.5977 23.9102 52.5473 23.6201 52.5494 23.3281V23.1631C52.5494 22.8131 52.6004 22.496 52.7025 22.2119C52.8042 21.9281 52.946 21.6856 53.1281 21.4844C53.3058 21.2826 53.5261 21.1229 53.7731 21.0169C54.0278 20.9079 54.3024 20.853 54.5794 20.8556C54.8994 20.8556 55.1794 20.9094 55.4194 21.0169C55.6585 21.1244 55.8569 21.276 56.0144 21.4719C56.1744 21.6648 56.2931 21.895 56.3706 22.1625C56.4498 22.43 56.4896 22.725 56.49 23.0475V23.4731H53.555C53.565 23.6144 53.5896 23.7481 53.6288 23.8744C53.6838 24.0398 53.7635 24.1846 53.8681 24.3087C53.9731 24.4325 54.1002 24.5304 54.2494 24.6025C54.3977 24.6712 54.5671 24.7056 54.7575 24.7056C54.9975 24.7056 55.2113 24.6573 55.3988 24.5606C55.5863 24.464 55.7488 24.3275 55.8863 24.1512L56.4113 24.66C56.3046 24.8113 56.178 24.9475 56.035 25.065C55.8808 25.1921 55.6921 25.2954 55.4688 25.375C55.2214 25.4593 54.9613 25.4999 54.7 25.495ZM53.6163 22.5387C53.5995 22.611 53.5859 22.684 53.5756 22.7575H55.5056V22.6794C55.5021 22.506 55.4659 22.3349 55.3988 22.175C55.3393 22.0224 55.2374 21.8901 55.105 21.7937C54.9725 21.6979 54.796 21.65 54.5756 21.65C54.4102 21.65 54.2627 21.6856 54.1331 21.7569C54.003 21.8288 53.8932 21.9327 53.8144 22.0587C53.723 22.2071 53.6561 22.3692 53.6163 22.5387Z" fill="#514C43"/>
<path d="M65.5944 25.3425C65.7845 25.2513 65.9522 25.1195 66.0856 24.9563L66.1113 25.4125H67.0538V20.9381H66.0531V24.1494C65.9834 24.3012 65.8731 24.4307 65.7344 24.5238C65.5719 24.6338 65.3488 24.6888 65.065 24.6888C64.9697 24.6894 64.8749 24.6755 64.7838 24.6475C64.6962 24.6203 64.6166 24.572 64.5519 24.5069C64.4808 24.4328 64.4272 24.3438 64.395 24.2463C64.353 24.114 64.3334 23.9756 64.3369 23.8369V20.9381H63.3406V23.8288C63.3406 24.1238 63.3765 24.3775 63.4481 24.59C63.5198 24.8025 63.6204 24.9746 63.75 25.1063C63.8821 25.2388 64.0392 25.3367 64.2213 25.4C64.4033 25.4633 64.6031 25.495 64.8206 25.495C65.1211 25.495 65.379 25.4442 65.5944 25.3425ZM70.4563 21.6663V20.9375H69.6581V19.8419H68.6619V20.9375H67.9338V21.6656H68.6619V24.2375C68.6619 24.5438 68.7115 24.7892 68.8106 24.9738C68.9098 25.1588 69.0477 25.2923 69.2244 25.3744C69.4006 25.4544 69.6031 25.4944 69.8319 25.4944C69.9727 25.4944 70.0969 25.4848 70.2044 25.4656C70.3144 25.4465 70.4108 25.4244 70.4938 25.3994L70.4894 24.6388C70.3737 24.6623 70.2561 24.6748 70.1381 24.6763C70.0419 24.6763 69.9577 24.6638 69.8856 24.6388C69.8133 24.6129 69.753 24.5613 69.7163 24.4938C69.6775 24.4196 69.6581 24.3133 69.6581 24.175V21.6656L70.4563 21.6663ZM73.7888 25.3425C73.9846 25.2467 74.1486 25.1179 74.2806 24.9563L74.3056 25.4125H75.2488V20.9381H74.2481V24.1494C74.1781 24.301 74.0679 24.4305 73.9294 24.5238C73.7669 24.6338 73.5436 24.6888 73.2594 24.6888C73.1602 24.6888 73.0665 24.675 72.9781 24.6475C72.8908 24.6202 72.8114 24.5719 72.7469 24.5069C72.6756 24.4329 72.6217 24.3438 72.5894 24.2463C72.5476 24.1139 72.5282 23.9756 72.5319 23.8369V20.9381H71.535V23.8288C71.535 24.1238 71.5708 24.3775 71.6425 24.59C71.7142 24.8025 71.8148 24.9746 71.9444 25.1063C72.0769 25.2388 72.2342 25.3367 72.4163 25.4C72.5979 25.4633 72.7977 25.495 73.0156 25.495C73.3161 25.495 73.5738 25.4442 73.7888 25.3425ZM77.6006 22.3544V25.4125H76.6044V20.9381H77.5556L77.5838 21.4638L77.6006 21.4344C77.714 21.2527 77.8546 21.1108 78.0225 21.0088C78.1933 20.9067 78.3904 20.8556 78.6138 20.8556C78.6746 20.8556 78.7394 20.8611 78.8081 20.8719C78.8798 20.8831 78.9336 20.8956 78.9694 20.9094L78.9613 21.8356C78.8273 21.814 78.6919 21.8029 78.5563 21.8025C78.3854 21.8025 78.2352 21.8275 78.1056 21.8775C77.9926 21.917 77.8892 21.9798 77.8022 22.062C77.7152 22.1442 77.6465 22.2438 77.6006 22.3544Z" fill="#514C43"/>
<path fill-rule="evenodd" clip-rule="evenodd" d="M81.8144 25.495C81.4836 25.495 81.1844 25.4413 80.9169 25.3338C80.6616 25.2292 80.4308 25.073 80.2388 24.875C80.0523 24.6753 79.9075 24.4405 79.8125 24.1844C79.712 23.9102 79.6617 23.6202 79.6638 23.3281V23.1631C79.6638 22.8131 79.7148 22.496 79.8169 22.2119C79.9186 21.9281 80.0604 21.6856 80.2425 21.4844C80.4204 21.2826 80.6409 21.1229 80.8881 21.0169C81.1428 20.9079 81.4174 20.853 81.6944 20.8556C82.014 20.8556 82.2938 20.9094 82.5338 21.0169C82.7738 21.1244 82.9723 21.276 83.1294 21.4719C83.289 21.6648 83.4073 21.895 83.4844 22.1625C83.5644 22.43 83.6044 22.725 83.6044 23.0475V23.4731H80.6694C80.6794 23.6144 80.704 23.7481 80.7431 23.8744C80.7981 24.0398 80.8781 24.1846 80.9831 24.3088C81.0873 24.4325 81.214 24.5304 81.3631 24.6025C81.5123 24.6713 81.6819 24.7056 81.8719 24.7056C82.0942 24.7099 82.3143 24.6601 82.5131 24.5606C82.7006 24.464 82.8631 24.3275 83.0006 24.1513L83.5263 24.66C83.4196 24.8113 83.293 24.9475 83.15 25.065C82.9804 25.2004 82.7886 25.3052 82.5831 25.375C82.3358 25.4593 82.0757 25.4999 81.8144 25.495ZM80.7306 22.5388C80.7139 22.611 80.7003 22.684 80.69 22.7575H82.6206V22.6794C82.6169 22.506 82.5805 22.3348 82.5131 22.175C82.4537 22.0224 82.3517 21.8901 82.2194 21.7938C82.0869 21.6979 81.9104 21.65 81.69 21.65C81.5246 21.65 81.3771 21.6856 81.2475 21.7569C81.1204 21.826 81.0144 21.9267 80.9294 22.0588C80.8368 22.2065 80.7696 22.3688 80.7306 22.5388ZM86.9613 23.13V23.225C86.9613 23.5475 87.0081 23.8467 87.1019 24.1225C87.1956 24.3975 87.3321 24.6388 87.5113 24.8463C87.6904 25.0504 87.9081 25.2102 88.1644 25.3256C88.424 25.4385 88.7177 25.495 89.0456 25.495C89.3706 25.495 89.6615 25.4388 89.9181 25.3263C90.1744 25.21 90.3921 25.05 90.5713 24.8463C90.754 24.6343 90.8932 24.3884 90.9806 24.1225C91.0744 23.8467 91.1213 23.5475 91.1213 23.225V23.13C91.1213 22.8075 91.0744 22.5083 90.9806 22.2325C90.8939 21.9663 90.7547 21.7202 90.5713 21.5088C90.3913 21.3012 90.1664 21.1373 89.9138 21.0294C89.6371 20.9099 89.3382 20.8507 89.0369 20.8556C88.7119 20.8556 88.4198 20.9135 88.1606 21.0294C87.9044 21.1423 87.6865 21.3021 87.5069 21.5088C87.3257 21.7211 87.188 21.967 87.1019 22.2325C87.0081 22.5083 86.9613 22.8075 86.9613 23.13ZM87.9581 23.225V23.13C87.9581 22.9313 87.9788 22.7438 88.02 22.5675C88.057 22.3992 88.1228 22.2385 88.2144 22.0925C88.3027 21.9546 88.4144 21.8469 88.5494 21.7694C88.6869 21.6894 88.8494 21.6494 89.0369 21.6494C89.2244 21.6494 89.3856 21.6894 89.5206 21.7694C89.659 21.8469 89.7721 21.9544 89.86 22.0919C89.9508 22.2294 90.0171 22.3879 90.0588 22.5675C90.1025 22.7438 90.1244 22.9313 90.1244 23.13V23.225C90.1244 23.4263 90.1025 23.6165 90.0588 23.7956C90.0171 23.9748 89.9523 24.1319 89.8644 24.2669C89.7791 24.3993 89.6625 24.5088 89.525 24.5856C89.3784 24.6663 89.2129 24.7062 89.0456 24.7013C88.8552 24.7013 88.6911 24.6627 88.5531 24.5856C88.4159 24.5087 88.2995 24.3992 88.2144 24.2669C88.122 24.1226 88.0562 23.963 88.02 23.7956C87.9775 23.6084 87.9568 23.417 87.9581 23.225Z" fill="#514C43"/>
<path d="M93.635 25.4125H92.6381V21.6663H91.9519V20.9375H92.6381V20.5075C92.6381 20.1742 92.7002 19.8944 92.8244 19.6681C92.9515 19.439 93.1321 19.2667 93.3663 19.1513C93.6004 19.0325 93.8775 18.9733 94.1975 18.9738C94.2963 18.9738 94.394 18.9806 94.4907 18.9944C94.5877 19.0052 94.6815 19.0231 94.7719 19.0481L94.7475 19.8169C94.6875 19.8028 94.6265 19.7932 94.565 19.7881C94.4964 19.7826 94.4276 19.7799 94.3588 19.78C94.2067 19.78 94.0757 19.809 93.9657 19.8669C93.8598 19.9206 93.7731 20.0057 93.7175 20.1106C93.6593 20.2346 93.6311 20.3706 93.635 20.5075V20.9375H94.5569V21.6656H93.635V25.4125ZM99.0469 22.1963V25.4125H98.05V20.9381H98.9888L99.0207 21.4425C99.1665 21.2592 99.3446 21.1175 99.555 21.0175C99.7788 20.9092 100.037 20.8552 100.329 20.8556C100.533 20.8556 100.719 20.886 100.887 20.9469C101.058 21.0044 101.205 21.0967 101.329 21.2238C101.421 21.3154 101.497 21.4265 101.558 21.5569C101.584 21.5194 101.611 21.4827 101.639 21.4469C101.789 21.2623 101.972 21.1175 102.189 21.0125C102.424 20.9036 102.68 20.8499 102.938 20.8556C103.167 20.8556 103.371 20.8873 103.55 20.9506C103.732 21.0115 103.886 21.1079 104.013 21.24C104.14 21.3721 104.236 21.5444 104.303 21.7569C104.369 21.9665 104.402 22.2202 104.402 22.5181V25.4125H103.401V22.5138C103.401 22.2875 103.368 22.1125 103.302 21.9888C103.246 21.8719 103.149 21.7804 103.029 21.7325C102.91 21.6825 102.768 21.6575 102.603 21.6575C102.449 21.6575 102.312 21.6867 102.194 21.745C102.079 21.7995 101.978 21.8802 101.9 21.9806C101.82 22.0809 101.759 22.1949 101.72 22.3169C101.721 22.3544 101.722 22.3925 101.722 22.4313V25.4125H100.726V22.5188C100.726 22.3008 100.693 22.13 100.626 22.0063C100.569 21.8876 100.47 21.7935 100.349 21.7413C100.215 21.6829 100.07 21.6547 99.9232 21.6588C99.7357 21.6588 99.5759 21.6946 99.4438 21.7663C99.3155 21.8372 99.2061 21.9379 99.125 22.06C99.0959 22.1033 99.0698 22.1488 99.0469 22.1963Z" fill="#514C43"/>
<path fill-rule="evenodd" clip-rule="evenodd" d="M105.568 23.225V23.13C105.568 22.8075 105.614 22.5083 105.708 22.2325C105.802 21.9546 105.937 21.7133 106.113 21.5088C106.292 21.3017 106.515 21.1378 106.766 21.0294C107.043 20.9099 107.342 20.8507 107.643 20.8556C107.971 20.8556 108.263 20.9135 108.52 21.0294C108.779 21.1423 108.998 21.3021 109.178 21.5088C109.357 21.7129 109.493 21.9542 109.587 22.2325C109.681 22.5083 109.728 22.8075 109.728 23.13V23.225C109.728 23.5475 109.681 23.8467 109.587 24.1225C109.493 24.3975 109.356 24.6388 109.178 24.8463C108.997 25.0518 108.774 25.2154 108.524 25.3256C108.268 25.4385 107.977 25.495 107.651 25.495C107.349 25.5002 107.049 25.4427 106.771 25.3263C106.521 25.2158 106.298 25.052 106.118 24.8463C105.935 24.6343 105.796 24.3884 105.708 24.1225C105.612 23.8332 105.564 23.5299 105.568 23.225ZM106.564 23.13V23.225C106.564 23.4263 106.584 23.6165 106.626 23.7956C106.667 23.9748 106.732 24.1319 106.82 24.2669C106.908 24.4023 107.021 24.5085 107.159 24.5856C107.297 24.6627 107.461 24.7013 107.651 24.7013C107.836 24.7013 107.996 24.6627 108.131 24.5856C108.269 24.5087 108.385 24.3992 108.47 24.2669C108.562 24.1226 108.628 23.963 108.664 23.7956C108.709 23.6165 108.731 23.4263 108.731 23.225V23.13C108.731 22.9313 108.709 22.7438 108.664 22.5675C108.627 22.3985 108.56 22.2376 108.466 22.0925C108.382 21.9578 108.266 21.8466 108.127 21.7694C107.979 21.6865 107.812 21.645 107.643 21.6494C107.456 21.6494 107.293 21.6894 107.155 21.7694C107.019 21.8479 106.904 21.9586 106.82 22.0919C106.732 22.2294 106.667 22.3879 106.626 22.5675C106.584 22.7521 106.563 22.9408 106.564 23.13Z" fill="#514C43"/>
<path d="M111.881 22.2331V25.4125H110.884V20.9381H111.823L111.856 21.4775L111.877 21.4513C112.029 21.2645 112.221 21.1146 112.439 21.0125C112.667 20.9057 112.916 20.8521 113.167 20.8556C113.382 20.8556 113.576 20.8861 113.75 20.9469C113.927 21.0044 114.077 21.0994 114.201 21.2319C114.328 21.3644 114.424 21.5367 114.491 21.7488C114.556 21.9583 114.589 22.2161 114.589 22.5219V25.4125H113.589V22.5188C113.589 22.3038 113.557 22.1342 113.494 22.01C113.44 21.8904 113.345 21.7946 113.225 21.7413C113.088 21.6817 112.94 21.6535 112.791 21.6588C112.62 21.6588 112.467 21.6946 112.332 21.7663C112.197 21.8376 112.08 21.9379 111.989 22.06C111.949 22.1142 111.913 22.1719 111.881 22.2331Z" fill="#514C43"/>
<path fill-rule="evenodd" clip-rule="evenodd" d="M117.909 25.495C117.603 25.4996 117.298 25.4449 117.012 25.3337C116.757 25.2292 116.526 25.073 116.334 24.875C116.148 24.6753 116.003 24.4405 115.908 24.1844C115.808 23.9102 115.757 23.6201 115.759 23.3281V23.1631C115.759 22.8131 115.81 22.496 115.912 22.2119C116.014 21.9281 116.156 21.6856 116.338 21.4844C116.516 21.2826 116.736 21.1229 116.983 21.0169C117.238 20.9079 117.512 20.853 117.789 20.8556C118.109 20.8556 118.389 20.9094 118.629 21.0169C118.869 21.1244 119.067 21.276 119.224 21.4719C119.384 21.6648 119.503 21.895 119.58 22.1625C119.66 22.43 119.7 22.725 119.7 23.0475V23.4731H116.765C116.775 23.6144 116.8 23.7481 116.839 23.8744C116.894 24.0398 116.974 24.1846 117.078 24.3087C117.183 24.4325 117.31 24.5304 117.459 24.6025C117.607 24.6712 117.777 24.7056 117.967 24.7056C118.207 24.7056 118.421 24.6573 118.608 24.5606C118.796 24.464 118.958 24.3275 119.096 24.1512L119.621 24.66C119.515 24.8113 119.388 24.9475 119.245 25.065C119.076 25.2003 118.884 25.3052 118.679 25.375C118.431 25.4594 118.171 25.5 117.909 25.495ZM116.826 22.5387C116.809 22.611 116.796 22.684 116.786 22.7575H118.716V22.6794C118.712 22.506 118.675 22.3348 118.608 22.175C118.549 22.0225 118.447 21.8902 118.315 21.7937C118.182 21.6979 118.006 21.65 117.786 21.65C117.62 21.65 117.472 21.6856 117.343 21.7569C117.216 21.826 117.11 21.9267 117.024 22.0587C116.933 22.2071 116.866 22.3692 116.826 22.5387Z" fill="#514C43"/>
<path d="M121.871 25.4013L120.287 20.9388H121.362L122.332 23.995L123.264 20.9388H124.331L122.536 26.095C122.489 26.2175 122.435 26.3375 122.375 26.4544C122.306 26.5888 122.218 26.7129 122.114 26.8231C122.009 26.9415 121.879 27.0365 121.722 27.1081C121.564 27.1823 121.374 27.2194 121.151 27.2194C121.063 27.2194 120.977 27.211 120.894 27.1944C120.818 27.1814 120.742 27.1664 120.667 27.1494L120.663 26.3881C120.729 26.394 120.795 26.3982 120.861 26.4006C121.002 26.4047 121.142 26.3837 121.275 26.3388C121.382 26.3036 121.475 26.2375 121.544 26.1488C121.615 26.0604 121.676 25.9417 121.726 25.7925L121.871 25.4013Z" fill="#514C43"/>
</g>
</g>
<defs>
<clipPath id="clip0_4_82">
<rect width="148.75" height="35" fill="white"/>
</clipPath>
</defs>
</svg>
