<svg width="113" height="35" viewBox="0 0 113 35" fill="none" xmlns="http://www.w3.org/2000/svg">
<g clip-path="url(#clip0_4_52)">
<path fill-rule="evenodd" clip-rule="evenodd" d="M8.7325 35H11.3531V21H8.7325V35ZM18.3389 34.79H20.6861V25.9569L30.5659 35V21.21H28.2253V29.8922L18.3389 21V34.79ZM35.9242 31.3994C37.2017 32.3947 38.7352 32.97 40.3791 32.97C41.9803 32.97 43.1036 32.4188 43.1036 31.2014C43.1036 30.1405 42.3872 29.7248 41.1327 29.26L39.1016 28.5545C37.2291 27.8895 35.805 26.9183 35.805 24.6859C35.805 22.2983 37.9608 21 40.5387 21C42.1181 21 43.5575 21.397 44.6819 22.1003V24.4683C43.5127 23.6042 42.233 23.0092 40.5891 23.0092C39.1738 23.0092 38.1161 23.5375 38.1161 24.6389C38.1161 25.6342 38.78 26.0323 39.9492 26.4327L42.2122 27.2267C44.4052 27.9978 45.4114 29.1933 45.4114 31.1598C45.4114 33.6339 43.2348 35 40.3791 35C38.5022 35 36.9064 34.475 35.9242 33.8122V31.3994ZM51.5255 35H54.145V21H51.5255V35ZM66.4344 32.8814C69.3875 32.8814 70.9658 30.987 70.9658 27.9967C70.9658 24.9845 69.3864 23.0967 66.4344 23.0967H63.5141V32.8814H66.4344ZM61.1297 21H66.5219C70.6727 21 73.3567 23.7344 73.3567 27.9967C73.3567 32.2623 70.6727 35 66.5219 35H61.1297V21ZM86.4577 21V23.0967H80.1172V26.4655H85.8036V28.5381H80.1161V32.8814H86.4577V35H77.7241V21H86.4577ZM95.7567 27.3394H98.3566C99.8955 27.3394 100.763 26.495 100.763 25.1967C100.763 23.8984 99.8955 23.053 98.3566 23.053H95.7567V27.3394ZM95.7567 29.3191V35H93.4434V21H98.4003C101.227 21 103.055 22.4558 103.055 25.1967C103.055 27.5406 102.04 28.887 99.878 29.2327L104.797 35H102.165L97.4028 29.3202H95.7578L95.7567 29.3191ZM7.81703 7.20781C8.84187 6.83266 9.64031 5.70719 9.64031 4.15953C9.64031 1.58047 7.81703 0.243906 4.9 0.243906H0V14.6409H5.355C8.27203 14.6409 10.0953 13.2103 10.0953 10.5142C10.0953 8.98953 9.13828 7.65297 7.81703 7.20781ZM2.30125 6.29344V2.35484H4.87813C6.49688 2.35484 7.36203 2.94109 7.36203 4.30062C7.36203 5.66016 6.49578 6.29344 4.87813 6.29344H2.30125ZM2.30125 8.31031H5.30906C6.90594 8.31031 7.77109 9.10656 7.77109 10.4202C7.77109 11.7097 6.90484 12.5311 5.31016 12.5311H2.30234V8.30922L2.30125 8.31031ZM20.7867 14.875C24.1369 14.875 26.3933 12.8581 26.3933 8.91953V0.243906H24.0231V8.63734C24.0231 11.4045 22.8834 12.6952 20.7867 12.6952C18.69 12.6952 17.5514 11.4045 17.5514 8.63734V0.243906H15.1813V8.89547C15.1813 12.8581 17.4595 14.875 20.7867 14.875ZM31.9736 13.6084C32.9536 14.3128 34.5494 14.875 36.4175 14.875C39.2667 14.875 41.4313 13.4203 41.4313 10.7953C41.4313 8.70844 40.4294 7.44187 38.2408 6.62156L35.9855 5.77719C34.8228 5.35609 34.1622 4.93391 34.1622 3.87844C34.1622 2.70594 35.21 2.14375 36.6231 2.14375C38.2638 2.14375 39.5402 2.77594 40.7028 3.69141V1.18125C39.5861 0.432031 38.15 0.00984375 36.5772 0.00984375C34.0025 0.00984375 31.8598 1.39344 31.8598 3.92547C31.8598 6.29344 33.273 7.32484 35.1411 8.02813L37.17 8.77844C38.4234 9.27063 39.13 9.71688 39.13 10.8423C39.13 12.1319 38.0133 12.7181 36.4175 12.7181C34.7769 12.7181 33.25 12.1078 31.9736 11.0534V13.6084ZM49.9002 0.243906H47.5311V14.6398H49.9002V0.243906ZM56.6617 14.6223H58.9455V5.25656L68.5573 14.8455V0.222031H66.2802V9.42812L56.6617 0V14.6223ZM83.3678 0.247187V2.40297H77.2144V5.86797H82.7323V7.99969H77.2144V12.4655H83.3678V14.6442H74.8913V0.247187H83.3678ZM88.8858 13.5986C89.8658 14.303 91.4605 14.8652 93.3297 14.8652C96.1778 14.8652 98.3434 13.4116 98.3434 10.7855C98.3434 8.69859 97.3405 7.43313 95.153 6.61172L92.8966 5.76844C91.7339 5.34625 91.0733 4.92406 91.0733 3.86859C91.0733 2.69609 92.1211 2.13391 93.5342 2.13391C95.1748 2.13391 96.4513 2.76719 97.6139 3.68156V1.1725C96.4972 0.422188 95.0611 0 93.4883 0C90.9136 0 88.7709 1.38359 88.7709 3.91562C88.7709 6.28359 90.1841 7.315 92.0522 8.01828L94.0811 8.76859C95.3345 9.26078 96.0411 9.70703 96.0411 10.8325C96.0411 12.122 94.9255 12.7083 93.3286 12.7083C91.688 12.7083 90.1611 12.0991 88.8858 11.0436V13.5986ZM103.199 13.5986C104.179 14.303 105.774 14.8652 107.643 14.8652C110.492 14.8652 112.656 13.4116 112.656 10.7855C112.656 8.69859 111.653 7.43313 109.466 6.61172L107.209 5.76844C106.048 5.34625 105.386 4.92406 105.386 3.86859C105.386 2.69609 106.435 2.13391 107.847 2.13391C109.488 2.13391 110.765 2.76719 111.927 3.68156V1.1725C110.811 0.422188 109.375 0 107.802 0C105.226 0 103.085 1.38359 103.085 3.91562C103.085 6.28359 104.498 7.315 106.366 8.01828L108.395 8.76859C109.648 9.26078 110.355 9.70703 110.355 10.8325C110.355 12.122 109.238 12.7083 107.643 12.7083C106.002 12.7083 104.475 12.0991 103.199 11.0436V13.5986Z" fill="#514C43"/>
</g>
<defs>
<clipPath id="clip0_4_52">
<rect width="112.656" height="35" fill="white"/>
</clipPath>
</defs>
</svg>
