<svg width="180" height="35" viewBox="0 0 180 35" fill="none" xmlns="http://www.w3.org/2000/svg">
<g clip-path="url(#clip0_1_399)">
<path d="M49.7163 25.5125C50.9126 25.5125 51.9816 25.3135 52.9237 24.9153C53.8807 24.5172 54.688 23.9936 55.3459 23.3449C56.0039 22.6814 56.4748 21.9588 56.759 21.1773L54.0227 19.9165C53.6937 20.7422 53.1554 21.4279 52.4078 21.9736C51.6751 22.5043 50.778 22.7698 49.7163 22.7698C48.6696 22.7698 47.7501 22.5265 46.9576 22.0398C46.1651 21.5532 45.5446 20.8824 45.096 20.0271C44.6474 19.1571 44.4231 18.147 44.4231 16.9968C44.4231 15.8466 44.6474 14.844 45.096 13.9887C45.5446 13.1187 46.1651 12.4478 46.9576 11.9759C47.7501 11.4893 48.6696 11.246 49.7163 11.246C50.778 11.246 51.6751 11.5188 52.4078 12.0644C53.1554 12.5953 53.6937 13.2736 54.0227 14.0994L56.759 12.8386C56.4748 12.057 56.0039 11.3418 55.3459 10.693C54.688 10.0295 53.8807 9.49864 52.9237 9.1005C51.9816 8.70237 50.9126 8.5033 49.7163 8.5033C48.5201 8.5033 47.4137 8.71711 46.3969 9.14474C45.3801 9.55762 44.498 10.1474 43.7503 10.9142C43.0027 11.6663 42.4195 12.5658 42.0009 13.6127C41.5821 14.6449 41.3728 15.7729 41.3728 16.9968C41.3728 18.2208 41.5821 19.3561 42.0009 20.4031C42.4195 21.4352 43.0027 22.3347 43.7503 23.1016C44.498 23.8683 45.3801 24.4656 46.3969 24.8931C47.4137 25.306 48.5201 25.5125 49.7163 25.5125Z" fill="#514C43"/>
<path d="M58.9888 25.2471H61.927V18.5452C61.927 17.6309 62.1811 16.9231 62.6895 16.4218C63.2128 15.9057 63.8857 15.6476 64.7081 15.6476H65.7623V13.0819H65.0446C64.2969 13.0819 63.639 13.2145 63.0708 13.48C62.5025 13.7454 62.0615 14.2247 61.7474 14.9177V13.2145H58.9888V25.2471Z" fill="#514C43"/>
<path d="M68.858 30.1352C70.0092 30.1352 70.9662 29.8109 71.7289 29.162C72.5063 28.5279 73.1268 27.6284 73.5904 26.4636L78.906 13.2145H75.7211L72.5811 21.509L69.4186 13.2145H66.2562L71.0784 25.2471L70.8093 25.8885C70.57 26.3899 70.2934 26.7953 69.9793 27.105C69.6804 27.4147 69.1944 27.5695 68.5215 27.5695C68.2823 27.5695 68.028 27.5474 67.759 27.5031C67.4898 27.4736 67.2506 27.4294 67.0412 27.3705V29.8035C67.2954 29.9215 67.5795 30.0026 67.8935 30.0468C68.2075 30.1058 68.529 30.1352 68.858 30.1352Z" fill="#514C43"/>
<path d="M80.5195 29.6707H83.4577V24.0969C83.9063 24.554 84.4521 24.9079 85.0951 25.1586C85.7379 25.3945 86.4333 25.5125 87.1809 25.5125C88.3621 25.5125 89.4163 25.2397 90.3434 24.6941C91.2704 24.1337 92.003 23.3817 92.5414 22.438C93.0797 21.4795 93.3488 20.4104 93.3488 19.2308C93.3488 18.0512 93.0797 16.9895 92.5414 16.0457C92.003 15.0873 91.2704 14.3352 90.3434 13.7897C89.4163 13.2293 88.3696 12.9491 87.2033 12.9491C86.366 12.9491 85.6109 13.0965 84.938 13.3915C84.2651 13.6865 83.7119 14.0992 83.2783 14.6301V13.2145H80.5195V29.6707ZM86.8445 22.8583C86.2015 22.8583 85.6184 22.7034 85.0951 22.3938C84.5866 22.0841 84.1829 21.6565 83.8838 21.1109C83.5998 20.5653 83.4577 19.9386 83.4577 19.2308C83.4577 18.523 83.5998 17.8963 83.8838 17.3507C84.1829 16.8052 84.5866 16.3775 85.0951 16.0678C85.6184 15.7582 86.2015 15.6033 86.8445 15.6033C87.5173 15.6033 88.108 15.7656 88.6163 16.09C89.1397 16.3996 89.5509 16.8272 89.85 17.3729C90.1489 17.9184 90.2985 18.5378 90.2985 19.2308C90.2985 19.9238 90.1489 20.5505 89.85 21.1109C89.5509 21.6565 89.1397 22.0841 88.6163 22.3938C88.108 22.7034 87.5173 22.8583 86.8445 22.8583Z" fill="#514C43"/>
<path d="M100.932 25.3798C101.426 25.3798 101.912 25.3429 102.39 25.2692V22.7698C102.106 22.814 101.844 22.8362 101.605 22.8362C100.887 22.8362 100.364 22.6739 100.035 22.3495C99.7061 22.0252 99.5415 21.5607 99.5415 20.9561V15.8024H102.345V13.2145H99.5415V10.4719H96.6034V11.4009C96.6034 11.9907 96.439 12.4404 96.11 12.7501C95.781 13.0598 95.3175 13.2145 94.7193 13.2145H94.4951V15.8024H96.6034V21.1109C96.6034 22.4527 96.9772 23.4997 97.7248 24.2517C98.4874 25.0038 99.5566 25.3798 100.932 25.3798Z" fill="#514C43"/>
<path d="M110.491 25.5125C111.673 25.5125 112.749 25.2471 113.721 24.7162C114.693 24.1707 115.471 23.426 116.053 22.4822C116.637 21.5238 116.928 20.44 116.928 19.2308C116.928 18.0216 116.637 16.9452 116.053 16.0015C115.485 15.0578 114.715 14.3131 113.743 13.7675C112.772 13.222 111.688 12.9491 110.491 12.9491C109.28 12.9491 108.189 13.222 107.217 13.7675C106.245 14.3131 105.467 15.0578 104.884 16.0015C104.316 16.9452 104.032 18.0216 104.032 19.2308C104.032 20.44 104.316 21.5164 104.884 22.4601C105.467 23.4038 106.245 24.1485 107.217 24.6941C108.204 25.2397 109.295 25.5125 110.491 25.5125ZM110.491 22.8583C109.833 22.8583 109.243 22.7034 108.72 22.3938C108.211 22.0841 107.807 21.6565 107.508 21.1109C107.224 20.5505 107.082 19.9238 107.082 19.2308C107.082 18.5378 107.224 17.9184 107.508 17.3729C107.807 16.8272 108.211 16.3996 108.72 16.09C109.243 15.7656 109.833 15.6033 110.491 15.6033C111.149 15.6033 111.725 15.7656 112.218 16.09C112.727 16.3996 113.123 16.8272 113.407 17.3729C113.706 17.9184 113.856 18.5378 113.856 19.2308C113.856 19.9238 113.706 20.5505 113.407 21.1109C113.123 21.6565 112.727 22.0841 112.218 22.3938C111.725 22.7034 111.149 22.8583 110.491 22.8583Z" fill="#514C43"/>
<path d="M119.157 25.2471H122.095V18.1912C122.095 17.4097 122.319 16.7831 122.768 16.3111C123.232 15.8393 123.829 15.6033 124.562 15.6033C125.294 15.6033 125.885 15.8393 126.334 16.3111C126.797 16.7683 127.03 17.395 127.03 18.1912V25.2471H129.967V17.5055C129.967 16.606 129.773 15.8172 129.384 15.1389C128.995 14.4459 128.45 13.9076 127.747 13.5242C127.059 13.1408 126.266 12.9491 125.369 12.9491C124.607 12.9491 123.919 13.0965 123.306 13.3915C122.708 13.6865 122.245 14.1214 121.915 14.6965V13.2145H119.157V25.2471Z" fill="#514C43"/>
<path d="M136.152 25.5125C137.737 25.5125 139.009 24.9964 139.965 23.9642V25.2471H142.747V17.2401C142.747 16.3996 142.53 15.6549 142.097 15.0062C141.663 14.3573 141.065 13.856 140.301 13.5021C139.554 13.1335 138.679 12.9491 137.678 12.9491C136.451 12.9491 135.36 13.2367 134.403 13.8118C133.446 14.3868 132.788 15.1462 132.43 16.09L134.829 17.2401C135.054 16.6945 135.405 16.2595 135.884 15.9352C136.362 15.596 136.922 15.4264 137.566 15.4264C138.239 15.4264 138.777 15.6033 139.18 15.9573C139.599 16.2965 139.808 16.724 139.808 17.2401V17.6383L136.175 18.2133C134.74 18.4493 133.677 18.899 132.99 19.5626C132.302 20.2262 131.958 21.0593 131.958 22.062C131.958 23.1237 132.339 23.9642 133.103 24.5835C133.865 25.2028 134.882 25.5125 136.152 25.5125ZM135.009 21.9514C135.009 21.1109 135.584 20.58 136.736 20.3588L139.808 19.8501V20.3367C139.808 21.1625 139.517 21.8629 138.934 22.438C138.365 23.0131 137.618 23.3006 136.691 23.3006C136.197 23.3006 135.793 23.1826 135.479 22.9467C135.165 22.696 135.009 22.3643 135.009 21.9514Z" fill="#514C43"/>
<path d="M149.814 25.5125C150.576 25.5125 151.249 25.3724 151.832 25.0922C152.431 24.7973 152.901 24.3697 153.245 23.8094V25.2471H156.027V13.2145H153.088V20.2704C153.088 21.0666 152.856 21.7007 152.392 22.1726C151.929 22.6297 151.339 22.8583 150.621 22.8583C149.888 22.8583 149.29 22.6297 148.827 22.1726C148.379 21.7155 148.154 21.1035 148.154 20.3367V13.2145H145.216V20.58C145.216 22.0546 145.619 23.249 146.426 24.1632C147.25 25.0627 148.379 25.5125 149.814 25.5125Z" fill="#514C43"/>
<path d="M164.319 25.3798C164.813 25.3798 165.299 25.3429 165.778 25.2692V22.7698C165.493 22.814 165.232 22.8362 164.992 22.8362C164.275 22.8362 163.751 22.6739 163.423 22.3495C163.093 22.0252 162.929 21.5607 162.929 20.9561V15.8024H165.733V13.2145H162.929V10.4719H159.991V11.4009C159.991 11.9907 159.827 12.4404 159.497 12.7501C159.169 13.0598 158.705 13.2145 158.107 13.2145H157.883V15.8024H159.991V21.1109C159.991 22.4527 160.364 23.4997 161.113 24.2517C161.875 25.0038 162.944 25.3798 164.319 25.3798Z" fill="#514C43"/>
<path d="M173.699 25.5125C174.94 25.5125 176.025 25.2397 176.952 24.6941C177.894 24.1337 178.552 23.4259 178.926 22.5707L176.548 21.4206C176.279 21.8777 175.905 22.2537 175.427 22.5486C174.963 22.8288 174.395 22.9688 173.722 22.9688C172.84 22.9688 172.1 22.7034 171.501 22.1726C170.904 21.6417 170.56 20.934 170.47 20.0492H179.262C179.322 19.887 179.359 19.7026 179.374 19.4962C179.404 19.2751 179.419 19.0539 179.419 18.8327C179.419 17.7563 179.188 16.7756 178.724 15.8909C178.261 15.0062 177.588 14.2984 176.705 13.7675C175.823 13.222 174.746 12.9491 173.476 12.9491C172.339 12.9491 171.307 13.222 170.38 13.7675C169.468 14.3131 168.743 15.0578 168.204 16.0015C167.682 16.9305 167.42 17.9995 167.42 19.2087C167.42 20.3736 167.682 21.4352 168.204 22.3938C168.728 23.3522 169.461 24.1116 170.403 24.672C171.344 25.2323 172.444 25.5125 173.699 25.5125ZM173.476 15.3379C174.253 15.3379 174.896 15.5739 175.404 16.0457C175.928 16.5028 176.219 17.1001 176.279 17.8374H170.537C170.702 17.041 171.046 16.4291 171.569 16.0015C172.107 15.5591 172.743 15.3379 173.476 15.3379Z" fill="#514C43"/>
<path d="M15.7054 3.02468C7.03157 3.02468 2.28882e-05 10.0562 2.28882e-05 18.7301C2.28882e-05 27.4039 7.03157 34.4355 15.7054 34.4355C24.3793 34.4355 31.4108 27.4039 31.4108 18.7301C31.4108 10.0562 24.3793 3.02468 15.7054 3.02468Z" fill="url(#paint0_linear_1_399)"/>
<path d="M13.1199 18.1128C12.5286 18.6299 11.9803 19.2526 11.5734 19.9937C9.8959 23.0492 11.1864 26.9744 11.1864 26.9744C11.1864 26.9744 15.1909 25.9562 16.8684 22.9007C17.2753 22.1596 17.5063 21.3628 17.6252 20.5863L13.1199 18.1128Z" fill="white"/>
<path d="M18.9105 19.4794L21.1718 22.1519L22.9507 18.2298L21.9 16.1294C25.114 12.054 26.2643 8.65084 26.5143 6.0725C26.8718 2.53878 25.5315 0.564778 25.5315 0.564778C25.5315 0.564778 23.1466 0.493595 20.3541 2.69045C18.3157 4.2869 16.0621 7.08427 14.3458 11.982L12.0095 12.2229L9.65521 15.8291L13.124 16.3025L18.9105 19.4794ZM22.1501 6.72377C23.2534 7.3295 23.6591 8.72096 23.0537 9.82352C22.4484 10.9261 21.0567 11.3307 19.9534 10.725C18.8501 10.1193 18.4444 8.72784 19.0497 7.62528C19.6551 6.5227 21.0469 6.11803 22.1501 6.72377Z" fill="white"/>
<path d="M25.5318 0.565063C25.5318 0.565063 27.1331 2.84167 26.3386 7.30276L23.2831 4.67498L19.4943 3.45277C22.1831 0.565063 25.5318 0.565063 25.5318 0.565063Z" fill="url(#paint1_linear_1_399)"/>
</g>
<defs>
<linearGradient id="paint0_linear_1_399" x1="1.61364" y1="10.5562" x2="16.8111" y2="27.6651" gradientUnits="userSpaceOnUse">
<stop stop-color="#514C43"/>
<stop offset="0.0001" stop-color="#514C43"/>
<stop offset="1" stop-color="#514C43"/>
</linearGradient>
<linearGradient id="paint1_linear_1_399" x1="26.5597" y1="5.52748" x2="18.7261" y2="-3.85845" gradientUnits="userSpaceOnUse">
<stop stop-color="#514C43"/>
<stop offset="0.609375" stop-color="#514C43"/>
</linearGradient>
<clipPath id="clip0_1_399">
<rect width="179.516" height="35" fill="white"/>
</clipPath>
</defs>
</svg>
