<svg width="166" height="176" viewBox="0 0 166 176" fill="none" xmlns="http://www.w3.org/2000/svg">
<mask id="path-1-inside-1_2017_75" fill="white">
<path fill-rule="evenodd" clip-rule="evenodd" d="M8.90687 56.6316C5.17057 50.8869 2.99996 44.0303 2.99996 36.6667C2.99996 16.4162 19.4162 0 39.6666 0C50.5229 0 60.2772 4.71808 66.9909 12.2156C72.1702 11.1993 77.5229 10.6667 83 10.6667C128.655 10.6667 165.667 47.6778 165.667 93.3333C165.667 138.989 128.655 176 83 176C37.3444 176 0.333303 138.989 0.333303 93.3333C0.333303 80.1512 3.41875 67.6896 8.90687 56.6316Z"/>
</mask>
<path fill-rule="evenodd" clip-rule="evenodd" d="M8.90687 56.6316C5.17057 50.8869 2.99996 44.0303 2.99996 36.6667C2.99996 16.4162 19.4162 0 39.6666 0C50.5229 0 60.2772 4.71808 66.9909 12.2156C72.1702 11.1993 77.5229 10.6667 83 10.6667C128.655 10.6667 165.667 47.6778 165.667 93.3333C165.667 138.989 128.655 176 83 176C37.3444 176 0.333303 138.989 0.333303 93.3333C0.333303 80.1512 3.41875 67.6896 8.90687 56.6316Z" fill="white"/>
<path d="M8.90687 56.6316L11.1423 55.1776L11.9722 56.4536L11.2955 57.8171L8.90687 56.6316ZM66.9909 12.2156L67.5044 14.8324L66.0161 15.1245L65.0043 13.9946L66.9909 12.2156ZM5.66663 36.6667C5.66663 43.4987 7.6789 49.8525 11.1423 55.1776L6.67142 58.0855C2.66224 51.9212 0.333293 44.5619 0.333293 36.6667H5.66663ZM39.6666 2.66667C20.8889 2.66667 5.66663 17.889 5.66663 36.6667H0.333293C0.333293 14.9435 17.9434 -2.66667 39.6666 -2.66667V2.66667ZM65.0043 13.9946C58.7751 7.03802 49.7331 2.66667 39.6666 2.66667V-2.66667C51.3127 -2.66667 61.7793 2.39815 68.9775 10.4367L65.0043 13.9946ZM83 13.3333C77.6962 13.3333 72.5155 13.8491 67.5044 14.8324L66.4774 9.59888C71.825 8.54954 77.3496 8 83 8V13.3333ZM163 93.3333C163 49.1506 127.183 13.3333 83 13.3333V8C130.128 8 168.333 46.205 168.333 93.3333H163ZM83 173.333C127.183 173.333 163 137.516 163 93.3333H168.333C168.333 140.462 130.128 178.667 83 178.667V173.333ZM2.99997 93.3333C2.99997 137.516 38.8172 173.333 83 173.333V178.667C35.8717 178.667 -2.33336 140.462 -2.33336 93.3333H2.99997ZM11.2955 57.8171C5.98618 68.5149 2.99997 80.5716 2.99997 93.3333H-2.33336C-2.33336 79.7307 0.851323 66.8643 6.5182 55.4461L11.2955 57.8171Z" fill="black" mask="url(#path-1-inside-1_2017_75)"/>
<mask id="path-3-outside-2_2017_75" maskUnits="userSpaceOnUse" x="24.6666" y="19" width="23" height="22" fill="black">
<rect fill="white" x="24.6666" y="19" width="23" height="22"/>
<path d="M36.5156 39.4688C36.0781 39.4688 35.8281 39.3438 35.7656 39.0938L35.8906 32.9062H33.6093L29.8593 32.875H27.6093C27.3385 32.875 27.0677 32.8333 26.7968 32.75C26.526 32.6667 26.3906 32.4479 26.3906 32.0938C27.4948 30.6771 28.5677 29.25 29.6093 27.8125C32.9218 23.2917 35.1927 21.0312 36.4218 21.0312C37.7968 21.0312 38.4843 23.4479 38.4843 28.2812C38.4843 28.9062 38.4739 29.5729 38.4531 30.2812L45.3593 30.1875C45.3593 30.7292 45.2864 31.125 45.1406 31.375C45.0156 31.625 44.901 31.7604 44.7968 31.7812L39.0156 32.25C38.7239 33.0625 38.5468 33.9792 38.4843 35C38.3802 36.6667 38.3281 38.0625 38.3281 39.1875L36.5156 39.4688ZM35.8906 23.9375C35.4323 24.5625 34.8698 25.1771 34.2031 25.7812C33.5573 26.3646 32.9218 26.9583 32.2968 27.5625C31.6718 28.1458 31.1093 28.7396 30.6093 29.3438C30.1093 29.9479 29.7968 30.5729 29.6718 31.2188C29.8177 31.2188 30.1406 31.2188 30.6406 31.2188C31.1406 31.2188 31.8593 31.1667 32.7968 31.0625C33.7343 30.9375 34.7656 30.8125 35.8906 30.6875V23.9375Z"/>
</mask>
<path d="M36.5156 39.4688C36.0781 39.4688 35.8281 39.3438 35.7656 39.0938L35.8906 32.9062H33.6093L29.8593 32.875H27.6093C27.3385 32.875 27.0677 32.8333 26.7968 32.75C26.526 32.6667 26.3906 32.4479 26.3906 32.0938C27.4948 30.6771 28.5677 29.25 29.6093 27.8125C32.9218 23.2917 35.1927 21.0312 36.4218 21.0312C37.7968 21.0312 38.4843 23.4479 38.4843 28.2812C38.4843 28.9062 38.4739 29.5729 38.4531 30.2812L45.3593 30.1875C45.3593 30.7292 45.2864 31.125 45.1406 31.375C45.0156 31.625 44.901 31.7604 44.7968 31.7812L39.0156 32.25C38.7239 33.0625 38.5468 33.9792 38.4843 35C38.3802 36.6667 38.3281 38.0625 38.3281 39.1875L36.5156 39.4688ZM35.8906 23.9375C35.4323 24.5625 34.8698 25.1771 34.2031 25.7812C33.5573 26.3646 32.9218 26.9583 32.2968 27.5625C31.6718 28.1458 31.1093 28.7396 30.6093 29.3438C30.1093 29.9479 29.7968 30.5729 29.6718 31.2188C29.8177 31.2188 30.1406 31.2188 30.6406 31.2188C31.1406 31.2188 31.8593 31.1667 32.7968 31.0625C33.7343 30.9375 34.7656 30.8125 35.8906 30.6875V23.9375Z" fill="#FF7C02"/>
<path d="M36.5156 39.4688V40.8021H36.6184L36.72 40.7863L36.5156 39.4688ZM35.7656 39.0938L34.4325 39.0668L34.4289 39.2446L34.4721 39.4171L35.7656 39.0938ZM35.8906 32.9062L37.2236 32.9332L37.2511 31.5729H35.8906V32.9062ZM33.6093 32.9062L33.5982 34.2396H33.6093V32.9062ZM29.8593 32.875L29.8704 31.5417H29.8593V32.875ZM26.3906 32.0938L25.3389 31.2741L25.0573 31.6355V32.0938H26.3906ZM29.6093 27.8125L28.5338 27.0244L28.5297 27.0301L29.6093 27.8125ZM38.4531 30.2812L37.1203 30.2421L37.0794 31.6334L38.4712 31.6145L38.4531 30.2812ZM45.3593 30.1875H46.6927V28.8359L45.3412 28.8543L45.3593 30.1875ZM45.1406 31.375L43.9889 30.7032L43.9672 30.7403L43.948 30.7787L45.1406 31.375ZM44.7968 31.7812L44.9046 33.1102L44.9821 33.1039L45.0583 33.0887L44.7968 31.7812ZM39.0156 32.25L38.9078 30.921L38.0511 30.9905L37.7607 31.7995L39.0156 32.25ZM38.4843 35L39.8151 35.0832L39.8152 35.0815L38.4843 35ZM38.3281 39.1875L38.5325 40.5051L39.6614 40.3299V39.1875H38.3281ZM35.8906 23.9375H37.2239V19.8646L34.8154 23.149L35.8906 23.9375ZM34.2031 25.7812L35.0968 26.7707L35.0984 26.7692L34.2031 25.7812ZM32.2968 27.5625L33.2066 28.5372L33.2151 28.5293L33.2235 28.5212L32.2968 27.5625ZM29.6718 31.2188L28.3628 30.9654L28.0557 32.5521H29.6718V31.2188ZM32.7968 31.0625L32.9441 32.3877L32.9586 32.3861L32.9731 32.3841L32.7968 31.0625ZM35.8906 30.6875L36.0378 32.0127L37.2239 31.8809V30.6875H35.8906ZM36.5156 38.1354C36.3985 38.1354 36.4606 38.1146 36.5962 38.1824C36.6745 38.2216 36.7773 38.2907 36.8719 38.4042C36.9685 38.5202 37.0288 38.6493 37.0591 38.7704L34.4721 39.4171C34.6064 39.9545 34.9639 40.3477 35.4037 40.5676C35.7893 40.7604 36.1952 40.8021 36.5156 40.8021V38.1354ZM37.0986 39.1207L37.2236 32.9332L34.5575 32.8793L34.4325 39.0668L37.0986 39.1207ZM35.8906 31.5729H33.6093V34.2396H35.8906V31.5729ZM33.6204 31.573L29.8704 31.5417L29.8482 34.2083L33.5982 34.2395L33.6204 31.573ZM29.8593 31.5417H27.6093V34.2083H29.8593V31.5417ZM27.6093 31.5417C27.4775 31.5417 27.3387 31.5217 27.1889 31.4756L26.4047 34.0244C26.7967 34.145 27.1995 34.2083 27.6093 34.2083V31.5417ZM27.1889 31.4756C27.3282 31.5185 27.5061 31.6282 27.6258 31.8216C27.729 31.9882 27.7239 32.1127 27.7239 32.0938H25.0573C25.0573 32.429 25.1199 32.8399 25.3585 33.2252C25.6136 33.6374 25.9946 33.8982 26.4047 34.0244L27.1889 31.4756ZM27.4422 32.9134C28.5558 31.4846 29.6381 30.0451 30.689 28.5949L28.5297 27.0301C27.4972 28.4549 26.4337 29.8695 25.3389 31.2741L27.4422 32.9134ZM30.6849 28.6006C32.3257 26.3612 33.6742 24.73 34.7375 23.6715C35.2703 23.1411 35.6988 22.7877 36.028 22.5751C36.3832 22.3458 36.4936 22.3646 36.4218 22.3646V19.6979C35.7355 19.6979 35.1011 19.9993 34.5813 20.335C34.0355 20.6875 33.4588 21.1818 32.8562 21.7816C31.6487 22.9836 30.2055 24.743 28.5338 27.0244L30.6849 28.6006ZM36.4218 22.3646C36.3127 22.3646 36.2618 22.2934 36.31 22.3499C36.392 22.4461 36.5396 22.6931 36.6863 23.2086C36.978 24.2342 37.151 25.8965 37.151 28.2812H39.8177C39.8177 25.8327 39.6469 23.8699 39.2512 22.4789C39.054 21.786 38.772 21.1269 38.3384 20.6188C37.871 20.0712 37.2185 19.6979 36.4218 19.6979V22.3646ZM37.151 28.2812C37.151 28.8916 37.1408 29.5451 37.1203 30.2421L39.7858 30.3204C39.807 29.6007 39.8177 28.9209 39.8177 28.2812H37.151ZM38.4712 31.6145L45.3774 31.5207L45.3412 28.8543L38.435 28.948L38.4712 31.6145ZM44.026 30.1875C44.026 30.4031 44.0111 30.5527 43.9934 30.6491C43.9747 30.7502 43.9603 30.7521 43.9889 30.7032L46.2923 32.0468C46.6215 31.4825 46.6927 30.7918 46.6927 30.1875H44.026ZM43.948 30.7787C43.9092 30.8564 43.9042 30.8487 43.943 30.8028C43.9645 30.7775 44.016 30.7205 44.1019 30.6592C44.1887 30.5972 44.3342 30.514 44.5353 30.4738L45.0583 33.0887C45.5465 32.9911 45.8462 32.6819 45.9787 32.5253C46.1321 32.344 46.247 32.1436 46.3332 31.9713L43.948 30.7787ZM44.6891 30.4523L38.9078 30.921L39.1233 33.579L44.9046 33.1102L44.6891 30.4523ZM37.7607 31.7995C37.4193 32.7503 37.2223 33.7943 37.1535 34.9185L39.8152 35.0815C39.8713 34.1641 40.0285 33.3747 40.2705 32.7005L37.7607 31.7995ZM37.1536 34.9168C37.0484 36.5993 36.9948 38.025 36.9948 39.1875H39.6614C39.6614 38.1 39.7119 36.734 39.8151 35.0832L37.1536 34.9168ZM38.1236 37.8699L36.3111 38.1512L36.72 40.7863L38.5325 40.5051L38.1236 37.8699ZM34.8154 23.149C34.4178 23.6912 33.9182 24.24 33.3077 24.7933L35.0984 26.7692C35.8213 26.1142 36.4467 25.4338 36.9658 24.726L34.8154 23.149ZM33.3094 24.7918C32.6524 25.3852 32.006 25.9892 31.3701 26.6038L33.2235 28.5212C33.8377 27.9275 34.4621 27.344 35.0968 26.7707L33.3094 24.7918ZM31.3871 26.5878C30.724 27.2066 30.1217 27.8417 29.5821 28.4937L31.6365 30.1938C32.097 29.6374 32.6197 29.085 33.2066 28.5372L31.3871 26.5878ZM29.5821 28.4937C28.967 29.2369 28.5377 30.0616 28.3628 30.9654L30.9809 31.4721C31.056 31.0842 31.2517 30.6589 31.6365 30.1938L29.5821 28.4937ZM29.6718 32.5521C29.6721 32.5521 29.6724 32.5521 29.6727 32.5521C29.673 32.5521 29.6733 32.5521 29.6736 32.5521C29.6738 32.5521 29.6741 32.5521 29.6744 32.5521C29.6747 32.5521 29.675 32.5521 29.6753 32.5521C29.6756 32.5521 29.6759 32.5521 29.6762 32.5521C29.6764 32.5521 29.6767 32.5521 29.677 32.5521C29.6773 32.5521 29.6776 32.5521 29.6779 32.5521C29.6782 32.5521 29.6785 32.5521 29.6788 32.5521C29.6791 32.5521 29.6794 32.5521 29.6797 32.5521C29.68 32.5521 29.6803 32.5521 29.6806 32.5521C29.6809 32.5521 29.6812 32.5521 29.6815 32.5521C29.6818 32.5521 29.6821 32.5521 29.6824 32.5521C29.6827 32.5521 29.683 32.5521 29.6833 32.5521C29.6836 32.5521 29.6839 32.5521 29.6842 32.5521C29.6845 32.5521 29.6848 32.5521 29.6851 32.5521C29.6854 32.5521 29.6857 32.5521 29.686 32.5521C29.6863 32.5521 29.6866 32.5521 29.6869 32.5521C29.6873 32.5521 29.6876 32.5521 29.6879 32.5521C29.6882 32.5521 29.6885 32.5521 29.6888 32.5521C29.6891 32.5521 29.6894 32.5521 29.6897 32.5521C29.69 32.5521 29.6904 32.5521 29.6907 32.5521C29.691 32.5521 29.6913 32.5521 29.6916 32.5521C29.6919 32.5521 29.6922 32.5521 29.6926 32.5521C29.6929 32.5521 29.6932 32.5521 29.6935 32.5521C29.6938 32.5521 29.6941 32.5521 29.6945 32.5521C29.6948 32.5521 29.6951 32.5521 29.6954 32.5521C29.6957 32.5521 29.6961 32.5521 29.6964 32.5521C29.6967 32.5521 29.697 32.5521 29.6973 32.5521C29.6977 32.5521 29.698 32.5521 29.6983 32.5521C29.6986 32.5521 29.699 32.5521 29.6993 32.5521C29.6996 32.5521 29.6999 32.5521 29.7003 32.5521C29.7006 32.5521 29.7009 32.5521 29.7013 32.5521C29.7016 32.5521 29.7019 32.5521 29.7022 32.5521C29.7026 32.5521 29.7029 32.5521 29.7032 32.5521C29.7036 32.5521 29.7039 32.5521 29.7042 32.5521C29.7046 32.5521 29.7049 32.5521 29.7052 32.5521C29.7056 32.5521 29.7059 32.5521 29.7062 32.5521C29.7066 32.5521 29.7069 32.5521 29.7072 32.5521C29.7076 32.5521 29.7079 32.5521 29.7082 32.5521C29.7086 32.5521 29.7089 32.5521 29.7093 32.5521C29.7096 32.5521 29.7099 32.5521 29.7103 32.5521C29.7106 32.5521 29.711 32.5521 29.7113 32.5521C29.7116 32.5521 29.712 32.5521 29.7123 32.5521C29.7127 32.5521 29.713 32.5521 29.7134 32.5521C29.7137 32.5521 29.714 32.5521 29.7144 32.5521C29.7147 32.5521 29.7151 32.5521 29.7154 32.5521C29.7158 32.5521 29.7161 32.5521 29.7165 32.5521C29.7168 32.5521 29.7172 32.5521 29.7175 32.5521C29.7179 32.5521 29.7182 32.5521 29.7186 32.5521C29.7189 32.5521 29.7193 32.5521 29.7196 32.5521C29.72 32.5521 29.7203 32.5521 29.7207 32.5521C29.721 32.5521 29.7214 32.5521 29.7217 32.5521C29.7221 32.5521 29.7225 32.5521 29.7228 32.5521C29.7232 32.5521 29.7235 32.5521 29.7239 32.5521C29.7242 32.5521 29.7246 32.5521 29.725 32.5521C29.7253 32.5521 29.7257 32.5521 29.726 32.5521C29.7264 32.5521 29.7268 32.5521 29.7271 32.5521C29.7275 32.5521 29.7278 32.5521 29.7282 32.5521C29.7286 32.5521 29.7289 32.5521 29.7293 32.5521C29.7297 32.5521 29.73 32.5521 29.7304 32.5521C29.7308 32.5521 29.7311 32.5521 29.7315 32.5521C29.7319 32.5521 29.7322 32.5521 29.7326 32.5521C29.733 32.5521 29.7333 32.5521 29.7337 32.5521C29.7341 32.5521 29.7345 32.5521 29.7348 32.5521C29.7352 32.5521 29.7356 32.5521 29.7359 32.5521C29.7363 32.5521 29.7367 32.5521 29.7371 32.5521C29.7374 32.5521 29.7378 32.5521 29.7382 32.5521C29.7386 32.5521 29.7389 32.5521 29.7393 32.5521C29.7397 32.5521 29.7401 32.5521 29.7404 32.5521C29.7408 32.5521 29.7412 32.5521 29.7416 32.5521C29.742 32.5521 29.7423 32.5521 29.7427 32.5521C29.7431 32.5521 29.7435 32.5521 29.7439 32.5521C29.7442 32.5521 29.7446 32.5521 29.745 32.5521C29.7454 32.5521 29.7458 32.5521 29.7462 32.5521C29.7465 32.5521 29.7469 32.5521 29.7473 32.5521C29.7477 32.5521 29.7481 32.5521 29.7485 32.5521C29.7489 32.5521 29.7493 32.5521 29.7496 32.5521C29.75 32.5521 29.7504 32.5521 29.7508 32.5521C29.7512 32.5521 29.7516 32.5521 29.752 32.5521C29.7524 32.5521 29.7528 32.5521 29.7532 32.5521C29.7536 32.5521 29.754 32.5521 29.7543 32.5521C29.7547 32.5521 29.7551 32.5521 29.7555 32.5521C29.7559 32.5521 29.7563 32.5521 29.7567 32.5521C29.7571 32.5521 29.7575 32.5521 29.7579 32.5521C29.7583 32.5521 29.7587 32.5521 29.7591 32.5521C29.7595 32.5521 29.7599 32.5521 29.7603 32.5521C29.7607 32.5521 29.7611 32.5521 29.7615 32.5521C29.7619 32.5521 29.7623 32.5521 29.7627 32.5521C29.7631 32.5521 29.7635 32.5521 29.7639 32.5521C29.7643 32.5521 29.7647 32.5521 29.7652 32.5521C29.7656 32.5521 29.766 32.5521 29.7664 32.5521C29.7668 32.5521 29.7672 32.5521 29.7676 32.5521C29.768 32.5521 29.7684 32.5521 29.7688 32.5521C29.7692 32.5521 29.7697 32.5521 29.7701 32.5521C29.7705 32.5521 29.7709 32.5521 29.7713 32.5521C29.7717 32.5521 29.7721 32.5521 29.7725 32.5521C29.773 32.5521 29.7734 32.5521 29.7738 32.5521C29.7742 32.5521 29.7746 32.5521 29.775 32.5521C29.7755 32.5521 29.7759 32.5521 29.7763 32.5521C29.7767 32.5521 29.7771 32.5521 29.7775 32.5521C29.778 32.5521 29.7784 32.5521 29.7788 32.5521C29.7792 32.5521 29.7797 32.5521 29.7801 32.5521C29.7805 32.5521 29.7809 32.5521 29.7813 32.5521C29.7818 32.5521 29.7822 32.5521 29.7826 32.5521C29.783 32.5521 29.7835 32.5521 29.7839 32.5521C29.7843 32.5521 29.7848 32.5521 29.7852 32.5521C29.7856 32.5521 29.786 32.5521 29.7865 32.5521C29.7869 32.5521 29.7873 32.5521 29.7878 32.5521C29.7882 32.5521 29.7886 32.5521 29.7891 32.5521C29.7895 32.5521 29.7899 32.5521 29.7904 32.5521C29.7908 32.5521 29.7912 32.5521 29.7917 32.5521C29.7921 32.5521 29.7925 32.5521 29.793 32.5521C29.7934 32.5521 29.7938 32.5521 29.7943 32.5521C29.7947 32.5521 29.7951 32.5521 29.7956 32.5521C29.796 32.5521 29.7965 32.5521 29.7969 32.5521C29.7973 32.5521 29.7978 32.5521 29.7982 32.5521C29.7987 32.5521 29.7991 32.5521 29.7996 32.5521C29.8 32.5521 29.8004 32.5521 29.8009 32.5521C29.8013 32.5521 29.8018 32.5521 29.8022 32.5521C29.8027 32.5521 29.8031 32.5521 29.8036 32.5521C29.804 32.5521 29.8045 32.5521 29.8049 32.5521C29.8053 32.5521 29.8058 32.5521 29.8062 32.5521C29.8067 32.5521 29.8071 32.5521 29.8076 32.5521C29.808 32.5521 29.8085 32.5521 29.809 32.5521C29.8094 32.5521 29.8099 32.5521 29.8103 32.5521C29.8108 32.5521 29.8112 32.5521 29.8117 32.5521C29.8121 32.5521 29.8126 32.5521 29.813 32.5521C29.8135 32.5521 29.814 32.5521 29.8144 32.5521C29.8149 32.5521 29.8153 32.5521 29.8158 32.5521C29.8162 32.5521 29.8167 32.5521 29.8172 32.5521C29.8176 32.5521 29.8181 32.5521 29.8186 32.5521C29.819 32.5521 29.8195 32.5521 29.8199 32.5521C29.8204 32.5521 29.8209 32.5521 29.8213 32.5521C29.8218 32.5521 29.8223 32.5521 29.8227 32.5521C29.8232 32.5521 29.8237 32.5521 29.8241 32.5521C29.8246 32.5521 29.8251 32.5521 29.8255 32.5521C29.826 32.5521 29.8265 32.5521 29.8269 32.5521C29.8274 32.5521 29.8279 32.5521 29.8283 32.5521C29.8288 32.5521 29.8293 32.5521 29.8298 32.5521C29.8302 32.5521 29.8307 32.5521 29.8312 32.5521C29.8317 32.5521 29.8321 32.5521 29.8326 32.5521C29.8331 32.5521 29.8336 32.5521 29.834 32.5521C29.8345 32.5521 29.835 32.5521 29.8355 32.5521C29.8359 32.5521 29.8364 32.5521 29.8369 32.5521C29.8374 32.5521 29.8379 32.5521 29.8383 32.5521C29.8388 32.5521 29.8393 32.5521 29.8398 32.5521C29.8403 32.5521 29.8408 32.5521 29.8412 32.5521C29.8417 32.5521 29.8422 32.5521 29.8427 32.5521C29.8432 32.5521 29.8437 32.5521 29.8441 32.5521C29.8446 32.5521 29.8451 32.5521 29.8456 32.5521C29.8461 32.5521 29.8466 32.5521 29.8471 32.5521C29.8476 32.5521 29.848 32.5521 29.8485 32.5521C29.849 32.5521 29.8495 32.5521 29.85 32.5521C29.8505 32.5521 29.851 32.5521 29.8515 32.5521C29.852 32.5521 29.8525 32.5521 29.853 32.5521C29.8535 32.5521 29.854 32.5521 29.8545 32.5521C29.8549 32.5521 29.8554 32.5521 29.8559 32.5521C29.8564 32.5521 29.8569 32.5521 29.8574 32.5521C29.8579 32.5521 29.8584 32.5521 29.8589 32.5521C29.8594 32.5521 29.8599 32.5521 29.8604 32.5521C29.8609 32.5521 29.8614 32.5521 29.8619 32.5521C29.8624 32.5521 29.8629 32.5521 29.8634 32.5521C29.864 32.5521 29.8645 32.5521 29.865 32.5521C29.8655 32.5521 29.866 32.5521 29.8665 32.5521C29.867 32.5521 29.8675 32.5521 29.868 32.5521C29.8685 32.5521 29.869 32.5521 29.8695 32.5521C29.87 32.5521 29.8705 32.5521 29.8711 32.5521C29.8716 32.5521 29.8721 32.5521 29.8726 32.5521C29.8731 32.5521 29.8736 32.5521 29.8741 32.5521C29.8746 32.5521 29.8752 32.5521 29.8757 32.5521C29.8762 32.5521 29.8767 32.5521 29.8772 32.5521C29.8777 32.5521 29.8782 32.5521 29.8788 32.5521C29.8793 32.5521 29.8798 32.5521 29.8803 32.5521C29.8808 32.5521 29.8814 32.5521 29.8819 32.5521C29.8824 32.5521 29.8829 32.5521 29.8834 32.5521C29.884 32.5521 29.8845 32.5521 29.885 32.5521C29.8855 32.5521 29.886 32.5521 29.8866 32.5521C29.8871 32.5521 29.8876 32.5521 29.8881 32.5521C29.8887 32.5521 29.8892 32.5521 29.8897 32.5521C29.8902 32.5521 29.8908 32.5521 29.8913 32.5521C29.8918 32.5521 29.8924 32.5521 29.8929 32.5521C29.8934 32.5521 29.8939 32.5521 29.8945 32.5521C29.895 32.5521 29.8955 32.5521 29.8961 32.5521C29.8966 32.5521 29.8971 32.5521 29.8977 32.5521C29.8982 32.5521 29.8987 32.5521 29.8993 32.5521C29.8998 32.5521 29.9003 32.5521 29.9009 32.5521C29.9014 32.5521 29.902 32.5521 29.9025 32.5521C29.903 32.5521 29.9036 32.5521 29.9041 32.5521C29.9046 32.5521 29.9052 32.5521 29.9057 32.5521C29.9063 32.5521 29.9068 32.5521 29.9073 32.5521C29.9079 32.5521 29.9084 32.5521 29.909 32.5521C29.9095 32.5521 29.9101 32.5521 29.9106 32.5521C29.9111 32.5521 29.9117 32.5521 29.9122 32.5521C29.9128 32.5521 29.9133 32.5521 29.9139 32.5521C29.9144 32.5521 29.915 32.5521 29.9155 32.5521C29.9161 32.5521 29.9166 32.5521 29.9172 32.5521C29.9177 32.5521 29.9183 32.5521 29.9188 32.5521C29.9194 32.5521 29.9199 32.5521 29.9205 32.5521C29.921 32.5521 29.9216 32.5521 29.9221 32.5521C29.9227 32.5521 29.9232 32.5521 29.9238 32.5521C29.9244 32.5521 29.9249 32.5521 29.9255 32.5521C29.926 32.5521 29.9266 32.5521 29.9271 32.5521C29.9277 32.5521 29.9283 32.5521 29.9288 32.5521C29.9294 32.5521 29.9299 32.5521 29.9305 32.5521C29.931 32.5521 29.9316 32.5521 29.9322 32.5521C29.9327 32.5521 29.9333 32.5521 29.9339 32.5521C29.9344 32.5521 29.935 32.5521 29.9356 32.5521C29.9361 32.5521 29.9367 32.5521 29.9372 32.5521C29.9378 32.5521 29.9384 32.5521 29.9389 32.5521C29.9395 32.5521 29.9401 32.5521 29.9406 32.5521C29.9412 32.5521 29.9418 32.5521 29.9424 32.5521C29.9429 32.5521 29.9435 32.5521 29.9441 32.5521C29.9446 32.5521 29.9452 32.5521 29.9458 32.5521C29.9464 32.5521 29.9469 32.5521 29.9475 32.5521C29.9481 32.5521 29.9487 32.5521 29.9492 32.5521C29.9498 32.5521 29.9504 32.5521 29.951 32.5521C29.9515 32.5521 29.9521 32.5521 29.9527 32.5521C29.9533 32.5521 29.9538 32.5521 29.9544 32.5521C29.955 32.5521 29.9556 32.5521 29.9562 32.5521C29.9567 32.5521 29.9573 32.5521 29.9579 32.5521C29.9585 32.5521 29.9591 32.5521 29.9597 32.5521C29.9602 32.5521 29.9608 32.5521 29.9614 32.5521C29.962 32.5521 29.9626 32.5521 29.9632 32.5521C29.9638 32.5521 29.9643 32.5521 29.9649 32.5521C29.9655 32.5521 29.9661 32.5521 29.9667 32.5521C29.9673 32.5521 29.9679 32.5521 29.9685 32.5521C29.969 32.5521 29.9696 32.5521 29.9702 32.5521C29.9708 32.5521 29.9714 32.5521 29.972 32.5521C29.9726 32.5521 29.9732 32.5521 29.9738 32.5521C29.9744 32.5521 29.975 32.5521 29.9756 32.5521C29.9762 32.5521 29.9768 32.5521 29.9774 32.5521C29.978 32.5521 29.9786 32.5521 29.9792 32.5521C29.9798 32.5521 29.9804 32.5521 29.981 32.5521C29.9816 32.5521 29.9822 32.5521 29.9828 32.5521C29.9834 32.5521 29.984 32.5521 29.9846 32.5521C29.9852 32.5521 29.9858 32.5521 29.9864 32.5521C29.987 32.5521 29.9876 32.5521 29.9882 32.5521C29.9888 32.5521 29.9894 32.5521 29.99 32.5521C29.9906 32.5521 29.9912 32.5521 29.9918 32.5521C29.9924 32.5521 29.993 32.5521 29.9936 32.5521C29.9943 32.5521 29.9949 32.5521 29.9955 32.5521C29.9961 32.5521 29.9967 32.5521 29.9973 32.5521C29.9979 32.5521 29.9985 32.5521 29.9991 32.5521C29.9998 32.5521 30.0004 32.5521 30.001 32.5521C30.0016 32.5521 30.0022 32.5521 30.0028 32.5521C30.0034 32.5521 30.0041 32.5521 30.0047 32.5521C30.0053 32.5521 30.0059 32.5521 30.0065 32.5521C30.0072 32.5521 30.0078 32.5521 30.0084 32.5521C30.009 32.5521 30.0096 32.5521 30.0103 32.5521C30.0109 32.5521 30.0115 32.5521 30.0121 32.5521C30.0127 32.5521 30.0134 32.5521 30.014 32.5521C30.0146 32.5521 30.0152 32.5521 30.0159 32.5521C30.0165 32.5521 30.0171 32.5521 30.0177 32.5521C30.0184 32.5521 30.019 32.5521 30.0196 32.5521C30.0202 32.5521 30.0209 32.5521 30.0215 32.5521C30.0221 32.5521 30.0228 32.5521 30.0234 32.5521C30.024 32.5521 30.0247 32.5521 30.0253 32.5521C30.0259 32.5521 30.0266 32.5521 30.0272 32.5521C30.0278 32.5521 30.0285 32.5521 30.0291 32.5521C30.0297 32.5521 30.0304 32.5521 30.031 32.5521C30.0316 32.5521 30.0323 32.5521 30.0329 32.5521C30.0335 32.5521 30.0342 32.5521 30.0348 32.5521C30.0355 32.5521 30.0361 32.5521 30.0367 32.5521C30.0374 32.5521 30.038 32.5521 30.0387 32.5521C30.0393 32.5521 30.0399 32.5521 30.0406 32.5521C30.0412 32.5521 30.0419 32.5521 30.0425 32.5521C30.0432 32.5521 30.0438 32.5521 30.0445 32.5521C30.0451 32.5521 30.0457 32.5521 30.0464 32.5521C30.047 32.5521 30.0477 32.5521 30.0483 32.5521C30.049 32.5521 30.0496 32.5521 30.0503 32.5521C30.0509 32.5521 30.0516 32.5521 30.0522 32.5521C30.0529 32.5521 30.0535 32.5521 30.0542 32.5521C30.0548 32.5521 30.0555 32.5521 30.0561 32.5521C30.0568 32.5521 30.0575 32.5521 30.0581 32.5521C30.0588 32.5521 30.0594 32.5521 30.0601 32.5521C30.0607 32.5521 30.0614 32.5521 30.062 32.5521C30.0627 32.5521 30.0634 32.5521 30.064 32.5521C30.0647 32.5521 30.0653 32.5521 30.066 32.5521C30.0667 32.5521 30.0673 32.5521 30.068 32.5521C30.0686 32.5521 30.0693 32.5521 30.07 32.5521C30.0706 32.5521 30.0713 32.5521 30.072 32.5521C30.0726 32.5521 30.0733 32.5521 30.074 32.5521C30.0746 32.5521 30.0753 32.5521 30.076 32.5521C30.0766 32.5521 30.0773 32.5521 30.078 32.5521C30.0786 32.5521 30.0793 32.5521 30.08 32.5521C30.0806 32.5521 30.0813 32.5521 30.082 32.5521C30.0827 32.5521 30.0833 32.5521 30.084 32.5521C30.0847 32.5521 30.0853 32.5521 30.086 32.5521C30.0867 32.5521 30.0874 32.5521 30.088 32.5521C30.0887 32.5521 30.0894 32.5521 30.0901 32.5521C30.0907 32.5521 30.0914 32.5521 30.0921 32.5521C30.0928 32.5521 30.0935 32.5521 30.0941 32.5521C30.0948 32.5521 30.0955 32.5521 30.0962 32.5521C30.0969 32.5521 30.0975 32.5521 30.0982 32.5521C30.0989 32.5521 30.0996 32.5521 30.1003 32.5521C30.101 32.5521 30.1016 32.5521 30.1023 32.5521C30.103 32.5521 30.1037 32.5521 30.1044 32.5521C30.1051 32.5521 30.1058 32.5521 30.1064 32.5521C30.1071 32.5521 30.1078 32.5521 30.1085 32.5521C30.1092 32.5521 30.1099 32.5521 30.1106 32.5521C30.1113 32.5521 30.112 32.5521 30.1126 32.5521C30.1133 32.5521 30.114 32.5521 30.1147 32.5521C30.1154 32.5521 30.1161 32.5521 30.1168 32.5521C30.1175 32.5521 30.1182 32.5521 30.1189 32.5521C30.1196 32.5521 30.1203 32.5521 30.121 32.5521C30.1217 32.5521 30.1224 32.5521 30.1231 32.5521C30.1238 32.5521 30.1245 32.5521 30.1252 32.5521C30.1259 32.5521 30.1266 32.5521 30.1273 32.5521C30.128 32.5521 30.1287 32.5521 30.1294 32.5521C30.1301 32.5521 30.1308 32.5521 30.1315 32.5521C30.1322 32.5521 30.1329 32.5521 30.1336 32.5521C30.1343 32.5521 30.135 32.5521 30.1357 32.5521C30.1364 32.5521 30.1371 32.5521 30.1378 32.5521C30.1385 32.5521 30.1392 32.5521 30.14 32.5521C30.1407 32.5521 30.1414 32.5521 30.1421 32.5521C30.1428 32.5521 30.1435 32.5521 30.1442 32.5521C30.1449 32.5521 30.1456 32.5521 30.1464 32.5521C30.1471 32.5521 30.1478 32.5521 30.1485 32.5521C30.1492 32.5521 30.1499 32.5521 30.1506 32.5521C30.1514 32.5521 30.1521 32.5521 30.1528 32.5521C30.1535 32.5521 30.1542 32.5521 30.1549 32.5521C30.1557 32.5521 30.1564 32.5521 30.1571 32.5521C30.1578 32.5521 30.1585 32.5521 30.1593 32.5521C30.16 32.5521 30.1607 32.5521 30.1614 32.5521C30.1622 32.5521 30.1629 32.5521 30.1636 32.5521C30.1643 32.5521 30.165 32.5521 30.1658 32.5521C30.1665 32.5521 30.1672 32.5521 30.168 32.5521C30.1687 32.5521 30.1694 32.5521 30.1701 32.5521C30.1709 32.5521 30.1716 32.5521 30.1723 32.5521C30.173 32.5521 30.1738 32.5521 30.1745 32.5521C30.1752 32.5521 30.176 32.5521 30.1767 32.5521C30.1774 32.5521 30.1782 32.5521 30.1789 32.5521C30.1796 32.5521 30.1804 32.5521 30.1811 32.5521C30.1818 32.5521 30.1826 32.5521 30.1833 32.5521C30.184 32.5521 30.1848 32.5521 30.1855 32.5521C30.1863 32.5521 30.187 32.5521 30.1877 32.5521C30.1885 32.5521 30.1892 32.5521 30.19 32.5521C30.1907 32.5521 30.1914 32.5521 30.1922 32.5521C30.1929 32.5521 30.1937 32.5521 30.1944 32.5521C30.1951 32.5521 30.1959 32.5521 30.1966 32.5521C30.1974 32.5521 30.1981 32.5521 30.1989 32.5521C30.1996 32.5521 30.2004 32.5521 30.2011 32.5521C30.2019 32.5521 30.2026 32.5521 30.2033 32.5521C30.2041 32.5521 30.2048 32.5521 30.2056 32.5521C30.2063 32.5521 30.2071 32.5521 30.2078 32.5521C30.2086 32.5521 30.2093 32.5521 30.2101 32.5521C30.2109 32.5521 30.2116 32.5521 30.2124 32.5521C30.2131 32.5521 30.2139 32.5521 30.2146 32.5521C30.2154 32.5521 30.2161 32.5521 30.2169 32.5521C30.2176 32.5521 30.2184 32.5521 30.2192 32.5521C30.2199 32.5521 30.2207 32.5521 30.2214 32.5521C30.2222 32.5521 30.223 32.5521 30.2237 32.5521C30.2245 32.5521 30.2252 32.5521 30.226 32.5521C30.2268 32.5521 30.2275 32.5521 30.2283 32.5521C30.229 32.5521 30.2298 32.5521 30.2306 32.5521C30.2313 32.5521 30.2321 32.5521 30.2329 32.5521C30.2336 32.5521 30.2344 32.5521 30.2352 32.5521C30.2359 32.5521 30.2367 32.5521 30.2375 32.5521C30.2382 32.5521 30.239 32.5521 30.2398 32.5521C30.2406 32.5521 30.2413 32.5521 30.2421 32.5521C30.2429 32.5521 30.2436 32.5521 30.2444 32.5521C30.2452 32.5521 30.246 32.5521 30.2467 32.5521C30.2475 32.5521 30.2483 32.5521 30.2491 32.5521C30.2498 32.5521 30.2506 32.5521 30.2514 32.5521C30.2522 32.5521 30.2529 32.5521 30.2537 32.5521C30.2545 32.5521 30.2553 32.5521 30.256 32.5521C30.2568 32.5521 30.2576 32.5521 30.2584 32.5521C30.2592 32.5521 30.26 32.5521 30.2607 32.5521C30.2615 32.5521 30.2623 32.5521 30.2631 32.5521C30.2639 32.5521 30.2646 32.5521 30.2654 32.5521C30.2662 32.5521 30.267 32.5521 30.2678 32.5521C30.2686 32.5521 30.2694 32.5521 30.2701 32.5521C30.2709 32.5521 30.2717 32.5521 30.2725 32.5521C30.2733 32.5521 30.2741 32.5521 30.2749 32.5521C30.2757 32.5521 30.2765 32.5521 30.2773 32.5521C30.278 32.5521 30.2788 32.5521 30.2796 32.5521C30.2804 32.5521 30.2812 32.5521 30.282 32.5521C30.2828 32.5521 30.2836 32.5521 30.2844 32.5521C30.2852 32.5521 30.286 32.5521 30.2868 32.5521C30.2876 32.5521 30.2884 32.5521 30.2892 32.5521C30.29 32.5521 30.2908 32.5521 30.2916 32.5521C30.2924 32.5521 30.2932 32.5521 30.294 32.5521C30.2948 32.5521 30.2956 32.5521 30.2964 32.5521C30.2972 32.5521 30.298 32.5521 30.2988 32.5521C30.2996 32.5521 30.3004 32.5521 30.3012 32.5521C30.302 32.5521 30.3028 32.5521 30.3036 32.5521C30.3044 32.5521 30.3052 32.5521 30.306 32.5521C30.3068 32.5521 30.3077 32.5521 30.3085 32.5521C30.3093 32.5521 30.3101 32.5521 30.3109 32.5521C30.3117 32.5521 30.3125 32.5521 30.3133 32.5521C30.3141 32.5521 30.315 32.5521 30.3158 32.5521C30.3166 32.5521 30.3174 32.5521 30.3182 32.5521C30.319 32.5521 30.3198 32.5521 30.3207 32.5521C30.3215 32.5521 30.3223 32.5521 30.3231 32.5521C30.3239 32.5521 30.3247 32.5521 30.3256 32.5521C30.3264 32.5521 30.3272 32.5521 30.328 32.5521C30.3288 32.5521 30.3297 32.5521 30.3305 32.5521C30.3313 32.5521 30.3321 32.5521 30.3329 32.5521C30.3338 32.5521 30.3346 32.5521 30.3354 32.5521C30.3362 32.5521 30.3371 32.5521 30.3379 32.5521C30.3387 32.5521 30.3395 32.5521 30.3404 32.5521C30.3412 32.5521 30.342 32.5521 30.3428 32.5521C30.3437 32.5521 30.3445 32.5521 30.3453 32.5521C30.3462 32.5521 30.347 32.5521 30.3478 32.5521C30.3486 32.5521 30.3495 32.5521 30.3503 32.5521C30.3511 32.5521 30.352 32.5521 30.3528 32.5521C30.3536 32.5521 30.3545 32.5521 30.3553 32.5521C30.3561 32.5521 30.357 32.5521 30.3578 32.5521C30.3587 32.5521 30.3595 32.5521 30.3603 32.5521C30.3612 32.5521 30.362 32.5521 30.3628 32.5521C30.3637 32.5521 30.3645 32.5521 30.3654 32.5521C30.3662 32.5521 30.367 32.5521 30.3679 32.5521C30.3687 32.5521 30.3696 32.5521 30.3704 32.5521C30.3713 32.5521 30.3721 32.5521 30.3729 32.5521C30.3738 32.5521 30.3746 32.5521 30.3755 32.5521C30.3763 32.5521 30.3772 32.5521 30.378 32.5521C30.3789 32.5521 30.3797 32.5521 30.3806 32.5521C30.3814 32.5521 30.3823 32.5521 30.3831 32.5521C30.384 32.5521 30.3848 32.5521 30.3857 32.5521C30.3865 32.5521 30.3874 32.5521 30.3882 32.5521C30.3891 32.5521 30.3899 32.5521 30.3908 32.5521C30.3916 32.5521 30.3925 32.5521 30.3933 32.5521C30.3942 32.5521 30.395 32.5521 30.3959 32.5521C30.3968 32.5521 30.3976 32.5521 30.3985 32.5521C30.3993 32.5521 30.4002 32.5521 30.401 32.5521C30.4019 32.5521 30.4028 32.5521 30.4036 32.5521C30.4045 32.5521 30.4053 32.5521 30.4062 32.5521C30.4071 32.5521 30.4079 32.5521 30.4088 32.5521C30.4097 32.5521 30.4105 32.5521 30.4114 32.5521C30.4122 32.5521 30.4131 32.5521 30.414 32.5521C30.4148 32.5521 30.4157 32.5521 30.4166 32.5521C30.4174 32.5521 30.4183 32.5521 30.4192 32.5521C30.42 32.5521 30.4209 32.5521 30.4218 32.5521C30.4227 32.5521 30.4235 32.5521 30.4244 32.5521C30.4253 32.5521 30.4261 32.5521 30.427 32.5521C30.4279 32.5521 30.4288 32.5521 30.4296 32.5521C30.4305 32.5521 30.4314 32.5521 30.4323 32.5521C30.4331 32.5521 30.434 32.5521 30.4349 32.5521C30.4358 32.5521 30.4366 32.5521 30.4375 32.5521C30.4384 32.5521 30.4393 32.5521 30.4402 32.5521C30.441 32.5521 30.4419 32.5521 30.4428 32.5521C30.4437 32.5521 30.4446 32.5521 30.4454 32.5521C30.4463 32.5521 30.4472 32.5521 30.4481 32.5521C30.449 32.5521 30.4499 32.5521 30.4507 32.5521C30.4516 32.5521 30.4525 32.5521 30.4534 32.5521C30.4543 32.5521 30.4552 32.5521 30.4561 32.5521C30.4569 32.5521 30.4578 32.5521 30.4587 32.5521C30.4596 32.5521 30.4605 32.5521 30.4614 32.5521C30.4623 32.5521 30.4632 32.5521 30.4641 32.5521C30.4649 32.5521 30.4658 32.5521 30.4667 32.5521C30.4676 32.5521 30.4685 32.5521 30.4694 32.5521C30.4703 32.5521 30.4712 32.5521 30.4721 32.5521C30.473 32.5521 30.4739 32.5521 30.4748 32.5521C30.4757 32.5521 30.4766 32.5521 30.4775 32.5521C30.4784 32.5521 30.4793 32.5521 30.4802 32.5521C30.4811 32.5521 30.482 32.5521 30.4829 32.5521C30.4838 32.5521 30.4847 32.5521 30.4856 32.5521C30.4865 32.5521 30.4874 32.5521 30.4883 32.5521C30.4892 32.5521 30.4901 32.5521 30.491 32.5521C30.4919 32.5521 30.4928 32.5521 30.4937 32.5521C30.4946 32.5521 30.4955 32.5521 30.4964 32.5521C30.4973 32.5521 30.4983 32.5521 30.4992 32.5521C30.5001 32.5521 30.501 32.5521 30.5019 32.5521C30.5028 32.5521 30.5037 32.5521 30.5046 32.5521C30.5055 32.5521 30.5065 32.5521 30.5074 32.5521C30.5083 32.5521 30.5092 32.5521 30.5101 32.5521C30.511 32.5521 30.5119 32.5521 30.5129 32.5521C30.5138 32.5521 30.5147 32.5521 30.5156 32.5521C30.5165 32.5521 30.5174 32.5521 30.5184 32.5521C30.5193 32.5521 30.5202 32.5521 30.5211 32.5521C30.522 32.5521 30.523 32.5521 30.5239 32.5521C30.5248 32.5521 30.5257 32.5521 30.5266 32.5521C30.5276 32.5521 30.5285 32.5521 30.5294 32.5521C30.5303 32.5521 30.5313 32.5521 30.5322 32.5521C30.5331 32.5521 30.534 32.5521 30.535 32.5521C30.5359 32.5521 30.5368 32.5521 30.5377 32.5521C30.5387 32.5521 30.5396 32.5521 30.5405 32.5521C30.5415 32.5521 30.5424 32.5521 30.5433 32.5521C30.5442 32.5521 30.5452 32.5521 30.5461 32.5521C30.547 32.5521 30.548 32.5521 30.5489 32.5521C30.5498 32.5521 30.5508 32.5521 30.5517 32.5521C30.5526 32.5521 30.5536 32.5521 30.5545 32.5521C30.5555 32.5521 30.5564 32.5521 30.5573 32.5521C30.5583 32.5521 30.5592 32.5521 30.5601 32.5521C30.5611 32.5521 30.562 32.5521 30.563 32.5521C30.5639 32.5521 30.5648 32.5521 30.5658 32.5521C30.5667 32.5521 30.5677 32.5521 30.5686 32.5521C30.5696 32.5521 30.5705 32.5521 30.5714 32.5521C30.5724 32.5521 30.5733 32.5521 30.5743 32.5521C30.5752 32.5521 30.5762 32.5521 30.5771 32.5521C30.5781 32.5521 30.579 32.5521 30.58 32.5521C30.5809 32.5521 30.5819 32.5521 30.5828 32.5521C30.5838 32.5521 30.5847 32.5521 30.5857 32.5521C30.5866 32.5521 30.5876 32.5521 30.5885 32.5521C30.5895 32.5521 30.5904 32.5521 30.5914 32.5521C30.5923 32.5521 30.5933 32.5521 30.5942 32.5521C30.5952 32.5521 30.5961 32.5521 30.5971 32.5521C30.5981 32.5521 30.599 32.5521 30.6 32.5521C30.6009 32.5521 30.6019 32.5521 30.6028 32.5521C30.6038 32.5521 30.6048 32.5521 30.6057 32.5521C30.6067 32.5521 30.6076 32.5521 30.6086 32.5521C30.6096 32.5521 30.6105 32.5521 30.6115 32.5521C30.6125 32.5521 30.6134 32.5521 30.6144 32.5521C30.6153 32.5521 30.6163 32.5521 30.6173 32.5521C30.6182 32.5521 30.6192 32.5521 30.6202 32.5521C30.6211 32.5521 30.6221 32.5521 30.6231 32.5521C30.624 32.5521 30.625 32.5521 30.626 32.5521C30.627 32.5521 30.6279 32.5521 30.6289 32.5521C30.6299 32.5521 30.6308 32.5521 30.6318 32.5521C30.6328 32.5521 30.6338 32.5521 30.6347 32.5521C30.6357 32.5521 30.6367 32.5521 30.6377 32.5521C30.6386 32.5521 30.6396 32.5521 30.6406 32.5521V29.8854C30.6396 29.8854 30.6386 29.8854 30.6377 29.8854C30.6367 29.8854 30.6357 29.8854 30.6347 29.8854C30.6338 29.8854 30.6328 29.8854 30.6318 29.8854C30.6308 29.8854 30.6299 29.8854 30.6289 29.8854C30.6279 29.8854 30.627 29.8854 30.626 29.8854C30.625 29.8854 30.624 29.8854 30.6231 29.8854C30.6221 29.8854 30.6211 29.8854 30.6202 29.8854C30.6192 29.8854 30.6182 29.8854 30.6173 29.8854C30.6163 29.8854 30.6153 29.8854 30.6144 29.8854C30.6134 29.8854 30.6125 29.8854 30.6115 29.8854C30.6105 29.8854 30.6096 29.8854 30.6086 29.8854C30.6076 29.8854 30.6067 29.8854 30.6057 29.8854C30.6048 29.8854 30.6038 29.8854 30.6028 29.8854C30.6019 29.8854 30.6009 29.8854 30.6 29.8854C30.599 29.8854 30.5981 29.8854 30.5971 29.8854C30.5961 29.8854 30.5952 29.8854 30.5942 29.8854C30.5933 29.8854 30.5923 29.8854 30.5914 29.8854C30.5904 29.8854 30.5895 29.8854 30.5885 29.8854C30.5876 29.8854 30.5866 29.8854 30.5857 29.8854C30.5847 29.8854 30.5838 29.8854 30.5828 29.8854C30.5819 29.8854 30.5809 29.8854 30.58 29.8854C30.579 29.8854 30.5781 29.8854 30.5771 29.8854C30.5762 29.8854 30.5752 29.8854 30.5743 29.8854C30.5733 29.8854 30.5724 29.8854 30.5714 29.8854C30.5705 29.8854 30.5696 29.8854 30.5686 29.8854C30.5677 29.8854 30.5667 29.8854 30.5658 29.8854C30.5648 29.8854 30.5639 29.8854 30.563 29.8854C30.562 29.8854 30.5611 29.8854 30.5601 29.8854C30.5592 29.8854 30.5583 29.8854 30.5573 29.8854C30.5564 29.8854 30.5555 29.8854 30.5545 29.8854C30.5536 29.8854 30.5526 29.8854 30.5517 29.8854C30.5508 29.8854 30.5498 29.8854 30.5489 29.8854C30.548 29.8854 30.547 29.8854 30.5461 29.8854C30.5452 29.8854 30.5442 29.8854 30.5433 29.8854C30.5424 29.8854 30.5415 29.8854 30.5405 29.8854C30.5396 29.8854 30.5387 29.8854 30.5377 29.8854C30.5368 29.8854 30.5359 29.8854 30.535 29.8854C30.534 29.8854 30.5331 29.8854 30.5322 29.8854C30.5313 29.8854 30.5303 29.8854 30.5294 29.8854C30.5285 29.8854 30.5276 29.8854 30.5266 29.8854C30.5257 29.8854 30.5248 29.8854 30.5239 29.8854C30.523 29.8854 30.522 29.8854 30.5211 29.8854C30.5202 29.8854 30.5193 29.8854 30.5184 29.8854C30.5174 29.8854 30.5165 29.8854 30.5156 29.8854C30.5147 29.8854 30.5138 29.8854 30.5129 29.8854C30.5119 29.8854 30.511 29.8854 30.5101 29.8854C30.5092 29.8854 30.5083 29.8854 30.5074 29.8854C30.5065 29.8854 30.5055 29.8854 30.5046 29.8854C30.5037 29.8854 30.5028 29.8854 30.5019 29.8854C30.501 29.8854 30.5001 29.8854 30.4992 29.8854C30.4983 29.8854 30.4973 29.8854 30.4964 29.8854C30.4955 29.8854 30.4946 29.8854 30.4937 29.8854C30.4928 29.8854 30.4919 29.8854 30.491 29.8854C30.4901 29.8854 30.4892 29.8854 30.4883 29.8854C30.4874 29.8854 30.4865 29.8854 30.4856 29.8854C30.4847 29.8854 30.4838 29.8854 30.4829 29.8854C30.482 29.8854 30.4811 29.8854 30.4802 29.8854C30.4793 29.8854 30.4784 29.8854 30.4775 29.8854C30.4766 29.8854 30.4757 29.8854 30.4748 29.8854C30.4739 29.8854 30.473 29.8854 30.4721 29.8854C30.4712 29.8854 30.4703 29.8854 30.4694 29.8854C30.4685 29.8854 30.4676 29.8854 30.4667 29.8854C30.4658 29.8854 30.4649 29.8854 30.4641 29.8854C30.4632 29.8854 30.4623 29.8854 30.4614 29.8854C30.4605 29.8854 30.4596 29.8854 30.4587 29.8854C30.4578 29.8854 30.4569 29.8854 30.4561 29.8854C30.4552 29.8854 30.4543 29.8854 30.4534 29.8854C30.4525 29.8854 30.4516 29.8854 30.4507 29.8854C30.4499 29.8854 30.449 29.8854 30.4481 29.8854C30.4472 29.8854 30.4463 29.8854 30.4454 29.8854C30.4446 29.8854 30.4437 29.8854 30.4428 29.8854C30.4419 29.8854 30.441 29.8854 30.4402 29.8854C30.4393 29.8854 30.4384 29.8854 30.4375 29.8854C30.4366 29.8854 30.4358 29.8854 30.4349 29.8854C30.434 29.8854 30.4331 29.8854 30.4323 29.8854C30.4314 29.8854 30.4305 29.8854 30.4296 29.8854C30.4288 29.8854 30.4279 29.8854 30.427 29.8854C30.4261 29.8854 30.4253 29.8854 30.4244 29.8854C30.4235 29.8854 30.4227 29.8854 30.4218 29.8854C30.4209 29.8854 30.42 29.8854 30.4192 29.8854C30.4183 29.8854 30.4174 29.8854 30.4166 29.8854C30.4157 29.8854 30.4148 29.8854 30.414 29.8854C30.4131 29.8854 30.4122 29.8854 30.4114 29.8854C30.4105 29.8854 30.4097 29.8854 30.4088 29.8854C30.4079 29.8854 30.4071 29.8854 30.4062 29.8854C30.4053 29.8854 30.4045 29.8854 30.4036 29.8854C30.4028 29.8854 30.4019 29.8854 30.401 29.8854C30.4002 29.8854 30.3993 29.8854 30.3985 29.8854C30.3976 29.8854 30.3968 29.8854 30.3959 29.8854C30.395 29.8854 30.3942 29.8854 30.3933 29.8854C30.3925 29.8854 30.3916 29.8854 30.3908 29.8854C30.3899 29.8854 30.3891 29.8854 30.3882 29.8854C30.3874 29.8854 30.3865 29.8854 30.3857 29.8854C30.3848 29.8854 30.384 29.8854 30.3831 29.8854C30.3823 29.8854 30.3814 29.8854 30.3806 29.8854C30.3797 29.8854 30.3789 29.8854 30.378 29.8854C30.3772 29.8854 30.3763 29.8854 30.3755 29.8854C30.3746 29.8854 30.3738 29.8854 30.3729 29.8854C30.3721 29.8854 30.3713 29.8854 30.3704 29.8854C30.3696 29.8854 30.3687 29.8854 30.3679 29.8854C30.367 29.8854 30.3662 29.8854 30.3654 29.8854C30.3645 29.8854 30.3637 29.8854 30.3628 29.8854C30.362 29.8854 30.3612 29.8854 30.3603 29.8854C30.3595 29.8854 30.3587 29.8854 30.3578 29.8854C30.357 29.8854 30.3561 29.8854 30.3553 29.8854C30.3545 29.8854 30.3536 29.8854 30.3528 29.8854C30.352 29.8854 30.3511 29.8854 30.3503 29.8854C30.3495 29.8854 30.3486 29.8854 30.3478 29.8854C30.347 29.8854 30.3462 29.8854 30.3453 29.8854C30.3445 29.8854 30.3437 29.8854 30.3428 29.8854C30.342 29.8854 30.3412 29.8854 30.3404 29.8854C30.3395 29.8854 30.3387 29.8854 30.3379 29.8854C30.3371 29.8854 30.3362 29.8854 30.3354 29.8854C30.3346 29.8854 30.3338 29.8854 30.3329 29.8854C30.3321 29.8854 30.3313 29.8854 30.3305 29.8854C30.3297 29.8854 30.3288 29.8854 30.328 29.8854C30.3272 29.8854 30.3264 29.8854 30.3256 29.8854C30.3247 29.8854 30.3239 29.8854 30.3231 29.8854C30.3223 29.8854 30.3215 29.8854 30.3207 29.8854C30.3198 29.8854 30.319 29.8854 30.3182 29.8854C30.3174 29.8854 30.3166 29.8854 30.3158 29.8854C30.315 29.8854 30.3141 29.8854 30.3133 29.8854C30.3125 29.8854 30.3117 29.8854 30.3109 29.8854C30.3101 29.8854 30.3093 29.8854 30.3085 29.8854C30.3077 29.8854 30.3068 29.8854 30.306 29.8854C30.3052 29.8854 30.3044 29.8854 30.3036 29.8854C30.3028 29.8854 30.302 29.8854 30.3012 29.8854C30.3004 29.8854 30.2996 29.8854 30.2988 29.8854C30.298 29.8854 30.2972 29.8854 30.2964 29.8854C30.2956 29.8854 30.2948 29.8854 30.294 29.8854C30.2932 29.8854 30.2924 29.8854 30.2916 29.8854C30.2908 29.8854 30.29 29.8854 30.2892 29.8854C30.2884 29.8854 30.2876 29.8854 30.2868 29.8854C30.286 29.8854 30.2852 29.8854 30.2844 29.8854C30.2836 29.8854 30.2828 29.8854 30.282 29.8854C30.2812 29.8854 30.2804 29.8854 30.2796 29.8854C30.2788 29.8854 30.278 29.8854 30.2773 29.8854C30.2765 29.8854 30.2757 29.8854 30.2749 29.8854C30.2741 29.8854 30.2733 29.8854 30.2725 29.8854C30.2717 29.8854 30.2709 29.8854 30.2701 29.8854C30.2694 29.8854 30.2686 29.8854 30.2678 29.8854C30.267 29.8854 30.2662 29.8854 30.2654 29.8854C30.2646 29.8854 30.2639 29.8854 30.2631 29.8854C30.2623 29.8854 30.2615 29.8854 30.2607 29.8854C30.26 29.8854 30.2592 29.8854 30.2584 29.8854C30.2576 29.8854 30.2568 29.8854 30.256 29.8854C30.2553 29.8854 30.2545 29.8854 30.2537 29.8854C30.2529 29.8854 30.2522 29.8854 30.2514 29.8854C30.2506 29.8854 30.2498 29.8854 30.2491 29.8854C30.2483 29.8854 30.2475 29.8854 30.2467 29.8854C30.246 29.8854 30.2452 29.8854 30.2444 29.8854C30.2436 29.8854 30.2429 29.8854 30.2421 29.8854C30.2413 29.8854 30.2406 29.8854 30.2398 29.8854C30.239 29.8854 30.2382 29.8854 30.2375 29.8854C30.2367 29.8854 30.2359 29.8854 30.2352 29.8854C30.2344 29.8854 30.2336 29.8854 30.2329 29.8854C30.2321 29.8854 30.2313 29.8854 30.2306 29.8854C30.2298 29.8854 30.229 29.8854 30.2283 29.8854C30.2275 29.8854 30.2268 29.8854 30.226 29.8854C30.2252 29.8854 30.2245 29.8854 30.2237 29.8854C30.223 29.8854 30.2222 29.8854 30.2214 29.8854C30.2207 29.8854 30.2199 29.8854 30.2192 29.8854C30.2184 29.8854 30.2176 29.8854 30.2169 29.8854C30.2161 29.8854 30.2154 29.8854 30.2146 29.8854C30.2139 29.8854 30.2131 29.8854 30.2124 29.8854C30.2116 29.8854 30.2109 29.8854 30.2101 29.8854C30.2093 29.8854 30.2086 29.8854 30.2078 29.8854C30.2071 29.8854 30.2063 29.8854 30.2056 29.8854C30.2048 29.8854 30.2041 29.8854 30.2033 29.8854C30.2026 29.8854 30.2019 29.8854 30.2011 29.8854C30.2004 29.8854 30.1996 29.8854 30.1989 29.8854C30.1981 29.8854 30.1974 29.8854 30.1966 29.8854C30.1959 29.8854 30.1951 29.8854 30.1944 29.8854C30.1937 29.8854 30.1929 29.8854 30.1922 29.8854C30.1914 29.8854 30.1907 29.8854 30.19 29.8854C30.1892 29.8854 30.1885 29.8854 30.1877 29.8854C30.187 29.8854 30.1863 29.8854 30.1855 29.8854C30.1848 29.8854 30.184 29.8854 30.1833 29.8854C30.1826 29.8854 30.1818 29.8854 30.1811 29.8854C30.1804 29.8854 30.1796 29.8854 30.1789 29.8854C30.1782 29.8854 30.1774 29.8854 30.1767 29.8854C30.176 29.8854 30.1752 29.8854 30.1745 29.8854C30.1738 29.8854 30.173 29.8854 30.1723 29.8854C30.1716 29.8854 30.1709 29.8854 30.1701 29.8854C30.1694 29.8854 30.1687 29.8854 30.168 29.8854C30.1672 29.8854 30.1665 29.8854 30.1658 29.8854C30.165 29.8854 30.1643 29.8854 30.1636 29.8854C30.1629 29.8854 30.1622 29.8854 30.1614 29.8854C30.1607 29.8854 30.16 29.8854 30.1593 29.8854C30.1585 29.8854 30.1578 29.8854 30.1571 29.8854C30.1564 29.8854 30.1557 29.8854 30.1549 29.8854C30.1542 29.8854 30.1535 29.8854 30.1528 29.8854C30.1521 29.8854 30.1514 29.8854 30.1506 29.8854C30.1499 29.8854 30.1492 29.8854 30.1485 29.8854C30.1478 29.8854 30.1471 29.8854 30.1464 29.8854C30.1456 29.8854 30.1449 29.8854 30.1442 29.8854C30.1435 29.8854 30.1428 29.8854 30.1421 29.8854C30.1414 29.8854 30.1407 29.8854 30.14 29.8854C30.1392 29.8854 30.1385 29.8854 30.1378 29.8854C30.1371 29.8854 30.1364 29.8854 30.1357 29.8854C30.135 29.8854 30.1343 29.8854 30.1336 29.8854C30.1329 29.8854 30.1322 29.8854 30.1315 29.8854C30.1308 29.8854 30.1301 29.8854 30.1294 29.8854C30.1287 29.8854 30.128 29.8854 30.1273 29.8854C30.1266 29.8854 30.1259 29.8854 30.1252 29.8854C30.1245 29.8854 30.1238 29.8854 30.1231 29.8854C30.1224 29.8854 30.1217 29.8854 30.121 29.8854C30.1203 29.8854 30.1196 29.8854 30.1189 29.8854C30.1182 29.8854 30.1175 29.8854 30.1168 29.8854C30.1161 29.8854 30.1154 29.8854 30.1147 29.8854C30.114 29.8854 30.1133 29.8854 30.1126 29.8854C30.112 29.8854 30.1113 29.8854 30.1106 29.8854C30.1099 29.8854 30.1092 29.8854 30.1085 29.8854C30.1078 29.8854 30.1071 29.8854 30.1064 29.8854C30.1058 29.8854 30.1051 29.8854 30.1044 29.8854C30.1037 29.8854 30.103 29.8854 30.1023 29.8854C30.1016 29.8854 30.101 29.8854 30.1003 29.8854C30.0996 29.8854 30.0989 29.8854 30.0982 29.8854C30.0975 29.8854 30.0969 29.8854 30.0962 29.8854C30.0955 29.8854 30.0948 29.8854 30.0941 29.8854C30.0935 29.8854 30.0928 29.8854 30.0921 29.8854C30.0914 29.8854 30.0907 29.8854 30.0901 29.8854C30.0894 29.8854 30.0887 29.8854 30.088 29.8854C30.0874 29.8854 30.0867 29.8854 30.086 29.8854C30.0853 29.8854 30.0847 29.8854 30.084 29.8854C30.0833 29.8854 30.0827 29.8854 30.082 29.8854C30.0813 29.8854 30.0806 29.8854 30.08 29.8854C30.0793 29.8854 30.0786 29.8854 30.078 29.8854C30.0773 29.8854 30.0766 29.8854 30.076 29.8854C30.0753 29.8854 30.0746 29.8854 30.074 29.8854C30.0733 29.8854 30.0726 29.8854 30.072 29.8854C30.0713 29.8854 30.0706 29.8854 30.07 29.8854C30.0693 29.8854 30.0686 29.8854 30.068 29.8854C30.0673 29.8854 30.0667 29.8854 30.066 29.8854C30.0653 29.8854 30.0647 29.8854 30.064 29.8854C30.0634 29.8854 30.0627 29.8854 30.062 29.8854C30.0614 29.8854 30.0607 29.8854 30.0601 29.8854C30.0594 29.8854 30.0588 29.8854 30.0581 29.8854C30.0575 29.8854 30.0568 29.8854 30.0561 29.8854C30.0555 29.8854 30.0548 29.8854 30.0542 29.8854C30.0535 29.8854 30.0529 29.8854 30.0522 29.8854C30.0516 29.8854 30.0509 29.8854 30.0503 29.8854C30.0496 29.8854 30.049 29.8854 30.0483 29.8854C30.0477 29.8854 30.047 29.8854 30.0464 29.8854C30.0457 29.8854 30.0451 29.8854 30.0445 29.8854C30.0438 29.8854 30.0432 29.8854 30.0425 29.8854C30.0419 29.8854 30.0412 29.8854 30.0406 29.8854C30.0399 29.8854 30.0393 29.8854 30.0387 29.8854C30.038 29.8854 30.0374 29.8854 30.0367 29.8854C30.0361 29.8854 30.0355 29.8854 30.0348 29.8854C30.0342 29.8854 30.0335 29.8854 30.0329 29.8854C30.0323 29.8854 30.0316 29.8854 30.031 29.8854C30.0304 29.8854 30.0297 29.8854 30.0291 29.8854C30.0285 29.8854 30.0278 29.8854 30.0272 29.8854C30.0266 29.8854 30.0259 29.8854 30.0253 29.8854C30.0247 29.8854 30.024 29.8854 30.0234 29.8854C30.0228 29.8854 30.0221 29.8854 30.0215 29.8854C30.0209 29.8854 30.0202 29.8854 30.0196 29.8854C30.019 29.8854 30.0184 29.8854 30.0177 29.8854C30.0171 29.8854 30.0165 29.8854 30.0159 29.8854C30.0152 29.8854 30.0146 29.8854 30.014 29.8854C30.0134 29.8854 30.0127 29.8854 30.0121 29.8854C30.0115 29.8854 30.0109 29.8854 30.0103 29.8854C30.0096 29.8854 30.009 29.8854 30.0084 29.8854C30.0078 29.8854 30.0072 29.8854 30.0065 29.8854C30.0059 29.8854 30.0053 29.8854 30.0047 29.8854C30.0041 29.8854 30.0034 29.8854 30.0028 29.8854C30.0022 29.8854 30.0016 29.8854 30.001 29.8854C30.0004 29.8854 29.9998 29.8854 29.9991 29.8854C29.9985 29.8854 29.9979 29.8854 29.9973 29.8854C29.9967 29.8854 29.9961 29.8854 29.9955 29.8854C29.9949 29.8854 29.9943 29.8854 29.9936 29.8854C29.993 29.8854 29.9924 29.8854 29.9918 29.8854C29.9912 29.8854 29.9906 29.8854 29.99 29.8854C29.9894 29.8854 29.9888 29.8854 29.9882 29.8854C29.9876 29.8854 29.987 29.8854 29.9864 29.8854C29.9858 29.8854 29.9852 29.8854 29.9846 29.8854C29.984 29.8854 29.9834 29.8854 29.9828 29.8854C29.9822 29.8854 29.9816 29.8854 29.981 29.8854C29.9804 29.8854 29.9798 29.8854 29.9792 29.8854C29.9786 29.8854 29.978 29.8854 29.9774 29.8854C29.9768 29.8854 29.9762 29.8854 29.9756 29.8854C29.975 29.8854 29.9744 29.8854 29.9738 29.8854C29.9732 29.8854 29.9726 29.8854 29.972 29.8854C29.9714 29.8854 29.9708 29.8854 29.9702 29.8854C29.9696 29.8854 29.969 29.8854 29.9685 29.8854C29.9679 29.8854 29.9673 29.8854 29.9667 29.8854C29.9661 29.8854 29.9655 29.8854 29.9649 29.8854C29.9643 29.8854 29.9638 29.8854 29.9632 29.8854C29.9626 29.8854 29.962 29.8854 29.9614 29.8854C29.9608 29.8854 29.9602 29.8854 29.9597 29.8854C29.9591 29.8854 29.9585 29.8854 29.9579 29.8854C29.9573 29.8854 29.9567 29.8854 29.9562 29.8854C29.9556 29.8854 29.955 29.8854 29.9544 29.8854C29.9538 29.8854 29.9533 29.8854 29.9527 29.8854C29.9521 29.8854 29.9515 29.8854 29.951 29.8854C29.9504 29.8854 29.9498 29.8854 29.9492 29.8854C29.9487 29.8854 29.9481 29.8854 29.9475 29.8854C29.9469 29.8854 29.9464 29.8854 29.9458 29.8854C29.9452 29.8854 29.9446 29.8854 29.9441 29.8854C29.9435 29.8854 29.9429 29.8854 29.9424 29.8854C29.9418 29.8854 29.9412 29.8854 29.9406 29.8854C29.9401 29.8854 29.9395 29.8854 29.9389 29.8854C29.9384 29.8854 29.9378 29.8854 29.9372 29.8854C29.9367 29.8854 29.9361 29.8854 29.9356 29.8854C29.935 29.8854 29.9344 29.8854 29.9339 29.8854C29.9333 29.8854 29.9327 29.8854 29.9322 29.8854C29.9316 29.8854 29.931 29.8854 29.9305 29.8854C29.9299 29.8854 29.9294 29.8854 29.9288 29.8854C29.9283 29.8854 29.9277 29.8854 29.9271 29.8854C29.9266 29.8854 29.926 29.8854 29.9255 29.8854C29.9249 29.8854 29.9244 29.8854 29.9238 29.8854C29.9232 29.8854 29.9227 29.8854 29.9221 29.8854C29.9216 29.8854 29.921 29.8854 29.9205 29.8854C29.9199 29.8854 29.9194 29.8854 29.9188 29.8854C29.9183 29.8854 29.9177 29.8854 29.9172 29.8854C29.9166 29.8854 29.9161 29.8854 29.9155 29.8854C29.915 29.8854 29.9144 29.8854 29.9139 29.8854C29.9133 29.8854 29.9128 29.8854 29.9122 29.8854C29.9117 29.8854 29.9111 29.8854 29.9106 29.8854C29.9101 29.8854 29.9095 29.8854 29.909 29.8854C29.9084 29.8854 29.9079 29.8854 29.9073 29.8854C29.9068 29.8854 29.9063 29.8854 29.9057 29.8854C29.9052 29.8854 29.9046 29.8854 29.9041 29.8854C29.9036 29.8854 29.903 29.8854 29.9025 29.8854C29.902 29.8854 29.9014 29.8854 29.9009 29.8854C29.9003 29.8854 29.8998 29.8854 29.8993 29.8854C29.8987 29.8854 29.8982 29.8854 29.8977 29.8854C29.8971 29.8854 29.8966 29.8854 29.8961 29.8854C29.8955 29.8854 29.895 29.8854 29.8945 29.8854C29.8939 29.8854 29.8934 29.8854 29.8929 29.8854C29.8924 29.8854 29.8918 29.8854 29.8913 29.8854C29.8908 29.8854 29.8902 29.8854 29.8897 29.8854C29.8892 29.8854 29.8887 29.8854 29.8881 29.8854C29.8876 29.8854 29.8871 29.8854 29.8866 29.8854C29.886 29.8854 29.8855 29.8854 29.885 29.8854C29.8845 29.8854 29.884 29.8854 29.8834 29.8854C29.8829 29.8854 29.8824 29.8854 29.8819 29.8854C29.8814 29.8854 29.8808 29.8854 29.8803 29.8854C29.8798 29.8854 29.8793 29.8854 29.8788 29.8854C29.8782 29.8854 29.8777 29.8854 29.8772 29.8854C29.8767 29.8854 29.8762 29.8854 29.8757 29.8854C29.8752 29.8854 29.8746 29.8854 29.8741 29.8854C29.8736 29.8854 29.8731 29.8854 29.8726 29.8854C29.8721 29.8854 29.8716 29.8854 29.8711 29.8854C29.8705 29.8854 29.87 29.8854 29.8695 29.8854C29.869 29.8854 29.8685 29.8854 29.868 29.8854C29.8675 29.8854 29.867 29.8854 29.8665 29.8854C29.866 29.8854 29.8655 29.8854 29.865 29.8854C29.8645 29.8854 29.864 29.8854 29.8634 29.8854C29.8629 29.8854 29.8624 29.8854 29.8619 29.8854C29.8614 29.8854 29.8609 29.8854 29.8604 29.8854C29.8599 29.8854 29.8594 29.8854 29.8589 29.8854C29.8584 29.8854 29.8579 29.8854 29.8574 29.8854C29.8569 29.8854 29.8564 29.8854 29.8559 29.8854C29.8554 29.8854 29.8549 29.8854 29.8545 29.8854C29.854 29.8854 29.8535 29.8854 29.853 29.8854C29.8525 29.8854 29.852 29.8854 29.8515 29.8854C29.851 29.8854 29.8505 29.8854 29.85 29.8854C29.8495 29.8854 29.849 29.8854 29.8485 29.8854C29.848 29.8854 29.8476 29.8854 29.8471 29.8854C29.8466 29.8854 29.8461 29.8854 29.8456 29.8854C29.8451 29.8854 29.8446 29.8854 29.8441 29.8854C29.8437 29.8854 29.8432 29.8854 29.8427 29.8854C29.8422 29.8854 29.8417 29.8854 29.8412 29.8854C29.8408 29.8854 29.8403 29.8854 29.8398 29.8854C29.8393 29.8854 29.8388 29.8854 29.8383 29.8854C29.8379 29.8854 29.8374 29.8854 29.8369 29.8854C29.8364 29.8854 29.8359 29.8854 29.8355 29.8854C29.835 29.8854 29.8345 29.8854 29.834 29.8854C29.8336 29.8854 29.8331 29.8854 29.8326 29.8854C29.8321 29.8854 29.8317 29.8854 29.8312 29.8854C29.8307 29.8854 29.8302 29.8854 29.8298 29.8854C29.8293 29.8854 29.8288 29.8854 29.8283 29.8854C29.8279 29.8854 29.8274 29.8854 29.8269 29.8854C29.8265 29.8854 29.826 29.8854 29.8255 29.8854C29.8251 29.8854 29.8246 29.8854 29.8241 29.8854C29.8237 29.8854 29.8232 29.8854 29.8227 29.8854C29.8223 29.8854 29.8218 29.8854 29.8213 29.8854C29.8209 29.8854 29.8204 29.8854 29.8199 29.8854C29.8195 29.8854 29.819 29.8854 29.8186 29.8854C29.8181 29.8854 29.8176 29.8854 29.8172 29.8854C29.8167 29.8854 29.8162 29.8854 29.8158 29.8854C29.8153 29.8854 29.8149 29.8854 29.8144 29.8854C29.814 29.8854 29.8135 29.8854 29.813 29.8854C29.8126 29.8854 29.8121 29.8854 29.8117 29.8854C29.8112 29.8854 29.8108 29.8854 29.8103 29.8854C29.8099 29.8854 29.8094 29.8854 29.809 29.8854C29.8085 29.8854 29.808 29.8854 29.8076 29.8854C29.8071 29.8854 29.8067 29.8854 29.8062 29.8854C29.8058 29.8854 29.8053 29.8854 29.8049 29.8854C29.8045 29.8854 29.804 29.8854 29.8036 29.8854C29.8031 29.8854 29.8027 29.8854 29.8022 29.8854C29.8018 29.8854 29.8013 29.8854 29.8009 29.8854C29.8004 29.8854 29.8 29.8854 29.7996 29.8854C29.7991 29.8854 29.7987 29.8854 29.7982 29.8854C29.7978 29.8854 29.7973 29.8854 29.7969 29.8854C29.7965 29.8854 29.796 29.8854 29.7956 29.8854C29.7951 29.8854 29.7947 29.8854 29.7943 29.8854C29.7938 29.8854 29.7934 29.8854 29.793 29.8854C29.7925 29.8854 29.7921 29.8854 29.7917 29.8854C29.7912 29.8854 29.7908 29.8854 29.7904 29.8854C29.7899 29.8854 29.7895 29.8854 29.7891 29.8854C29.7886 29.8854 29.7882 29.8854 29.7878 29.8854C29.7873 29.8854 29.7869 29.8854 29.7865 29.8854C29.786 29.8854 29.7856 29.8854 29.7852 29.8854C29.7848 29.8854 29.7843 29.8854 29.7839 29.8854C29.7835 29.8854 29.783 29.8854 29.7826 29.8854C29.7822 29.8854 29.7818 29.8854 29.7813 29.8854C29.7809 29.8854 29.7805 29.8854 29.7801 29.8854C29.7797 29.8854 29.7792 29.8854 29.7788 29.8854C29.7784 29.8854 29.778 29.8854 29.7775 29.8854C29.7771 29.8854 29.7767 29.8854 29.7763 29.8854C29.7759 29.8854 29.7755 29.8854 29.775 29.8854C29.7746 29.8854 29.7742 29.8854 29.7738 29.8854C29.7734 29.8854 29.773 29.8854 29.7725 29.8854C29.7721 29.8854 29.7717 29.8854 29.7713 29.8854C29.7709 29.8854 29.7705 29.8854 29.7701 29.8854C29.7697 29.8854 29.7692 29.8854 29.7688 29.8854C29.7684 29.8854 29.768 29.8854 29.7676 29.8854C29.7672 29.8854 29.7668 29.8854 29.7664 29.8854C29.766 29.8854 29.7656 29.8854 29.7652 29.8854C29.7647 29.8854 29.7643 29.8854 29.7639 29.8854C29.7635 29.8854 29.7631 29.8854 29.7627 29.8854C29.7623 29.8854 29.7619 29.8854 29.7615 29.8854C29.7611 29.8854 29.7607 29.8854 29.7603 29.8854C29.7599 29.8854 29.7595 29.8854 29.7591 29.8854C29.7587 29.8854 29.7583 29.8854 29.7579 29.8854C29.7575 29.8854 29.7571 29.8854 29.7567 29.8854C29.7563 29.8854 29.7559 29.8854 29.7555 29.8854C29.7551 29.8854 29.7547 29.8854 29.7543 29.8854C29.754 29.8854 29.7536 29.8854 29.7532 29.8854C29.7528 29.8854 29.7524 29.8854 29.752 29.8854C29.7516 29.8854 29.7512 29.8854 29.7508 29.8854C29.7504 29.8854 29.75 29.8854 29.7496 29.8854C29.7493 29.8854 29.7489 29.8854 29.7485 29.8854C29.7481 29.8854 29.7477 29.8854 29.7473 29.8854C29.7469 29.8854 29.7465 29.8854 29.7462 29.8854C29.7458 29.8854 29.7454 29.8854 29.745 29.8854C29.7446 29.8854 29.7442 29.8854 29.7439 29.8854C29.7435 29.8854 29.7431 29.8854 29.7427 29.8854C29.7423 29.8854 29.742 29.8854 29.7416 29.8854C29.7412 29.8854 29.7408 29.8854 29.7404 29.8854C29.7401 29.8854 29.7397 29.8854 29.7393 29.8854C29.7389 29.8854 29.7386 29.8854 29.7382 29.8854C29.7378 29.8854 29.7374 29.8854 29.7371 29.8854C29.7367 29.8854 29.7363 29.8854 29.7359 29.8854C29.7356 29.8854 29.7352 29.8854 29.7348 29.8854C29.7345 29.8854 29.7341 29.8854 29.7337 29.8854C29.7333 29.8854 29.733 29.8854 29.7326 29.8854C29.7322 29.8854 29.7319 29.8854 29.7315 29.8854C29.7311 29.8854 29.7308 29.8854 29.7304 29.8854C29.73 29.8854 29.7297 29.8854 29.7293 29.8854C29.7289 29.8854 29.7286 29.8854 29.7282 29.8854C29.7278 29.8854 29.7275 29.8854 29.7271 29.8854C29.7268 29.8854 29.7264 29.8854 29.726 29.8854C29.7257 29.8854 29.7253 29.8854 29.725 29.8854C29.7246 29.8854 29.7242 29.8854 29.7239 29.8854C29.7235 29.8854 29.7232 29.8854 29.7228 29.8854C29.7225 29.8854 29.7221 29.8854 29.7217 29.8854C29.7214 29.8854 29.721 29.8854 29.7207 29.8854C29.7203 29.8854 29.72 29.8854 29.7196 29.8854C29.7193 29.8854 29.7189 29.8854 29.7186 29.8854C29.7182 29.8854 29.7179 29.8854 29.7175 29.8854C29.7172 29.8854 29.7168 29.8854 29.7165 29.8854C29.7161 29.8854 29.7158 29.8854 29.7154 29.8854C29.7151 29.8854 29.7147 29.8854 29.7144 29.8854C29.714 29.8854 29.7137 29.8854 29.7134 29.8854C29.713 29.8854 29.7127 29.8854 29.7123 29.8854C29.712 29.8854 29.7116 29.8854 29.7113 29.8854C29.711 29.8854 29.7106 29.8854 29.7103 29.8854C29.7099 29.8854 29.7096 29.8854 29.7093 29.8854C29.7089 29.8854 29.7086 29.8854 29.7082 29.8854C29.7079 29.8854 29.7076 29.8854 29.7072 29.8854C29.7069 29.8854 29.7066 29.8854 29.7062 29.8854C29.7059 29.8854 29.7056 29.8854 29.7052 29.8854C29.7049 29.8854 29.7046 29.8854 29.7042 29.8854C29.7039 29.8854 29.7036 29.8854 29.7032 29.8854C29.7029 29.8854 29.7026 29.8854 29.7022 29.8854C29.7019 29.8854 29.7016 29.8854 29.7013 29.8854C29.7009 29.8854 29.7006 29.8854 29.7003 29.8854C29.6999 29.8854 29.6996 29.8854 29.6993 29.8854C29.699 29.8854 29.6986 29.8854 29.6983 29.8854C29.698 29.8854 29.6977 29.8854 29.6973 29.8854C29.697 29.8854 29.6967 29.8854 29.6964 29.8854C29.6961 29.8854 29.6957 29.8854 29.6954 29.8854C29.6951 29.8854 29.6948 29.8854 29.6945 29.8854C29.6941 29.8854 29.6938 29.8854 29.6935 29.8854C29.6932 29.8854 29.6929 29.8854 29.6926 29.8854C29.6922 29.8854 29.6919 29.8854 29.6916 29.8854C29.6913 29.8854 29.691 29.8854 29.6907 29.8854C29.6904 29.8854 29.69 29.8854 29.6897 29.8854C29.6894 29.8854 29.6891 29.8854 29.6888 29.8854C29.6885 29.8854 29.6882 29.8854 29.6879 29.8854C29.6876 29.8854 29.6873 29.8854 29.6869 29.8854C29.6866 29.8854 29.6863 29.8854 29.686 29.8854C29.6857 29.8854 29.6854 29.8854 29.6851 29.8854C29.6848 29.8854 29.6845 29.8854 29.6842 29.8854C29.6839 29.8854 29.6836 29.8854 29.6833 29.8854C29.683 29.8854 29.6827 29.8854 29.6824 29.8854C29.6821 29.8854 29.6818 29.8854 29.6815 29.8854C29.6812 29.8854 29.6809 29.8854 29.6806 29.8854C29.6803 29.8854 29.68 29.8854 29.6797 29.8854C29.6794 29.8854 29.6791 29.8854 29.6788 29.8854C29.6785 29.8854 29.6782 29.8854 29.6779 29.8854C29.6776 29.8854 29.6773 29.8854 29.677 29.8854C29.6767 29.8854 29.6764 29.8854 29.6762 29.8854C29.6759 29.8854 29.6756 29.8854 29.6753 29.8854C29.675 29.8854 29.6747 29.8854 29.6744 29.8854C29.6741 29.8854 29.6738 29.8854 29.6736 29.8854C29.6733 29.8854 29.673 29.8854 29.6727 29.8854C29.6724 29.8854 29.6721 29.8854 29.6718 29.8854V32.5521ZM30.6406 32.5521C31.2154 32.5521 31.9924 32.4934 32.9441 32.3877L32.6496 29.7373C31.7263 29.8399 31.0658 29.8854 30.6406 29.8854V32.5521ZM32.9731 32.3841C33.8993 32.2606 34.9207 32.1368 36.0378 32.0127L35.7433 29.3623C34.6105 29.4882 33.5694 29.6144 32.6206 29.7409L32.9731 32.3841ZM37.2239 30.6875V23.9375H34.5573V30.6875H37.2239Z" fill="#FF7C02" mask="url(#path-3-outside-2_2017_75)"/>
</svg>
