<?xml version="1.0" encoding="utf-8"?>
<svg xmlns="http://www.w3.org/2000/svg" width="36" height="36" viewBox="0 0 36 36" fill="none">
  <path d="M18.0001 36C21.5601 36 25.0402 34.9443 28.0003 32.9664C30.9604 30.9886 33.2675 28.1774 34.6299 24.8883C35.9923 21.5992 36.3487 17.98 35.6542 14.4884C34.9597 10.9967 33.2453 7.78942 30.728 5.27207C28.2106 2.75473 25.0033 1.0404 21.5117 0.345862C18.02 -0.348672 14.4008 0.0077876 11.1118 1.37016C7.82268 2.73254 5.01147 5.03965 3.0336 7.99973C1.05574 10.9598 5.44957e-05 14.4399 5.44957e-05 18C-0.00577304 20.3654 0.455833 22.7087 1.35835 24.8952C2.26087 27.0817 3.58652 29.0683 5.25914 30.7409C6.93175 32.4135 8.91837 33.7392 11.1049 34.6417C13.2914 35.5442 15.6346 36.0058 18.0001 36Z" fill="#2775CA"/>
  <path d="M22.95 20.8505C22.95 18.2324 21.3759 17.3242 18.2259 16.9495C15.9742 16.65 15.5259 16.0495 15.5259 15.0005C15.5259 13.9516 16.2753 13.2742 17.7742 13.2742C19.1259 13.2742 19.8753 13.7242 20.25 14.85C20.2903 14.9585 20.3629 15.052 20.458 15.1178C20.5531 15.1837 20.6662 15.2187 20.7819 15.2182H21.9813C22.0508 15.22 22.1199 15.2076 22.1844 15.1819C22.249 15.1561 22.3076 15.1175 22.3567 15.0683C22.4059 15.0192 22.4445 14.9606 22.4703 14.896C22.496 14.8315 22.5084 14.7624 22.5066 14.6929V14.6193C22.3617 13.8064 21.9523 13.0641 21.3422 12.5078C20.732 11.9515 19.9552 11.6123 19.1324 11.5429V9.74291C19.1324 9.44346 18.9066 9.21927 18.5319 9.144H17.406C17.1066 9.144 16.8824 9.36818 16.8071 9.74291V11.4742C14.5506 11.7818 13.1253 13.2742 13.1253 15.1495C13.1253 17.6253 14.6259 18.6005 17.7759 18.9753C19.8753 19.35 20.5577 19.7935 20.5577 20.9995C20.5577 22.2055 19.5088 23.0253 18.0835 23.0253C16.133 23.0253 15.4653 22.2071 15.233 21.0747C15.2115 20.9482 15.1464 20.8333 15.0489 20.7498C14.9514 20.6664 14.8278 20.6198 14.6995 20.6182H13.4182C13.3488 20.6166 13.2798 20.6291 13.2154 20.655C13.1509 20.6808 13.0924 20.7195 13.0433 20.7685C12.9942 20.8176 12.9556 20.8762 12.9297 20.9406C12.9039 21.005 12.8914 21.074 12.893 21.1435V21.2187C13.194 23.094 14.3935 24.444 16.8693 24.8187V26.6187C16.8693 26.9182 17.0935 27.144 17.4682 27.2193H18.594C18.8935 27.2193 19.1193 26.9935 19.193 26.6187V24.8187C21.443 24.444 22.9435 22.8682 22.9435 20.844L22.95 20.8505Z" fill="white"/>
  <path d="M14.1742 28.7247C12.0162 27.9332 10.1532 26.4982 8.83716 24.6136C7.52108 22.7291 6.81535 20.4859 6.81535 18.1874C6.81535 15.8888 7.52108 13.6456 8.83716 11.7611C10.1532 9.87655 12.0162 8.44153 14.1742 7.65C14.3182 7.58772 14.4391 7.48201 14.5201 7.34764C14.6011 7.21327 14.638 7.05695 14.6258 6.90054V5.85C14.6359 5.7122 14.5957 5.57541 14.5127 5.46498C14.4296 5.35456 14.3094 5.27798 14.1742 5.24945C14.0686 5.23844 13.9625 5.2651 13.8747 5.32473C11.1443 6.19257 8.76089 7.90677 7.06945 10.2192C5.37801 12.5316 4.46631 15.3223 4.46631 18.1874C4.46631 21.0524 5.37801 23.8431 7.06945 26.1555C8.76089 28.468 11.1443 30.1822 13.8747 31.05C13.9371 31.0862 14.0071 31.1072 14.0792 31.1111C14.1512 31.115 14.2231 31.1019 14.289 31.0726C14.3549 31.0434 14.413 30.999 14.4585 30.943C14.5039 30.887 14.5355 30.8211 14.5505 30.7505C14.6258 30.6753 14.6258 30.6 14.6258 30.4495V29.4005C14.6258 29.1747 14.4 28.8753 14.1742 28.7247ZM22.1253 5.32473C22.0628 5.2885 21.9926 5.26761 21.9205 5.26377C21.8484 5.25993 21.7764 5.27325 21.7105 5.30264C21.6445 5.33203 21.5864 5.37664 21.5411 5.43282C21.4957 5.489 21.4643 5.55515 21.4495 5.62582C21.3758 5.69945 21.3758 5.77473 21.3758 5.92527V6.97418C21.3885 7.12544 21.4356 7.27178 21.5136 7.40199C21.5916 7.53219 21.6984 7.64278 21.8258 7.72527C23.9838 8.5168 25.8468 9.95182 27.1629 11.8363C28.4789 13.7209 29.1847 15.964 29.1847 18.2626C29.1847 20.5612 28.4789 22.8044 27.1629 24.6889C25.8468 26.5735 23.9838 28.0085 21.8258 28.8C21.682 28.8623 21.5613 28.9681 21.4806 29.1025C21.3999 29.2369 21.3632 29.3932 21.3758 29.5495V30.6C21.3657 30.7376 21.4056 30.8742 21.4883 30.9846C21.5711 31.095 21.6909 31.1717 21.8258 31.2005C21.9314 31.2116 22.0375 31.1849 22.1253 31.1253C24.8546 30.2454 27.2346 28.5226 28.9229 26.2045C30.6111 23.8865 31.5207 21.0927 31.5207 18.225C31.5207 15.3573 30.6111 12.5635 28.9229 10.2455C27.2346 7.92743 24.8546 6.20458 22.1253 5.32473Z" fill="white"/>
</svg>