<svg width="198" height="35" viewBox="0 0 198 35" fill="none" xmlns="http://www.w3.org/2000/svg">
<path d="M58.1323 12.8599H52.2702V27.796H48.0411V12.8599H42.2059V8.81816H58.1323V12.8599Z" fill="#514C43"/>
<path d="M59.6335 19.5517H64.9601C64.9244 18.945 64.6835 18.4186 64.2374 17.9725C63.8091 17.5263 63.1578 17.3032 62.2834 17.3032C61.4982 17.3032 60.8737 17.5353 60.4097 17.9992C59.9457 18.4632 59.687 18.9807 59.6335 19.5517ZM65.2545 23.0046L68.6539 23.9683C68.3149 25.1995 67.61 26.2167 66.5393 27.0197C65.4686 27.8048 64.1303 28.1974 62.5243 28.1974C60.5971 28.1974 58.9554 27.555 57.5992 26.2702C56.2609 24.9854 55.5916 23.2634 55.5916 21.1041C55.5916 19.0342 56.243 17.3479 57.5457 16.0452C58.8661 14.7426 60.4276 14.0913 62.2299 14.0913C64.2998 14.0913 65.9237 14.698 67.1014 15.9114C68.297 17.107 68.8948 18.7754 68.8948 20.9168C68.8948 21.5949 68.8681 22.0142 68.8145 22.1749H59.5531C59.5888 22.9065 59.9012 23.5222 60.49 24.0218C61.0789 24.5036 61.7748 24.7445 62.5778 24.7445C63.9519 24.7445 64.8441 24.1646 65.2545 23.0046Z" fill="#514C43"/>
<path d="M76.2984 17.8386C75.4241 17.8386 74.6924 18.133 74.1035 18.722C73.5325 19.3108 73.247 20.1227 73.247 21.1577C73.247 22.1749 73.5415 22.9779 74.1303 23.5667C74.737 24.1556 75.4776 24.45 76.3519 24.45C77.0835 24.45 77.6814 24.2627 78.1454 23.888C78.6271 23.4954 78.9484 23.0225 79.1089 22.4693L82.6958 23.5667C82.3745 24.8337 81.6518 25.9222 80.5276 26.8323C79.4213 27.7424 78.0293 28.1974 76.3519 28.1974C74.3534 28.1974 72.6581 27.5371 71.2663 26.2167C69.8922 24.8783 69.2051 23.192 69.2051 21.1577C69.2051 19.1055 69.8744 17.4193 71.2127 16.0988C72.5689 14.7604 74.2374 14.0913 76.2181 14.0913C77.9491 14.0913 79.3677 14.5374 80.4741 15.4296C81.5804 16.3218 82.2942 17.4193 82.6154 18.722L78.9752 19.8194C78.8145 19.2483 78.5112 18.7754 78.0651 18.4007C77.619 18.0259 77.03 17.8386 76.2984 17.8386Z" fill="#514C43"/>
<path d="M87.9031 19.98V27.796H83.8345V8.41667H87.9031V15.3493C88.7061 14.5463 89.8392 14.1448 91.3025 14.1448C92.9621 14.1448 94.2112 14.6445 95.0496 15.6438C95.9066 16.6252 96.3351 17.8922 96.3351 19.4447V27.796H92.2661V20.1406C92.2661 19.4447 92.0787 18.8915 91.704 18.481C91.3471 18.0527 90.8117 17.8387 90.098 17.8387C89.4734 17.8387 88.9559 18.0438 88.5455 18.4543C88.153 18.8468 87.9388 19.3554 87.9031 19.98Z" fill="#514C43"/>
<path d="M104.519 24.45C105.357 24.45 106.061 24.1646 106.633 23.5935C107.221 23.0225 107.516 22.2016 107.516 21.1309C107.516 20.0603 107.221 19.2483 106.633 18.6952C106.061 18.1241 105.357 17.8386 104.519 17.8386C103.697 17.8386 102.993 18.1241 102.403 18.6952C101.815 19.2662 101.52 20.0781 101.52 21.1309C101.52 22.1838 101.815 23.0046 102.403 23.5935C102.993 24.1646 103.697 24.45 104.519 24.45ZM104.519 14.0913C106.534 14.0913 108.211 14.7515 109.55 16.072C110.906 17.3925 111.585 19.0788 111.585 21.1309C111.585 23.183 110.906 24.8783 109.55 26.2167C108.211 27.5371 106.534 28.1974 104.519 28.1974C102.52 28.1974 100.842 27.5283 99.4861 26.1899C98.1296 24.8515 97.4514 23.1653 97.4514 21.1309C97.4514 19.0967 98.1296 17.4193 99.4861 16.0988C100.842 14.7604 102.52 14.0913 104.519 14.0913Z" fill="#514C43"/>
<path d="M116.934 32.8817H112.866V14.4927H116.8V15.8578C117.103 15.394 117.603 15.0013 118.299 14.6801C119.012 14.3411 119.815 14.1716 120.707 14.1716C122.599 14.1716 124.099 14.8229 125.204 16.1255C126.329 17.4103 126.891 19.0699 126.891 21.1042C126.891 23.1385 126.293 24.8159 125.098 26.1364C123.92 27.4391 122.404 28.0903 120.548 28.0903C118.869 28.0903 117.665 27.6442 116.934 26.752V32.8817ZM122.019 23.5935C122.609 23.0047 122.903 22.1838 122.903 21.1309C122.903 20.0781 122.609 19.2662 122.019 18.6952C121.448 18.1241 120.735 17.8387 119.878 17.8387C119.04 17.8387 118.326 18.1241 117.737 18.6952C117.166 19.2662 116.88 20.0781 116.88 21.1309C116.88 22.1838 117.166 23.0047 117.737 23.5935C118.326 24.1646 119.04 24.4501 119.878 24.4501C120.735 24.4501 121.448 24.1646 122.019 23.5935Z" fill="#514C43"/>
<path d="M131.256 19.5517H136.582C136.547 18.945 136.306 18.4186 135.86 17.9725C135.432 17.5263 134.78 17.3032 133.906 17.3032C133.121 17.3032 132.496 17.5353 132.032 17.9992C131.568 18.4632 131.31 18.9807 131.256 19.5517ZM136.877 23.0046L140.276 23.9683C139.938 25.1995 139.233 26.2167 138.162 27.0197C137.091 27.8048 135.753 28.1974 134.146 28.1974C132.22 28.1974 130.577 27.555 129.222 26.2702C127.883 24.9854 127.214 23.2634 127.214 21.1041C127.214 19.0342 127.865 17.3479 129.168 16.0452C130.488 14.7426 132.05 14.0913 133.852 14.0913C135.922 14.0913 137.546 14.698 138.724 15.9114C139.92 17.107 140.517 18.7754 140.517 20.9168C140.517 21.5949 140.491 22.0142 140.437 22.1749H131.175C131.211 22.9065 131.523 23.5222 132.113 24.0218C132.701 24.5036 133.397 24.7445 134.2 24.7445C135.574 24.7445 136.467 24.1646 136.877 23.0046Z" fill="#514C43"/>
<path d="M154.881 8.41667V25.4137C154.881 26.2167 154.916 27.0107 154.988 27.796H151.079C151.008 27.3676 150.972 26.9394 150.972 26.5111C150.651 26.9751 150.169 27.3587 149.527 27.6621C148.902 27.9476 148.198 28.0903 147.412 28.0903C145.521 28.0903 143.95 27.4391 142.702 26.1364C141.452 24.8159 140.828 23.1385 140.828 21.1042C140.828 19.1056 141.434 17.455 142.648 16.1523C143.861 14.8318 145.405 14.1716 147.278 14.1716C149.099 14.1716 150.294 14.6266 150.865 15.5367V8.41667H154.881ZM145.78 18.6952C145.208 19.2662 144.923 20.0781 144.923 21.1309C144.923 22.1838 145.208 23.0047 145.78 23.5935C146.368 24.1646 147.082 24.4501 147.92 24.4501C148.759 24.4501 149.464 24.1646 150.036 23.5935C150.624 23.0047 150.919 22.1838 150.919 21.1309C150.919 20.0781 150.624 19.2662 150.036 18.6952C149.464 18.1241 148.759 17.8387 147.92 17.8387C147.082 17.8387 146.368 18.1241 145.78 18.6952Z" fill="#514C43"/>
<path d="M161.277 27.796H157.209V14.4927H161.277V27.796ZM157.557 12.1105C157.092 11.6466 156.861 11.0844 156.861 10.4241C156.861 9.76395 157.092 9.20182 157.557 8.73786C158.02 8.2739 158.574 8.04192 159.216 8.04192C159.876 8.04192 160.438 8.2739 160.903 8.73786C161.384 9.20182 161.625 9.76395 161.625 10.4241C161.625 11.0844 161.384 11.6466 160.903 12.1105C160.438 12.5745 159.876 12.8064 159.216 12.8064C158.574 12.8064 158.02 12.5745 157.557 12.1105Z" fill="#514C43"/>
<path d="M162.7 24.1288C162.7 23.0046 163.066 22.1034 163.797 21.4254C164.528 20.7295 165.474 20.2922 166.634 20.1138L169.766 19.632C170.408 19.5428 170.73 19.2394 170.73 18.722C170.73 18.3115 170.551 17.9725 170.195 17.7048C169.855 17.4193 169.383 17.2765 168.776 17.2765C168.097 17.2765 167.553 17.4728 167.143 17.8654C166.75 18.2401 166.537 18.6952 166.501 19.2305L162.968 18.5078C163.056 17.4014 163.601 16.3932 164.6 15.4831C165.617 14.5552 167.018 14.0913 168.802 14.0913C170.819 14.0913 172.3 14.573 173.246 15.5367C174.209 16.5002 174.692 17.7316 174.692 19.2305V25.7348C174.692 26.5735 174.745 27.2605 174.851 27.796H171.185C171.096 27.439 171.051 26.9394 171.051 26.297C170.283 27.5461 169.035 28.1706 167.304 28.1706C165.894 28.1706 164.77 27.7781 163.931 26.9929C163.11 26.1899 162.7 25.2352 162.7 24.1288ZM168.294 25.2263C168.99 25.2263 169.57 25.0211 170.034 24.6107C170.498 24.2002 170.73 23.5222 170.73 22.5763V21.9875L168.214 22.389C167.215 22.5495 166.714 23.0403 166.714 23.8612C166.714 24.2359 166.839 24.5571 167.089 24.8247C167.357 25.0924 167.759 25.2263 168.294 25.2263Z" fill="#514C43"/>
<path d="M22.9586 19.9251C22.9588 20.1561 23.0198 20.3831 23.1353 20.5831C23.2509 20.7831 23.417 20.9492 23.617 21.0647L27.761 23.4568C27.961 23.5721 28.1878 23.6328 28.4186 23.6327C28.6495 23.6326 28.8762 23.5717 29.076 23.4562C29.2759 23.3407 29.4419 23.1747 29.5572 22.9748C29.6726 22.7749 29.7333 22.548 29.7333 22.3172V9.70948C29.7333 9.47886 29.6727 9.25218 29.5574 9.05239C29.4421 8.85259 29.2761 8.68668 29.0764 8.57133L18.1577 2.27095C17.9578 2.15571 17.7312 2.09508 17.5004 2.09512C17.2698 2.09517 17.0432 2.1559 16.8433 2.27121C16.6435 2.38653 16.4775 2.55237 16.3621 2.75209C16.2466 2.95182 16.1857 3.17841 16.1855 3.40912V8.19473C16.1856 8.42557 16.2463 8.65234 16.3616 8.85233C16.4769 9.05231 16.6427 9.21851 16.8424 9.33431L22.3004 12.4824C22.5003 12.5975 22.6664 12.7634 22.7817 12.9632C22.8971 13.1631 22.9576 13.3899 22.9573 13.6206L22.9586 19.9251Z" fill="#514C43"/>
<path d="M14.8673 18.2932V24.5977C14.8672 24.8286 14.9279 25.0555 15.0432 25.2555C15.1585 25.4556 15.3244 25.6217 15.5243 25.7373L19.6683 28.1294C19.8682 28.2447 20.0951 28.3053 20.3259 28.3053C20.5567 28.3051 20.7834 28.2442 20.9833 28.1287C21.1832 28.0133 21.3491 27.8472 21.4645 27.6473C21.5798 27.4475 21.6406 27.2206 21.6406 26.9898V14.3821C21.6405 14.1511 21.5796 13.9241 21.464 13.7242C21.3485 13.5241 21.1823 13.358 20.9822 13.2425L10.065 6.93933C9.86515 6.82365 9.63841 6.76266 9.40756 6.7625C9.17669 6.76233 8.94985 6.823 8.74989 6.9384C8.54994 7.05379 8.3839 7.21983 8.26854 7.41981C8.15316 7.61979 8.09252 7.84664 8.09271 8.0775V12.8632C8.09237 13.0939 8.15294 13.3206 8.2683 13.5205C8.38365 13.7203 8.54969 13.8862 8.74966 14.0013L14.2104 17.1536C14.4101 17.2693 14.5761 17.4355 14.6914 17.6355C14.8067 17.8354 14.8673 18.0623 14.8673 18.2932Z" fill="#514C43"/>
<path d="M12.8909 17.9151L1.97228 11.6161C1.77231 11.5008 1.54551 11.4402 1.31469 11.4403C1.08386 11.4404 0.857138 11.5012 0.657277 11.6167C0.457417 11.7322 0.291467 11.8982 0.176094 12.0982C0.0607201 12.2981 -1.21037e-05 12.5248 3.08361e-08 12.7556V25.3648C-4.99412e-05 25.5955 0.0606383 25.8222 0.175961 26.0219C0.291284 26.2217 0.457176 26.3876 0.656959 26.503L7.4316 30.4085L11.5756 32.8006C11.7754 32.9163 12.0022 32.9773 12.233 32.9774C12.4639 32.9776 12.6907 32.9169 12.8907 32.8015C13.0907 32.6861 13.2567 32.5201 13.3721 32.3201C13.4874 32.1202 13.548 31.8932 13.5478 31.6624V19.0547C13.5477 18.8239 13.487 18.597 13.3717 18.397C13.2564 18.1971 13.0906 18.0309 12.8909 17.9151Z" fill="#514C43"/>
</svg>
